<svg xmlns="http://www.w3.org/2000/svg" width="39.58" height="44.997" viewBox="0 0 39.58 44.997">
  <g id="Group_1113" data-name="Group 1113" transform="translate(685.227 152.298)">
    <path id="Path_1443" data-name="Path 1443" d="M-677-10.97c-.454,0-.909,0-1.363,0a1.523,1.523,0,0,1-1.665-1.474c-.149-1.256-.272-2.515-.408-3.772q-.514-4.715-1.03-9.43c-.141-1.289-.275-2.58-.433-3.867a.643.643,0,0,0-.263-.446,3.461,3.461,0,0,1-1.951-2.835c-.358-2.733-.738-5.463-1.078-8.2a3.959,3.959,0,0,1,3.944-4.574,2.221,2.221,0,0,1,2.312,1.063,17.535,17.535,0,0,0,1.508,1.907c.34.414.6.409.937-.01.652-.808,1.317-1.607,1.939-2.438a1.025,1.025,0,0,1,.98-.462c2.282.135,4.566.238,6.847.374,2.266.135,4.53.3,6.8.445a1.6,1.6,0,0,1,1.652,1.565,1.642,1.642,0,0,1-1.639,1.651c-2.637.178-5.275.337-7.913.506-.874.056-1.747.139-2.621.167-.358.012-.481.148-.514.48-.162,1.63-.336,3.258-.509,4.887q-.513,4.837-1.03,9.674-.5,4.716-1.013,9.432c-.138,1.29-.263,2.581-.416,3.869a1.532,1.532,0,0,1-1.7,1.484Z" transform="translate(0 -96.332)" fill="#f5f5f5"/>
    <path id="Path_1444" data-name="Path 1444" d="M-506.792,52.878c-1.053,0-2.041,0-3.03,0a3.062,3.062,0,0,1-3.2-3.219q0-6.133,0-12.266a3.06,3.06,0,0,1,3.2-3.221q8.2,0,16.4,0a3.037,3.037,0,0,1,3.205,3.2q0,6.133,0,12.266a3.042,3.042,0,0,1-3.265,3.239c-2.6,0-5.192-.008-7.788.014a1.2,1.2,0,0,0-.752.311c-1.167,1.127-2.305,2.284-3.451,3.432-.255.256-.5.544-.918.376s-.406-.534-.4-.9C-506.789,55.058-506.792,54.006-506.792,52.878Zm7.89-12.829h2.677c.373,0,.747.016,1.119-.007.4-.024.691-.2.692-.652s-.278-.625-.681-.664c-.1-.009-.195,0-.292,0q-3.456,0-6.913,0c-.176,0-.4-.028-.517.066a1.063,1.063,0,0,0-.428.615c-.009.188.231.428.417.571a.94.94,0,0,0,.517.069C-501.174,40.052-500.038,40.049-498.9,40.049Zm.057,4.122c1.216,0,2.432,0,3.648,0,.53,0,.791-.219.787-.641s-.262-.634-.8-.635q-3.624,0-7.248,0c-.514,0-.812.23-.823.622-.012.415.286.653.833.654Q-500.645,44.174-498.846,44.171Zm0,4.172c1.233,0,2.466.007,3.7,0,.481,0,.741-.25.733-.656a.61.61,0,0,0-.694-.643c-2.482-.007-4.964-.011-7.445.01a.856.856,0,0,0-.6.311.647.647,0,0,0-.016.615,1.03,1.03,0,0,0,.679.351C-501.277,48.362-500.06,48.343-498.844,48.343Zm-8.52-8.852c-.126-.161-.17-.23-.227-.288-.35-.358-.734-.406-1.017-.132-.312.3-.286.691.08,1.065.181.185.373.361.559.541.426.414.755.424,1.17.016q.85-.835,1.685-1.686c.347-.352.382-.752.1-1.025s-.673-.246-1.025.11C-506.466,38.53-506.881,38.982-507.364,39.491Zm.047,4.089c-.152-.142-.209-.2-.268-.251-.353-.315-.718-.341-.987-.071a.677.677,0,0,0,.067.992c.2.212.405.419.619.617a.653.653,0,0,0,1.055-.009q.856-.826,1.7-1.667c.38-.381.425-.779.139-1.065s-.675-.262-1.063.126C-506.479,42.674-506.88,43.117-507.317,43.58Zm.085,4.219c-.247-.228-.306-.284-.366-.338-.36-.324-.713-.347-.983-.066a.683.683,0,0,0,.1.988c.179.188.356.377.539.562a.713.713,0,0,0,1.173,0c.543-.535,1.08-1.076,1.617-1.616.405-.407.461-.765.168-1.049s-.7-.262-1.059.128C-506.455,46.848-506.827,47.32-507.232,47.8Z" transform="translate(-155.432 -168.309)" fill="#f5f5f5"/>
    <path id="Path_1445" data-name="Path 1445" d="M-643.258-152.3a4.619,4.619,0,0,1,4.636,4.59,4.65,4.65,0,0,1-4.6,4.639,4.662,4.662,0,0,1-4.64-4.6A4.633,4.633,0,0,1-643.258-152.3Z" transform="translate(-33.726 0)" fill="#f5f5f5"/>
  </g>
</svg>
