<svg xmlns="http://www.w3.org/2000/svg" width="37.399" height="50.132" viewBox="0 0 37.399 50.132">
  <g id="Group_1170" data-name="Group 1170" transform="translate(-83.746 -101.516)">
    <path id="Path_1563" data-name="Path 1563" d="M119.517,112.84c-.088.6-.161,1.21-.268,1.81a3.1,3.1,0,0,0,.493,2.354c.34.507.688,1.009,1.011,1.527a2.239,2.239,0,0,1,0,2.531,12.062,12.062,0,0,1-.732,1.1,3.751,3.751,0,0,0-.709,3.291,9.1,9.1,0,0,1,.163,1.73,1.757,1.757,0,0,1-.8,1.479,11.4,11.4,0,0,1-1.481.92,3.561,3.561,0,0,0-1.928,2.412c-.115.453-.27.9-.424,1.339a2.185,2.185,0,0,1-1.987,1.556c-.579.057-1.159.111-1.739.157a3.085,3.085,0,0,0-2.1,1c-.454.489-.91.977-1.395,1.435a2.058,2.058,0,0,1-2.212.466c-.55-.188-1.1-.389-1.635-.609a3.346,3.346,0,0,0-2.65,0c-.524.217-1.058.412-1.594.6a2.124,2.124,0,0,1-2.32-.51c-.449-.434-.879-.889-1.3-1.35a3.149,3.149,0,0,0-2.172-1.035c-.679-.054-1.358-.119-2.03-.219a1.935,1.935,0,0,1-1.567-1.293,14.547,14.547,0,0,1-.52-1.575,3.545,3.545,0,0,0-1.881-2.35,12.686,12.686,0,0,1-1.453-.886,2.043,2.043,0,0,1-.883-2c.058-.578.134-1.157.237-1.729a3.184,3.184,0,0,0-.534-2.469c-.338-.491-.672-.986-.985-1.493a2.2,2.2,0,0,1,0-2.455,12.08,12.08,0,0,1,.776-1.171,3.65,3.65,0,0,0,.687-3.212,11.87,11.87,0,0,1-.176-1.264,2.141,2.141,0,0,1,1.013-2.151,13.37,13.37,0,0,1,1.355-.8,3.48,3.48,0,0,0,1.844-2.327c.121-.452.27-.9.42-1.34a2.234,2.234,0,0,1,2.085-1.612c.58-.051,1.159-.108,1.74-.152a2.958,2.958,0,0,0,1.985-.956c.361-.382.723-.763,1.076-1.153a2.391,2.391,0,0,1,2.89-.681c.448.179.9.34,1.35.525a3.252,3.252,0,0,0,2.566,0c.579-.234,1.164-.453,1.758-.644a2.05,2.05,0,0,1,2.134.481,9.959,9.959,0,0,1,1.035,1.071,3.767,3.767,0,0,0,3.051,1.429,11.008,11.008,0,0,1,1.439.148,1.987,1.987,0,0,1,1.624,1.346c.242.636.439,1.289.647,1.937a3.044,3.044,0,0,0,1.447,1.769c.53.3,1.064.6,1.574.936A2.186,2.186,0,0,1,119.517,112.84Zm-3.5,6.965a13.572,13.572,0,1,0-13.57,13.556A13.591,13.591,0,0,0,116.018,119.8Z" fill="#f5f5f5"/>
    <path id="Path_1564" data-name="Path 1564" d="M311.254,521.051c.14-.441.283-.9.432-1.36q.453-1.4.911-2.794c.211-.643.332-.747,1.011-.739a5.1,5.1,0,0,0,3.13-.786,8.91,8.91,0,0,0,1.623-1.54,2.41,2.41,0,0,1,1.671-.811c.318-.042.375.235.46.463.728,1.955,1.464,3.908,2.189,5.864.553,1.491,1.094,2.986,1.638,4.479a.979.979,0,0,1,.1.366c-.015.224-.005.529-.139.642a.768.768,0,0,1-.656.037c-.512-.207-1-.476-1.49-.732-1.41-.735-2.813-1.485-4.227-2.212-.652-.335-.788-.308-1.086.355-.546,1.216-1.025,2.463-1.556,3.686a16.657,16.657,0,0,1-.878,1.747.735.735,0,0,1-.558.342.75.75,0,0,1-.469-.459c-.694-2.058-1.362-4.125-2.034-6.19A3.349,3.349,0,0,1,311.254,521.051Z" transform="translate(-208.11 -376.414)" fill="#f5f5f5"/>
    <path id="Path_1565" data-name="Path 1565" d="M144.45,511.388a2.654,2.654,0,0,1,1.961,1.129,4.732,4.732,0,0,0,6.294,1.618,3.325,3.325,0,0,1,1.312-.394c.618-.029.759.246.568.834q-1.6,4.918-3.2,9.835c-.107.327-.151.752-.6.791-.466.04-.609-.367-.753-.7-.521-1.2-1.017-2.4-1.532-3.6-.224-.521-.456-1.041-.718-1.543-.3-.57-.44-.622-1.006-.332-1.515.779-3.018,1.581-4.528,2.369a9.976,9.976,0,0,1-1.188.571c-.216.079-.584.12-.7,0a.85.85,0,0,1-.121-.729q.837-2.457,1.748-4.888c.56-1.487,1.169-2.956,1.746-4.437C143.863,511.572,144.041,511.337,144.45,511.388Z" transform="translate(-51.644 -374.917)" fill="#f5f5f5"/>
    <path id="Path_1566" data-name="Path 1566" d="M216.321,249.485a2.507,2.507,0,0,1-1.91-.89,21.641,21.641,0,0,1-3.756-6.589,4.393,4.393,0,0,1-.226-1.625,1.842,1.842,0,0,1,1.272-1.7,2.816,2.816,0,0,1,3.8,1.347c.306.591.54,1.219.82,1.824a3.375,3.375,0,0,0,.3.446,2.14,2.14,0,0,0,.434-.365,25.152,25.152,0,0,1,4.3-4.877,14.212,14.212,0,0,1,5.359-3.058,2.19,2.19,0,0,1,1.62.062.579.579,0,0,1,.278.94,2.015,2.015,0,0,1-.471.543,21.409,21.409,0,0,0-4.791,5.392c-1.413,2.113-2.726,4.292-4.125,6.414a7.7,7.7,0,0,1-1.444,1.649,5.211,5.211,0,0,1-1.41.6Z" transform="translate(-115.881 -121.067)" fill="#f5f5f5"/>
  </g>
</svg>
