<svg xmlns="http://www.w3.org/2000/svg" width="56.793" height="43.799" viewBox="0 0 56.793 43.799">
  <g id="Group_1112" data-name="Group 1112" transform="translate(912.372 -528.891)">
    <path id="Path_1439" data-name="Path 1439" d="M-875.264,578.442A19.265,19.265,0,0,1-882.673,603a19.349,19.349,0,0,1-26.773-6.265,19.38,19.38,0,0,1,5.969-26.492,19.406,19.406,0,0,1,26.021,4.567l-2.6,1.512a25.176,25.176,0,0,0-2.025-2.247,15.479,15.479,0,0,0-10.583-4.018c-6.97.027-12.055,3.225-15.179,9.4a16.338,16.338,0,0,0,4.187,19.643,16.512,16.512,0,0,0,23.282-1.83c4.088-4.808,4.866-10.271,3.092-16.2-.368-1.231-.4-1.224.7-1.873C-876.168,578.94-875.734,578.706-875.264,578.442Z" transform="translate(0 -33.268)" fill="#f5f5f5"/>
    <path id="Path_1440" data-name="Path 1440" d="M-840.754,619.934c-1.173.667-2.3,1.34-3.46,1.929-.172.087-.589-.171-.819-.359a8.935,8.935,0,0,0-6.341-1.955,8.958,8.958,0,0,0-8.3,8.231,8.983,8.983,0,0,0,9.587,9.676,8.825,8.825,0,0,0,8.32-8.665,21.617,21.617,0,0,0-.231-2.568c-.054-.407-.032-.692.376-.907.858-.453,1.7-.943,2.537-1.428.453-.261.708-.214.891.345A13.248,13.248,0,0,1-851.972,641.6a13.225,13.225,0,0,1-11.863-14.214,13.066,13.066,0,0,1,10.906-11.866A12.856,12.856,0,0,1-841,619.581,3.288,3.288,0,0,1-840.754,619.934Z" transform="translate(-42.215 -75.227)" fill="#f5f5f5"/>
    <path id="Path_1441" data-name="Path 1441" d="M-763.435,550.04c1.76-1,3.374-1.909,4.98-2.832,5.574-3.2,11.137-6.425,16.725-9.6a1.574,1.574,0,0,0,1.022-1.7c-.064-.552.051-1.122.017-1.68a1.31,1.31,0,0,1,.8-1.372c2.135-1.176,4.238-2.411,6.354-3.621.184-.1.376-.2.661-.342.061.553.14,1.03.159,1.51.037.927.07,1.856.044,2.783a.982.982,0,0,0,.569,1.028c.983.538,1.935,1.135,2.894,1.716.252.153.486.336.824.573-1.3.759-2.5,1.464-3.709,2.158s-2.41,1.349-3.594,2.058a.972.972,0,0,1-1.13-.006c-.719-.436-1.446-.865-2.2-1.238a.985.985,0,0,0-.8,0q-10.835,6.214-21.647,12.468c-.161.093-.309.209-.571.388.759.241,1.415.419,2.047.659a.975.975,0,0,1,.627,1.441.852.852,0,0,1-1.052.534c-1.686-.455-3.372-.911-5.053-1.383a.906.906,0,0,1-.75-1.209c.425-1.6.822-3.218,1.3-4.806a1.5,1.5,0,0,1,.789-.9c.781-.257,1.37.383,1.21,1.246C-763.037,548.567-763.228,549.206-763.435,550.04Z" transform="translate(-127.189)" fill="#f5f5f5"/>
    <path id="Path_1442" data-name="Path 1442" d="M-791.967,684.819c-.212.834-.432,1.658-.631,2.487-.44,1.836-.043,2.5,1.8,3.022.746.21,1.5.387,2.247.6a7.359,7.359,0,0,1,.758.3c-.666,1.605-3.073,2.477-4.992,1.863a4.4,4.4,0,0,1-2.9-5.009C-795.274,686.347-793.495,684.622-791.967,684.819Z" transform="translate(-101.491 -135.726)" fill="#f5f5f5"/>
  </g>
</svg>
