<svg xmlns="http://www.w3.org/2000/svg" width="32.848" height="38.692" viewBox="0 0 32.848 38.692">
  <g id="Group_1107" data-name="Group 1107" transform="translate(336.999 -1105)">
    <path id="Path_1438" data-name="Path 1438" d="M-304.151,1143.692H-337q.036-.639.073-1.278c.065-1.155.566-1.636,1.731-1.654.391-.006.783,0,1.255,0,.026-1.476-.287-3.123,1.919-3.016.066-.751.113-1.405.182-2.057a12.863,12.863,0,0,1,3.981-8.581c.656-.6,1.341-1.164,1.967-1.79a1.2,1.2,0,0,0-.017-1.938c-.447-.442-.928-.85-1.41-1.254a11.871,11.871,0,0,1-4.183-7.09c-.251-1.336-.39-2.694-.535-3.724-.715-.509-1.431-.775-1.706-1.281a5.99,5.99,0,0,1-.26-2.1c-.437,0-.857.009-1.277,0a1.474,1.474,0,0,1-1.642-1.568c-.034-.454-.051-.909-.076-1.364h32.848q-.036.639-.073,1.279c-.065,1.156-.567,1.635-1.735,1.653-.391.006-.783,0-1.185,0a5.711,5.711,0,0,1-.267,2.1c-.306.524-1.05.791-1.746,1.271-.025.235-.077.717-.124,1.2-.017.171-.013.344-.03.515a12.756,12.756,0,0,1-4.556,9.1c-.511.414-1.02.837-1.489,1.3a1.123,1.123,0,0,0-.02,1.855c.506.5,1.062.96,1.609,1.421a11.814,11.814,0,0,1,4.123,7.038c.246,1.311.388,2.641.586,4.026,2.232-.1,1.753,1.661,1.865,3,.493,0,.863,0,1.234,0,1.168.018,1.67.5,1.735,1.653Q-304.188,1143.053-304.151,1143.692Zm-22.3-5.967a8.953,8.953,0,0,1,2.327-5.884c.527-.6,1.029-1.233,1.585-1.81a5.4,5.4,0,0,0,1.291-5.327,10.322,10.322,0,0,0-2.735-4.586,14.127,14.127,0,0,1-1.12-1.7c3.015,0,5.735,0,8.456,0,.141,0,.281.025.649.059a13.17,13.17,0,0,1-.882,1.6c-.549.732-1.231,1.365-1.762,2.107-1.485,2.073-2.407,5.489.313,8.133.307.3.567.645.854.965a9.414,9.414,0,0,1,2.743,6.046,1.543,1.543,0,0,0,.119.391h3.089c-.1-3.42-.793-6.53-3.415-8.91-.7-.635-1.448-1.22-2.116-1.887a3.45,3.45,0,0,1,.039-5.18c.635-.619,1.34-1.165,2-1.755,2.7-2.4,3.4-5.554,3.478-9.021h-18.094c.1,3.446.78,6.588,3.428,8.991.679.616,1.4,1.184,2.043,1.839a3.439,3.439,0,0,1,.037,5.067c-.609.642-1.3,1.206-1.964,1.8-2.7,2.42-3.47,5.57-3.531,9.061Z" fill="#f5f5f5"/>
  </g>
</svg>
