<svg xmlns="http://www.w3.org/2000/svg" width="18" height="18" viewBox="0 0 18 18">
  <g id="Icon_ionic-ios-arrow-dropdown" data-name="Icon ionic-ios-arrow-dropdown" transform="translate(-3.375 -3.375)">
    <path id="Path_1432" data-name="Path 1432" d="M10.226,14.66a.838.838,0,0,0,0,1.181l4.141,4.128A.834.834,0,0,0,15.518,20l4.08-4.067a.834.834,0,1,0-1.177-1.181l-3.5,3.453-3.509-3.544A.834.834,0,0,0,10.226,14.66Z" transform="translate(-2.541 -4.245)" fill="#3cb08e"/>
    <path id="Path_1433" data-name="Path 1433" d="M3.375,12.375a9,9,0,1,0,9-9A9,9,0,0,0,3.375,12.375ZM17.758,6.992A7.612,7.612,0,1,1,6.992,17.758,7.612,7.612,0,1,1,17.758,6.992Z" fill="#3cb08e"/>
  </g>
</svg>
