<svg xmlns="http://www.w3.org/2000/svg" width="36.95" height="22" viewBox="0 0 36.95 22">
  <g id="Group_986" data-name="Group 986" transform="translate(1506.034 209.254)">
    <path id="Path_1175" data-name="Path 1175" d="M-1480.378-190.21h-14.38a3.613,3.613,0,0,1-1.546,2.353,3.525,3.525,0,0,1-2.186.6,3.623,3.623,0,0,1-3.33-2.967h-1.2c-.757,0-1.514,0-2.271,0-.531,0-.736-.212-.738-.748,0-.669,0-1.338,0-2.006,0-.628.184-.807.824-.812h.367v-.464q0-5.889,0-11.778a2.993,2.993,0,0,1,3.228-3.218q10.537,0,21.074,0a10.1,10.1,0,0,1,10.071,8.268,8.983,8.983,0,0,1,.161,1.585c.026,1.721.02,3.443.027,5.164,0,.134,0,.268,0,.442.213,0,.4-.008.577,0a.582.582,0,0,1,.611.61q.018,1.17,0,2.341c-.006.4-.251.611-.684.613-1.03.005-2.06,0-3.09,0h-.436a3.621,3.621,0,0,1-1.6,2.4,3.527,3.527,0,0,1-2.121.564C-1478.634-187.33-1479.8-188.357-1480.378-190.21Zm5.179-16.07.025-.073c-.109-.077-.217-.157-.329-.23a8.892,8.892,0,0,0-4.987-1.481q-10.592,0-21.185,0c-.112,0-.224,0-.335.006a1.729,1.729,0,0,0-1.6,1.778h.4q2.067,0,4.133,0c.589,0,.79.2.791.771q0,2.8,0,5.61c0,.55-.209.752-.772.753q-2.085,0-4.17,0h-.394v5.351h.248c.783.008.917.146.917.943,0,.467,0,.935,0,1.414h.643a3.609,3.609,0,0,1,3.356-2.947c1.792-.069,3.047.924,3.721,2.954h14.353c.647-1.949,1.822-2.94,3.5-2.957a3.5,3.5,0,0,1,2.067.623,3.618,3.618,0,0,1,1.513,2.331h.643c0-.57,0-1.124,0-1.678.005-.461.224-.673.69-.683.157,0,.314,0,.474,0v-5.352h-8.063c-.678,0-.849-.174-.85-.862q0-2.712,0-5.424c0-.679.173-.849.861-.849Zm-4,1.189v4.728h7.63a8.707,8.707,0,0,0-2.018-4.5.693.693,0,0,0-.462-.215c-1.253-.017-2.507-.01-3.76-.01Zm-20.3,4.742v-4.721h-4.129v4.721Zm1.176,11.906a2.387,2.387,0,0,0,2.416-2.356,2.384,2.384,0,0,0-2.369-2.4,2.385,2.385,0,0,0-2.4,2.336A2.386,2.386,0,0,0-1498.32-188.442Zm23.867-2.381a2.385,2.385,0,0,0-2.394-2.375,2.384,2.384,0,0,0-2.371,2.361,2.386,2.386,0,0,0,2.375,2.4A2.387,2.387,0,0,0-1474.452-190.823Zm-29.227-.605v-1.156h-1.139v1.156Zm33.386-1.146h-1.159v1.137h1.159Z" fill="#707070"/>
    <path id="Path_1176" data-name="Path 1176" d="M-1413.653-179.3h7.523c.634,0,.82.185.82.817q0,2.75,0,5.5c0,.632-.187.818-.82.818h-15.045c-.633,0-.819-.185-.819-.818q0-2.768,0-5.537c0-.583.2-.779.782-.78Q-1417.433-179.3-1413.653-179.3Zm-7.134,5.92h14.254v-4.711h-14.254Z" transform="translate(-75.695 -26.984)" fill="#707070"/>
    <path id="Path_1177" data-name="Path 1177" d="M-1373.686-52.352h-5.363a1.838,1.838,0,0,1-.334-.009.563.563,0,0,1-.515-.585.561.561,0,0,1,.514-.585,1.857,1.857,0,0,1,.334-.009h10.8a1.867,1.867,0,0,1,.334.009.562.562,0,0,1,.515.585.563.563,0,0,1-.515.586,1.837,1.837,0,0,1-.334.009Z" transform="translate(-113.614 -140.252)" fill="#707070"/>
    <path id="Path_1178" data-name="Path 1178" d="M-1471.02-100.25c-1.452,0-2.9,0-4.357,0-.538,0-.872-.444-.615-.844a.8.8,0,0,1,.563-.329c2.942-.021,5.884-.016,8.826-.012a.6.6,0,0,1,.657.6.6.6,0,0,1-.679.582C-1468.091-100.247-1469.555-100.25-1471.02-100.25Z" transform="translate(-26.98 -97.111)" fill="#707070"/>
    <path id="Path_1179" data-name="Path 1179" d="M-1191.056-99.673a1.672,1.672,0,0,1-1.116,1.734,1.535,1.535,0,0,1-1.865-1.407c-.011-.16-.011-.321-.016-.481a1.5,1.5,0,0,1,1.488-1.6,1.5,1.5,0,0,1,1.518,1.605C-1191.048-99.772-1191.053-99.723-1191.056-99.673Zm-1.5-.549a.7.7,0,0,0,.005,1.158A.7.7,0,0,0-1192.552-100.223Z" transform="translate(-281.008 -97.123)" fill="#707070"/>
    <path id="Path_1180" data-name="Path 1180" d="M-1367.06-100.265c-.062,0-.124,0-.186,0-.434-.01-.7-.242-.7-.6s.269-.579.713-.586c.149,0,.3-.006.447,0a.6.6,0,0,1,.622.6.6.6,0,0,1-.639.586C-1366.886-100.262-1366.973-100.265-1367.06-100.265Z" transform="translate(-124.383 -97.096)" fill="#707070"/>
    <path id="Path_1181" data-name="Path 1181" d="M-1442.406-39.756a1.791,1.791,0,0,1-1.792,1.795,1.792,1.792,0,0,1-1.779-1.769,1.792,1.792,0,0,1,1.792-1.794A1.788,1.788,0,0,1-1442.406-39.756Zm-1.792-.579a.6.6,0,0,0-.588.589.6.6,0,0,0,.58.6.6.6,0,0,0,.607-.607A.6.6,0,0,0-1444.2-40.335Z" transform="translate(-54.095 -151.078)" fill="#707070"/>
    <path id="Path_1182" data-name="Path 1182" d="M-1228.086-41.526a1.788,1.788,0,0,1,1.762,1.785,1.791,1.791,0,0,1-1.808,1.778,1.791,1.791,0,0,1-1.763-1.786A1.792,1.792,0,0,1-1228.086-41.526Zm.569,1.778a.6.6,0,0,0-.588-.589.6.6,0,0,0-.6.577.6.6,0,0,0,.606.607A.6.6,0,0,0-1227.517-39.748Z" transform="translate(-248.725 -151.076)" fill="#707070"/>
  </g>
</svg>
