<svg xmlns="http://www.w3.org/2000/svg" width="26.602" height="22" viewBox="0 0 26.602 22">
  <g id="Group_984" data-name="Group 984" transform="translate(1495.346 605.216)">
    <path id="Path_1172" data-name="Path 1172" d="M-1485.042-605.211c2.691,0,5.382.008,8.074-.005a2.3,2.3,0,0,1,1.979.967q2.859,3.765,5.753,7.5a2.268,2.268,0,0,1,.491,1.444c-.008,2.437,0,4.873,0,7.31a2,2,0,0,1-2.135,2.123c-.546,0-.546,0-.74.513a3.3,3.3,0,0,1-3.236,2.137,3.289,3.289,0,0,1-3.044-2.357.342.342,0,0,0-.4-.3q-3.741.013-7.481,0c-.21,0-.321.032-.391.273a3.289,3.289,0,0,1-3.151,2.384,3.279,3.279,0,0,1-3.2-2.355c-.076-.253-.192-.305-.432-.306a3.752,3.752,0,0,1-.985-.1,1.91,1.91,0,0,1-1.387-1.8c-.018-.614-.008-1.229-.008-1.843q0-6.716,0-13.433a1.981,1.981,0,0,1,1.457-2.069,2.925,2.925,0,0,1,.739-.082Q-1489.094-605.216-1485.042-605.211Zm-8.976,14.67c0,.916-.006,1.78,0,2.645a.646.646,0,0,0,.661.68c.124.007.25-.007.374.006.246.026.373-.037.455-.314a3.267,3.267,0,0,1,3.178-2.342,3.293,3.293,0,0,1,3.164,2.368c.065.222.149.292.377.291q3.756-.012,7.513,0c.218,0,.317-.049.383-.281a3.291,3.291,0,0,1,3-2.371,3.307,3.307,0,0,1,3.28,2.118c.208.541.208.541.79.53.523-.01.763-.247.766-.768,0-.667,0-1.333,0-2v-.562c-.493,0-.94.018-1.385,0a1.916,1.916,0,0,1-1.788-1.241,1.99,1.99,0,0,1,1.8-2.749c.453-.011.905,0,1.37,0,0-.327.009-.607,0-.887-.015-.358-.112-.442-.479-.442q-4.022,0-8.043,0a2.009,2.009,0,0,1-2.121-2.114c-.006-.833-.01-1.666,0-2.5a2,2,0,0,1,2.08-2.055c.987,0,1.974,0,2.962,0,.085,0,.171-.013.293-.022-.243-.318-.471-.589-.668-.88a.948.948,0,0,0-.87-.43q-8.121.012-16.242.006c-.643,0-.855.216-.855.866q0,4.061,0,8.122v.339c.682,0,1.316-.005,1.949,0a.668.668,0,0,1,.711.669.666.666,0,0,1-.691.654c-.207.008-.416,0-.623,0H-1494v1.344h1.944a.637.637,0,0,1,.652.436.658.658,0,0,1-.66.888C-1492.7-590.534-1493.346-590.542-1494.018-590.542Zm22.685-6.671a.4.4,0,0,0-.015-.082c-.965-1.263-1.929-2.528-2.9-3.785a.45.45,0,0,0-.318-.128q-2.009-.013-4.019,0c-.554,0-.788.245-.79.809,0,.77,0,1.54,0,2.31,0,.676.2.879.868.879h7.178Zm-1.408,10.679a1.987,1.987,0,0,0-1.987-2.007,2.008,2.008,0,0,0-2,2.006,2.009,2.009,0,0,0,1.981,1.992A1.988,1.988,0,0,0-1472.741-586.534Zm-18.609-.014a1.989,1.989,0,0,0,1.991,2,2.009,2.009,0,0,0,1.995-2.01,2.007,2.007,0,0,0-1.985-1.988A1.987,1.987,0,0,0-1491.35-586.547Zm21.269-6.658c-.478,0-.923-.019-1.367.006a.642.642,0,0,0-.617.629.6.6,0,0,0,.5.656c.489.041.984.011,1.483.011Z" transform="translate(0)" fill="#707070"/>
    <path id="Path_1173" data-name="Path 1173" d="M-1443.453-566.419c-.831,0-1.661,0-2.492,0a1.342,1.342,0,0,1-1.469-1.472q0-1.873,0-3.746a1.328,1.328,0,0,1,1.453-1.451q2.539,0,5.078,0a1.339,1.339,0,0,1,1.448,1.435q.01,1.9,0,3.809a1.343,1.343,0,0,1-1.432,1.425C-1441.729-566.413-1442.591-566.419-1443.453-566.419Zm-2.619-5.328v3.965h5.27v-3.965Z" transform="translate(-43.937 -29.45)" fill="#707070"/>
    <path id="Path_1174" data-name="Path 1174" d="M-1317.028-444.984c.633,0,1.266,0,1.9,0a.677.677,0,0,1,.761.677.682.682,0,0,1-.762.649q-1.9,0-3.8,0a.681.681,0,0,1-.761-.65.679.679,0,0,1,.762-.676C-1318.294-444.988-1317.661-444.984-1317.028-444.984Z" transform="translate(-161.026 -146.885)" fill="#707070"/>
  </g>
</svg>
