<svg xmlns="http://www.w3.org/2000/svg" width="111.426" height="111.426" viewBox="0 0 111.426 111.426">
  <g id="Group_1018" data-name="Group 1018" transform="translate(-542.758 -262.327)">
    <path id="Path_1268" data-name="Path 1268" d="M598.471,373.753a55.713,55.713,0,1,1,55.712-55.713A55.776,55.776,0,0,1,598.471,373.753Zm0-110.245A54.532,54.532,0,1,0,653,318.04,54.595,54.595,0,0,0,598.471,263.508Z" transform="translate(0 0)" fill="#090a09"/>
    <path id="Path_1269" data-name="Path 1269" d="M601.105,391.12a50.129,50.129,0,0,0,47.48-34.077H553.624A50.129,50.129,0,0,0,601.105,391.12Z" transform="translate(-2.634 -22.96)" fill="#090a09"/>
    <g id="Group_1006" data-name="Group 1006" transform="translate(558.081 333.529)">
      <g id="Group_1005" data-name="Group 1005" transform="translate(0 0)">
        <path id="Path_1270" data-name="Path 1270" d="M565.4,373.746a2.019,2.019,0,0,1-.345-.559,6.386,6.386,0,0,1-.283-.773c-.084-.281-.136-.441-.152-.485-.122-.3-.379-2.8-.92-6.832s-.816-5.781-.686-5.935a3.018,3.018,0,0,1,1.108-.6c.593-.227.943-.306,1.038-.183a29.177,29.177,0,0,1,.361,3.733c.167,2.457.286,4.929.365,7.371.789-1.549,1.213-2.44,2.095-4.425.761,2.505,1.122,3.867,1.833,6.77.361-2.684.767-5.474,1.22-8.4s.719-4.507.781-4.605c.108-.147.449,0,1.017.482a3.391,3.391,0,0,1,1.045,1.281c.111.307-.374,3.411-1.4,8.778s-1.58,7.83-1.735,7.929a2.757,2.757,0,0,0-.227.3,1.16,1.16,0,0,1-.339.343c-.1.052-.235.013-.409-.117a2.111,2.111,0,0,1-.533-.816,3.425,3.425,0,0,1,.013-.449c-.508-3.61-.771-5.315-1.336-8.494-.837,2.489-1.234,3.618-1.967,5.611a1.688,1.688,0,0,1-.027.315A.621.621,0,0,1,565.4,373.746Z" transform="translate(-562.984 -356.799)" fill="#fff"/>
        <path id="Path_1271" data-name="Path 1271" d="M582.134,356.312c.114-.009.289.506.5,1.608a13.169,13.169,0,0,1,.3,2.4c1.551,7.87,3.325,15.812,4.049,23.808a1.032,1.032,0,0,1-.748.368,1.688,1.688,0,0,1-1.055-.259,1.538,1.538,0,0,1-.7-1.012c-.139-.565-.553-3.258-1.211-7.8a20.385,20.385,0,0,1-4.961.82c-.434,1.259-.845,2.33-1.235,3.227a5.105,5.105,0,0,1-.681,1.335c-.147.053-.366-.312-.656-1.075a6.15,6.15,0,0,1-.458-1.976,52.843,52.843,0,0,1,1.7-5.758c1.159-3.658,2.119-6.853,2.842-9.262s1.334-4.516,1.829-6.239c0,.02.059-.005.18-.077A.761.761,0,0,1,582.134,356.312Zm-.28,8.8c-.265.945-.7,2.389-1.3,4.257s-1,3.054-1.193,3.652a27.968,27.968,0,0,0,3.528-.075C582.688,371.521,582.342,368.842,581.855,365.114Zm-.2-8.617h0Z" transform="translate(-565.962 -356.312)" fill="#fff"/>
        <path id="Path_1272" data-name="Path 1272" d="M591.554,360.686c.042,0,.111.034.165.042.145.023.461-.012.811,0s.908.058,1.669.125a8.668,8.668,0,0,1,2.135.451,3.113,3.113,0,0,1,1.458.964,7.618,7.618,0,0,1,1.005,2.03,20.468,20.468,0,0,1,.816,2.988,17.784,17.784,0,0,1,.341,3.018,3.524,3.524,0,0,1-.424,2.083.243.243,0,0,1-.091.1,4.108,4.108,0,0,0,.334.451c.38.142.876,1.3,1.511,3.513a30.137,30.137,0,0,1,.9,4.243,15.746,15.746,0,0,1,.093,4.014,6.825,6.825,0,0,1-.806,2.774,3.768,3.768,0,0,1-2.989,1.454,10.15,10.15,0,0,1-4.223-.467,4.752,4.752,0,0,1-2.5-1.505,6.481,6.481,0,0,1-.445-1.023,2.424,2.424,0,0,1-.244-1.072,13.008,13.008,0,0,1,.256-1.924c.157-.825.247-1.345.27-1.552.08-.593.151-3.82.228-9.6a2.222,2.222,0,0,1-.287-1.322c.038-.485.139-.76.3-.827.044-3.068.071-4.964.08-5.709a.484.484,0,0,1-.388,0c-.114-.06-.224-.357-.311-.895a6.276,6.276,0,0,1-.061-1.574C591.211,360.962,591.352,360.688,591.554,360.686Zm3.183,2.052a1.1,1.1,0,0,0-.674.173c-.2.13-.416.281-.639.455q.006.533.046,2.875t.052,3.825a8.658,8.658,0,0,0,1.436.17,7.006,7.006,0,0,0,1.366-.1,1.943,1.943,0,0,0,1.081-.508,1.364,1.364,0,0,0,.361-1.064,10.489,10.489,0,0,0-.917-3.7c-.533-1.183-1.129-1.867-1.793-2.077A1.465,1.465,0,0,0,594.736,362.738Zm1.244,10.511c-.88-.266-1.9-.275-2.339-.427.013,1.11-.005,4.769-.039,11.058a9.16,9.16,0,0,0,1.768.279,6.61,6.61,0,0,0,1.685-.144,2.181,2.181,0,0,0,1.343-.82,2.431,2.431,0,0,0,.4-1.667,23.866,23.866,0,0,0-.851-5.451C597.508,374.635,596.748,373.48,595.98,373.248Z" transform="translate(-569.793 -357.372)" fill="#fff"/>
        <path id="Path_1273" data-name="Path 1273" d="M608.858,360.286c.139.364.366,4.772.738,13.274s.54,13.047.433,13.58a5.38,5.38,0,0,1-1.253,2.2c-.708.842-1.149,1.057-1.314.675q-.231-.529-.119-14.432t.209-14.615q.123-1.077.536-1.19T608.858,360.286Z" transform="translate(-573.727 -357.147)" fill="#fff"/>
        <path id="Path_1274" data-name="Path 1274" d="M630.731,360.273l.109,0,.167-.005a.434.434,0,0,1,.23.084,1.25,1.25,0,0,1,.262.229,3.89,3.89,0,0,1,.284,2.157,4.289,4.289,0,0,1-.44,2.241c-.108.131-.377.117-.809-.048a13.788,13.788,0,0,1-1.306-.583,2.461,2.461,0,0,0-1.233-.306c-.384.02-.6.258-.655.714a3.376,3.376,0,0,0,.411,1.6,24.541,24.541,0,0,0,1.259,2.386c.52.876,1.048,1.79,1.584,2.734a25.676,25.676,0,0,1,1.464,3.046,11.3,11.3,0,0,1,.8,3.089,6.761,6.761,0,0,1-.473,3.115,11.621,11.621,0,0,1-1.674,3,22.88,22.88,0,0,1-2.212,2.462,14.174,14.174,0,0,1-2.1,1.714,2.817,2.817,0,0,1-1.242.553c-.294-.02-.555-.605-.745-1.795a25.6,25.6,0,0,1-.306-3.751,9.688,9.688,0,0,1,.181-2.567c.067-.213.335-.423.8-.639s.992-.443,1.579-.683a13.241,13.241,0,0,0,1.732-.866,3.869,3.869,0,0,0,1.348-1.318,2.649,2.649,0,0,0,.369-1.8,7.2,7.2,0,0,0-.8-2.247q-.658-1.269-1.47-2.516T626.25,367.7A15.088,15.088,0,0,1,625,364.992a6.314,6.314,0,0,1-.4-2.463,2.975,2.975,0,0,1,.237-1.024,2.112,2.112,0,0,1,.5-.719,3.092,3.092,0,0,1,.7-.473,3.28,3.28,0,0,1,.829-.282,5.224,5.224,0,0,1,.893-.093q.461-.009.88.02t.807.074a5.63,5.63,0,0,1,.667.113c.186.044.336.075.448.1S630.72,360.273,630.731,360.273Z" transform="translate(-577.799 -357.19)" fill="#fff"/>
        <path id="Path_1275" data-name="Path 1275" d="M639.951,356.312c.111-.01.357.555.711,1.7a15.256,15.256,0,0,1,.614,2.472c4.7,14.243,6.914,19.082,6.721,19.526a3.161,3.161,0,0,1-.626.949,2.737,2.737,0,0,1-.978.724.53.53,0,0,1-.76-.244c-.194-.371-.89-2.305-2.089-6.162-3.065,3.1-4.7,4.721-4.734,4.755q-.4,2.722-.81,4.944a17.79,17.79,0,0,1-.515,2.37c-.145.245-.42.1-.826-.467a4.09,4.09,0,0,1-.747-1.877c-.056-.423.289-3.427.975-8.792s1.211-9.457,1.609-12.421.723-5.371.986-7.277c0,.023.058-.006.169-.085A.631.631,0,0,1,639.951,356.312Zm.892,9.432c-.136,1.084-.373,2.764-.716,5.1s-.577,3.93-.692,4.733c1.391-.967,2.079-1.456,3.44-2.431C642.5,371.882,641.817,369.48,640.843,365.744Zm-1.345-9.227h0Z" transform="translate(-580.661 -356.312)" fill="#fff"/>
        <path id="Path_1276" data-name="Path 1276" d="M649.043,360.078c.042-.005.113.016.168.017.152,0,.453-.061.8-.086s.9-.05,1.655-.08a12.353,12.353,0,0,1,2.135.1,3.606,3.606,0,0,1,1.5.477,4.873,4.873,0,0,1,1.125,1.155,9.113,9.113,0,0,1,.98,1.665,6.3,6.3,0,0,1,.51,1.707,2.013,2.013,0,0,1-.245,1.413.321.321,0,0,1-.073.1,1.627,1.627,0,0,0,.326.127c.346-.082.861.4,1.514,1.283a6.578,6.578,0,0,1,.95,1.746,4.647,4.647,0,0,1,.241,2.013,6.769,6.769,0,0,1-.5,2.068,13.611,13.611,0,0,1-2.242,3.281,22.22,22.22,0,0,1-3.467,3.321c-1.153.855-1.926,1.193-2.278,1.083-.2-.046-.372-.314-.5-.41a.905.905,0,0,1-.33-.642,11.7,11.7,0,0,1,.021-1.742c.051-.781.076-1.258.075-1.44.008-.53-.267-3.111-.834-7.873a1.279,1.279,0,0,1-.418-.965q-.027-.628.194-.807c-.3-2.549-.489-4.155-.567-4.784a.561.561,0,0,1-.378.082c-.119-.027-.259-.258-.407-.708a4.849,4.849,0,0,1-.245-1.363C648.737,360.356,648.843,360.1,649.043,360.078Zm3.342,1.228a1.317,1.317,0,0,0-.638.247,7.421,7.421,0,0,0-.572.473c.042.283.158,1.046.35,2.267s.339,2.211.448,2.969a10.766,10.766,0,0,0,1.358-.424,11.01,11.01,0,0,0,1.256-.585,3.168,3.168,0,0,0,.955-.737.985.985,0,0,0,.247-.826,4.913,4.913,0,0,0-1.171-2.245A2.924,2.924,0,0,0,652.7,361.3,1.921,1.921,0,0,0,652.384,361.306Zm2.163,7.253c-.92.235-1.758.68-2.182.77.125.84.483,3.655,1.058,8.292a16.071,16.071,0,0,0,1.541-1.146,16.815,16.815,0,0,0,1.405-1.349,6.018,6.018,0,0,0,1.056-1.482,1.961,1.961,0,0,0,.219-1.288,7.526,7.526,0,0,0-1.113-2.88A1.99,1.99,0,0,0,654.547,368.56Z" transform="translate(-583.775 -357.187)" fill="#fff"/>
        <path id="Path_1277" data-name="Path 1277" d="M665.981,358.2a37.959,37.959,0,0,1,.939,5.811,37.323,37.323,0,0,1,.495,5.532,11.971,11.971,0,0,1-.861,2c-.488.985-.795,1.486-.925,1.448s-.3-2.311-.549-6.94-.376-7.132-.341-7.384c.052-.373.212-.586.478-.645A.94.94,0,0,1,665.981,358.2Z" transform="translate(-587.648 -356.72)" fill="#fff"/>
      </g>
    </g>
    <g id="Group_1016" data-name="Group 1016" transform="translate(551.531 279.3)">
      <g id="Group_1014" data-name="Group 1014" transform="translate(0 0)">
        <circle id="Ellipse_152" data-name="Ellipse 152" cx="6.362" cy="6.362" r="6.362" transform="translate(15.41 37.371)" fill="#090a09"/>
        <g id="Group_1007" data-name="Group 1007" transform="translate(0 39.038)">
          <rect id="Rectangle_201" data-name="Rectangle 201" width="11.046" height="4.478" rx="2.239" transform="translate(11.046 4.478) rotate(-180)" fill="#090a0a"/>
          <rect id="Rectangle_202" data-name="Rectangle 202" width="7.599" height="2.519" rx="1.259" transform="translate(8.802 3.498) rotate(-180)" fill="#fe9f30"/>
          <rect id="Rectangle_203" data-name="Rectangle 203" width="7.053" height="2.519" rx="1.259" transform="translate(9.292 3.498) rotate(-180)" fill="#fff"/>
        </g>
        <path id="Rectangle_204" data-name="Rectangle 204" d="M0,0H2.069a2.46,2.46,0,0,1,2.46,2.46v7.29a2.7,2.7,0,0,1-2.7,2.7H0a0,0,0,0,1,0,0V0A0,0,0,0,1,0,0Z" transform="translate(88.349 26.501)" fill="#090a0a"/>
        <path id="Rectangle_205" data-name="Rectangle 205" d="M0,0H1.684A1.677,1.677,0,0,1,3.36,1.677V8.747a1.672,1.672,0,0,1-1.672,1.672H0a0,0,0,0,1,0,0V0A0,0,0,0,1,0,0Z" transform="translate(88.509 27.469)" fill="#ffb852"/>
        <rect id="Rectangle_206" data-name="Rectangle 206" width="3.797" height="5.164" transform="translate(88.072 30.424)" fill="#fba87e"/>
        <path id="Path_1278" data-name="Path 1278" d="M559.958,320.612c-.328,0-.657,0-.986,0a.166.166,0,0,1-.08-.013.154.154,0,0,1-.045-.042,3.832,3.832,0,0,1-.864-1.6,2.174,2.174,0,0,1,.051-1.187,2.26,2.26,0,0,1,.518-.807,3.553,3.553,0,0,1,.359-.324c.064-.052.131-.1.2-.149a.525.525,0,0,1,.186-.116.266.266,0,0,1,.073,0l1.2.08Z" transform="translate(-555.207 -292.402)" fill="#090a0a"/>
        <path id="Path_1279" data-name="Path 1279" d="M560.376,320.039c-.294,0-.588,0-.882,0a.168.168,0,0,1-.058-.005c-.073-.023-.152-.15-.2-.208a1.6,1.6,0,0,1-.168-.264,1.405,1.405,0,0,1-.152-.588,1.868,1.868,0,0,1,.59-1.277.085.085,0,0,1,.03-.025.092.092,0,0,1,.039-.006c.408,0,.827-.033,1.236,0C560.811,317.669,560.37,319.8,560.376,320.039Z" transform="translate(-555.448 -292.711)" fill="#fe9f30"/>
        <path id="Path_1280" data-name="Path 1280" d="M569.64,299.734a.389.389,0,0,1,.119-.012l3.3,0,2.448,0,2.969,0,3.411,0,3.773,0,4.056,0,4.26,0,4.384,0,4.429.005,4.395,0,4.28,0,4.086,0,3.815,0,3.461,0,3.03,0,2.519,0,1.929,0a7.414,7.414,0,0,1,2.636.244c1.333.5,2.027,1.674,2.836,2.753q1.24,1.653,2.487,3.3,1.266,1.676,2.535,3.351L642,311.027v0l2.992,4.4a13.488,13.488,0,0,1,.3,4.4,30.449,30.449,0,0,1-.372,6.017c-.207.769-1.2,6.033-6.662,6.827l-4.486.116H620.963l-36.795.1H566.143s-4.767-.208-5.661-5.845a91.349,91.349,0,0,1,.066-10.477,27.82,27.82,0,0,1,.613-4.155,3.783,3.783,0,0,0,.051-.527c.055-.468.13-.934.22-1.4a19.945,19.945,0,0,1,.494-1.977,16.942,16.942,0,0,1,.87-2.265,13.033,13.033,0,0,1,1.349-2.264,10.618,10.618,0,0,1,.885-1.039,5.568,5.568,0,0,1,1.309-1.073c.56-.308,1.13-.617,1.662-.97s1.034-.741,1.545-1.121a.364.364,0,0,1,.082-.05Z" transform="translate(-555.798 -288.365)" fill="#090a09"/>
        <path id="Path_1281" data-name="Path 1281" d="M562.7,314.821c.214.206.219,1.117.352,1.424a6.713,6.713,0,0,0,.68,1.214,5.982,5.982,0,0,0,3.174,2.269,9.115,9.115,0,0,0,2.311.1c4.036.045,8.074,0,12.11-.033,1.808-.009,3.617,0,5.424,0l4.954,0h1.805v10.779h-5.549l-12.193,0-7.3,0c-.481,0-.961,0-1.442-.016a9.886,9.886,0,0,1-1.5-.076,8.289,8.289,0,0,1-1.264-.324,5.029,5.029,0,0,1-1.507-.827,3.761,3.761,0,0,1-.648-.664,2.2,2.2,0,0,1-.239-.4,1.063,1.063,0,0,1-.011-.451q.01-.385.014-.771c.006-.514.006-1.029.006-1.543,0-.57,0-1.141.01-1.711.038-2.216.08-4.445.309-6.65A7.232,7.232,0,0,1,562.7,314.821Z" transform="translate(-556.158 -292.025)" fill="#349a73"/>
        <path id="Path_1282" data-name="Path 1282" d="M566.043,305.523a6.525,6.525,0,0,1,1.733-.036l2.067,0,4.135,0,8.27.005q5.665,0,11.331,0l.182,12.189c-4.1-.005-8.192,0-12.287-.006h-.558q-4.05,0-8.1,0l-1.352,0a14.978,14.978,0,0,1-4.955-.358c-1.781-.622-4.02-2.9-3.6-4.96.1-.478.24-.952.374-1.42a17.9,17.9,0,0,1,1.845-4.6,2.369,2.369,0,0,1,.474-.589A1.2,1.2,0,0,1,566.043,305.523Z" transform="translate(-556.404 -289.752)" fill="#fff"/>
        <path id="Path_1283" data-name="Path 1283" d="M570.964,302.233l65.529.017a3.632,3.632,0,0,0-1.986-1.192c-.354.006-62.069.054-62.069.054A5.659,5.659,0,0,0,570.964,302.233Z" transform="translate(-558.368 -288.688)" fill="#fff"/>
        <path id="Path_1284" data-name="Path 1284" d="M567.993,303.933a7.871,7.871,0,0,1,1.274-.861c.265-.116.977-.464.977-.464l65.529.017,1.042,1.308Z" transform="translate(-557.648 -289.064)" fill="#87888a"/>
        <path id="Path_1285" data-name="Path 1285" d="M573.533,316.807a1.765,1.765,0,0,1-.9-.236c-.756-.475-.593-1.374-.389-2.1.314-1.121.546-2.271.819-3.4a5.635,5.635,0,0,1,.228-.78,2.81,2.81,0,0,1,.558-.874,2.613,2.613,0,0,1,1.195-.733,9.123,9.123,0,0,1,2.364-.108l1.931,0q2.365,0,4.729,0l4.556.007c.621,0,1.243.008,1.865,0a5.018,5.018,0,0,1,1.614.109,1.7,1.7,0,0,1,1.073.928,2.65,2.65,0,0,1,.126.983l.008,3.955a2.946,2.946,0,0,1-.147,1.135,1.851,1.851,0,0,1-1.3,1.029,4.781,4.781,0,0,1-1.136.085q-2.411-.011-4.823-.014-2.393,0-4.787,0l-4.4,0h-1.642c-.21,0-.42,0-.63,0C574.147,316.79,573.837,316.817,573.533,316.807Z" transform="translate(-558.636 -290.505)" fill="#090a0a"/>
        <path id="Path_1286" data-name="Path 1286" d="M561.814,332.358c.281.293.443.713.748.992a5.113,5.113,0,0,0,2.283,1.236,13.206,13.206,0,0,0,2.945.161c1.083-.013,2.164,0,3.248,0l2.325,0h.007l10.532,0h9.59v5.02H568.108a11.366,11.366,0,0,1-1.789-.036,4.6,4.6,0,0,1-1.6-.591,5.933,5.933,0,0,1-2.282-2.4,7.97,7.97,0,0,1-.648-4.249A.7.7,0,0,1,561.814,332.358Z" transform="translate(-556.135 -296.276)" fill="#297b59"/>
        <path id="Path_1287" data-name="Path 1287" d="M573.83,316.168s-.728.083-.464-.761c.083-.414,1.026-4.419,1.026-4.419a1.379,1.379,0,0,1,.1-.218,1.659,1.659,0,0,1,1.444-.908c.861.017,15.509,0,15.509,0a1.025,1.025,0,0,1,1.159,1.225c-.017,1.192.005,4.4.005,4.4a.814.814,0,0,1-.783.681C591.077,316.284,573.83,316.168,573.83,316.168Z" transform="translate(-558.937 -290.821)" fill="#349a73"/>
        <path id="Path_1288" data-name="Path 1288" d="M579.835,310.758l.361-.9h-3.931a1.754,1.754,0,0,0-1.406.916C578.323,310.758,579.835,310.758,579.835,310.758Z" transform="translate(-559.312 -290.821)" fill="#257654"/>
        <path id="Path_1289" data-name="Path 1289" d="M574.633,311.032h15.65a1.5,1.5,0,0,1,1.358,1.6c.017,1.11,0,3.849,0,3.849H573.979s-.735.152-.6-.723C573.631,314.923,574.633,311.032,574.633,311.032Z" transform="translate(-558.95 -291.106)" fill="#3fae7f"/>
        <path id="Path_1290" data-name="Path 1290" d="M642.619,312.1c2.512,0,5.021,0,7.533-.021a5.208,5.208,0,0,1,1.108.067c.9.184,1.358,1.027,1.889,1.7q.766.967,1.523,1.939c.24.307.47.627.716.927a3.231,3.231,0,0,1,.573.841,7.094,7.094,0,0,0-.992,0h-3.1q-3.939,0-7.878.006a1.613,1.613,0,0,1-1.125-.283,1.315,1.315,0,0,1-.334-.98c0-1.389.016-2.782.016-4.174A.1.1,0,0,1,642.619,312.1Z" transform="translate(-575.716 -291.359)" fill="#014666"/>
        <path id="Path_1291" data-name="Path 1291" d="M579.44,311.03c-.69,1.8-1.4,3.656-2.092,5.454-1.036-.014-2.028,0-3.064,0a4.045,4.045,0,0,1-.791-.018.359.359,0,0,1-.24-.511c.027-.113.054-.226.081-.339.047-.2.095-.4.142-.6l.182-.767q.1-.419.2-.84t.194-.822l.168-.711.119-.505a2.206,2.206,0,0,1,.1-.3.087.087,0,0,1,.019-.032c.026-.023.068-.006.1-.006h.123l.23,0,.616.005c1.217,0,2.458-.02,3.675-.009Z" transform="translate(-558.915 -291.105)" fill="#349a73"/>
        <rect id="Rectangle_207" data-name="Rectangle 207" width="80.666" height="1.291" rx="0.646" transform="translate(8.781 49.04)" fill="#090a09"/>
        <rect id="Rectangle_208" data-name="Rectangle 208" width="23.81" height="12.166" transform="translate(37.978 15.746)" fill="#fff"/>
        <rect id="Rectangle_209" data-name="Rectangle 209" width="23.81" height="10.643" transform="translate(37.978 27.912)" fill="#349a73"/>
        <path id="Path_1292" data-name="Path 1292" d="M631.046,340.548l-26.578.072v-5h23.81Z" transform="translate(-566.49 -297.067)" fill="#297b59"/>
        <path id="Path_1293" data-name="Path 1293" d="M585.019,310.75l.416-.879h.758l-.4.879Z" transform="translate(-561.775 -290.825)" fill="#257654"/>
        <path id="Path_1294" data-name="Path 1294" d="M586.575,310.75l.33-.879h.63l-.357.879Z" transform="translate(-562.152 -290.825)" fill="#257654"/>
        <path id="Path_1295" data-name="Path 1295" d="M583.691,316.5l2.185-5.464h.6l-2.21,5.465Z" transform="translate(-561.453 -291.106)" fill="#349a73"/>
        <path id="Path_1296" data-name="Path 1296" d="M582.3,316.486l2.057-5.454h.777l-2.147,5.454Z" transform="translate(-561.117 -291.106)" fill="#349a73"/>
        <g id="Group_1008" data-name="Group 1008" transform="translate(43.052 18.046)">
          <path id="Path_1297" data-name="Path 1297" d="M612.628,316.807a1.765,1.765,0,0,1-.9-.236c-.757-.475-.593-1.374-.389-2.1.313-1.121.546-2.271.819-3.4a5.535,5.535,0,0,1,.228-.78,2.807,2.807,0,0,1,.558-.874,2.618,2.618,0,0,1,1.2-.733,9.12,9.12,0,0,1,2.364-.108l1.931,0q2.364,0,4.729,0c1.518,0-4.539,0-3.02.007.622,0,1.244.008,1.866,0a5.019,5.019,0,0,1,1.614.109,1.692,1.692,0,0,1,1.072.928,2.649,2.649,0,0,1,.126.983l.008,3.955a2.961,2.961,0,0,1-.146,1.135,1.851,1.851,0,0,1-1.3,1.029,4.789,4.789,0,0,1-1.136.085q-2.411-.011-4.823-.014c-1.6,0,4.385,0,2.789,0l-4.4,0h-1.642c-.21,0-.421,0-.63,0C613.242,316.79,612.932,316.817,612.628,316.807Z" transform="translate(-611.166 -308.55)" fill="#090a0a"/>
          <path id="Path_1298" data-name="Path 1298" d="M612.925,316.168s-.728.083-.463-.761c.083-.414,1.026-4.419,1.026-4.419a1.477,1.477,0,0,1,.1-.218,1.66,1.66,0,0,1,1.444-.908c.861.017,7.933,0,7.933,0a1.024,1.024,0,0,1,1.158,1.225c-.017,1.192.006,4.4.006,4.4a.816.816,0,0,1-.784.681C622.6,316.284,612.925,316.168,612.925,316.168Z" transform="translate(-611.466 -308.867)" fill="#349a73"/>
          <path id="Path_1299" data-name="Path 1299" d="M618.931,310.758l.361-.9h-3.932a1.753,1.753,0,0,0-1.405.916C617.418,310.758,618.931,310.758,618.931,310.758Z" transform="translate(-611.842 -308.867)" fill="#257654"/>
          <path id="Path_1300" data-name="Path 1300" d="M613.729,311.032H621.8a1.5,1.5,0,0,1,1.357,1.6c.017,1.11.005,3.849.005,3.849h-10.09s-.735.152-.6-.723C612.727,314.923,613.729,311.032,613.729,311.032Z" transform="translate(-611.479 -309.152)" fill="#3fae7f"/>
          <path id="Path_1301" data-name="Path 1301" d="M618.535,311.03c-.689,1.8-1.4,3.656-2.093,5.454-1.035-.014-2.027,0-3.063,0a4.052,4.052,0,0,1-.792-.018.36.36,0,0,1-.24-.511c.028-.113.055-.226.081-.339.048-.2.095-.4.142-.6q.091-.383.181-.767.1-.419.2-.84c.064-.274.13-.548.194-.822l.167-.711.12-.505a2.1,2.1,0,0,1,.1-.3.082.082,0,0,1,.018-.032c.027-.023.068-.006.1-.006h.123l.23,0,.615.005c1.217,0,2.458-.02,3.675-.009Z" transform="translate(-611.444 -309.15)" fill="#349a73"/>
          <path id="Path_1302" data-name="Path 1302" d="M624.115,310.75l.416-.879h.758l-.4.879Z" transform="translate(-614.305 -308.871)" fill="#257654"/>
          <path id="Path_1303" data-name="Path 1303" d="M625.67,310.75l.33-.879h.631l-.357.879Z" transform="translate(-614.682 -308.87)" fill="#257654"/>
          <path id="Path_1304" data-name="Path 1304" d="M622.786,316.5l2.185-5.464h.6l-2.21,5.465Z" transform="translate(-613.983 -309.152)" fill="#349a73"/>
          <path id="Path_1305" data-name="Path 1305" d="M621.4,316.486l2.057-5.454h.777l-2.147,5.454Z" transform="translate(-613.647 -309.152)" fill="#349a73"/>
        </g>
        <path id="Path_1306" data-name="Path 1306" d="M637.634,332.058h8.333l6.123,0a19.156,19.156,0,0,0,4.774-.329c3.154-.813,5.239-3.835,5.749-6.929l.018-.113a16.846,16.846,0,0,0,.164-1.8,12.053,12.053,0,0,0,.036-1.963,37.876,37.876,0,0,1,.228,5.436,23.394,23.394,0,0,1-.448,5.138,7.258,7.258,0,0,1-1.141,2.182,7.819,7.819,0,0,1-1.983,1.961,10.121,10.121,0,0,1-2.408,1.114,9.736,9.736,0,0,1-2.823.2c-2.058.052-4.115.023-6.173,0q-.8-.008-1.605-.014c-2.948-.018-5.9.015-8.844.015Z" transform="translate(-574.53 -293.503)" fill="#297b59"/>
        <path id="Path_1307" data-name="Path 1307" d="M637.186,305.515h17.081l7.3,10.257c.3.41-1.651,1.267-1.9,1.366a15.314,15.314,0,0,1-5.562.586c-2.057.026-4.114.013-6.171,0q-1.512-.009-3.024-.011H637.45Z" transform="translate(-574.421 -289.769)" fill="#fff"/>
        <path id="Path_1308" data-name="Path 1308" d="M637.535,321c0,.01,9.954,0,10.846,0l7.993,0c1.792,0,4.111-.442,5.28-1.944a14.438,14.438,0,0,1,1.132,1.486c.139.186.047.861.047,1.075.008,2.891-.814,6.071-3.053,8.044a8.7,8.7,0,0,1-6.055,1.992q-3.1-.031-6.2-.042c-2.971-.011-5.942,0-8.913,0-.056,0-1.008,0-1.008,0Z" transform="translate(-574.506 -293.051)" fill="#349a73"/>
        <path id="Path_1309" data-name="Path 1309" d="M639.414,340.313l.861-4.186s.92-2.733,3.009-3.1c.335-.2,2.317-.761,6.192-.232a5.4,5.4,0,0,1,3.379,2.847c.133.43.827,4.2.795,4.533S639.414,340.313,639.414,340.313Z" transform="translate(-574.961 -296.329)" fill="#0d0e0d"/>
        <circle id="Ellipse_153" data-name="Ellipse 153" cx="6.362" cy="6.362" r="6.362" transform="translate(64.999 37.487)" fill="#090a09"/>
        <circle id="Ellipse_154" data-name="Ellipse 154" cx="5.089" cy="5.089" r="5.089" transform="translate(66.272 38.688)" fill="#e58d3b"/>
        <circle id="Ellipse_155" data-name="Ellipse 155" cx="3.96" cy="3.96" r="3.96" transform="translate(67.451 39.889)" fill="#090a09"/>
        <path id="Path_1310" data-name="Path 1310" d="M650.2,340.45a2.752,2.752,0,0,1,.073.63,2.884,2.884,0,0,1-2.934,2.832,2.92,2.92,0,0,1-2.824-2.062c-.01.1-.015.2-.015.3a3.1,3.1,0,1,0,5.7-1.7Z" transform="translate(-576.195 -298.238)" fill="#ff9f30"/>
        <path id="Path_1311" data-name="Path 1311" d="M647.346,343.463a2.884,2.884,0,0,0,2.934-2.832,2.749,2.749,0,0,0-.073-.63,3.1,3.1,0,0,0-5.684,1.4A2.92,2.92,0,0,0,647.346,343.463Z" transform="translate(-576.199 -297.789)" fill="#ffb852"/>
        <path id="Path_1312" data-name="Path 1312" d="M572.614,340.876s-.174-4.473,4-5.343c.72-.08,8.615,0,8.615,0s3.8.224,4.022,5.231C587.287,340.862,572.614,340.876,572.614,340.876Z" transform="translate(-558.768 -297.037)" fill="#0d0e0d"/>
        <circle id="Ellipse_156" data-name="Ellipse 156" cx="5.028" cy="5.028" r="5.028" transform="translate(16.744 38.811)" fill="#e58d3b"/>
        <circle id="Ellipse_157" data-name="Ellipse 157" cx="3.96" cy="3.96" r="3.96" transform="translate(17.843 39.962)" fill="#090a09"/>
        <path id="Path_1313" data-name="Path 1313" d="M584.591,340.166a2.739,2.739,0,0,1,.234,1.111,2.885,2.885,0,0,1-2.934,2.832,2.924,2.924,0,0,1-2.8-2v.02a3.1,3.1,0,1,0,5.505-1.966Z" transform="translate(-560.337 -298.169)" fill="#ff9f30"/>
        <path id="Path_1314" data-name="Path 1314" d="M581.892,343.744a2.885,2.885,0,0,0,2.934-2.832,2.739,2.739,0,0,0-.234-1.111,3.1,3.1,0,0,0-5.5,1.946A2.924,2.924,0,0,0,581.892,343.744Z" transform="translate(-560.337 -297.805)" fill="#ffb852"/>
        <rect id="Rectangle_210" data-name="Rectangle 210" width="8.367" height="1.488" transform="translate(17.843 38.473)" fill="#090a09"/>
        <path id="Path_1315" data-name="Path 1315" d="M635.26,305.515h1.965l.166,12.2L635,317.681" transform="translate(-573.891 -289.769)" fill="#fff"/>
        <path id="Path_1316" data-name="Path 1316" d="M635.635,321.574l1.966.033.164,10.614-2.39,0" transform="translate(-573.982 -293.662)" fill="#349a73"/>
        <path id="Path_1317" data-name="Path 1317" d="M635.535,335.621l1.983.007.1,4.889-2.34.04" transform="translate(-573.959 -297.067)" fill="#297b59"/>
        <path id="Path_1318" data-name="Path 1318" d="M603.486,321.574l1.965.033.164,10.614-2.39,0" transform="translate(-566.189 -293.662)" fill="#349a73"/>
        <path id="Path_1319" data-name="Path 1319" d="M603.386,335.621l1.983.007.1,4.889-2.34.04" transform="translate(-566.166 -297.067)" fill="#297b59"/>
        <path id="Path_1320" data-name="Path 1320" d="M603.113,305.515h1.965l.189,12.166-2.406.022" transform="translate(-566.1 -289.769)" fill="#fff"/>
        <rect id="Rectangle_211" data-name="Rectangle 211" width="0.927" height="29.488" transform="translate(39.465 15.128) rotate(13.265)" fill="#090a09"/>
        <rect id="Rectangle_212" data-name="Rectangle 212" width="0.927" height="29.488" transform="translate(64.041 15.128) rotate(13.265)" fill="#090a09"/>
        <rect id="Rectangle_213" data-name="Rectangle 213" width="3.054" height="1.136" transform="translate(89.087 32.368)" fill="#090a09"/>
        <rect id="Rectangle_214" data-name="Rectangle 214" width="7.988" height="1.136" transform="translate(23.084 25.941) rotate(-74.516)" fill="#090a09"/>
        <g id="Group_1009" data-name="Group 1009" transform="translate(66.697 18.046)">
          <path id="Path_1321" data-name="Path 1321" d="M654.576,316.807a1.763,1.763,0,0,0,.9-.236c.757-.475.593-1.374.389-2.1-.313-1.121-.546-2.271-.819-3.4a5.552,5.552,0,0,0-.228-.78,2.808,2.808,0,0,0-.558-.874,2.618,2.618,0,0,0-1.2-.733,9.121,9.121,0,0,0-2.364-.108l-1.931,0q-2.364,0-4.729,0c-1.518,0,4.539,0,3.02.007-.622,0-1.244.008-1.865,0a5.023,5.023,0,0,0-1.614.109,1.693,1.693,0,0,0-1.072.928,2.653,2.653,0,0,0-.127.983l-.008,3.955a2.962,2.962,0,0,0,.146,1.135,1.851,1.851,0,0,0,1.3,1.029,4.789,4.789,0,0,0,1.136.085q2.411-.011,4.823-.014c1.6,0-4.385,0-2.789,0l4.4,0h1.642c.21,0,.42,0,.63,0C653.962,316.79,654.273,316.817,654.576,316.807Z" transform="translate(-642.377 -308.55)" fill="#090a0a"/>
          <path id="Path_1322" data-name="Path 1322" d="M643.7,315.489a.816.816,0,0,0,.784.681c.745.114,10.416,0,10.416,0s.728.083.463-.761c-.083-.414-1.026-4.419-1.026-4.419a1.474,1.474,0,0,0-.1-.218,1.66,1.66,0,0,0-1.444-.908c-.861.017-7.933,0-7.933,0a1.024,1.024,0,0,0-1.158,1.225c.017,1.192-.006,4.4-.006,4.4" transform="translate(-642.698 -308.867)" fill="#349a73"/>
          <path id="Path_1323" data-name="Path 1323" d="M650.938,310.758l-.361-.9h3.932a1.752,1.752,0,0,1,1.405.916C652.45,310.758,650.938,310.758,650.938,310.758Z" transform="translate(-644.365 -308.867)" fill="#257654"/>
          <path id="Path_1324" data-name="Path 1324" d="M654.421,311.032h-8.074a1.5,1.5,0,0,0-1.357,1.6c-.017,1.11-.005,3.849-.005,3.849h10.09s.734.152.6-.723C655.422,314.923,654.421,311.032,654.421,311.032Z" transform="translate(-643.008 -309.152)" fill="#3fae7f"/>
          <path id="Path_1325" data-name="Path 1325" d="M651.05,311.03c.689,1.8,1.4,3.656,2.092,5.454,1.035-.014,2.027,0,3.063,0a4.052,4.052,0,0,0,.792-.018.36.36,0,0,0,.24-.511c-.027-.113-.055-.226-.081-.339-.048-.2-.095-.4-.142-.6-.061-.255-.12-.511-.181-.767q-.1-.419-.2-.84t-.194-.822l-.167-.711-.12-.505a2.11,2.11,0,0,0-.1-.3.083.083,0,0,0-.018-.032c-.027-.023-.068-.006-.1-.006h-.123l-.23,0-.615.005c-1.217,0-2.458-.02-3.675-.009Z" transform="translate(-644.479 -309.15)" fill="#349a73"/>
          <path id="Path_1326" data-name="Path 1326" d="M647.086,310.75l-.416-.879h-.758l.4.879Z" transform="translate(-643.234 -308.871)" fill="#257654"/>
          <path id="Path_1327" data-name="Path 1327" d="M645.6,310.75l-.33-.879h-.631l.357.879Z" transform="translate(-642.925 -308.87)" fill="#257654"/>
          <path id="Path_1328" data-name="Path 1328" d="M647.9,316.5l-2.185-5.464h-.6l2.21,5.465Z" transform="translate(-643.039 -309.152)" fill="#349a73"/>
          <path id="Path_1329" data-name="Path 1329" d="M649.27,316.486l-2.057-5.454h-.777l2.147,5.454Z" transform="translate(-643.361 -309.152)" fill="#349a73"/>
        </g>
        <g id="Group_1010" data-name="Group 1010" transform="translate(33.337 8.519)">
          <path id="Path_1330" data-name="Path 1330" d="M605.093,299.826h-6.751V297.9a1.928,1.928,0,0,1,1.926-1.926h2.9a1.928,1.928,0,0,1,1.926,1.926Zm-5.664-1.087H604V297.9a.839.839,0,0,0-.838-.839h-2.9a.839.839,0,0,0-.839.839Z" transform="translate(-598.342 -295.975)" fill="#1a1718"/>
        </g>
        <g id="Group_1011" data-name="Group 1011" transform="translate(55.084 8.519)">
          <path id="Path_1331" data-name="Path 1331" d="M633.8,299.826h-6.751V297.9a1.928,1.928,0,0,1,1.926-1.926h2.9A1.928,1.928,0,0,1,633.8,297.9Zm-5.664-1.087h4.576V297.9a.839.839,0,0,0-.838-.839h-2.9a.84.84,0,0,0-.839.839Z" transform="translate(-627.047 -295.975)" fill="#1a1718"/>
        </g>
        <g id="Group_1012" data-name="Group 1012" transform="translate(18.555)">
          <path id="Path_1332" data-name="Path 1332" d="M579.43,291.653l52.787,1.075s-9.266-2.9-27.04-3.264c-13.75-.28-22.864.656-25.729,1.333Z" transform="translate(-578.975 -285.866)" fill="#349a73"/>
          <path id="Path_1333" data-name="Path 1333" d="M581.346,289.521l4.242-.588s-3.161-4.108-4.317-3.591l.374.7a3.2,3.2,0,0,1-.3,3.477Z" transform="translate(-579.422 -284.868)" fill="#349a73"/>
          <path id="Path_1334" data-name="Path 1334" d="M632.071,293.061h-.009l-52.787-1.075a.454.454,0,0,1-.445-.464l.018-.857a.453.453,0,0,1,.349-.433c2.931-.692,12.233-1.627,25.844-1.345,17.634.36,27.073,3.256,27.166,3.286a.454.454,0,0,1-.136.888Zm-52.323-1.974,48.1.98a130.082,130.082,0,0,0-22.824-2.27c-13.028-.264-22.05.573-25.273,1.245Z" transform="translate(-578.83 -285.726)" fill="#090a09"/>
          <path id="Path_1335" data-name="Path 1335" d="M581.2,289.857a.455.455,0,0,1-.359-.734,2.752,2.752,0,0,0,.258-2.984l-.374-.7a.456.456,0,0,1,.215-.63c1.342-.6,3.847,2.409,4.863,3.729a.455.455,0,0,1-.3.728l-4.242.587A.43.43,0,0,1,581.2,289.857Zm.8-3.939a3.67,3.67,0,0,1,.053,2.908l2.533-.352A14.867,14.867,0,0,0,582,285.917Z" transform="translate(-579.276 -284.731)" fill="#090a09"/>
        </g>
        <g id="Group_1013" data-name="Group 1013" transform="translate(17.909 2.401)">
          <path id="Path_1336" data-name="Path 1336" d="M578.576,294.712h52.8S622.051,292,604.273,292c-13.753,0-22.846,1.121-25.7,1.857Z" transform="translate(-578.122 -288.893)" fill="#ffb852"/>
          <path id="Path_1337" data-name="Path 1337" d="M580.434,292.692l4.23-.674s-3.243-4.043-4.389-3.5l.389.693a3.2,3.2,0,0,1-.229,3.483Z" transform="translate(-578.534 -288.037)" fill="#ffb852"/>
          <path id="Path_1338" data-name="Path 1338" d="M631.229,295.045h-52.8a.454.454,0,0,1-.454-.455v-.856a.453.453,0,0,1,.341-.44c2.916-.753,12.2-1.871,25.81-1.871,17.638,0,27.134,2.7,27.229,2.731a.455.455,0,0,1-.127.891Zm-52.344-.908h48.109a130,130,0,0,0-22.866-1.805c-13.034,0-22.034,1.023-25.243,1.76Z" transform="translate(-577.977 -288.754)" fill="#090a09"/>
          <path id="Path_1339" data-name="Path 1339" d="M580.288,293.027a.454.454,0,0,1-.364-.727,2.751,2.751,0,0,0,.2-2.989l-.389-.694a.455.455,0,0,1,.2-.633c1.323-.623,3.894,2.329,4.936,3.63a.454.454,0,0,1-.283.733l-4.229.674A.466.466,0,0,1,580.288,293.027Zm.731-3.957a3.666,3.666,0,0,1,.114,2.908l2.525-.4A14.859,14.859,0,0,0,581.02,289.07Z" transform="translate(-578.388 -287.9)" fill="#090a09"/>
        </g>
      </g>
      <g id="Group_1015" data-name="Group 1015" transform="translate(27.905 15.296)">
        <path id="Path_1340" data-name="Path 1340" d="M594.087,340.363l-.639-1.225-1.38-.063c.077-.291.157-.58.236-.865,8.495-30.861,22.515-32.578,22.515-32.578a4.55,4.55,0,0,1,.115.481C615.434,308.706,616.509,321.614,594.087,340.363Z" transform="translate(-591.389 -305.093)" fill="#ffb852"/>
        <path id="Path_1341" data-name="Path 1341" d="M594.087,340.517l-.639-1.225-1.38-.063c.077-.291.157-.58.236-.865,3.291-1.784,8.217-5.66,13.941-14.081,5.357-7.882,7.689-13.959,8.689-18.016C615.434,308.86,616.509,321.768,594.087,340.517Z" transform="translate(-591.389 -305.247)" fill="#ff9f30"/>
        <path id="Path_1342" data-name="Path 1342" d="M593.67,341.032l-.789-1.517-1.709-.077.158-.592c8.493-31.705,22.613-33.8,23.21-33.876l.4-.049.125.387c.185.573,4.239,14.261-20.929,35.329Zm-1.228-2.523,1.049.046.486.933c21.653-18.319,20.692-30.988,20.25-33.445C611.815,306.679,599.922,311.151,592.442,338.509Z" transform="translate(-591.172 -304.921)" fill="#1a1718"/>
      </g>
    </g>
  </g>
</svg>
