<svg xmlns="http://www.w3.org/2000/svg" width="124.029" height="127.18" viewBox="0 0 124.029 127.18">
  <g id="Group_1097" data-name="Group 1097" transform="translate(-1523.985 -4151.91)">
    <path id="Path_257" data-name="Path 257" d="M52.5,0C81.495,0,71.343,17.328,71.343,46.323S81.495,105,52.5,105a52.5,52.5,0,0,1,0-105Z" transform="translate(1523.985 4199.845) rotate(-41)" fill="#3cb08e" opacity="0.15"/>
    <g id="Group_655" data-name="Group 655" transform="translate(-5553.953 3010.384)">
      <path id="Path_278" data-name="Path 278" d="M7223.389,1211.542h-63.9c-.013-.143-.037-.283-.038-.422q0-20.421,0-40.843a2.5,2.5,0,0,1,2.615-2.585h58.457a2.543,2.543,0,0,1,2.86,2.836q0,20.2,0,40.4Zm-4.058-39.918h-55.806v35.988h55.806Zm-58.462,11.29c0,.549.012,1.1,0,1.646-.012.411.222.565.572.565.322,0,.563-.142.562-.523,0-1.134-.006-2.268,0-3.4a.492.492,0,0,0-.548-.541c-.334,0-.6.13-.586.555C7160.882,1181.78,7160.87,1182.347,7160.869,1182.914Zm59.993-.09c0,.584.015,1.169,0,1.753a.478.478,0,0,0,.528.548c.346.011.6-.133.6-.542q-.005-1.7,0-3.4c0-.39-.262-.514-.57-.522s-.563.123-.556.516C7220.869,1181.728,7220.861,1182.276,7220.862,1182.824Z" transform="translate(-25.547 0)" fill="#3cb08e"/>
      <path id="Path_279" data-name="Path 279" d="M7130.748,1583.066h29.2c.014.159.025.3.037.438a1.3,1.3,0,0,0,1.276,1.268q4.6.027,9.191,0a1.335,1.335,0,0,0,1.314-1.241c.016-.143.021-.287.034-.463h29.151c0,1.319.045,2.618-.02,3.91a1.718,1.718,0,0,1-1.015,1.294,4.683,4.683,0,0,1-2.433.558h-29.829q-16.7,0-33.406,0a4.449,4.449,0,0,1-2.57-.654,1.828,1.828,0,0,1-.922-1.482C7130.728,1585.511,7130.748,1584.321,7130.748,1583.066Z" transform="translate(0 -369.58)" fill="#3cb08e"/>
      <path id="Path_280" data-name="Path 280" d="M7347.951,1384.733a8.418,8.418,0,0,1,.966-4.179,10.687,10.687,0,0,1,6.443-5.379.873.873,0,0,1,.613.064,6.433,6.433,0,0,0,6.305.008.966.966,0,0,1,.664-.054,11.271,11.271,0,0,1,4.745,2.962,1.505,1.505,0,0,1-.215,1.59.858.858,0,0,1-1.291-.2,5.549,5.549,0,0,0-.451-.467l-1.654,1.7c.592.56,1.1.9.748,1.555-.28.519-.748.512-1.332.4-.042.672-.083,1.317-.126,2Z" transform="translate(-193.259 -184.582)" fill="#3cb08e"/>
      <path id="Path_281" data-name="Path 281" d="M7391,1236.026a7.163,7.163,0,0,1,3.62,5.6c.409-.054.654.1.656.52,0,.48-.117.891-.667.981-1.265.206-2.526.454-3.8.579a33.685,33.685,0,0,1-10.013-.529c-.53-.107-.83-.35-.842-.9-.01-.414.06-.764.639-.628a7.222,7.222,0,0,1,3.606-5.614c0,.432-.009.754,0,1.076.015.433.186.777.67.77s.645-.335.633-.785a8.8,8.8,0,0,1,.016-1.264.619.619,0,0,1,.339-.443,6.484,6.484,0,0,1,3.475-.005.614.614,0,0,1,.342.439c.047.435,0,.879.018,1.319.015.469.313.79.7.744a.647.647,0,0,0,.61-.763C7390.988,1236.8,7391,1236.476,7391,1236.026Z" transform="translate(-221.736 -60.019)" fill="#3cb08e"/>
      <path id="Path_282" data-name="Path 282" d="M7406.361,1312.755a6.025,6.025,0,0,1-9.607,6.143,5.935,5.935,0,0,1-2.081-6.136A34.951,34.951,0,0,0,7406.361,1312.755Z" transform="translate(-234.634 -129.07)" fill="#3cb08e"/>
      <path id="Path_283" data-name="Path 283" d="M7494.183,1409.828c.889.9,2.229.653,2.423-.968h1.347c.178,1.505,1.395,1.933,2.494.937l1.006.954c-.7.933-.738,1.557-.2,2.076a1.356,1.356,0,0,0,.405.277c.228.093.621.086.677.228a2.82,2.82,0,0,1,.06.975,2.389,2.389,0,0,1-.037.316,1.381,1.381,0,0,0-.964,2.461l-.949,1.005c-1.256-1.072-2.4-.347-2.483.982-.367,0-.745.018-1.119-.011a.415.415,0,0,1-.29-.238c-.438-1.382-1.2-1.647-2.441-.73l-.943-1.01c.927-1.29.567-2.178-.981-2.45v-1.343c1.611-.508,1.922-1.258,1-2.415a5.092,5.092,0,0,1,.337-.423C7493.727,1410.242,7493.946,1410.049,7494.183,1409.828Zm1.275,4.126a1.823,1.823,0,0,0,3.646.015,1.823,1.823,0,1,0-3.646-.015Z" transform="translate(-321.601 -214.58)" fill="#3cb08e"/>
    </g>
  </g>
</svg>
