<svg xmlns="http://www.w3.org/2000/svg" width="124.029" height="127.18" viewBox="0 0 124.029 127.18">
  <g id="Group_1100" data-name="Group 1100" transform="translate(-132.985 -24.91)">
    <path id="Path_257" data-name="Path 257" d="M52.5,0C81.495,0,71.343,17.328,71.343,46.323S81.495,105,52.5,105a52.5,52.5,0,0,1,0-105Z" transform="translate(132.985 72.845) rotate(-41)" fill="#3cb08e" opacity="0.15"/>
    <g id="Group_935" data-name="Group 935" transform="translate(-1399.971 -291.866)">
      <path id="Path_986" data-name="Path 986" d="M1609.955,435.515l-.861.164c.106.479.2.922.3,1.365.79,3.517,1.629,7.024,2.343,10.557a10.731,10.731,0,0,1,.079,3.316,2.061,2.061,0,0,1-1.819,1.858,2.15,2.15,0,0,1-2.142-1.495,20.99,20.99,0,0,1-.555-2.579c-1.163-5.293-2.3-10.593-3.513-15.874-.552-2.4-1.25-4.769-1.93-7.139a1.864,1.864,0,0,0-.719-.884c-2.186-1.545-4.4-3.055-6.593-4.589a9.064,9.064,0,0,1-1.243-1.012,2.042,2.042,0,0,1-.178-2.736,2.124,2.124,0,0,1,2.74-.649c.885.511,1.713,1.121,2.574,1.675,1.174.755,2.343,1.518,3.539,2.236a6.068,6.068,0,0,0,1.415.583,3.307,3.307,0,0,0,4.2-1.7c.791-1.42,1.429-2.924,2.14-4.389.365-.753.708-1.52,1.119-2.248a2.316,2.316,0,0,1,3.151-.886,2.108,2.108,0,0,1,1.045,2.886c-.273.663-.675,1.272-1,1.914-.965,1.908-1.93,3.816-2.873,5.734a2.523,2.523,0,0,0-.081,1.826,239,239,0,0,0,7.735,23.883,2.949,2.949,0,0,1,.027,2.434,1.771,1.771,0,0,1-2.982.588,5.364,5.364,0,0,1-1.2-1.774c-1.263-3.248-2.465-6.52-3.662-9.793C1610.621,437.725,1610.312,436.629,1609.955,435.515Z" transform="translate(0 -58.382)" fill="#3cb08e"/>
      <path id="Path_987" data-name="Path 987" d="M1797.561,377.976l-.876-.158c-.687,2.126-1.3,4.223-2.043,6.274-.82,2.272-1.737,4.51-2.651,6.747a6.37,6.37,0,0,1-.9,1.485,1.888,1.888,0,0,1-2.061.847,2.088,2.088,0,0,1-1.477-1.925,4.181,4.181,0,0,1,.229-1.5c1.923-5.632,3.918-11.241,5.787-16.891.824-2.491,1.428-5.056,2.072-7.6a2.164,2.164,0,0,0-.2-1.338c-.907-1.909-1.869-3.793-2.82-5.681-.345-.684-.773-1.332-1.058-2.039a2.087,2.087,0,0,1,1.076-2.815,2.269,2.269,0,0,1,3.1.84c.9,1.731,1.69,3.521,2.549,5.275a13.2,13.2,0,0,0,1.061,1.88,3.074,3.074,0,0,0,3.62,1.272,11.933,11.933,0,0,0,2.721-1.217c1.667-1.018,3.246-2.18,4.9-3.216a2.147,2.147,0,0,1,3.272,1.3,1.831,1.831,0,0,1-.448,1.875,9.739,9.739,0,0,1-1.277,1.078c-2.133,1.5-4.269,2.995-6.431,4.452a2.391,2.391,0,0,0-1.075,1.53c-1.514,6.26-3.083,12.507-4.578,18.771-.4,1.693-.593,3.437-.925,5.15a5.348,5.348,0,0,1-.55,1.563,1.949,1.949,0,0,1-1.944,1.115,1.829,1.829,0,0,1-1.7-1.446,6.5,6.5,0,0,1-.194-2.6c.672-3.539,1.463-7.056,2.221-10.578C1797.139,379.637,1797.348,378.854,1797.561,377.976Z" transform="translate(-167.57 -8.756)" fill="#3cb08e"/>
      <path id="Path_988" data-name="Path 988" d="M1877.239,355.192a3.257,3.257,0,1,1-3.272,3.282A3.242,3.242,0,0,1,1877.239,355.192Z" transform="translate(-241.887 -10.556)" fill="#3cb08e"/>
      <path id="Path_989" data-name="Path 989" d="M1651.076,412.891a3.249,3.249,0,1,1-.081,6.5,3.249,3.249,0,1,1,.081-6.5Z" transform="translate(-47.354 -60.174)" fill="#3cb08e"/>
      <path id="Path_990" data-name="Path 990" d="M1782.848,345.172a.327.327,0,0,1-.428-.189c-.062-.16-.112-.307-.059-.385a15.522,15.522,0,0,1,1.315-1.624c.076-.084.358-.068.484.005a.439.439,0,0,1,.121.413c-.441.6-.914,1.171-1.384,1.746A.123.123,0,0,1,1782.848,345.172Z" transform="translate(-163.092)" fill="#3cb08e"/>
      <path id="Path_991" data-name="Path 991" d="M1681.756,371.456a.382.382,0,0,1-.029.343c-.04.072-.084.137-.139.148a.61.61,0,0,1-.49-.08,17.936,17.936,0,0,1-1.266-1.557.6.6,0,0,1,.073-.54.484.484,0,0,1,.47,0c.476.532.915,1.1,1.361,1.656A.162.162,0,0,1,1681.756,371.456Z" transform="translate(-74.908 -23.039)" fill="#3cb08e"/>
      <path id="Path_992" data-name="Path 992" d="M1739.721,373.43a.343.343,0,0,1-.5-.189c-.052-.148-.088-.279-.039-.352a13.448,13.448,0,0,1,1.251-1.562.6.6,0,0,1,.542-.06.487.487,0,0,1,.119.458c-.42.576-.88,1.123-1.336,1.672A.167.167,0,0,1,1739.721,373.43Z" transform="translate(-125.961 -24.348)" fill="#3cb08e"/>
      <path id="Path_993" data-name="Path 993" d="M1938.25,359.137a.37.37,0,0,1-.58-.17c-.048-.134-.075-.246-.032-.31a15.449,15.449,0,0,1,1.3-1.612.485.485,0,0,1,.477-.028.567.567,0,0,1,.105.52c-.385.545-.817,1.057-1.244,1.572A.253.253,0,0,1,1938.25,359.137Z" transform="translate(-296.62 -12.083)" fill="#3cb08e"/>
      <path id="Path_994" data-name="Path 994" d="M1787.388,393.769a.412.412,0,0,1,.434-.014.558.558,0,0,1,.15.116,16.106,16.106,0,0,1,1.133,1.416.312.312,0,0,1,.045.163.412.412,0,0,1-.582.4.266.266,0,0,1-.073-.053,14.145,14.145,0,0,1-1.149-1.4.7.7,0,0,1-.058-.511A.21.21,0,0,1,1787.388,393.769Z" transform="translate(-167.33 -43.671)" fill="#3cb08e"/>
      <path id="Path_995" data-name="Path 995" d="M1966.027,451.806a.434.434,0,0,1,.036.385.483.483,0,0,1-.069.13c-.39.493-.77,1-1.2,1.452a.284.284,0,0,1-.176.07.423.423,0,0,1-.478-.436.218.218,0,0,1,.035-.112,17.243,17.243,0,0,1,1.232-1.516.625.625,0,0,1,.488-.1C1965.944,451.686,1965.986,451.74,1966.027,451.806Z" transform="translate(-319.427 -93.521)" fill="#3cb08e"/>
      <path id="Path_996" data-name="Path 996" d="M1618.967,383.634a.381.381,0,0,1,.616-.226.276.276,0,0,1,.026.027,18.471,18.471,0,0,1,1.178,1.46.36.36,0,0,1,.033.244.408.408,0,0,1-.66.244,10.85,10.85,0,0,1-1.179-1.457A.405.405,0,0,1,1618.967,383.634Z" transform="translate(-22.586 -34.743)" fill="#3cb08e"/>
      <path id="Path_997" data-name="Path 997" d="M1774.653,448.344a.41.41,0,0,1,.436-.006.581.581,0,0,1,.143.115,16.23,16.23,0,0,1,1.131,1.413.3.3,0,0,1,.042.167.411.411,0,0,1-.582.388.263.263,0,0,1-.071-.052,14.461,14.461,0,0,1-1.141-1.405.7.7,0,0,1-.058-.51A.2.2,0,0,1,1774.653,448.344Z" transform="translate(-156.378 -90.604)" fill="#3cb08e"/>
      <path id="Path_998" data-name="Path 998" d="M1797.685,479.606a.329.329,0,0,1,.4.166c.07.137.129.267.088.324a22.454,22.454,0,0,1-1.441,1.764c-.055.061-.319,0-.431-.075a.386.386,0,0,1-.1-.364c.457-.606.939-1.193,1.421-1.78A.124.124,0,0,1,1797.685,479.606Z" transform="translate(-175.002 -117.528)" fill="#3cb08e"/>
    </g>
  </g>
</svg>
