<svg xmlns="http://www.w3.org/2000/svg" width="124.029" height="127.18" viewBox="0 0 124.029 127.18">
  <g id="Group_1098" data-name="Group 1098" transform="translate(-686.485 -4151.91)">
    <path id="Path_255" data-name="Path 255" d="M52.5,0C81.495,0,71.343,17.328,71.343,46.323S81.495,105,52.5,105a52.5,52.5,0,0,1,0-105Z" transform="translate(686.485 4199.845) rotate(-41)" fill="#3cb08e" opacity="0.15"/>
    <g id="Group_936" data-name="Group 936" transform="translate(-1553.541 3891.932)">
      <path id="Path_999" data-name="Path 999" d="M2473.366,427.613c.338-.257.548-.424.764-.581,3.173-2.3,6.357-4.573,9.51-6.9a3.161,3.161,0,0,1,2.034-.64c2.282.021,1.792.271,2.749-1.719q6.073-12.64,12.109-25.3a.953.953,0,0,1,1.035-.675c.919.05,1.846-.037,2.763.029a1.41,1.41,0,0,0,1.608-1.029c1.254-3.019,2.611-5.995,3.863-9.015a1.317,1.317,0,0,1,1.519-.988c1,.076,1,.019,1.061,1.02q.929,15.108,1.859,30.216.457,7.381.926,14.762c.015.249,0,.5,0,.812Zm29.942-30.086-1.273-.593L2493.3,415.18l1.27.593Zm2.318,4.336-4.01,8.375,1.279.575,3.988-8.334Z" transform="translate(-161.002 -87.525)" fill="#3cb08e"/>
      <path id="Path_1000" data-name="Path 1000" d="M2318.183,441.649c-.751-1.572-1.464-3.062-2.175-4.553-1.149-2.411-2.255-4.844-3.46-7.227a7.851,7.851,0,0,0-4.261-4.135,4.105,4.105,0,0,0-5.6,3.11,9.113,9.113,0,0,0-.189,1.849q-.021,8.019-.008,16.037v.887h-3.933v-.845c0-5.991.035-11.982-.019-17.972-.019-2.067-.24-4.134-.4-6.2a51.739,51.739,0,0,1,.362-11.854.909.909,0,0,0,.045-.34c-.085-.309-.121-.756-.331-.873a1.088,1.088,0,0,0-.927.148,16.961,16.961,0,0,0-4.742,5.329c-.708,1.158-1.337,2.364-1.989,3.555a3.234,3.234,0,0,1-1.712,1.626,1.6,1.6,0,0,1-2.307-1.706,2.669,2.669,0,0,1,.133-.744,25.575,25.575,0,0,1,5.422-9.143,14.83,14.83,0,0,1,12.748-4.5,21.619,21.619,0,0,1,8.686,2.772,1.956,1.956,0,0,0,1.294.146c2.934-.691,5.855-1.44,8.781-2.164a2,2,0,0,1,2.637,1.317,2.026,2.026,0,0,1-1.625,2.479c-2.695.7-5.4,1.369-8.1,2.026-3.413.829-2.308.914-5.481-.575-.6-.283-1.2-.6-1.807-.863-.654-.286-1.093-.005-1.1.717a24.31,24.31,0,0,0,2.288,10.44,6.466,6.466,0,0,0,.99,1.321c1.506,1.833,3.032,3.651,4.524,5.5a7.578,7.578,0,0,1,.958,1.5c1.535,3.247,3.031,6.512,4.569,9.758.221.465.2.71-.246,1.008C2320.2,440.156,2319.234,440.891,2318.183,441.649Z" transform="translate(0 -107.534)" fill="#3cb08e"/>
      <path id="Path_1001" data-name="Path 1001" d="M2376.792,294.1a5.682,5.682,0,1,1,5.648,5.688A5.682,5.682,0,0,1,2376.792,294.1Z" transform="translate(-77.777 -7.904)" fill="#3cb08e"/>
      <path id="Path_1002" data-name="Path 1002" d="M2611.822,316.634v-7.916h10.128c-.18.225-.3.4-.442.551-.842.915-1.681,1.833-2.539,2.734a.833.833,0,0,0,0,1.319c.871.92,1.725,1.855,2.583,2.787.132.144.25.3.435.525Z" transform="translate(-280.32 -25.411)" fill="#3cb08e"/>
      <path id="Path_1003" data-name="Path 1003" d="M2566.383,279.3c-.8.864-1.461,1.625-2.171,2.34a1.85,1.85,0,0,0-.571,1.476c.039,1.1.013,2.209.01,3.313,0,.248-.02.5-.033.779h-5.944a4.428,4.428,0,0,1-.064-.53c0-2.278.006-4.557-.01-6.835,0-.427.091-.616.569-.612,2.577.02,5.153.01,7.73.012C2566.006,279.244,2566.112,279.267,2566.383,279.3Z" transform="translate(-233.593 0)" fill="#3cb08e"/>
      <path id="Path_1004" data-name="Path 1004" d="M2553.942,476.436c-.173.021-.307.047-.441.051-.922.033-.923.031-.923-.873V449.909c0-1.226,0-1.226,1.363-1.351Z" transform="translate(-229.266 -145.922)" fill="#3cb08e"/>
      <path id="Path_1005" data-name="Path 1005" d="M2553.925,342.23v7.786l-1.3.137a1.687,1.687,0,0,1-.074-.336c0-2.345,0-4.689-.012-7.034,0-.413.128-.6.554-.557C2553.338,342.249,2553.59,342.23,2553.925,342.23Z" transform="translate(-229.229 -54.283)" fill="#3cb08e"/>
      <path id="Path_1006" data-name="Path 1006" d="M2418.26,714.685c.042.526-.606,1.426-1.01,1.429-1.539.015-3.078,0-4.616.011-.45,0-.491-.272-.443-.586s-.241-.838.376-.846C2414.467,714.669,2416.367,714.685,2418.26,714.685Z" transform="translate(-108.259 -375.261)" fill="#3cb08e"/>
      <path id="Path_1007" data-name="Path 1007" d="M2349.122,716.2c-.45-.233-1.131.292-1.14-.61s-.032-.906.883-.908h.411c.767,0,1.163.542.777,1.2C2349.919,716.111,2349.4,716.114,2349.122,716.2Z" transform="translate(-52.947 -375.262)" fill="#3cb08e"/>
      <path id="Path_1008" data-name="Path 1008" d="M2619.7,289.187h-1.259l1.259-1.392Z" transform="translate(-286.022 -7.38)" fill="#3cb08e"/>
    </g>
  </g>
</svg>
