<svg xmlns="http://www.w3.org/2000/svg" width="124.029" height="127.18" viewBox="0 0 124.029 127.18">
  <g id="Group_1228" data-name="Group 1228" transform="translate(-132.985 -24.91)">
    <path id="Path_257" data-name="Path 257" d="M52.5,0C81.495,0,71.343,17.328,71.343,46.323S81.495,105,52.5,105a52.5,52.5,0,0,1,0-105Z" transform="translate(132.985 72.845) rotate(-41)" fill="#3cb08e" opacity="0.15"/>
    <g id="Group_1227" data-name="Group 1227" transform="translate(-1510.39 42.678)">
      <path id="Path_1570" data-name="Path 1570" d="M1715.882,148.455l1.058-4.991c.053-.251.112-.5.162-.753a1.224,1.224,0,0,0-1.192-1.6c-2.883-.032-5.766-.022-8.648,0-.642,0-.986.452-1.224,1.017-.808,1.916-1.653,3.817-2.443,5.741a.861.861,0,0,1-.946.656c-2.548-.033-5.1-.008-7.645-.017a2.422,2.422,0,0,1-2.541-2.509q-.01-11.081,0-22.163a2.413,2.413,0,0,1,2.468-2.5q17.3-.01,34.6,0a2.407,2.407,0,0,1,2.468,2.5q.01,11.081,0,22.163a2.4,2.4,0,0,1-2.387,2.5c-4.427.017-8.854.007-13.282,0A4.213,4.213,0,0,1,1715.882,148.455Zm-16.05-20.98v-2.394h-4.851v2.394Zm7.411,0v-2.386H1702.4v2.386Zm2.541-.024h4.877v-2.366h-4.877Zm7.442-2.382v2.381h4.85v-2.381Zm7.423-.017v2.408h4.824v-2.408Z" transform="translate(0 -104.666)" fill="#3cb08e"/>
      <path id="Path_1571" data-name="Path 1571" d="M1891.417,162.9a2.827,2.827,0,0,1,.53.493c3.629,5.75,11.024,6.09,15.116.644a2.26,2.26,0,0,1,2.216-1.081c1.431.118,2.9-.049,4.3.2a6,6,0,0,1,4.831,5.891c.011,1.233,0,2.466,0,3.809h-6.143v-3.646h-2.485v13.532h-.907c-4.375,0-8.751.032-13.126-.013a6.9,6.9,0,0,0-5.775,2.505c.16-1.4-.252-2.584.536-3.787a5.421,5.421,0,0,0,.691-2.781c.065-4.915.031-9.832.031-14.748v-.845Zm14.376,8.6-1.068-2.188a11.338,11.338,0,0,1-10.406-.378l-1.215,2.11A13.711,13.711,0,0,0,1905.794,171.5Z" transform="translate(-156.76 -137.656)" fill="#3cb08e"/>
      <path id="Path_1572" data-name="Path 1572" d="M1884.071,39.53a30.881,30.881,0,0,0,13.843-4.081,7.67,7.67,0,0,0,3.168,4.5A31.215,31.215,0,0,0,1904.5,41.5c.22.1.552.329.548.49a40.346,40.346,0,0,1-.336,6.908c-1.02,4.992-5.6,8.193-10.911,7.967a10.351,10.351,0,0,1-9.554-8.792,49.045,49.045,0,0,1-.17-5.853C1884.057,41.346,1884.071,40.473,1884.071,39.53Zm12.947,7.885a6.113,6.113,0,0,1-6.139.005l-1.26,1.951c2.624,1.771,6.611,1.735,8.646-.055Zm-7.973-1.665a2.468,2.468,0,1,0-2.5-2.432A2.529,2.529,0,0,0,1889.044,45.749Zm12.319-2.485a2.468,2.468,0,1,0-2.448,2.485A2.528,2.528,0,0,0,1901.363,43.265Z" transform="translate(-152.068 -36.506)" fill="#3cb08e"/>
      <path id="Path_1573" data-name="Path 1573" d="M1896.038,239.41c0-1.034-.049-1.961.01-2.881a3.646,3.646,0,0,1,3.655-3.289q7.717-.015,15.435,0c1.546,0,1.9-.354,1.9-1.909,0-2.622,0-5.243,0-7.92h6.133c.013.224.038.447.038.67,0,2.624.009,5.248,0,7.872a7.369,7.369,0,0,1-7.419,7.457q-9.531.019-19.062,0Z" transform="translate(-161.555 -185.678)" fill="#3cb08e"/>
      <path id="Path_1574" data-name="Path 1574" d="M1692.644,315.524v-2.375h69.122v2.375Z" transform="translate(-0.148 -256.901)" fill="#3cb08e"/>
      <path id="Path_1575" data-name="Path 1575" d="M1747.159,243.856H1737.7c.083-.232.146-.44.231-.639,1.927-4.509,3.865-9.013,5.776-13.528a.868.868,0,0,1,.959-.637c1.85.038,3.7.015,5.657.015C1749.262,234.035,1748.212,238.935,1747.159,243.856Z" transform="translate(-35.908 -190.157)" fill="#3cb08e"/>
      <path id="Path_1576" data-name="Path 1576" d="M1872.238.587V-.767c5.1-.838,10.141-1.862,14.438-5.145l-1.735-1.711C1881.2-4.963,1876.88-4,1872.236-3.248c.276-.813.481-1.5.759-2.164.054-.13.388-.163.6-.2,1.914-.346,3.832-.678,5.745-1.03a5.117,5.117,0,0,0,.8-.3l-1.016-2.1-3.924.894-.058-.2a8.06,8.06,0,0,1,5.183-2.151c1.773-.072,3.552-.065,5.325.007a4.093,4.093,0,0,1,1.716.572,1.689,1.689,0,0,1,.924,1.712c-.077,1.308,0,2.624-.038,3.936a1.006,1.006,0,0,1-.376.727A27.789,27.789,0,0,1,1872.238.587Z" transform="translate(-142.68 0)" fill="#3cb08e"/>
      <path id="Path_1577" data-name="Path 1577" d="M1920.344,147.9l1.74,2.762a6.541,6.541,0,0,1-10.757.1l1.923-2.5A12.838,12.838,0,0,0,1920.344,147.9Z" transform="translate(-173.704 -125.748)" fill="#3cb08e"/>
      <path id="Path_1578" data-name="Path 1578" d="M1966.875,12.663a5.711,5.711,0,0,1-4.937-5.976c0-1.461,0-2.922,0-4.473a5.908,5.908,0,0,1,3.663,2.277,5.9,5.9,0,0,1,1.276,3.711C1966.871,9.685,1966.875,11.168,1966.875,12.663Z" transform="translate(-213.871 -10.13)" fill="#3cb08e"/>
      <path id="Path_1579" data-name="Path 1579" d="M1823.577,272.423h-2.466c0-1.03,0-2.026,0-3.021,0-1.51-.337-1.853-1.842-1.886-.147,0-.294-.024-.52-.044.291-.738.54-1.434.848-2.1a.689.689,0,0,1,.524-.3c2.235-.02,4.469-.013,6.823-.013-.317.8-.579,1.543-.916,2.246-.069.144-.424.2-.649.21-1.448.041-1.8.393-1.8,1.857C1823.576,270.363,1823.577,271.362,1823.577,272.423Z" transform="translate(-100.23 -218.728)" fill="#3cb08e"/>
      <path id="Path_1580" data-name="Path 1580" d="M1860.528,289.266v2.372h-6.074v-2.372Z" transform="translate(-128.567 -237.946)" fill="#3cb08e"/>
      <path id="Path_1581" data-name="Path 1581" d="M1800.313,289.149v2.39H1795.7l.509-2.39Z" transform="translate(-81.938 -237.853)" fill="#3cb08e"/>
      <path id="Path_1582" data-name="Path 1582" d="M1868.979,263.889v2.668h-2.315a10.321,10.321,0,0,1,.894-2.155C1867.783,264.081,1868.445,264.066,1868.979,263.889Z" transform="translate(-138.258 -217.806)" fill="#3cb08e"/>
      <path id="Path_1583" data-name="Path 1583" d="M1867.329,69.315V73.4C1865.745,72.612,1865.708,70.453,1867.329,69.315Z" transform="translate(-137.831 -63.384)" fill="#3cb08e"/>
      <path id="Path_1584" data-name="Path 1584" d="M1998.183,69.448a2.39,2.39,0,0,1,0,4.118Z" transform="translate(-242.636 -63.49)" fill="#3cb08e"/>
      <path id="Path_1585" data-name="Path 1585" d="M1800.653,267.717l.552-2.56h1.482a18.378,18.378,0,0,1-.915,2.21C1801.652,267.582,1801.14,267.577,1800.653,267.717Z" transform="translate(-85.868 -218.812)" fill="#3cb08e"/>
    </g>
  </g>
</svg>
