<svg xmlns="http://www.w3.org/2000/svg" width="124.075" height="127.18" viewBox="0 0 124.075 127.18">
  <g id="Group_1227" data-name="Group 1227" transform="translate(-114.485 0)">
    <path id="Path_255" data-name="Path 255" d="M52.5,0C81.495,0,71.343,17.328,71.343,46.323S81.495,105,52.5,105a52.5,52.5,0,0,1,0-105Z" transform="translate(114.485 47.935) rotate(-41)" fill="#3cb08e" opacity="0.15"/>
    <g id="Group_1218" data-name="Group 1218" transform="translate(-567.211 -294.98)">
      <g id="Group_1218-2" data-name="Group 1218" transform="translate(726.953 317.946)">
        <path id="Path_1601" data-name="Path 1601" d="M827.069,377.955c-9.44-.4-17.671,4.136-26.473,6.249-6.7,1.608-13.467,2.053-20.086-.264-7.354-2.574-12.645-7.329-14.325-15.243a14.328,14.328,0,0,1,6.7-14.736,11.322,11.322,0,0,1,11.961.99,10.121,10.121,0,0,1,3.063,10.333,16.47,16.47,0,0,0-2.762-5.23c-1.567-1.773-3.487-3.012-5.945-2.628-2.591.4-3.965,2.253-4.756,4.632a10.423,10.423,0,0,0,3.67,11.509c5.159,3.881,10.988,5.03,17.313,4.372,7.112-.741,14.107-2.512,21.309-2.447A24.854,24.854,0,0,1,827.069,377.955Z" transform="translate(-748.251 -346.348)" fill="#3cb08e"/>
        <path id="Path_1602" data-name="Path 1602" d="M728.338,376.871a38.772,38.772,0,0,0,3.692,12.16c4.839,9.011,12.831,13.037,22.591,14.111a66.179,66.179,0,0,0,28.3-3.362c6.3-2.083,12.583-4.3,19.384-3.873a3.9,3.9,0,0,1,2.529.563c-9.125,2.075-16.16,7.99-24.49,11.139-12.207,4.615-24.531,5.545-36.817.433-7.323-3.047-12.868-8.041-15.477-15.813A24.536,24.536,0,0,1,728.338,376.871Z" transform="translate(-726.953 -359.562)" fill="#3cb08e"/>
        <path id="Path_1603" data-name="Path 1603" d="M752.36,376.053c-16.032-9-18.121-23.262-4.745-34.555-3.431,6.041-5.437,11.887-4.4,18.465C744.237,366.487,748.182,371.292,752.36,376.053Z" transform="translate(-733.434 -340.23)" fill="#3cb08e"/>
        <path id="Path_1604" data-name="Path 1604" d="M777.163,339.965c-8.636-.2-15.095,3.036-18.244,11.75-.991-2.756,1.122-7.946,3.931-10.356C766.175,338.508,773.231,337.8,777.163,339.965Z" transform="translate(-744.288 -338.701)" fill="#3cb08e"/>
      </g>
      <path id="Path_1605" data-name="Path 1605" d="M828.2,332.7c.659.409,1.247.808,1.868,1.151.935.517,1.888,1,2.843,1.483a3.26,3.26,0,0,0,2.5.15,27.845,27.845,0,0,0,3.771-1.509c.38-.179.755-.365,1.193-.577-.093.149-.154.25-.218.35a30.618,30.618,0,0,0-2.312,4.095c-.061.138-.113.279-.174.417a3.153,3.153,0,0,0-.121,2.21,26.387,26.387,0,0,0,1.584,4c.165.351.34.7.528,1.082a1.218,1.218,0,0,1-.137-.063,32.236,32.236,0,0,0-4.274-2.433c-.152-.068-.308-.125-.462-.191a3.092,3.092,0,0,0-2.1-.136,25.067,25.067,0,0,0-4.046,1.586c-.371.173-.738.357-1.125.545.513-.845,1.036-1.649,1.5-2.486.429-.775.8-1.581,1.181-2.384a2.978,2.978,0,0,0,.135-2.116,26.791,26.791,0,0,0-1.755-4.389C828.475,333.24,828.352,333,828.2,332.7Z" transform="translate(-54.968 -17.476)" fill="#3cb08e"/>
      <path id="Path_1606" data-name="Path 1606" d="M838.35,308.416c-.8-.448-1.61-.9-2.417-1.353a2.457,2.457,0,0,0-2.284-.135c-.853.361-1.709.713-2.562,1.068.141-.225.3-.463.444-.714.364-.658.725-1.318,1.072-1.984a1.928,1.928,0,0,0,.092-1.661c-.354-.889-.731-1.77-1.1-2.654-.03-.073-.067-.141-.123-.258.374.232.7.453,1.046.644.567.315,1.142.618,1.721.913a1.945,1.945,0,0,0,1.661.085c.9-.361,1.8-.746,2.7-1.121l.157-.067c-.419.734-.829,1.473-1.261,2.2a2.75,2.75,0,0,0-.17,2.7c.333.727.644,1.464.966,2.2Z" transform="translate(-56.913)" fill="#3cb08e"/>
      <path id="Path_1607" data-name="Path 1607" d="M790.351,318.856c.341-.6.673-1.2,1.019-1.8a2.059,2.059,0,0,0,.12-1.96c-.273-.632-.538-1.268-.814-1.922.1.058.189.118.285.171.617.341,1.231.687,1.852,1.019a1.481,1.481,0,0,0,1.269.072c.754-.289,1.5-.594,2.244-.89l-.067.12c-.369.664-.744,1.326-1.1,1.995a1.434,1.434,0,0,0-.073,1.246c.28.707.577,1.407.867,2.109.021.05.045.1.088.195-.384-.234-.722-.452-1.072-.649s-.7-.364-1.055-.546a1.6,1.6,0,0,0-1.383-.068c-.683.274-1.359.568-2.038.853C790.442,318.823,790.392,318.84,790.351,318.856Z" transform="translate(-34.649 -6.805)" fill="#3cb08e"/>
    </g>
  </g>
</svg>
