<svg xmlns="http://www.w3.org/2000/svg" width="124.029" height="127.18" viewBox="0 0 124.029 127.18">
  <g id="Group_1095" data-name="Group 1095" transform="translate(-686.485 -4151.91)">
    <path id="Path_255" data-name="Path 255" d="M52.5,0C81.495,0,71.343,17.328,71.343,46.323S81.495,105,52.5,105a52.5,52.5,0,0,1,0-105Z" transform="translate(686.485 4199.845) rotate(-41)" fill="#3cb08e" opacity="0.15"/>
    <g id="Group_653" data-name="Group 653" transform="translate(-4885.946 2843.325)">
      <path id="Path_258" data-name="Path 258" d="M5759.871,1572.493q-5.231,0-10.463,0c-1.334,0-1.653-.32-1.658-1.655,0-1.614-.022-3.228,0-4.841a5.687,5.687,0,0,1,5.9-5.91c.416-.009.835.024,1.25-.005a2.487,2.487,0,0,1,2.308.939,3.77,3.77,0,0,0,5.6-.192,1.939,1.939,0,0,1,1.694-.745,22.445,22.445,0,0,1,3.105.2,5.569,5.569,0,0,1,4.386,5.459c.033,1.743.012,3.488.007,5.231,0,1.085-.422,1.514-1.515,1.517C5766.95,1572.5,5763.411,1572.493,5759.871,1572.493Z" transform="translate(-108.634 -201.664)" fill="#3cb08e"/>
      <path id="Path_259" data-name="Path 259" d="M5886.908,1556.371c0-1.064-.005-2.022,0-2.98a8.064,8.064,0,0,0-5.311-8.016c-.093-.04-.179-.1-.277-.345.745-.068,1.489-.14,2.234-.2a3.7,3.7,0,0,1,3.108.991,3.288,3.288,0,0,0,4.8-.366,1.645,1.645,0,0,1,1.42-.632,24.216,24.216,0,0,1,2.793.138,5.243,5.243,0,0,1,4.291,4.97c.067,1.74.025,3.484.015,5.226,0,.681-.309,1.2-1.042,1.208C5894.966,1556.382,5890.992,1556.371,5886.908,1556.371Z" transform="translate(-221.306 -188.787)" fill="#3cb08e"/>
      <path id="Path_260" data-name="Path 260" d="M5663.053,1557.148c-4.1,0-8,.007-11.908-.005-.785,0-1.167-.356-1.173-1.145-.016-1.9-.061-3.8.057-5.7a5.013,5.013,0,0,1,4.976-4.564c.364,0,.729.013,1.093,0a2.977,2.977,0,0,1,2.751.986c1.085,1.267,3.533,1.081,4.713-.217a2.136,2.136,0,0,1,1.909-.775c.829.063,1.663.044,2.493.089a4.025,4.025,0,0,1,.8.246C5663.395,1548.032,5662.595,1552.26,5663.053,1557.148Z" transform="translate(-26.151 -189.559)" fill="#3cb08e"/>
      <path id="Path_261" data-name="Path 261" d="M5903.124,1367.735a29.565,29.565,0,0,0-9.688-7.693c-1.577-.781-3.247-1.375-4.887-2.023-.85-.335-1.162-.791-.919-1.5a1.193,1.193,0,0,1,1.634-.723,32.591,32.591,0,0,1,15.339,10,.908.908,0,0,0,1.109.362,5.176,5.176,0,1,1,2.53,10.037,5.345,5.345,0,0,1-6.258-3.952A5.033,5.033,0,0,1,5903.124,1367.735Z" transform="translate(-226.559 -29.292)" fill="#3cb08e"/>
      <path id="Path_262" data-name="Path 262" d="M5993.729,1516.132a31.9,31.9,0,0,1-1.794,10.859,1.223,1.223,0,0,0,.291,1.478,4.738,4.738,0,0,1,.918,5.667,5.213,5.213,0,0,1-5.277,2.848,5.117,5.117,0,0,1-4.35-3.722c-.871-3.312,1.855-6.722,5-6.385.791.085,1.068-.208,1.295-.9a31.09,31.09,0,0,0,.892-16.3c-.027-.127-.072-.251-.09-.378a1.253,1.253,0,0,1,.875-1.522,1.2,1.2,0,0,1,1.432,1.093c.369,2.406.685,4.821,1.022,7.232Z" transform="translate(-307.367 -157.537)" fill="#3cb08e"/>
      <path id="Path_263" data-name="Path 263" d="M5703.019,1327.743a31.361,31.361,0,0,0-15.551,7.619c-.859.783-1.516.91-2.014.365-.55-.6-.406-1.256.462-2.047a32.65,32.65,0,0,1,15.883-7.959c.561-.112.913-.243,1.084-.939a5.063,5.063,0,0,1,5.473-3.776,5.317,5.317,0,0,1,4.748,4.626,5.128,5.128,0,0,1-3.81,5.464,5.179,5.179,0,0,1-5.93-2.639C5703.246,1328.232,5703.142,1328,5703.019,1327.743Z" transform="translate(-55.823)" fill="#3cb08e"/>
      <path id="Path_264" data-name="Path 264" d="M5814.118,1714.736a31.525,31.525,0,0,0,15.593-7.661c.772-.707,1.463-.848,1.908-.391.543.559.41,1.259-.41,2.012a32.6,32.6,0,0,1-15.924,8.042,1.245,1.245,0,0,0-1.175,1.034,5.152,5.152,0,1,1-4.975-6.568,5.078,5.078,0,0,1,4.669,2.861C5813.914,1714.266,5814,1714.48,5814.118,1714.736Z" transform="translate(-156.1 -325.107)" fill="#3cb08e"/>
      <path id="Path_265" data-name="Path 265" d="M5623.126,1438.184a31.378,31.378,0,0,0-1.16,17.539c.179.8-.11,1.366-.7,1.514-.734.183-1.29-.2-1.49-1.078a32.676,32.676,0,0,1,1.073-18.263,1.223,1.223,0,0,0-.382-1.571,4.4,4.4,0,0,1-1.2-4.713,5.111,5.111,0,0,1,5.833-3.684,5.022,5.022,0,0,1,4.188,5.457,5.092,5.092,0,0,1-5.1,4.8C5623.846,1438.187,5623.51,1438.184,5623.126,1438.184Z" transform="translate(0 -90.128)" fill="#3cb08e"/>
      <path id="Path_266" data-name="Path 266" d="M5631.555,1645.056a27.035,27.035,0,0,0,7.686,6.555c2.1,1.164,4.36,2.04,6.551,3.041.165.075.349.107.515.177.647.272,1.013.853.836,1.313a1.277,1.277,0,0,1-1.62.715c-1.934-.745-3.9-1.435-5.748-2.362a31.858,31.858,0,0,1-9.647-7.67c-.267-.3-.464-.495-.965-.338a4.865,4.865,0,0,1-5.366-1.527,4.712,4.712,0,0,1-.913-5.49,4.9,4.9,0,0,1,4.8-2.978,5.018,5.018,0,0,1,4.707,3.156C5633.291,1641.565,5632.838,1643.34,5631.555,1645.056Z" transform="translate(-2.89 -266.125)" fill="#3cb08e"/>
      <path id="Path_267" data-name="Path 267" d="M5791.326,1491.106a6.288,6.288,0,1,1,6.369-6.243A6.3,6.3,0,0,1,5791.326,1491.106Z" transform="translate(-140.15 -132.888)" fill="#3cb08e"/>
      <path id="Path_268" data-name="Path 268" d="M5690.254,1482.147a5.832,5.832,0,1,1-.116-11.664,5.913,5.913,0,0,1,5.877,5.852A5.722,5.722,0,0,1,5690.254,1482.147Z" transform="translate(-55.15 -126.1)" fill="#3cb08e"/>
      <path id="Path_269" data-name="Path 269" d="M5897.5,1482.145a5.83,5.83,0,0,1,.078-11.661,5.83,5.83,0,1,1-.078,11.661Z" transform="translate(-230.078 -126.101)" fill="#3cb08e"/>
    </g>
  </g>
</svg>
