<svg xmlns="http://www.w3.org/2000/svg" width="126.75" height="127.18" viewBox="0 0 126.75 127.18">
  <g id="Group_1230" data-name="Group 1230" transform="translate(-132.985 -24.91)">
    <path id="Path_257" data-name="Path 257" d="M52.5,0C81.495,0,71.343,17.328,71.343,46.323S81.495,105,52.5,105a52.5,52.5,0,0,1,0-105Z" transform="translate(132.985 72.845) rotate(-41)" fill="#3cb08e" opacity="0.15"/>
    <g id="Group_1143" data-name="Group 1143" transform="translate(-377.607 -501.662)">
      <path id="Path_1521" data-name="Path 1521" d="M759.743,710.931a15.13,15.13,0,0,0-30.255.477q-.026,12.973,0,25.945v.879h29.694c.054,0,.107,0,.159,0h.454v-12.92h-.011C759.793,720.519,759.8,715.725,759.743,710.931Z" transform="translate(-146.118 -135.27)" fill="#3cb08e"/>
      <path id="Path_1522" data-name="Path 1522" d="M963.913,755.23a10.416,10.416,0,0,0-9.126-10.533,8.359,8.359,0,0,0-4.131.393,4.227,4.227,0,0,0,.149.441,19.267,19.267,0,0,1,1.765,8.588c-.029,3.541-.031,7.082-.025,10.623h0v9.111h1.6l.118.056.029-.056h9.627V759.93h0Q963.914,757.581,963.913,755.23Z" transform="translate(-336.443 -176.948)" fill="#3cb08e"/>
      <path id="Path_1523" data-name="Path 1523" d="M778.455,558.292a9.662,9.662,0,1,0-9.533-9.874A9.676,9.676,0,0,0,778.455,558.292Z" transform="translate(-180.058 0)" fill="#3cb08e"/>
      <path id="Path_1524" data-name="Path 1524" d="M1060.031,778.088a6.725,6.725,0,0,0-1.362-3.958,6.983,6.983,0,0,0-7.764-2.636c.064.151.1.258.153.356a13.227,13.227,0,0,1,1.558,6.635c-.039,4.088-.011,8.177-.009,12.266,0,.267.025.533.037.776H1060a2.086,2.086,0,0,0,.042-.267C1060.044,786.87,1060.067,782.479,1060.031,778.088Z" transform="translate(-422.709 -199.786)" fill="#3cb08e"/>
      <path id="Path_1525" data-name="Path 1525" d="M559.9,776.836a22.3,22.3,0,0,0-.215,3.673h0v2.4c0,.036,0,.071,0,.107,0,.006,0,.012,0,.018v1.435c-.016.339-.008.68,0,1.02v3.36h.011c0,.88,0,1.771,0,2.685.324.015.551.034.778.034,1.929,0,3.858-.026,5.786.017.666.015.862-.17.857-.848-.031-4.159,0-8.319-.022-12.478a13.2,13.2,0,0,1,1.472-6.242c.091-.175.156-.364.257-.6-.341-.08-.607-.158-.878-.2A7.012,7.012,0,0,0,559.9,776.836Z" transform="translate(0 -199.758)" fill="#3cb08e"/>
      <path id="Path_1526" data-name="Path 1526" d="M664.915,645.836a6.526,6.526,0,1,0-6.491-6.563A6.548,6.548,0,0,0,664.915,645.836Z" transform="translate(-84.976 -80.73)" fill="#3cb08e"/>
      <path id="Path_1527" data-name="Path 1527" d="M1037.628,698.783a4.372,4.372,0,1,0-4.266-4.422A4.333,4.333,0,0,0,1037.628,698.783Z" transform="translate(-407.612 -129.998)" fill="#3cb08e"/>
      <path id="Path_1528" data-name="Path 1528" d="M584.534,698.787a4.371,4.371,0,1,0-4.355-4.392A4.327,4.327,0,0,0,584.534,698.787Z" transform="translate(-17.645 -130.002)" fill="#3cb08e"/>
      <path id="Path_1529" data-name="Path 1529" d="M928.106,645.285l.059.027.073.03a6.361,6.361,0,0,0,2.531.495,6.554,6.554,0,0,0,6.475-6.528,6.491,6.491,0,0,0-1.077-3.59c-.063-.1-.128-.2-.2-.3a4.685,4.685,0,0,0-1.038-1.088,6.5,6.5,0,0,0-4.213-1.544,6.564,6.564,0,0,0-.816.053,2.948,2.948,0,0,0-.787.118,6.979,6.979,0,0,0-1.755.759l-.076.047c-.051.032-.1.064-.151.1s-.1.066-.147.1l-.078.056q-.091.066-.18.135l-.043.034q-.1.077-.193.158l-.026.023c-.066.057-.131.115-.2.174l-.018.018c-.065.061-.129.123-.192.187l-.013.014a6.548,6.548,0,0,0-.672.811c-.017.025-.035.049-.052.074-.031.046-.061.093-.091.14s-.05.076-.073.114-.055.093-.082.139-.047.08-.069.12-.053.1-.079.149-.039.076-.058.114c-.027.055-.053.11-.079.165l-.045.1q-.041.093-.079.188l-.029.074q-.042.109-.081.22l-.012.035a6.523,6.523,0,0,0,3.559,8.085Z" transform="translate(-313.675 -80.73)" fill="#3cb08e"/>
      <path id="Path_1530" data-name="Path 1530" d="M640.995,744.705h-.012a10.585,10.585,0,0,0-2.43.295l-.042.01c-8.567,1.76-7.9,9.988-7.9,9.988h0c-.01.18-.016.36-.016.54.009,2.866.045,5.731.074,8.6v9.4l-.064,0a.418.418,0,0,0,.064.329v.1h.222a2.551,2.551,0,0,0,.31,0H641.28c.2,0,.4-.036.643-.059V773q0-9.862,0-19.723a16.743,16.743,0,0,1,1.054-5.936c.268-.713.574-1.412.883-2.166a8.884,8.884,0,0,0-2.865-.472Z" transform="translate(-61.029 -177.038)" fill="#3cb08e"/>
    </g>
  </g>
</svg>
