<svg xmlns="http://www.w3.org/2000/svg" width="124.029" height="127.18" viewBox="0 0 124.029 127.18">
  <g id="Group_1206" data-name="Group 1206" transform="translate(-1523.985 -4151.91)">
    <path id="Path_257" data-name="Path 257" d="M52.5,0C81.495,0,71.343,17.328,71.343,46.323S81.495,105,52.5,105a52.5,52.5,0,0,1,0-105Z" transform="translate(1523.985 4199.845) rotate(-41)" fill="#3cb08e" opacity="0.15"/>
    <g id="Group_1205" data-name="Group 1205" transform="translate(-4727.878 2905.245)">
      <path id="Path_270" data-name="Path 270" d="M6343.473,1261.763q3.033,2.481,6.066,4.961c1.23,1,1.239,1.744.033,2.764-1.74,1.471-3.463,2.961-5.223,4.406a6.059,6.059,0,0,1-1.277.624,7.106,7.106,0,0,1-.393-1.364c-.066-.74-.018-1.491-.018-2.274a23.775,23.775,0,0,0-6.87.871,27.455,27.455,0,0,0-19.169,17.611,25.417,25.417,0,0,0-1.342,12.835c1.56,10.4,7.219,17.75,16.773,22.022a26.293,26.293,0,0,0,15.033,1.852,27.887,27.887,0,0,0,9.116-3.1,3,3,0,0,1,2.151-.448,2.659,2.659,0,0,1,2.1,2.246,2.5,2.5,0,0,1-1.462,2.749,61.771,61.771,0,0,1-6.639,2.811,31.1,31.1,0,0,1-14.438,1.049,32.521,32.521,0,0,1-21.14-12.262,31.708,31.708,0,0,1-6.777-15.933,33.131,33.131,0,0,1,27.045-37.169c1.806-.322,3.648-.438,5.523-.655,0-.743-.041-1.538.016-2.325a6.532,6.532,0,0,1,.35-1.274Z" fill="#3cb08e"/>
      <path id="Path_271" data-name="Path 271" d="M6401.306,1384.273c.461-1.354.928-2.657,1.348-3.976a4.982,4.982,0,0,1,4.079-3.654c1.938-.376,3.856-.861,5.782-1.3a1.332,1.332,0,0,0,.651-1.98c-1.324-1.595-2.659-3.18-3.983-4.773-.733-.881-1.5-1.769-1.314-3.029a12.292,12.292,0,0,1,.49-1.977c.514-1.595,1.063-3.178,1.609-4.8-.214-.1-.37-.176-.533-.235a.7.7,0,0,1-.461-.981q.4-1.232.833-2.451c.22-.618.672-.558,1.174-.385q3.511,1.206,7.028,2.4l14.448,4.913c.938.319,1.012.467.7,1.384-.173.517-.346,1.034-.523,1.549-.423,1.235-.424,1.235-1.725.936-.488,1.427-1.045,2.843-1.454,4.3a5.357,5.357,0,0,1-4.621,4.139c-1.766.308-3.508.754-5.258,1.15a1.32,1.32,0,0,0-.716,2.073c1.437,1.737,2.854,3.492,4.324,5.2a3.6,3.6,0,0,1,.681,3.755q-.718,2.166-1.435,4.332c-.056.169-.106.34-.173.554.186.077.345.15.51.209a.7.7,0,0,1,.479.972c-.265.822-.546,1.638-.833,2.452-.216.611-.657.579-1.168.4q-4.093-1.4-8.191-2.785l-13.287-4.517c-.954-.325-1.021-.466-.695-1.442.166-.5.327-.992.495-1.486C6400,1383.956,6400,1383.957,6401.306,1384.273Zm2.066.757,16.757,5.693c.526-1.544.99-3.017,1.533-4.46a2.254,2.254,0,0,0-.514-2.538c-1.583-1.791-3.074-3.664-4.619-5.489a1.4,1.4,0,0,1-.274-1.515c.257-.7.513-1.409.726-2.127a1.426,1.426,0,0,1,1.192-1.063c2.265-.487,4.523-1.007,6.787-1.5a2.719,2.719,0,0,0,2.181-1.923c.372-1.145.779-2.278,1.165-3.419.171-.506.328-1.019.5-1.562l-16.734-5.688c-.65,1.964-1.282,3.858-1.9,5.755a1.53,1.53,0,0,0,.372,1.57c1.623,1.909,3.208,3.849,4.827,5.761a1.5,1.5,0,0,1,.339,1.684,20.893,20.893,0,0,0-.68,2,1.522,1.522,0,0,1-1.284,1.146c-2.267.477-4.525,1-6.787,1.5a2.4,2.4,0,0,0-1.894,1.4C6404.47,1381.8,6403.954,1383.375,6403.372,1385.03Z" transform="translate(-73.12 -76.085)" fill="#3cb08e"/>
      <path id="Path_272" data-name="Path 272" d="M6605.5,1564.268c0,.023,0,.046,0,.068-.024,1.639-2.338,3.97-3.937,3.956a2.5,2.5,0,0,1-2.353-1.469,2.471,2.471,0,0,1,.245-2.761,13.826,13.826,0,0,1,1.614-1.758,2.466,2.466,0,0,1,2.848-.456A2.574,2.574,0,0,1,6605.5,1564.268Z" transform="translate(-237.012 -245.697)" fill="#3cb08e"/>
      <path id="Path_273" data-name="Path 273" d="M6637.568,1515.511a6.721,6.721,0,0,1-1.761,3.525,2.544,2.544,0,0,1-3.109.138,2.6,2.6,0,0,1-1.069-2.933,15.67,15.67,0,0,1,.99-2.315,2.56,2.56,0,0,1,2.968-1.245A2.714,2.714,0,0,1,6637.568,1515.511Z" transform="translate(-263.735 -205.541)" fill="#3cb08e"/>
      <path id="Path_274" data-name="Path 274" d="M6642.274,1406.631a2.542,2.542,0,0,1-2.447-1.639,15.186,15.186,0,0,1-.658-2.219,2.662,2.662,0,0,1,5.147-1.349,15.281,15.281,0,0,1,.57,2.17A2.6,2.6,0,0,1,6642.274,1406.631Z" transform="translate(-269.962 -112.882)" fill="#3cb08e"/>
      <path id="Path_275" data-name="Path 275" d="M6612.588,1351.487a2.7,2.7,0,0,1,1.6-2.59,2.566,2.566,0,0,1,2.944.607,13.753,13.753,0,0,1,1.579,2.215,2.572,2.572,0,0,1-.594,3.112,2.432,2.432,0,0,1-3.191.238,19.789,19.789,0,0,1-2.254-3.021C6612.559,1351.882,6612.6,1351.605,6612.588,1351.487Z" transform="translate(-248.232 -71.223)" fill="#3cb08e"/>
      <path id="Path_276" data-name="Path 276" d="M6577.2,1313.507a2.646,2.646,0,0,1-3.925,2.275,14.014,14.014,0,0,1-1.956-1.364,2.646,2.646,0,0,1,2.965-4.355,15.833,15.833,0,0,1,1.963,1.353A2.408,2.408,0,0,1,6577.2,1313.507Z" transform="translate(-213.617 -39.298)" fill="#3cb08e"/>
      <path id="Path_277" data-name="Path 277" d="M6646.521,1460.042a15.414,15.414,0,0,1,.167-1.557,2.639,2.639,0,0,1,5.22.4,13.222,13.222,0,0,1-.139,2.447,2.625,2.625,0,0,1-2.807,2.245,2.688,2.688,0,0,1-2.461-2.781c0-.25.033-.5.05-.75Z" transform="translate(-276.023 -159.485)" fill="#3cb08e"/>
    </g>
  </g>
</svg>
