<svg xmlns="http://www.w3.org/2000/svg" width="130.858" height="127.18" viewBox="0 0 130.858 127.18">
  <g id="Group_1209" data-name="Group 1209" transform="translate(-1523.985 -4151.91)">
    <path id="Path_257" data-name="Path 257" d="M52.5,0C81.495,0,71.343,17.328,71.343,46.323S81.495,105,52.5,105a52.5,52.5,0,0,1,0-105Z" transform="translate(1523.985 4199.845) rotate(-41)" fill="#3cb08e" opacity="0.15"/>
    <g id="Group_1208" data-name="Group 1208" transform="translate(203.876 3214.17)">
      <path id="Path_982" data-name="Path 982" d="M1630.175,978.937c-1,.291-1.945.589-2.9.835q-6.252,1.616-12.513,3.2a.842.842,0,0,0-.749.769c-.436,2.3-.908,4.6-1.4,6.894a1.356,1.356,0,0,1-.463.715c-.549.435-1.145.811-1.831,1.286-.044-.724-.084-1.336-.117-1.949-.149-2.766-.286-5.534-.458-8.3a1.762,1.762,0,0,0-.36-.919c-1.945-2.484-3.912-4.95-5.873-7.422-.132-.166-.259-.337-.458-.6.916-.11,1.71-.228,2.509-.286a1.045,1.045,0,0,1,.574.281q2.839,2.129,5.664,4.277a.644.644,0,0,0,.8.113q7.022-3.58,14.064-7.124c.088-.044.171-.1.313-.18l-12.54-18.6c1.281-.05,2.433-.01,3.56-.16a3.251,3.251,0,0,1,2.952,1.154c4.6,4.582,9.27,9.09,13.9,13.637a.89.89,0,0,0,1.1.231,56.208,56.208,0,0,1,12.233-3.436,13.638,13.638,0,0,1,6.077.185c2.195.7,2.221.637.947,2.568a14.282,14.282,0,0,1-3,3.131,39.3,39.3,0,0,1-9.415,5.213c-1.189.509-2.4.979-3.6,1.438a.646.646,0,0,0-.487.652c-.485,6.838-.988,13.675-1.468,20.513a1.651,1.651,0,0,1-.676,1.322c-1.147.889-2.249,1.836-3.462,2.838C1632.124,993.732,1631.154,986.366,1630.175,978.937Z" transform="translate(-205.106 0)" fill="#3cb08e"/>
      <path id="Path_983" data-name="Path 983" d="M1489.772,1227.234c-.22-1.015-.4-1.942-.629-2.859-.11-.446-.027-.709.439-.87.53-.183,1.036-.437,1.633-.7.116.565.209,1.071.326,1.571.193.826.386,1.653.62,2.468a.607.607,0,0,0,.427.368c3.134.014,6.268,0,9.4-.008.016,0,.033-.022.142-.1,0-.935.026-1.938-.01-2.939-.02-.54.054-.865.665-1.065a8.951,8.951,0,0,0,1.688-1.011v2.429c0,.728.015,1.456-.006,2.184-.01.378.092.536.507.534,2.993-.015,5.986,0,8.979-.024a.66.66,0,0,0,.5-.358,34.883,34.883,0,0,0,1.368-8.784,2.011,2.011,0,0,0-.042-.291H1507.1l.473-2.353h8.279c-.072-.974-.119-1.892-.211-2.806-.115-1.14-.13-1.139.948-1.432l1.24-.336c.134,1.518.265,2.992.4,4.48a.451.451,0,0,0,.148.073c1.01.084,1.013.083,1.154,1.075.057.4.1.8.156,1.267h-1.307l-1.365,9.456h3.918l.32,2.353c-1.47,0-2.9.034-4.333-.016a1.023,1.023,0,0,0-1.178.777,19.893,19.893,0,0,1-6.15,8.784,1.061,1.061,0,0,0-.12.194,23.737,23.737,0,0,0,12.485-8.344,3.24,3.24,0,0,0,4.468.27c-.185.309-.271.48-.381.634-5.982,8.415-14.126,12.687-24.45,12.064-9.843-.594-17.218-5.51-22.243-13.977-.243-.41-.159-.607.2-.877,2.406-1.831,2.4-1.838,5.395-1.838h4.829Zm3.321,2.351a19.353,19.353,0,0,0,4.234,6.673,9.5,9.5,0,0,0,3.708,2.339c.335.109.684.174,1.048.265v-9.276Zm11.419,9.218c3.266-.191,8.157-5.261,8.92-9.205h-8.92Zm-20.762-9.24c1.823,3.831,9.694,9.491,12.828,9.61-.454-.55-1.122-1.387-1.82-2.2a24.122,24.122,0,0,1-4.031-6.931c-.078-.195-.323-.457-.495-.459C1488.094,1229.553,1485.955,1229.564,1483.75,1229.564Z" transform="translate(-96.291 -227.679)" fill="#3cb08e"/>
      <path id="Path_984" data-name="Path 984" d="M1389.367,1201.618c-4.167,1.029-8.365,1.811-12.637.776-4.44-1.075-6.97-4.374-7.1-8.937-.1-3.578,1.355-6.56,3.362-9.344a40.946,40.946,0,0,1,9-8.682,106.4,106.4,0,0,1,15.157-9.235c.052-.027.111-.042.226-.084.241.3.493.61.741.922.906,1.14,1.774,2.312,2.729,3.408a3.252,3.252,0,0,1,.822,2.187c.043,1.653.158,3.3.243,4.949-1.98.719-3.929,1.388-5.85,2.131a61.79,61.79,0,0,0-13.465,6.749,37.007,37.007,0,0,0-4.268,3.66,8.614,8.614,0,0,0-2.207,4.124,3.351,3.351,0,0,0,1.352,3.894,14.838,14.838,0,0,0,5.4,2.4c1.884.438,3.813.684,5.723,1.008C1388.849,1201.586,1389.109,1201.594,1389.367,1201.618Z" transform="translate(0 -188.361)" fill="#3cb08e"/>
      <path id="Path_985" data-name="Path 985" d="M1482.714,1036.992v2.633c0,1.436-.014,2.872.009,4.307.006.371-.136.6-.462.667a1.146,1.146,0,0,1-.684-.083,2.111,2.111,0,0,1-1.234-2.338c.12-1.446.029-2.91.029-4.366v-.823a15.5,15.5,0,0,0-2.343.94,17.188,17.188,0,0,0-2.555,1.925,2.29,2.29,0,0,1-1.506.74c-.763.032-1.522.17-2.37.272a18.254,18.254,0,0,1,3.733-4.139,23.341,23.341,0,0,0-13.41,9.628h6.511a4.36,4.36,0,0,1-.414.326c-1.111.622-2.22,1.25-3.343,1.849a1.858,1.858,0,0,1-.8.2q-1.425.036-2.851,0a.618.618,0,0,0-.69.436c-.261.678-.519,1.362-.842,2.012a2.674,2.674,0,0,1-.741.957c-1.2.888-2.446,1.723-3.675,2.577-.163.113-.327.223-.629.429.206-.963.355-1.788.561-2.6a27.518,27.518,0,0,1,29.242-20.518c1.82.176,3.144.686,4.062,2.4a53.4,53.4,0,0,0,3.212,4.779c.113.165.218.335.358.552-.941.449-1.842.9-2.767,1.3-.131.056-.434-.1-.559-.249a11.338,11.338,0,0,0-3.526-2.922C1484.334,1037.551,1483.58,1037.324,1482.714,1036.992Z" transform="translate(-74.529 -70.444)" fill="#3cb08e"/>
    </g>
  </g>
</svg>
