<svg xmlns="http://www.w3.org/2000/svg" width="31.448" height="23.334" viewBox="0 0 31.448 23.334">
  <g id="Group_1178" data-name="Group 1178" transform="translate(-1555.411 -571.943)">
    <path id="Path_1588" data-name="Path 1588" d="M1584.993,586.46l-3.289.578-.333-1.867,3.329-.588a13.918,13.918,0,0,0-3.791-6.806l-2.258,2.679-1.455-1.206,2.271-2.718a13.844,13.844,0,0,0-7.374-2.737v3.585h-1.9v-3.592a13.868,13.868,0,0,0-7.4,2.747l2.272,2.709-1.454,1.216-2.249-2.675a13.7,13.7,0,0,0-3.786,6.8l3.311.588-.33,1.865-3.283-.573a13.613,13.613,0,0,0,1.482,7.517l2.75-1.589.945,1.644c-.7.4-1.387.807-2.083,1.2a.5.5,0,0,1-.236.031c-.84,0-1.679-.006-2.519.006a.384.384,0,0,1-.393-.256,15.508,15.508,0,0,1-1.621-4.857,16.161,16.161,0,0,1-.094-4.3,15.555,15.555,0,0,1,2.038-6.138,15.789,15.789,0,0,1,3.387-4.029,15.468,15.468,0,0,1,5.514-3.051,16.2,16.2,0,0,1,7.19-.51,15.717,15.717,0,0,1,12.987,12.833,15.983,15.983,0,0,1,.1,4.749,15,15,0,0,1-1.775,5.431.283.283,0,0,1-.21.115c-.9.008-1.8.006-2.7,0a.36.36,0,0,1-.169-.047c-.687-.392-1.373-.787-2.066-1.185l.951-1.641,2.759,1.586A13.78,13.78,0,0,0,1584.993,586.46Z"/>
    <path id="Path_1589" data-name="Path 1589" d="M1719.9,902.345v2.985h-12.8v-2.985Z" transform="translate(-142.358 -310.078)"/>
    <path id="Path_1590" data-name="Path 1590" d="M1728.906,732.28c.481.349.963.7,1.442,1.048q1.98,1.454,3.959,2.909a.669.669,0,0,0,.272.116,1.291,1.291,0,0,1-.105,2.576,1.236,1.236,0,0,1-1.2-.827,3.337,3.337,0,0,0-.736-1.171c-.884-1.117-1.782-2.223-2.676-3.332q-.506-.629-1.015-1.256Z" transform="translate(-162.769 -150.475)"/>
  </g>
</svg>
