<svg xmlns="http://www.w3.org/2000/svg" width="186.43" height="64.976" viewBox="0 0 186.43 64.976">
  <path id="thrifty-1" d="M96.8,3.313a41.046,41.046,0,0,1-1.571,4.332,5.151,5.151,0,0,0-.552,1.7,1.852,1.852,0,0,1-.467,1.147c-1.1,1.1.17,1.4,6.583,1.4,4.714,0,6.625-.127,6.922-.552a19.871,19.871,0,0,0,1.359-3.482c.51-1.656,1.232-3.567,1.571-4.332a6.944,6.944,0,0,0,.595-2.421V0H97.86ZM118.457.637c0,.34-.637.892-1.359,1.232a7.533,7.533,0,0,0-2.336,1.571,17.94,17.94,0,0,0-3.312,6.37,7.041,7.041,0,0,1-.637,1.869,6.916,6.916,0,0,0-.637,1.911,7.488,7.488,0,0,1-.637,1.911,6.916,6.916,0,0,0-.637,1.911,7.489,7.489,0,0,1-.637,1.911,6.613,6.613,0,0,0-.637,1.826,10.563,10.563,0,0,1-.934,2.675c-.34.722-.51,1.4-.382,1.571.17.127,4.417.3,9.428.382,8.366.127,9.131.042,9.343-.637a9.891,9.891,0,0,1,.595-1.4,8.607,8.607,0,0,0,.637-2.251,3.881,3.881,0,0,1,.679-1.784,1.2,1.2,0,0,0,.382-.934,6.019,6.019,0,0,1,.637-1.954,5.875,5.875,0,0,0,.637-1.571,5.253,5.253,0,0,0-2.421-.467c-2.081-.127-2.463-.255-2.591-.977-.212-1.7.552-2.123,4.034-2.208,1.826-.042,3.44-.085,3.652-.085.17-.042.3-.382.3-.807a2.029,2.029,0,0,1,.255-1.062A64.053,64.053,0,0,0,135.02.51c0-.382-1.954-.51-8.281-.51-7.05,0-8.281.085-8.281.637ZM8.04,2c-.425.085-1.444,2.633-2.888,7.05-1.232,3.78-2.251,7.05-2.208,7.22,0,.212,1.826.3,4.034.212,4.162-.127,5.521.3,4.587,1.444A6.018,6.018,0,0,0,10.8,19.96a7.857,7.857,0,0,1-.595,1.911c-.637,1.062-1.232,3.4-.934,3.61a57.361,57.361,0,0,0,7.092.17l6.752-.042.764-2.506c.467-1.359.977-2.888,1.189-3.355s.552-1.359.764-2c.425-1.1.595-1.147,3.737-1.274l3.27-.127.467-1.486a10.988,10.988,0,0,1,.679-1.911,7.857,7.857,0,0,0,.595-1.911,7.254,7.254,0,0,1,.595-1.911c.552-.807,2.293-6.625,2.038-6.88C36.918,2,9.1,1.741,8.04,2ZM41.08,2c-.425.127-.807.807-.977,1.869a4.262,4.262,0,0,1-.637,1.869,4.284,4.284,0,0,0-.637,1.911,4.284,4.284,0,0,1-.637,1.911,4.326,4.326,0,0,0-.637,1.741,8.607,8.607,0,0,1-.637,2.251c-.212.382-1.062,2.76-1.911,5.351-.849,2.548-1.741,5.011-1.954,5.436s-.34.892-.212,1.062c.085.17,6.837.3,14.949.3H62.569l1.189-3.4c1.571-4.544,1.529-5.733-.255-7.6l-1.4-1.529H56.921c-4.374,0-5.224-.085-5.436-.679a1.821,1.821,0,0,1,.17-1.4,7.867,7.867,0,0,0,.764-2.166,6.916,6.916,0,0,1,.637-1.911A7.489,7.489,0,0,0,53.693,5.1a6.018,6.018,0,0,1,.764-2.038c.34-.425.3-.679-.085-.892C53.821,1.826,42.354,1.7,41.08,2Zm101.159.042c-.255.085-.425.51-.425.934a1.336,1.336,0,0,1-.382,1.019,4.636,4.636,0,0,0-.68,1.954,4.284,4.284,0,0,1-.637,1.911,4.284,4.284,0,0,0-.637,1.911,4.636,4.636,0,0,1-.679,1.954,1.336,1.336,0,0,0-.382,1.019c0,1.444-1.232,2.166-3.567,2.123-1.189-.042-2.378-.042-2.633-.042a5.484,5.484,0,0,0-1.232,2.463,18.861,18.861,0,0,1-1.147,2.845,2.668,2.668,0,0,0-.34,1.274,5.929,5.929,0,0,1-.637,2.123,5.771,5.771,0,0,0-.637,1.7c0,.425,3.907.51,16.9.425,9.258-.042,17.072-.085,17.327-.127.34-.042.425-1.614.255-5.266a46.7,46.7,0,0,0-.34-5.351c-.042-.085-2.421-.085-5.266-.085-4.2.085-5.139-.042-5.351-.552-.212-.595,1.062-5.648,1.954-7.687a18.6,18.6,0,0,0,1.147-4.289c-.17-.17-12.188-.382-12.613-.255ZM71.955,15.628a9.116,9.116,0,0,0-2,1.359c-.849.764-2.888,4.459-2.888,5.224a5.915,5.915,0,0,1-.637,1.741,2.555,2.555,0,0,0-.467,1.444c.3.255,19.026.552,19.833.3.425-.127.849-.892,1.019-1.784a8.734,8.734,0,0,1,.637-2.208,43.423,43.423,0,0,0,2.123-6.413c0-.255-3.015-.425-8.154-.382-6.5.042-8.451.17-9.47.722Zm20.385.807a8.07,8.07,0,0,1-.595,2.038c-.595.849-2.251,6.625-2,6.88a42.152,42.152,0,0,0,6.837.382l6.54.085.3-1.359a5.349,5.349,0,0,1,.595-1.741,7.2,7.2,0,0,0,.637-1.826,9.99,9.99,0,0,1,.849-2.548,11.7,11.7,0,0,0,.807-2.336l.255-1.147H92.636ZM170.48,19.2c-1.614,2.421-3.27,4.8-3.737,5.309-.467.552-.807.977-.68,1.019.085.042,3.44.085,7.389.17,8.026.127,7.6.255,9.555-2.973a17.046,17.046,0,0,1,1.274-1.911,17.048,17.048,0,0,0,1.274-1.911,10.184,10.184,0,0,1,1.529-2.123,3.3,3.3,0,0,0,.722-1.189c.255-.679-.255-.722-7.092-.722h-7.389ZM7.828,29.176a4.223,4.223,0,0,0-.849,1.911A9.439,9.439,0,0,1,6.3,33.125c-.17.34-.764,2.081-1.274,3.822a33.144,33.144,0,0,1-1.274,3.61,6.926,6.926,0,0,0-.595,1.826,9.991,9.991,0,0,1-.849,2.548A12.321,12.321,0,0,0,1.5,47.224c-.34,1.571.212,1.656,7.814,1.529,5.776-.127,6.158-.17,6.285-.977a12.536,12.536,0,0,1,.764-2.208,6.223,6.223,0,0,0,.595-2,3.282,3.282,0,0,1,.425-1.444c.212-.382,1.062-2.845,1.911-5.393.892-2.591,1.869-5.308,2.208-6.073.34-.807.51-1.571.34-1.7a45.41,45.41,0,0,0-6.88-.34C10.036,28.623,8.252,28.751,7.828,29.176Zm24.037-.34a3.63,3.63,0,0,0-.722,1.529,6.791,6.791,0,0,1-.595,1.7,5.99,5.99,0,0,0-.637,2.038,4.62,4.62,0,0,1-.637,1.784,4.284,4.284,0,0,0-.637,1.911A4.284,4.284,0,0,1,28,39.708a4.284,4.284,0,0,0-.637,1.911,4.636,4.636,0,0,1-.679,1.954,1.2,1.2,0,0,0-.382.934,6.019,6.019,0,0,1-.637,1.954c-1.232,2.378-1.232,2.378,5.946,2.378,5.9,0,6.625-.085,6.837-.764.127-.382.425-1.1.595-1.571.212-.467.807-2.293,1.317-4.034a29.838,29.838,0,0,1,1.274-3.61,7.857,7.857,0,0,0,.595-1.911,6.916,6.916,0,0,1,.637-1.911A7.2,7.2,0,0,0,43.5,33.21a10.563,10.563,0,0,1,.934-2.675c.34-.722.51-1.4.34-1.571-.34-.34-12.358-.467-12.91-.127Zm16.817-.042a.9.9,0,0,0-.722.722c0,.722-4.119,13.25-4.671,14.269a8.607,8.607,0,0,0-.637,2.251,3.786,3.786,0,0,1-.722,1.784c-1.062.679,1.189,1.019,6.795,1.019,5.393,0,6.073-.085,6.285-.764.127-.382.425-1.1.595-1.571.212-.467.807-2.208,1.274-3.822.51-1.656,1.1-3.355,1.274-3.822.212-.467.807-2.208,1.317-3.822.51-1.656,1.189-3.61,1.529-4.374.34-.807.51-1.571.34-1.7-.3-.3-11.3-.425-12.655-.17Zm16.265.085a3.212,3.212,0,0,0-.679,1.486,6.791,6.791,0,0,1-.595,1.7,5.99,5.99,0,0,0-.637,2.038,4.121,4.121,0,0,1-.679,1.826,1.2,1.2,0,0,0-.382.934,9.733,9.733,0,0,1-.849,2.421,9.581,9.581,0,0,0-.849,2.378,5.548,5.548,0,0,1-.637,1.911A6.019,6.019,0,0,0,59,45.526a1.182,1.182,0,0,1-.425.977,1.838,1.838,0,0,0-.425,1.317v1.019h6.5a43.724,43.724,0,0,0,6.965-.34c.51-.34,7.007-19.28,6.71-19.578A117.016,117.016,0,0,0,64.947,28.878Zm23.188.425a5.23,5.23,0,0,0-.892,2.123,9.617,9.617,0,0,1-.679,2.123c-.17.34-.722,1.869-1.232,3.4-.467,1.529-1.062,3.143-1.232,3.61-.212.467-.849,2.378-1.444,4.247-.807,2.506-.934,3.482-.595,3.695.595.382,11.806.467,12.783.085a2.623,2.623,0,0,0,.934-1.7,3.3,3.3,0,0,1,.637-1.7,1.414,1.414,0,0,0,.382-1.1,6.432,6.432,0,0,1,.595-2.166c.34-.764,1.317-3.567,2.208-6.243a35.963,35.963,0,0,1,1.954-5.266,2.259,2.259,0,0,0,.34-1.1c0-.595-.849-.679-6.583-.679-5.436,0-6.71.127-7.177.679Zm16.86-.042c-.127.382-.382,1.062-.552,1.529-.212.467-1.062,2.93-1.911,5.521-.807,2.548-1.7,5.054-1.911,5.521a11.2,11.2,0,0,0-.637,1.911,16.679,16.679,0,0,1-.934,2.463c-1.147,2.591-.892,2.675,6.54,2.548l6.71-.127,2.081-6.37c1.1-3.525,2.208-6.752,2.378-7.22a11.2,11.2,0,0,0,.637-1.911,16.677,16.677,0,0,1,.934-2.463c.34-.807.51-1.571.34-1.7a42,42,0,0,0-6.88-.3C106.184,28.623,105.164,28.708,104.995,29.26Zm27.774-.467c-.382.085-.764.722-.934,1.486a10.689,10.689,0,0,1-.637,2.208c-.212.467-1.1,2.93-1.911,5.521-.849,2.548-1.7,4.969-1.869,5.309a9.617,9.617,0,0,0-.679,2.123,6.018,6.018,0,0,1-.764,2.038c-.934,1.147.425,1.4,7.389,1.274,6.583-.127,6.965-.17,7.092-.977a12.536,12.536,0,0,1,.764-2.208,6.432,6.432,0,0,0,.595-2.166,1.522,1.522,0,0,1,.425-1.147,1.182,1.182,0,0,0,.425-.977,5.157,5.157,0,0,1,.595-1.869,12.035,12.035,0,0,0,.892-2.548,6.614,6.614,0,0,1,.637-1.826,7.2,7.2,0,0,0,.637-1.826,10.562,10.562,0,0,1,.934-2.675c.34-.722.51-1.4.34-1.571-.255-.3-12.528-.425-13.93-.17Zm19.408.3a20.782,20.782,0,0,0,.255,3.61c.255,1.741.637,4.926.892,7.092l.467,3.907-1.614,2.675a16.47,16.47,0,0,1-1.954,2.8.629.629,0,0,0-.34.51A40.442,40.442,0,0,1,146.613,55a17.9,17.9,0,0,0-1.4,2.123,22.618,22.618,0,0,1-1.4,2.123,38.73,38.73,0,0,0-3.27,5.351c0,.212,2.973.382,6.837.382,7.432,0,7.135.085,8.876-2.76a19.59,19.59,0,0,1,1.232-1.911c.17-.127,1.571-2.208,3.228-4.671,1.614-2.463,3.058-4.544,3.185-4.671s3.185-4.629,6.752-9.98c3.567-5.393,6.88-10.192,7.389-10.7.467-.552.722-1.1.552-1.274-.51-.51-26.245-.425-26.415.085Z" transform="translate(-1.426)" fill="#3570b5"/>
</svg>
