<svg xmlns="http://www.w3.org/2000/svg" width="1554.694" height="795.778" viewBox="0 0 1554.694 795.778">
  <g id="Group_1095" data-name="Group 1095" transform="translate(-126.63 -2645.162)">
    <g id="Group_340" data-name="Group 340" transform="translate(0 -451)">
      <path id="Path_141" data-name="Path 141" d="M305.509,3336.162s-38.019,248.481,156.149,297.363c161.548,40.669,243.2,175.33,353.133,138.014,21.9-7.432,45.186-21.959,70.507-45.683.754-.706,1.5-1.413,2.14-2.031,146.3-140.879-79.831-309.744,64.562-475.921,145.118-167.012,460.132-115.415,591.841,67.891s-43.45,329.95-43.45,329.95" fill="none" stroke="#0d0d0d" stroke-width="15"/>
      <path id="Path_142" data-name="Path 142" d="M305.509,3336.162s-38.019,248.481,156.149,297.363,272.922,233.545,423.64,92.332S806.882,3414.916,952,3247.9s460.132-115.415,591.841,67.891-43.45,329.95-43.45,329.95" fill="none" stroke="#fff2cc" stroke-linecap="round" stroke-width="1.5" stroke-dasharray="11 13"/>
    </g>
    <g id="Component_59_6" data-name="Component 59 – 6" transform="translate(126.63 2718.362) rotate(-17)">
      <rect id="Rectangle_24" data-name="Rectangle 24" width="250.367" height="286.637" transform="translate(0 0)" fill="#fff"/>
      <rect id="pexels-max-avans-5093029" width="230.925" height="242.895" transform="translate(9 10.711)" fill="#1a1818"/>
      <text id="MÓDULO_1_" data-name="MÓDULO 1 " transform="translate(125 141.158)" fill="#f9ae65" font-size="24" font-family="Roboto-Bold, Roboto" font-weight="700" letter-spacing="0.12em"><tspan x="-73.284" y="0">MÓDULO 1 </tspan></text>
      <text id="SELECCIÓN_DE_FURGONETA" data-name="SELECCIÓN DE
FURGONETA" transform="translate(9 161.189)" fill="#fff" font-size="18" font-family="Roboto-Bold, Roboto" font-weight="700" letter-spacing="0.02em"><tspan x="-62.633" y="19">SELECCIÓN DE</tspan><tspan x="-52.983" y="43">FURGONETA</tspan></text>
      <g id="Group_346" data-name="Group 346" transform="translate(-1274.818 -1109.511)">
        <path id="Path_143" data-name="Path 143" d="M1663.722,1258.081c.277,1.737.51,3.3.781,4.858.23,1.324.492,2.643.761,3.96.221,1.082.5,1.344,1.59,1.493.986.135,1.978.232,2.966.348,1.4.164,1.694.4,1.719,1.81.036,2.044-.034,4.09-.06,6.135-.01.781-.462,1.106-1.19,1.111-1.535.011-3.073.068-4.6-.017a3.128,3.128,0,0,1-1.5-.674,8.779,8.779,0,0,0-7.6-1.386,18.926,18.926,0,0,0-3.394,1.626,3.861,3.861,0,0,1-1.085.472c-.885.119-1.32-.268-1.36-1.163-.064-1.426-.127-2.853-.122-4.28q.027-7.676.109-15.352c.013-1.223.178-1.422,1.423-1.428,4.766-.023,9.533,0,14.3.025.829,0,1.144.442,1.106,1.335a1.049,1.049,0,0,1-1.163,1.125C1665.566,1258.087,1664.737,1258.081,1663.722,1258.081Zm-10.563.06c0,2.778-.021,5.491.035,8.2.005.25.479.669.772.7,2.536.307,5.078.56,7.622.79.69.062,1.021-.324.913-1-.43-2.68-.889-5.354-1.325-8.033-.07-.43-.232-.673-.716-.67C1658.041,1258.147,1655.621,1258.141,1653.159,1258.141Z" transform="translate(-238.766 -86.081)" fill="#f9ae65"/>
        <path id="Path_144" data-name="Path 144" d="M1471.115,1394.525a6.533,6.533,0,0,1,6.412,6.715,6.614,6.614,0,0,1-6.639,6.263,6.49,6.49,0,1,1,.227-12.979Zm2.418,6.5a2.472,2.472,0,0,0-2.505-2.579,2.557,2.557,0,1,0,.028,5.112A2.491,2.491,0,0,0,1473.533,1401.028Z" transform="translate(-82.73 -202.558)" fill="#f9ae65"/>
        <path id="Path_145" data-name="Path 145" d="M1674.317,1401.107a6.481,6.481,0,1,1-6.6-6.554A6.433,6.433,0,0,1,1674.317,1401.107Zm-6.452,2.439a2.463,2.463,0,0,0,2.542-2.442,2.509,2.509,0,0,0-2.4-2.6,2.525,2.525,0,1,0-.14,5.046Z" transform="translate(-247.766 -202.586)" fill="#f9ae65"/>
        <path id="Path_146" data-name="Path 146" d="M1572.288,1409.563a7.149,7.149,0,0,1,0,.769c-.152,1.193-.35,2.382-.464,3.579-.069.721-.256,1.078-1.1,1.067-3.817-.047-7.635-.031-11.452-.005-.747.005-1.013-.225-1.056-1.005a21.666,21.666,0,0,0-.5-3.491c-.146-.656-.045-.9.632-.9,3.145,0,6.29-.009,9.435-.014C1569.251,1409.562,1570.726,1409.563,1572.288,1409.563Z" transform="translate(-160.825 -215.17)" fill="#f9ae65"/>
        <path id="Path_147" data-name="Path 147" d="M1427.372,1411.867c0-2.682.149-2.826,2.833-2.75,1.167.033,1.176.118.937,1.3a33.747,33.747,0,0,0-.452,3.423c-.057.58-.309.751-.873.765C1427.58,1414.658,1427.372,1414.443,1427.372,1411.867Z" transform="translate(-51.604 -214.785)" fill="#f9ae65"/>
        <path id="Path_148" data-name="Path 148" d="M1758.361,1411.874c0,.322.016.645,0,.965a2.005,2.005,0,0,1-2.983,1.669.759.759,0,0,1-.29-.511c-.221-1.37-.406-2.746-.627-4.116-.068-.422.006-.687.48-.719.187-.013.374-.042.561-.05C1758.208,1409,1758.392,1409.179,1758.361,1411.874Z" transform="translate(-325.802 -214.772)" fill="#f9ae65"/>
        <path id="Path_149" data-name="Path 149" d="M1468.035,1217.654c-.049-2.391-.127-2.437-2.558-2.457-4.5-.037-8.992-.01-13.489-.01v.074c-4.765,0-9.529-.017-14.294.011-1.256.008-1.572.343-1.575,1.61q-.029,12.6-.01,25.2c0,1.688.21,1.884,1.931,1.918,1.216.024,2.489.258,3.582-.581a9.183,9.183,0,0,1,11.119-.021,2.9,2.9,0,0,0,1.623.544c4.037.038,8.076.02,12.113,0,1.309-.008,1.528-.2,1.546-1.489.057-4.01.1-8.022.1-12.033C1468.127,1226.16,1468.122,1221.906,1468.035,1217.654Z" transform="translate(-58.921 -52.205)" fill="#f9ae65"/>
        <path id="Path_150" data-name="Path 150" d="M1384.173,1161.135a8.84,8.84,0,0,0-1.171-3.6,9.1,9.1,0,0,0-5.6-4.307,8.836,8.836,0,0,0-3.647-.223,9.054,9.054,0,0,0-5.673,3.075,8.93,8.93,0,0,0-2.1,4.3,9.166,9.166,0,0,0,2.828,8.533,8.992,8.992,0,0,0,4.422,2.235c.422.083.855.11,1.283.162.031,0,.061.01.091.015h.827c.189-.018.379-.034.568-.054a8.957,8.957,0,0,0,4.359-1.657,9.107,9.107,0,0,0,3.571-5.185,8.694,8.694,0,0,0,.278-1.786c0-.043.011-.086.016-.129v-.789C1384.209,1161.526,1384.194,1161.33,1384.173,1161.135Zm-10.8,5.085-3.843-3.842,1.217-1.214,2.621,2.624,5.918-5.919,1.219,1.22Z" fill="#f9ae65"/>
      </g>
    </g>
    <g id="Component_59_14" data-name="Component 59 – 14" transform="translate(1280.581 2730.843) rotate(-5)">
      <rect id="Rectangle_24-2" data-name="Rectangle 24" width="250.367" height="286.637" fill="#fff"/>
      <rect id="pexels-max-avans-5093029-2" data-name="pexels-max-avans-5093029" width="230.925" height="242.895" transform="translate(9 10.711)" fill="#1a1818"/>
      <text id="MÓDULO_4" data-name="MÓDULO 4" transform="translate(125 141.158)" fill="#f9ae65" font-size="24" font-family="Roboto-Bold, Roboto" font-weight="700" letter-spacing="0.12em"><tspan x="-68.855" y="0">MÓDULO 4</tspan></text>
      <text id="CAMPERIZACIONES" transform="matrix(1, -0.017, 0.017, 1, 8.808, 163.216)" fill="#fff" font-size="18" font-family="Roboto-Bold, Roboto" font-weight="700" letter-spacing="0.02em"><tspan x="-84.825" y="19">CAMPERIZACIONES</tspan></text>
      <g id="Group_1025" data-name="Group 1025" transform="translate(-4061.057 -1220.46) rotate(-1)">
        <path id="Path_164" data-name="Path 164" d="M4155.984,1348.9c-1.067-.99-2.129-1.928-3.137-2.92q-4.087-4.022-8.128-8.09a1.8,1.8,0,0,0-1.422-.569c-2.624.029-5.247.02-7.871.017-1.112,0-1.445-.346-1.445-1.447,0-2.256,0-4.512,0-6.767,0-.968.364-1.34,1.321-1.341q4.523-.006,9.048,0c.926,0,1.289.356,1.293,1.288.01,2.035-.012,4.071.02,6.105a1.536,1.536,0,0,0,.353.975q5.558,5.617,11.161,11.19a4.046,4.046,0,0,0,.333.271c6.971-4.533,13.919-4.541,20.954.025.84-.826,1.717-1.674,2.579-2.537,2.842-2.843,5.667-5.7,8.526-8.527a2.248,2.248,0,0,0,.74-1.805c-.049-1.887-.021-3.776-.014-5.664,0-.973.357-1.321,1.331-1.322q4.487,0,8.974,0c1,0,1.358.366,1.359,1.38q0,3.421,0,6.841c0,.963-.362,1.332-1.333,1.334-2.7.006-5.394.009-8.091-.01a1.557,1.557,0,0,0-1.231.488c-2.34,2.373-4.7,4.723-7.061,7.079q-1.846,1.843-3.7,3.679c-.153.153-.3.316-.481.514.49.55.969,1.066,1.422,1.6a17.354,17.354,0,0,1,.012,22.2c-.126.15-.245.306-.369.458-.32.389-.912.794-.888,1.161.025.394.618.761.979,1.123q5.119,5.119,10.258,10.216a1.629,1.629,0,0,0,1.045.35c2.648.025,5.3.005,7.944,0,1.167,0,1.493.324,1.494,1.472q0,3.347,0,6.694c0,1.027-.35,1.388-1.348,1.39q-4.488.005-8.975,0c-1,0-1.344-.358-1.346-1.386,0-1.986.024-3.973-.022-5.958a1.848,1.848,0,0,0-.468-1.148c-2.243-2.3-4.524-4.556-6.793-6.827q-1.974-1.975-3.947-3.951c-.2-.2-.425-.393-.616-.569-7.008,4.542-13.947,4.552-21.156-.146-1.145,1.225-2.343,2.548-3.586,3.827-1.946,2-3.923,3.975-5.887,5.96a4.755,4.755,0,0,1-.676.672c-1.376.913-1.622,2.219-1.511,3.76.106,1.488.031,2.99.02,4.485-.007.923-.375,1.279-1.3,1.281q-4.523.006-9.047,0c-.948,0-1.314-.38-1.316-1.349q-.006-3.457,0-6.915c0-.9.377-1.287,1.3-1.29,2.673-.009,5.346-.017,8.018.009a1.71,1.71,0,0,0,1.37-.515c2.254-2.285,4.535-4.544,6.806-6.812,1.317-1.315,2.623-2.642,3.958-3.938.377-.366.433-.583.024-1a17.322,17.322,0,0,1-.933-23.4C4154.934,1350.068,4155.362,1349.6,4155.984,1348.9Zm15.215,18.734h.859q2.941,0,5.883,0c1.017,0,1.184-.17,1.185-1.206q0-5.737,0-11.474c0-1-.148-1.145-1.155-1.145q-10,0-20,0c-1,0-1.152.149-1.153,1.151q-.005,5.774,0,11.548c0,.932.191,1.125,1.117,1.127,2.01.005,4.021,0,6.031,0,.257,0,.514.025.811.04-.018.374-.032.656-.048,1-.364,0-.654-.012-.943,0a1.061,1.061,0,0,0-1.1,1.039,1.01,1.01,0,0,0,1.071,1.052c2.819.014,5.639.01,8.458,0a.971.971,0,0,0,1.049-1,1.035,1.035,0,0,0-1.039-1.094c-.33-.021-.662,0-1.018,0Z" fill="#f9ae65"/>
        <path id="Path_165" data-name="Path 165" d="M4552.974,1537.3a3.711,3.711,0,1,1-3.661-3.724A3.682,3.682,0,0,1,4552.974,1537.3Zm-5.291-.091a1.6,1.6,0,0,0,1.5,1.672,1.6,1.6,0,1,0,.153-3.191A1.6,1.6,0,0,0,4547.684,1537.209Z" transform="translate(-351.015 -175.52)" fill="#f9ae65"/>
        <path id="Path_166" data-name="Path 166" d="M4347.2,1743.069a3.71,3.71,0,1,1-3.677-3.706A3.688,3.688,0,0,1,4347.2,1743.069Zm-2.112-.015a1.6,1.6,0,0,0-3.2.036,1.638,1.638,0,0,0,1.615,1.578A1.658,1.658,0,0,0,4345.091,1743.054Z" transform="translate(-175.523 -351.027)" fill="#f9ae65"/>
        <path id="Path_167" data-name="Path 167" d="M4343.509,1327.785a3.71,3.71,0,1,1-3.715,3.667A3.7,3.7,0,0,1,4343.509,1327.785Zm.007,5.294a1.6,1.6,0,0,0,1.586-1.594,1.6,1.6,0,1,0-3.2.026A1.6,1.6,0,0,0,4343.516,1333.079Z" transform="translate(-175.533 -0.008)" fill="#f9ae65"/>
        <path id="Path_168" data-name="Path 168" d="M4137.74,1533.578a3.711,3.711,0,1,1-3.748,3.711A3.68,3.68,0,0,1,4137.74,1533.578Zm1.546,3.723a1.612,1.612,0,0,0-1.567-1.612,1.6,1.6,0,0,0-.1,3.194A1.6,1.6,0,0,0,4139.286,1537.3Z" transform="translate(-0.012 -175.521)" fill="#f9ae65"/>
        <path id="Path_169" data-name="Path 169" d="M4163.277,1416.969l1.5,1.405c-5.76,7.842-5.253,8.594-6.835,13.751l-2.071-.2A31.267,31.267,0,0,1,4163.277,1416.969Z" transform="translate(-18.675 -76.07)" fill="#f9ae65"/>
        <path id="Path_170" data-name="Path 170" d="M4521.663,1431.868c-.361.018-.626.025-.89.045-1.221.092-1.229.1-1.533-1.136a28.831,28.831,0,0,0-6.2-12.015c-.095-.11-.18-.229-.438-.539l1.627-1.346A31.265,31.265,0,0,1,4521.663,1431.868Z" transform="translate(-322.913 -75.991)" fill="#f9ae65"/>
        <path id="Path_171" data-name="Path 171" d="M4164.81,1611.2l-1.526,1.469a31.235,31.235,0,0,1-7.432-14.952l2.123-.236A29.331,29.331,0,0,0,4164.81,1611.2Z" transform="translate(-18.656 -230.024)" fill="#f9ae65"/>
        <path id="Path_172" data-name="Path 172" d="M4521.287,1597.561l2.117.2a31.291,31.291,0,0,1-7.459,15.028l-1.288-1.388c1.381-2.19,2.842-4.323,4.108-6.566A24.836,24.836,0,0,0,4521.287,1597.561Z" transform="translate(-324.667 -230.09)" fill="#f9ae65"/>
        <path id="Path_173" data-name="Path 173" d="M4251,1349.653c.079.758.147,1.409.208,2a50.656,50.656,0,0,0-4.966,1.636,63.939,63.939,0,0,0-5.7,3c-.544.309-.868.405-1.278-.133a7.564,7.564,0,0,0-.993-.9A31.17,31.17,0,0,1,4251,1349.653Z" transform="translate(-88.948 -18.658)" fill="#f9ae65"/>
        <path id="Path_174" data-name="Path 174" d="M4404.06,1727.884a2.275,2.275,0,0,1-.078-.3c-.051-.581-.1-1.162-.149-1.8.532-.139,1.044-.282,1.56-.408a27.119,27.119,0,0,0,9.1-4.127c.573-.4.915-.389,1.319.163a8.3,8.3,0,0,0,.9.9A31.157,31.157,0,0,1,4404.06,1727.884Z" transform="translate(-230.149 -335.345)" fill="#f9ae65"/>
        <path id="Path_175" data-name="Path 175" d="M4416.527,1355.166c-.017.106-.012.138-.026.154-1.306,1.45-1.3,1.438-2.928.41a28.737,28.737,0,0,0-9.395-3.84c-.139-.03-.275-.074-.454-.123.074-.7.146-1.365.224-2.1A30.958,30.958,0,0,1,4416.527,1355.166Z" transform="translate(-230.057 -18.673)" fill="#f9ae65"/>
        <path id="Path_176" data-name="Path 176" d="M4252.051,1726.486c-.075.7-.147,1.367-.224,2.087a31.032,31.032,0,0,1-12.581-5.491c.021-.115.018-.146.031-.161,1.309-1.441,1.3-1.428,2.927-.4a28.778,28.778,0,0,0,9.323,3.825C4251.691,1726.377,4251.851,1726.43,4252.051,1726.486Z" transform="translate(-89.779 -336.039)" fill="#f9ae65"/>
        <path id="Path_177" data-name="Path 177" d="M4357.263,1598.872h1.932v1a7.664,7.664,0,0,1-1.656-.038c-.217-.049-.338-.524-.5-.805Z" transform="translate(-190.237 -231.208)" fill="#f9ae65"/>
      </g>
    </g>
    <g id="Component_59_12" data-name="Component 59 – 12" transform="translate(786.087 2778.2) rotate(-17)">
      <rect id="Rectangle_24-3" data-name="Rectangle 24" width="250.367" height="286.637" transform="translate(0 0)" fill="#fff"/>
      <rect id="pexels-max-avans-5093029-3" data-name="pexels-max-avans-5093029" width="230.925" height="242.895" transform="translate(9 10.711)" fill="#1a1818"/>
      <text id="MÓDULO_3" data-name="MÓDULO 3" transform="translate(125 141.158)" fill="#f9ae65" font-size="24" font-family="Roboto-Bold, Roboto" font-weight="700" letter-spacing="0.12em"><tspan x="-68.855" y="0">MÓDULO 3</tspan></text>
      <text id="FASE_DE_CONSTRUCCIÓN" data-name="FASE DE
CONSTRUCCIÓN" transform="translate(9 161.189)" fill="#fff" font-size="18" font-family="Roboto-Bold, Roboto" font-weight="700" letter-spacing="0.02em"><tspan x="-34.971" y="19">FASE DE</tspan><tspan x="-70.174" y="43">CONSTRUCCIÓN</tspan></text>
      <g id="Group_1025-2" data-name="Group 1025" transform="translate(-3059.285 -1031.524) rotate(-1)">
        <path id="Path_161" data-name="Path 161" d="M3179.734,1371.917h-26.279v-27.439h-2.372v.51q0,7.322,0,14.645a4.585,4.585,0,0,1-.739,2.728.546.546,0,0,0-.042.416q.491,1.711,1.012,3.415a4.629,4.629,0,0,1-.188,3.281c-1.313,3.04-5.577,4.764-8.785,3.554a5.177,5.177,0,0,1-2.938-2.613q-1.687-3.424-3.365-6.851c-.066-.134-.139-.265-.232-.443a4.751,4.751,0,0,1-4.4.368,4.077,4.077,0,0,1-2.017-2.042,3.687,3.687,0,0,1,.023-3.4,5.034,5.034,0,0,1,2.8-2.216c-.083-.185-.143-.332-.214-.476q-4.97-10.13-9.942-20.259a9.007,9.007,0,0,1-1.155-3.568,7.1,7.1,0,0,1,2.572-5.713,8.471,8.471,0,0,1,7.749-1.981c2.323.457,4.616,1.055,6.929,1.564a1.424,1.424,0,0,1,1.176,1.089q2.153,7.193,4.339,14.377a1.1,1.1,0,0,0,.236.459c.036-.149.067-.3.107-.446a11.07,11.07,0,0,1,8.582-8.469,18.844,18.844,0,0,1,3.362-.3c.813-.044,1.632.009,2.447-.017a.581.581,0,0,1,.639.393q2.51,5.357,5.047,10.7a.873.873,0,0,0,.259.347c.007-.139.021-.279.021-.418q0-5.359,0-10.718c0-.524,0-.525.567-.525q1.4,0,2.791,0c.154,0,.307.013.51.022v11.779l.1.023c.076-.153.155-.3.228-.459q2.536-5.369,5.063-10.741a.579.579,0,0,1,.635-.4c1.6.051,3.223-.066,4.8.137a11.748,11.748,0,0,1,10.292,11.681q0,12.048-.01,24.1a5.438,5.438,0,0,1-.242,1.567,3.595,3.595,0,0,1-6.85-.016,6.875,6.875,0,0,1-.246-1.9q-.024-11.291-.01-22.582v-.6h-2.273Zm-45.488-17.093c1.985-.532,2.433-.579,3.339-.3a4.1,4.1,0,0,1,2.485,2.069,3.818,3.818,0,0,1,.384,2.741,4.192,4.192,0,0,1-2.569,2.825,1.2,1.2,0,0,0,.053.19c1.188,2.419,2.37,4.841,3.569,7.254a2.875,2.875,0,0,0,1.972,1.521,5,5,0,0,0,4.344-.982,2.961,2.961,0,0,0,.99-4.095q-7.521-15.331-15.047-30.66c-.052-.1-.117-.2-.189-.324-1.837,2.729-4.458,3.427-7.663,2.787Zm-3-24.243a3.107,3.107,0,0,1,.364,2.011,3.349,3.349,0,0,1-5.1,1.918,3.72,3.72,0,0,1,.1-6.265,4.921,4.921,0,0,1,6.848,1.514c.228.377.421.774.615,1.169q5.32,10.83,10.636,21.662c.063.127.132.251.2.376a.419.419,0,0,0,0-.294q-.828-2.75-1.658-5.5-2.92-9.661-5.833-19.324a.713.713,0,0,0-.617-.56c-1.978-.438-3.943-.927-5.925-1.347a6.293,6.293,0,0,0-5.936,1.525,4.8,4.8,0,0,0-.815,6.609,4.752,4.752,0,0,0,6.459,1.063A3.1,3.1,0,0,0,3131.246,1330.581Z" transform="translate(0 -183.059)" fill="#f9ae65"/>
        <path id="Path_162" data-name="Path 162" d="M3521.524,1135.623h-30.646c0-.725-.01-1.449.017-2.172,0-.064.247-.166.381-.169.733-.017,1.468-.035,2.2,0,.438.022.576-.128.64-.553a15.431,15.431,0,0,1,4.11-8.578,11.92,11.92,0,0,1,3.412-2.5c.117-.057.236-.111.357-.158a1.025,1.025,0,0,1,.222-.015v.569q0,3.736,0,7.473a3.882,3.882,0,0,0,.018.536.9.9,0,0,0,1.784,0,3.627,3.627,0,0,0,.019-.536c0-2.735.009-5.47-.008-8.205,0-.386.1-.59.493-.592q1.678-.009,3.356-.006c.4,0,.53.2.527.615-.021,2.751-.011,5.5-.01,8.254a3.207,3.207,0,0,0,.015.487.89.89,0,0,0,.837.758.849.849,0,0,0,.9-.6,1.972,1.972,0,0,0,.072-.624q.007-3.761,0-7.522v-.672c.245.1.421.163.587.246a13.141,13.141,0,0,1,6.443,7.3,26.28,26.28,0,0,1,1.009,3.81c.091.409.218.535.623.518.748-.031,1.5,0,2.249-.012.251,0,.4.048.392.345C3521.515,1134.266,3521.524,1134.915,3521.524,1135.623Z" transform="translate(-343.28)" fill="#f9ae65"/>
        <path id="Path_163" data-name="Path 163" d="M3558.968,1292.268c3.014,0,6.027.005,9.041-.007.351,0,.487.089.5.457a9.556,9.556,0,0,1-18.979,2.127c-.11-.671-.118-1.359-.168-2.039-.03-.405.129-.552.567-.549C3552.94,1292.278,3555.954,1292.268,3558.968,1292.268Z" transform="translate(-393.313 -157.125)" fill="#f9ae65"/>
      </g>
    </g>
    <g id="Component_59_7" data-name="Component 59 – 7" transform="matrix(0.985, -0.174, 0.174, 0.985, 496.46, 3124.037)">
      <rect id="Rectangle_24-4" data-name="Rectangle 24" width="250.367" height="286.637" transform="translate(0 0)" fill="#fff"/>
      <rect id="pexels-max-avans-5093029-4" data-name="pexels-max-avans-5093029" width="230.925" height="242.895" transform="translate(9 10.711)"/>
      <text id="MÓDULO_2" data-name="MÓDULO 2" transform="translate(124.555 141.158)" fill="#f9ae65" font-size="24" font-family="Roboto-Bold, Roboto" font-weight="700" letter-spacing="0.12em"><tspan x="-68.855" y="0">MÓDULO 2</tspan></text>
      <text id="PLANIFICACIÓN_DEL_PROCESO" data-name="PLANIFICACIÓN
DEL PROCESO" transform="translate(8.555 161.189)" fill="#fff" font-size="18" font-family="Roboto-Bold, Roboto" font-weight="700" letter-spacing="0.02em"><tspan x="-68.535" y="19">PLANIFICACIÓN</tspan><tspan x="-60.287" y="43">DEL PROCESO</tspan></text>
      <g id="Group_972" data-name="Group 972" transform="translate(-1814.929 -688.625)">
        <path id="Path_151" data-name="Path 151" d="M1924.869,769.058v31.878a10.735,10.735,0,0,0-6.207,3.577,12,12,0,0,0-1.653,2.36,3.183,3.183,0,0,0-.281,1.635.918.918,0,0,0,1.358.78,4.334,4.334,0,0,0,1.211-.767c.96-.887,1.89-1.808,2.8-2.743,1.115-1.141,2.353-2.029,4.044-1.788a3.553,3.553,0,0,1,1.6.686,1.413,1.413,0,0,1,.255,2.11,3.831,3.831,0,0,1-.578.736,31.59,31.59,0,0,0-5.081,6.7,20.335,20.335,0,0,1-4.284,5.267,1.732,1.732,0,0,1-.481.348c-1.484.463-1.894,1.652-2.015,3-.068.758-.4.958-1.146.944-2.676-.047-5.352-.019-8.029-.022-.278,0-.555-.023-.9-.038.055-1.123.147-2.192.151-3.262.022-5.934,1.732-11.465,3.986-16.872a4.466,4.466,0,0,1,2.207-2.364c2.56-1.3,5.067-2.7,7.627-4,.562-.286.506-.673.506-1.115q0-12.105,0-24.211a2.572,2.572,0,0,1,2.073-2.814A21.67,21.67,0,0,1,1924.869,769.058Z" transform="translate(0 -35.149)" fill="#f9ae65"/>
        <path id="Path_152" data-name="Path 152" d="M2120.559,954.985c.733-.917.263-1.34-.01-1.692-.941-1.21-1.959-2.359-2.92-3.555-.266-.331-.69-.98-.6-1.07a2.607,2.607,0,0,1,1.422-.923,2.654,2.654,0,0,1,1.745.6c1.14.979,2.159,2.1,3.229,3.159.193.192.4.374.593.561l.281-.116a2.994,2.994,0,0,0-.258-.987c-.633-.906-1.349-1.754-2-2.652-.243-.337-.636-.89-.52-1.1a1.587,1.587,0,0,1,1.727-.98,3.629,3.629,0,0,1,1.538.814c1.015.937,1.945,1.966,3.053,2.855.194-1.768-1.309-2.65-1.987-3.944a1.588,1.588,0,0,1,2.44.119c1.529,1.485,2.967,3.069,4.549,4.494a18.731,18.731,0,0,1,5.545,9.114,4.076,4.076,0,0,0,1.043,1.693c.985.98,2.075,1.855,3.191,2.834l-8.883,8.122c-.891-1.029-1.716-2.038-2.609-2.983a3.89,3.89,0,0,0-1.242-.8,6.045,6.045,0,0,0-1.39-.392,19.876,19.876,0,0,1-9.984-5.393c-1.445-1.334-1.579-2.725-.286-4.611-.708-.767-1.429-1.556-2.158-2.338q-3.052-3.276-6.108-6.548c-.961-1.031-.943-1.849.049-2.793.866-.825,1.725-.784,2.672.161q3.624,3.614,7.223,7.252A5.6,5.6,0,0,1,2120.559,954.985Z" transform="translate(-168.958 -181.43)" fill="#f9ae65"/>
        <path id="Path_153" data-name="Path 153" d="M2047.063,738.306q-5.122,0-10.243,0c-1.758,0-2.556-.8-2.56-2.541,0-.823-.011-1.648.015-2.47a1.591,1.591,0,0,1,1.348-1.625c.581-.135,1.172-.224,1.753-.361a3.545,3.545,0,0,0,2.407-1.621,5.257,5.257,0,0,1,3.107-2.38,13.017,13.017,0,0,1,8.536.084,5.209,5.209,0,0,1,2.875,2.279,4.122,4.122,0,0,0,3.144,1.8c2.134.375,2.423.711,2.422,2.829,0,.511,0,1.022,0,1.534a2.209,2.209,0,0,1-2.472,2.472Q2052.228,738.311,2047.063,738.306Zm-.012-10.053a2.6,2.6,0,1,0,2.6,2.626A2.653,2.653,0,0,0,2047.051,728.253Z" transform="translate(-106.774)" fill="#f9ae65"/>
        <path id="Path_154" data-name="Path 154" d="M2199.2,796.777V769.13a20.367,20.367,0,0,1,2.889.027,2.532,2.532,0,0,1,2.06,2.664c.02,2.159.006,4.319.006,6.479q0,8.739,0,17.477v1.2A5.041,5.041,0,0,0,2199.2,796.777Z" transform="translate(-243.538 -35.206)" fill="#f9ae65"/>
        <path id="Path_155" data-name="Path 155" d="M2037.408,1023.473c.093,1.371.181,2.677.274,4.043h-21.167c.823-1.313,1.589-2.565,2.4-3.789a.874.874,0,0,1,.644-.274q8.88-.019,17.76,0C2037.4,1023.449,2037.476,1023.493,2037.408,1023.473Z" transform="translate(-92.063 -246.107)" fill="#f9ae65"/>
        <path id="Path_156" data-name="Path 156" d="M2045.992,828.624c-.375.343-.586.533-.794.726s-.407.383-.678.639l1.152,1.023,3.277-3c.168-.153.318-.405.508-.439a6.255,6.255,0,0,1,1.154-.008c-.007.385.14.892-.05,1.134-.683.868-1.479,1.649-2.236,2.459-.466.5-.939.991-1.408,1.486-.919.97-1.616.965-2.492-.012-.2-.223-.41-.438-.728-.777v2.481h4.1L2049.2,832l.233.082c0,.807.033,1.616-.01,2.421a1.285,1.285,0,0,1-1.37,1.24q-2.178.034-4.356,0a1.276,1.276,0,0,1-1.4-1.379q-.038-2.173,0-4.348a1.267,1.267,0,0,1,1.383-1.38C2044.386,828.61,2045.091,828.624,2045.992,828.624Z" transform="translate(-113.427 -83.673)" fill="#f9ae65"/>
        <path id="Path_157" data-name="Path 157" d="M2045.782,899.185c-.711,0-1.422.016-2.132,0a1.222,1.222,0,0,1-1.345-1.232c-.041-1.531-.038-3.065,0-4.6a1.2,1.2,0,0,1,1.246-1.257q2.3-.072,4.6,0a1.263,1.263,0,0,1,1.275,1.41q.025,2.128,0,4.256a1.283,1.283,0,0,1-1.425,1.422C2047.261,899.2,2046.521,899.184,2045.782,899.185Zm1.966-1.7c0-1.16.019-2.207-.019-3.252-.006-.171-.257-.471-.4-.476-1.1-.041-2.2-.022-3.3-.022v3.75Z" transform="translate(-113.422 -137.169)" fill="#f9ae65"/>
        <path id="Path_158" data-name="Path 158" d="M2114.07,849.233v2.05h-12.7v-2.05Z" transform="translate(-162.421 -101.659)" fill="#f9ae65"/>
        <path id="Path_159" data-name="Path 159" d="M2101.22,909.15v-2.038h12.7v2.038Z" transform="translate(-162.297 -149.65)" fill="#f9ae65"/>
        <path id="Path_160" data-name="Path 160" d="M2044.458,956.63l.177-1.667h2.817a4.44,4.44,0,0,0,.071-.507c0-1.046,0-2.092,0-3.21h-3.741v1.546a18.347,18.347,0,0,1-1.591-1.373c-.518-.562.078-1.842.922-1.877,1.675-.07,3.356-.07,5.031,0a1.139,1.139,0,0,1,1.049,1.249c.021,1.476.023,2.952,0,4.427-.015.892-.51,1.367-1.479,1.4C2046.665,956.659,2045.615,956.63,2044.458,956.63Z" transform="translate(-113.193 -184.788)" fill="#f9ae65"/>
      </g>
    </g>
    <g id="Component_59_10" data-name="Component 59 – 10" transform="matrix(0.985, -0.174, 0.174, 0.985, 1384.987, 3158.657)">
      <rect id="Rectangle_24-5" data-name="Rectangle 24" width="250.367" height="286.637" transform="translate(0 0)" fill="#fff"/>
      <rect id="pexels-max-avans-5093029-5" data-name="pexels-max-avans-5093029" width="230.925" height="242.895" transform="translate(9 10.711)"/>
      <text id="MÓDULO_5" data-name="MÓDULO 5" transform="translate(125 141.158)" fill="#f9ae65" font-size="24" font-family="Roboto-Bold, Roboto" font-weight="700" letter-spacing="0.12em"><tspan x="-68.855" y="0">MÓDULO 5</tspan></text>
      <text id="HOMOLOGACIÓN_Y_FUTURAS_MEJORAS" data-name="HOMOLOGACIÓN
Y FUTURAS
MEJORAS" transform="translate(9 161.189)" fill="#fff" font-size="18" font-family="Roboto-Bold, Roboto" font-weight="700" letter-spacing="0.02em"><tspan x="-72.723" y="19">HOMOLOGACIÓN</tspan><tspan x="-48.923" y="43">Y FUTURAS</tspan><tspan x="-42.6" y="67">MEJORAS</tspan></text>
      <g id="Group_975" data-name="Group 975" transform="translate(-4879.908 -1254.961)">
        <path id="Path_178" data-name="Path 178" d="M5026.048,1358.088h-47.285c-2.26-.82-2.959-2.511-2.955-4.809q.057-26.582.023-53.164c0-3.3,1.388-4.686,4.648-4.688,7.727,0,15.454-.028,23.18.027a2.7,2.7,0,0,0,2.636-1.379,17.862,17.862,0,0,1,30.976,2.16,31.142,31.142,0,0,1,1.794,6.631l.016,3.079c-.017.085-.03.17-.04.256a17.406,17.406,0,0,1-8.8,13.556,2.478,2.478,0,0,0-1.371,2.489c.043,10.329-.012,20.659.056,30.987C5028.944,1355.539,5028.244,1357.2,5026.048,1358.088Zm-46.925-59.348c-.034.559-.078.952-.078,1.345q-.005,26.662-.031,53.323c0,1.259.444,1.484,1.562,1.482q21.754-.044,43.508.007c1.3,0,1.706-.325,1.7-1.678-.059-10.042-.031-20.084-.035-30.126,0-.428-.049-.856-.077-1.319-6.844,1.328-12.791-.138-17.544-5.22s-5.914-11.125-4.182-17.814Zm39.971,5.41c-.292-.261-.63-.55-.951-.857-3.042-2.91-3.02-2.893-5.754.3-.61.712-.521,1.156.1,1.756,1.9,1.849,3.8,3.706,5.638,5.626.791.828,1.316.732,2.075-.036,2.638-2.675,5.363-5.264,8-7.94,2.99-3.036,3.165-2.1.071-5.455-.858-.93-1.423-1.065-2.387-.052C5023.717,1299.769,5021.4,1301.9,5019.095,1304.151Z" transform="translate(0 0)" fill="#f9ae65"/>
        <path id="Path_179" data-name="Path 179" d="M5032.075,1427.235c3.612,0,7.225.027,10.837-.015,1.152-.013,1.95.431,1.933,1.565s-.854,1.54-1.983,1.536q-10.761-.038-21.523-.009c-1.061,0-1.945-.223-1.977-1.5-.034-1.4.906-1.584,2.027-1.578C5024.951,1427.246,5028.513,1427.235,5032.075,1427.235Z" transform="translate(-30.372 -98.412)" fill="#f9ae65"/>
        <path id="Path_180" data-name="Path 180" d="M5032.066,1467.906c-3.513,0-7.026-.013-10.539.008-1.188.007-2.168-.25-2.146-1.668s1.1-1.484,2.152-1.484q10.614-.008,21.228-.007c1.128,0,2.116.305,2.1,1.584-.014,1.244-.948,1.59-2.107,1.579C5039.193,1467.885,5035.629,1467.906,5032.066,1467.906Z" transform="translate(-30.386 -124.589)" fill="#f9ae65"/>
        <path id="Path_181" data-name="Path 181" d="M5026.733,1389.506c1.85,0,3.7.011,5.548-.006,1.056-.01,1.765.416,1.819,1.518.056,1.135-.656,1.615-1.705,1.619q-5.7.018-11.4,0c-.97,0-1.654-.425-1.665-1.5-.011-1.12.624-1.623,1.7-1.625C5022.935,1389.5,5024.834,1389.507,5026.733,1389.506Z" transform="translate(-30.355 -72.107)" fill="#f9ae65"/>
      </g>
    </g>
  </g>
</svg>
