<svg xmlns="http://www.w3.org/2000/svg" width="69.318" height="70.629" viewBox="0 0 69.318 70.629">
  <g id="Group_1025" data-name="Group 1025" transform="translate(-3140.339 -1065.081) rotate(-1)">
    <path id="Path_161" data-name="Path 161" d="M3179.734,1371.917h-26.279v-27.439h-2.372v.51q0,7.322,0,14.645a4.585,4.585,0,0,1-.739,2.728.546.546,0,0,0-.042.416q.491,1.711,1.012,3.415a4.629,4.629,0,0,1-.188,3.281c-1.313,3.04-5.577,4.764-8.785,3.554a5.177,5.177,0,0,1-2.938-2.613q-1.687-3.424-3.365-6.851c-.066-.134-.139-.265-.232-.443a4.751,4.751,0,0,1-4.4.368,4.077,4.077,0,0,1-2.017-2.042,3.687,3.687,0,0,1,.023-3.4,5.034,5.034,0,0,1,2.8-2.216c-.083-.185-.143-.332-.214-.476q-4.97-10.13-9.942-20.259a9.007,9.007,0,0,1-1.155-3.568,7.1,7.1,0,0,1,2.572-5.713,8.471,8.471,0,0,1,7.749-1.981c2.323.457,4.616,1.055,6.929,1.564a1.424,1.424,0,0,1,1.176,1.089q2.153,7.193,4.339,14.377a1.1,1.1,0,0,0,.236.459c.036-.149.067-.3.107-.446a11.07,11.07,0,0,1,8.582-8.469,18.844,18.844,0,0,1,3.362-.3c.813-.044,1.632.009,2.447-.017a.581.581,0,0,1,.639.393q2.51,5.357,5.047,10.7a.873.873,0,0,0,.259.347c.007-.139.021-.279.021-.418q0-5.359,0-10.718c0-.524,0-.525.567-.525q1.4,0,2.791,0c.154,0,.307.013.51.022v11.779l.1.023c.076-.153.155-.3.228-.459q2.536-5.369,5.063-10.741a.579.579,0,0,1,.635-.4c1.6.051,3.223-.066,4.8.137a11.748,11.748,0,0,1,10.292,11.681q0,12.048-.01,24.1a5.438,5.438,0,0,1-.242,1.567,3.595,3.595,0,0,1-6.85-.016,6.875,6.875,0,0,1-.246-1.9q-.024-11.291-.01-22.582v-.6h-2.273Zm-45.488-17.093c1.985-.532,2.433-.579,3.339-.3a4.1,4.1,0,0,1,2.485,2.069,3.818,3.818,0,0,1,.384,2.741,4.192,4.192,0,0,1-2.569,2.825,1.2,1.2,0,0,0,.053.19c1.188,2.419,2.37,4.841,3.569,7.254a2.875,2.875,0,0,0,1.972,1.521,5,5,0,0,0,4.344-.982,2.961,2.961,0,0,0,.99-4.095q-7.521-15.331-15.047-30.66c-.052-.1-.117-.2-.189-.324-1.837,2.729-4.458,3.427-7.663,2.787Zm-3-24.243a3.107,3.107,0,0,1,.364,2.011,3.349,3.349,0,0,1-5.1,1.918,3.72,3.72,0,0,1,.1-6.265,4.921,4.921,0,0,1,6.848,1.514c.228.377.421.774.615,1.169q5.32,10.83,10.636,21.662c.063.127.132.251.2.376a.419.419,0,0,0,0-.294q-.828-2.75-1.658-5.5-2.92-9.661-5.833-19.324a.713.713,0,0,0-.617-.56c-1.978-.438-3.943-.927-5.925-1.347a6.293,6.293,0,0,0-5.936,1.525,4.8,4.8,0,0,0-.815,6.609,4.752,4.752,0,0,0,6.459,1.063A3.1,3.1,0,0,0,3131.246,1330.581Z" transform="translate(0 -183.059)" fill="#f9ae65"/>
    <path id="Path_162" data-name="Path 162" d="M3521.524,1135.623h-30.646c0-.725-.01-1.449.017-2.172,0-.064.247-.166.381-.169.733-.017,1.468-.035,2.2,0,.438.022.576-.128.64-.553a15.431,15.431,0,0,1,4.11-8.578,11.92,11.92,0,0,1,3.412-2.5c.117-.057.236-.111.357-.158a1.025,1.025,0,0,1,.222-.015v.569q0,3.736,0,7.473a3.882,3.882,0,0,0,.018.536.9.9,0,0,0,1.784,0,3.627,3.627,0,0,0,.019-.536c0-2.735.009-5.47-.008-8.205,0-.386.1-.59.493-.592q1.678-.009,3.356-.006c.4,0,.53.2.527.615-.021,2.751-.011,5.5-.01,8.254a3.207,3.207,0,0,0,.015.487.89.89,0,0,0,.837.758.849.849,0,0,0,.9-.6,1.972,1.972,0,0,0,.072-.624q.007-3.761,0-7.522v-.672c.245.1.421.163.587.246a13.141,13.141,0,0,1,6.443,7.3,26.28,26.28,0,0,1,1.009,3.81c.091.409.218.535.623.518.748-.031,1.5,0,2.249-.012.251,0,.4.048.392.345C3521.515,1134.266,3521.524,1134.915,3521.524,1135.623Z" transform="translate(-343.28)" fill="#f9ae65"/>
    <path id="Path_163" data-name="Path 163" d="M3558.968,1292.268c3.014,0,6.027.005,9.041-.007.351,0,.487.089.5.457a9.556,9.556,0,0,1-18.979,2.127c-.11-.671-.118-1.359-.168-2.039-.03-.405.129-.552.567-.549C3552.94,1292.278,3555.954,1292.268,3558.968,1292.268Z" transform="translate(-393.313 -157.125)" fill="#f9ae65"/>
  </g>
</svg>
