<svg xmlns="http://www.w3.org/2000/svg" width="68.181" height="64.274" viewBox="0 0 68.181 64.274">
  <g id="Group_972" data-name="Group 972" transform="translate(-1905.483 -726.628)">
    <path id="Path_151" data-name="Path 151" d="M1924.869,769.058v31.878a10.735,10.735,0,0,0-6.207,3.577,12,12,0,0,0-1.653,2.36,3.183,3.183,0,0,0-.281,1.635.918.918,0,0,0,1.358.78,4.334,4.334,0,0,0,1.211-.767c.96-.887,1.89-1.808,2.8-2.743,1.115-1.141,2.353-2.029,4.044-1.788a3.553,3.553,0,0,1,1.6.686,1.413,1.413,0,0,1,.255,2.11,3.831,3.831,0,0,1-.578.736,31.59,31.59,0,0,0-5.081,6.7,20.335,20.335,0,0,1-4.284,5.267,1.732,1.732,0,0,1-.481.348c-1.484.463-1.894,1.652-2.015,3-.068.758-.4.958-1.146.944-2.676-.047-5.352-.019-8.029-.022-.278,0-.555-.023-.9-.038.055-1.123.147-2.192.151-3.262.022-5.934,1.732-11.465,3.986-16.872a4.466,4.466,0,0,1,2.207-2.364c2.56-1.3,5.067-2.7,7.627-4,.562-.286.506-.673.506-1.115q0-12.105,0-24.211a2.572,2.572,0,0,1,2.073-2.814A21.67,21.67,0,0,1,1924.869,769.058Z" transform="translate(0 -35.149)" fill="#f9ae65"/>
    <path id="Path_152" data-name="Path 152" d="M2120.559,954.985c.733-.917.263-1.34-.01-1.692-.941-1.21-1.959-2.359-2.92-3.555-.266-.331-.69-.98-.6-1.07a2.607,2.607,0,0,1,1.422-.923,2.654,2.654,0,0,1,1.745.6c1.14.979,2.159,2.1,3.229,3.159.193.192.4.374.593.561l.281-.116a2.994,2.994,0,0,0-.258-.987c-.633-.906-1.349-1.754-2-2.652-.243-.337-.636-.89-.52-1.1a1.587,1.587,0,0,1,1.727-.98,3.629,3.629,0,0,1,1.538.814c1.015.937,1.945,1.966,3.053,2.855.194-1.768-1.309-2.65-1.987-3.944a1.588,1.588,0,0,1,2.44.119c1.529,1.485,2.967,3.069,4.549,4.494a18.731,18.731,0,0,1,5.545,9.114,4.076,4.076,0,0,0,1.043,1.693c.985.98,2.075,1.855,3.191,2.834l-8.883,8.122c-.891-1.029-1.716-2.038-2.609-2.983a3.89,3.89,0,0,0-1.242-.8,6.045,6.045,0,0,0-1.39-.392,19.876,19.876,0,0,1-9.984-5.393c-1.445-1.334-1.579-2.725-.286-4.611-.708-.767-1.429-1.556-2.158-2.338q-3.052-3.276-6.108-6.548c-.961-1.031-.943-1.849.049-2.793.866-.825,1.725-.784,2.672.161q3.624,3.614,7.223,7.252A5.6,5.6,0,0,1,2120.559,954.985Z" transform="translate(-168.958 -181.43)" fill="#f9ae65"/>
    <path id="Path_153" data-name="Path 153" d="M2047.063,738.306q-5.122,0-10.243,0c-1.758,0-2.556-.8-2.56-2.541,0-.823-.011-1.648.015-2.47a1.591,1.591,0,0,1,1.348-1.625c.581-.135,1.172-.224,1.753-.361a3.545,3.545,0,0,0,2.407-1.621,5.257,5.257,0,0,1,3.107-2.38,13.017,13.017,0,0,1,8.536.084,5.209,5.209,0,0,1,2.875,2.279,4.122,4.122,0,0,0,3.144,1.8c2.134.375,2.423.711,2.422,2.829,0,.511,0,1.022,0,1.534a2.209,2.209,0,0,1-2.472,2.472Q2052.228,738.311,2047.063,738.306Zm-.012-10.053a2.6,2.6,0,1,0,2.6,2.626A2.653,2.653,0,0,0,2047.051,728.253Z" transform="translate(-106.774)" fill="#f9ae65"/>
    <path id="Path_154" data-name="Path 154" d="M2199.2,796.777V769.13a20.367,20.367,0,0,1,2.889.027,2.532,2.532,0,0,1,2.06,2.664c.02,2.159.006,4.319.006,6.479q0,8.739,0,17.477v1.2A5.041,5.041,0,0,0,2199.2,796.777Z" transform="translate(-243.538 -35.206)" fill="#f9ae65"/>
    <path id="Path_155" data-name="Path 155" d="M2037.408,1023.473c.093,1.371.181,2.677.274,4.043h-21.167c.823-1.313,1.589-2.565,2.4-3.789a.874.874,0,0,1,.644-.274q8.88-.019,17.76,0C2037.4,1023.449,2037.476,1023.493,2037.408,1023.473Z" transform="translate(-92.063 -246.107)" fill="#f9ae65"/>
    <path id="Path_156" data-name="Path 156" d="M2045.992,828.624c-.375.343-.586.533-.794.726s-.407.383-.678.639l1.152,1.023,3.277-3c.168-.153.318-.405.508-.439a6.255,6.255,0,0,1,1.154-.008c-.007.385.14.892-.05,1.134-.683.868-1.479,1.649-2.236,2.459-.466.5-.939.991-1.408,1.486-.919.97-1.616.965-2.492-.012-.2-.223-.41-.438-.728-.777v2.481h4.1L2049.2,832l.233.082c0,.807.033,1.616-.01,2.421a1.285,1.285,0,0,1-1.37,1.24q-2.178.034-4.356,0a1.276,1.276,0,0,1-1.4-1.379q-.038-2.173,0-4.348a1.267,1.267,0,0,1,1.383-1.38C2044.386,828.61,2045.091,828.624,2045.992,828.624Z" transform="translate(-113.427 -83.673)" fill="#f9ae65"/>
    <path id="Path_157" data-name="Path 157" d="M2045.782,899.185c-.711,0-1.422.016-2.132,0a1.222,1.222,0,0,1-1.345-1.232c-.041-1.531-.038-3.065,0-4.6a1.2,1.2,0,0,1,1.246-1.257q2.3-.072,4.6,0a1.263,1.263,0,0,1,1.275,1.41q.025,2.128,0,4.256a1.283,1.283,0,0,1-1.425,1.422C2047.261,899.2,2046.521,899.184,2045.782,899.185Zm1.966-1.7c0-1.16.019-2.207-.019-3.252-.006-.171-.257-.471-.4-.476-1.1-.041-2.2-.022-3.3-.022v3.75Z" transform="translate(-113.422 -137.169)" fill="#f9ae65"/>
    <path id="Path_158" data-name="Path 158" d="M2114.07,849.233v2.05h-12.7v-2.05Z" transform="translate(-162.421 -101.659)" fill="#f9ae65"/>
    <path id="Path_159" data-name="Path 159" d="M2101.22,909.15v-2.038h12.7v2.038Z" transform="translate(-162.297 -149.65)" fill="#f9ae65"/>
    <path id="Path_160" data-name="Path 160" d="M2044.458,956.63l.177-1.667h2.817a4.44,4.44,0,0,0,.071-.507c0-1.046,0-2.092,0-3.21h-3.741v1.546a18.347,18.347,0,0,1-1.591-1.373c-.518-.562.078-1.842.922-1.877,1.675-.07,3.356-.07,5.031,0a1.139,1.139,0,0,1,1.049,1.249c.021,1.476.023,2.952,0,4.427-.015.892-.51,1.367-1.479,1.4C2046.665,956.659,2045.615,956.63,2044.458,956.63Z" transform="translate(-113.193 -184.788)" fill="#f9ae65"/>
  </g>
</svg>
