<svg xmlns="http://www.w3.org/2000/svg" width="66.964" height="52.043" viewBox="0 0 66.964 52.043">
  <g id="Group_346" data-name="Group 346" transform="translate(-1365.818 -1152.906)">
    <path id="Path_143" data-name="Path 143" d="M1663.722,1258.081c.277,1.737.51,3.3.781,4.858.23,1.324.492,2.643.761,3.96.221,1.082.5,1.344,1.59,1.493.986.135,1.978.232,2.966.348,1.4.164,1.694.4,1.719,1.81.036,2.044-.034,4.09-.06,6.135-.01.781-.462,1.106-1.19,1.111-1.535.011-3.073.068-4.6-.017a3.128,3.128,0,0,1-1.5-.674,8.779,8.779,0,0,0-7.6-1.386,18.926,18.926,0,0,0-3.394,1.626,3.861,3.861,0,0,1-1.085.472c-.885.119-1.32-.268-1.36-1.163-.064-1.426-.127-2.853-.122-4.28q.027-7.676.109-15.352c.013-1.223.178-1.422,1.423-1.428,4.766-.023,9.533,0,14.3.025.829,0,1.144.442,1.106,1.335a1.049,1.049,0,0,1-1.163,1.125C1665.566,1258.087,1664.737,1258.081,1663.722,1258.081Zm-10.563.06c0,2.778-.021,5.491.035,8.2.005.25.479.669.772.7,2.536.307,5.078.56,7.622.79.69.062,1.021-.324.913-1-.43-2.68-.889-5.354-1.325-8.033-.07-.43-.232-.673-.716-.67C1658.041,1258.147,1655.621,1258.141,1653.159,1258.141Z" transform="translate(-238.766 -86.081)" fill="#f9ae65"/>
    <path id="Path_144" data-name="Path 144" d="M1471.115,1394.525a6.533,6.533,0,0,1,6.412,6.715,6.614,6.614,0,0,1-6.639,6.263,6.49,6.49,0,1,1,.227-12.979Zm2.418,6.5a2.472,2.472,0,0,0-2.505-2.579,2.557,2.557,0,1,0,.028,5.112A2.491,2.491,0,0,0,1473.533,1401.028Z" transform="translate(-82.73 -202.558)" fill="#f9ae65"/>
    <path id="Path_145" data-name="Path 145" d="M1674.317,1401.107a6.481,6.481,0,1,1-6.6-6.554A6.433,6.433,0,0,1,1674.317,1401.107Zm-6.452,2.439a2.463,2.463,0,0,0,2.542-2.442,2.509,2.509,0,0,0-2.4-2.6,2.525,2.525,0,1,0-.14,5.046Z" transform="translate(-247.766 -202.586)" fill="#f9ae65"/>
    <path id="Path_146" data-name="Path 146" d="M1572.288,1409.563a7.149,7.149,0,0,1,0,.769c-.152,1.193-.35,2.382-.464,3.579-.069.721-.256,1.078-1.1,1.067-3.817-.047-7.635-.031-11.452-.005-.747.005-1.013-.225-1.056-1.005a21.666,21.666,0,0,0-.5-3.491c-.146-.656-.045-.9.632-.9,3.145,0,6.29-.009,9.435-.014C1569.251,1409.562,1570.726,1409.563,1572.288,1409.563Z" transform="translate(-160.825 -215.17)" fill="#f9ae65"/>
    <path id="Path_147" data-name="Path 147" d="M1427.372,1411.867c0-2.682.149-2.826,2.833-2.75,1.167.033,1.176.118.937,1.3a33.747,33.747,0,0,0-.452,3.423c-.057.58-.309.751-.873.765C1427.58,1414.658,1427.372,1414.443,1427.372,1411.867Z" transform="translate(-51.604 -214.785)" fill="#f9ae65"/>
    <path id="Path_148" data-name="Path 148" d="M1758.361,1411.874c0,.322.016.645,0,.965a2.005,2.005,0,0,1-2.983,1.669.759.759,0,0,1-.29-.511c-.221-1.37-.406-2.746-.627-4.116-.068-.422.006-.687.48-.719.187-.013.374-.042.561-.05C1758.208,1409,1758.392,1409.179,1758.361,1411.874Z" transform="translate(-325.802 -214.772)" fill="#f9ae65"/>
    <path id="Path_149" data-name="Path 149" d="M1468.035,1217.654c-.049-2.391-.127-2.437-2.558-2.457-4.5-.037-8.992-.01-13.489-.01v.074c-4.765,0-9.529-.017-14.294.011-1.256.008-1.572.343-1.575,1.61q-.029,12.6-.01,25.2c0,1.688.21,1.884,1.931,1.918,1.216.024,2.489.258,3.582-.581a9.183,9.183,0,0,1,11.119-.021,2.9,2.9,0,0,0,1.623.544c4.037.038,8.076.02,12.113,0,1.309-.008,1.528-.2,1.546-1.489.057-4.01.1-8.022.1-12.033C1468.127,1226.16,1468.122,1221.906,1468.035,1217.654Z" transform="translate(-58.921 -52.205)" fill="#f9ae65"/>
    <path id="Path_150" data-name="Path 150" d="M1384.173,1161.135a8.84,8.84,0,0,0-1.171-3.6,9.1,9.1,0,0,0-5.6-4.307,8.836,8.836,0,0,0-3.647-.223,9.054,9.054,0,0,0-5.673,3.075,8.93,8.93,0,0,0-2.1,4.3,9.166,9.166,0,0,0,2.828,8.533,8.992,8.992,0,0,0,4.422,2.235c.422.083.855.11,1.283.162.031,0,.061.01.091.015h.827c.189-.018.379-.034.568-.054a8.957,8.957,0,0,0,4.359-1.657,9.107,9.107,0,0,0,3.571-5.185,8.694,8.694,0,0,0,.278-1.786c0-.043.011-.086.016-.129v-.789C1384.209,1161.526,1384.194,1161.33,1384.173,1161.135Zm-10.8,5.085-3.843-3.842,1.217-1.214,2.621,2.624,5.918-5.919,1.219,1.22Z" fill="#f9ae65"/>
  </g>
</svg>
