<svg xmlns="http://www.w3.org/2000/svg" width="63.274" height="71.983" viewBox="0 0 63.274 71.983">
  <g id="Group_975" data-name="Group 975" transform="translate(-4975.809 -1286.105)">
    <path id="Path_178" data-name="Path 178" d="M5026.048,1358.088h-47.285c-2.26-.82-2.959-2.511-2.955-4.809q.057-26.582.023-53.164c0-3.3,1.388-4.686,4.648-4.688,7.727,0,15.454-.028,23.18.027a2.7,2.7,0,0,0,2.636-1.379,17.862,17.862,0,0,1,30.976,2.16,31.142,31.142,0,0,1,1.794,6.631l.016,3.079c-.017.085-.03.17-.04.256a17.406,17.406,0,0,1-8.8,13.556,2.478,2.478,0,0,0-1.371,2.489c.043,10.329-.012,20.659.056,30.987C5028.944,1355.539,5028.244,1357.2,5026.048,1358.088Zm-46.925-59.348c-.034.559-.078.952-.078,1.345q-.005,26.662-.031,53.323c0,1.259.444,1.484,1.562,1.482q21.754-.044,43.508.007c1.3,0,1.706-.325,1.7-1.678-.059-10.042-.031-20.084-.035-30.126,0-.428-.049-.856-.077-1.319-6.844,1.328-12.791-.138-17.544-5.22s-5.914-11.125-4.182-17.814Zm39.971,5.41c-.292-.261-.63-.55-.951-.857-3.042-2.91-3.02-2.893-5.754.3-.61.712-.521,1.156.1,1.756,1.9,1.849,3.8,3.706,5.638,5.626.791.828,1.316.732,2.075-.036,2.638-2.675,5.363-5.264,8-7.94,2.99-3.036,3.165-2.1.071-5.455-.858-.93-1.423-1.065-2.387-.052C5023.717,1299.769,5021.4,1301.9,5019.095,1304.151Z" transform="translate(0 0)" fill="#f9ae65"/>
    <path id="Path_179" data-name="Path 179" d="M5032.075,1427.235c3.612,0,7.225.027,10.837-.015,1.152-.013,1.95.431,1.933,1.565s-.854,1.54-1.983,1.536q-10.761-.038-21.523-.009c-1.061,0-1.945-.223-1.977-1.5-.034-1.4.906-1.584,2.027-1.578C5024.951,1427.246,5028.513,1427.235,5032.075,1427.235Z" transform="translate(-30.372 -98.412)" fill="#f9ae65"/>
    <path id="Path_180" data-name="Path 180" d="M5032.066,1467.906c-3.513,0-7.026-.013-10.539.008-1.188.007-2.168-.25-2.146-1.668s1.1-1.484,2.152-1.484q10.614-.008,21.228-.007c1.128,0,2.116.305,2.1,1.584-.014,1.244-.948,1.59-2.107,1.579C5039.193,1467.885,5035.629,1467.906,5032.066,1467.906Z" transform="translate(-30.386 -124.589)" fill="#f9ae65"/>
    <path id="Path_181" data-name="Path 181" d="M5026.733,1389.506c1.85,0,3.7.011,5.548-.006,1.056-.01,1.765.416,1.819,1.518.056,1.135-.656,1.615-1.705,1.619q-5.7.018-11.4,0c-.97,0-1.654-.425-1.665-1.5-.011-1.12.624-1.623,1.7-1.625C5022.935,1389.5,5024.834,1389.507,5026.733,1389.506Z" transform="translate(-30.355 -72.107)" fill="#f9ae65"/>
  </g>
</svg>
