<svg xmlns="http://www.w3.org/2000/svg" width="69.159" height="69.159" viewBox="0 0 69.159 69.159">
  <g id="Group_1025" data-name="Group 1025" transform="translate(-4156.521 -1254.239) rotate(-1)">
    <path id="Path_164" data-name="Path 164" d="M4155.984,1348.9c-1.067-.99-2.129-1.928-3.137-2.92q-4.087-4.022-8.128-8.09a1.8,1.8,0,0,0-1.422-.569c-2.624.029-5.247.02-7.871.017-1.112,0-1.445-.346-1.445-1.447,0-2.256,0-4.512,0-6.767,0-.968.364-1.34,1.321-1.341q4.523-.006,9.048,0c.926,0,1.289.356,1.293,1.288.01,2.035-.012,4.071.02,6.105a1.536,1.536,0,0,0,.353.975q5.558,5.617,11.161,11.19a4.046,4.046,0,0,0,.333.271c6.971-4.533,13.919-4.541,20.954.025.84-.826,1.717-1.674,2.579-2.537,2.842-2.843,5.667-5.7,8.526-8.527a2.248,2.248,0,0,0,.74-1.805c-.049-1.887-.021-3.776-.014-5.664,0-.973.357-1.321,1.331-1.322q4.487,0,8.974,0c1,0,1.358.366,1.359,1.38q0,3.421,0,6.841c0,.963-.362,1.332-1.333,1.334-2.7.006-5.394.009-8.091-.01a1.557,1.557,0,0,0-1.231.488c-2.34,2.373-4.7,4.723-7.061,7.079q-1.846,1.843-3.7,3.679c-.153.153-.3.316-.481.514.49.55.969,1.066,1.422,1.6a17.354,17.354,0,0,1,.012,22.2c-.126.15-.245.306-.369.458-.32.389-.912.794-.888,1.161.025.394.618.761.979,1.123q5.119,5.119,10.258,10.216a1.629,1.629,0,0,0,1.045.35c2.648.025,5.3.005,7.944,0,1.167,0,1.493.324,1.494,1.472q0,3.347,0,6.694c0,1.027-.35,1.388-1.348,1.39q-4.488.005-8.975,0c-1,0-1.344-.358-1.346-1.386,0-1.986.024-3.973-.022-5.958a1.848,1.848,0,0,0-.468-1.148c-2.243-2.3-4.524-4.556-6.793-6.827q-1.974-1.975-3.947-3.951c-.2-.2-.425-.393-.616-.569-7.008,4.542-13.947,4.552-21.156-.146-1.145,1.225-2.343,2.548-3.586,3.827-1.946,2-3.923,3.975-5.887,5.96a4.755,4.755,0,0,1-.676.672c-1.376.913-1.622,2.219-1.511,3.76.106,1.488.031,2.99.02,4.485-.007.923-.375,1.279-1.3,1.281q-4.523.006-9.047,0c-.948,0-1.314-.38-1.316-1.349q-.006-3.457,0-6.915c0-.9.377-1.287,1.3-1.29,2.673-.009,5.346-.017,8.018.009a1.71,1.71,0,0,0,1.37-.515c2.254-2.285,4.535-4.544,6.806-6.812,1.317-1.315,2.623-2.642,3.958-3.938.377-.366.433-.583.024-1a17.322,17.322,0,0,1-.933-23.4C4154.934,1350.068,4155.362,1349.6,4155.984,1348.9Zm15.215,18.734h.859q2.941,0,5.883,0c1.017,0,1.184-.17,1.185-1.206q0-5.737,0-11.474c0-1-.148-1.145-1.155-1.145q-10,0-20,0c-1,0-1.152.149-1.153,1.151q-.005,5.774,0,11.548c0,.932.191,1.125,1.117,1.127,2.01.005,4.021,0,6.031,0,.257,0,.514.025.811.04-.018.374-.032.656-.048,1-.364,0-.654-.012-.943,0a1.061,1.061,0,0,0-1.1,1.039,1.01,1.01,0,0,0,1.071,1.052c2.819.014,5.639.01,8.458,0a.971.971,0,0,0,1.049-1,1.035,1.035,0,0,0-1.039-1.094c-.33-.021-.662,0-1.018,0Z" fill="#f9ae65"/>
    <path id="Path_165" data-name="Path 165" d="M4552.974,1537.3a3.711,3.711,0,1,1-3.661-3.724A3.682,3.682,0,0,1,4552.974,1537.3Zm-5.291-.091a1.6,1.6,0,0,0,1.5,1.672,1.6,1.6,0,1,0,.153-3.191A1.6,1.6,0,0,0,4547.684,1537.209Z" transform="translate(-351.015 -175.52)" fill="#f9ae65"/>
    <path id="Path_166" data-name="Path 166" d="M4347.2,1743.069a3.71,3.71,0,1,1-3.677-3.706A3.688,3.688,0,0,1,4347.2,1743.069Zm-2.112-.015a1.6,1.6,0,0,0-3.2.036,1.638,1.638,0,0,0,1.615,1.578A1.658,1.658,0,0,0,4345.091,1743.054Z" transform="translate(-175.523 -351.027)" fill="#f9ae65"/>
    <path id="Path_167" data-name="Path 167" d="M4343.509,1327.785a3.71,3.71,0,1,1-3.715,3.667A3.7,3.7,0,0,1,4343.509,1327.785Zm.007,5.294a1.6,1.6,0,0,0,1.586-1.594,1.6,1.6,0,1,0-3.2.026A1.6,1.6,0,0,0,4343.516,1333.079Z" transform="translate(-175.533 -0.008)" fill="#f9ae65"/>
    <path id="Path_168" data-name="Path 168" d="M4137.74,1533.578a3.711,3.711,0,1,1-3.748,3.711A3.68,3.68,0,0,1,4137.74,1533.578Zm1.546,3.723a1.612,1.612,0,0,0-1.567-1.612,1.6,1.6,0,0,0-.1,3.194A1.6,1.6,0,0,0,4139.286,1537.3Z" transform="translate(-0.012 -175.521)" fill="#f9ae65"/>
    <path id="Path_169" data-name="Path 169" d="M4163.277,1416.969l1.5,1.405c-5.76,7.842-5.253,8.594-6.835,13.751l-2.071-.2A31.267,31.267,0,0,1,4163.277,1416.969Z" transform="translate(-18.675 -76.07)" fill="#f9ae65"/>
    <path id="Path_170" data-name="Path 170" d="M4521.663,1431.868c-.361.018-.626.025-.89.045-1.221.092-1.229.1-1.533-1.136a28.831,28.831,0,0,0-6.2-12.015c-.095-.11-.18-.229-.438-.539l1.627-1.346A31.265,31.265,0,0,1,4521.663,1431.868Z" transform="translate(-322.913 -75.991)" fill="#f9ae65"/>
    <path id="Path_171" data-name="Path 171" d="M4164.81,1611.2l-1.526,1.469a31.235,31.235,0,0,1-7.432-14.952l2.123-.236A29.331,29.331,0,0,0,4164.81,1611.2Z" transform="translate(-18.656 -230.024)" fill="#f9ae65"/>
    <path id="Path_172" data-name="Path 172" d="M4521.287,1597.561l2.117.2a31.291,31.291,0,0,1-7.459,15.028l-1.288-1.388c1.381-2.19,2.842-4.323,4.108-6.566A24.836,24.836,0,0,0,4521.287,1597.561Z" transform="translate(-324.667 -230.09)" fill="#f9ae65"/>
    <path id="Path_173" data-name="Path 173" d="M4251,1349.653c.079.758.147,1.409.208,2a50.656,50.656,0,0,0-4.966,1.636,63.939,63.939,0,0,0-5.7,3c-.544.309-.868.405-1.278-.133a7.564,7.564,0,0,0-.993-.9A31.17,31.17,0,0,1,4251,1349.653Z" transform="translate(-88.948 -18.658)" fill="#f9ae65"/>
    <path id="Path_174" data-name="Path 174" d="M4404.06,1727.884a2.275,2.275,0,0,1-.078-.3c-.051-.581-.1-1.162-.149-1.8.532-.139,1.044-.282,1.56-.408a27.119,27.119,0,0,0,9.1-4.127c.573-.4.915-.389,1.319.163a8.3,8.3,0,0,0,.9.9A31.157,31.157,0,0,1,4404.06,1727.884Z" transform="translate(-230.149 -335.345)" fill="#f9ae65"/>
    <path id="Path_175" data-name="Path 175" d="M4416.527,1355.166c-.017.106-.012.138-.026.154-1.306,1.45-1.3,1.438-2.928.41a28.737,28.737,0,0,0-9.395-3.84c-.139-.03-.275-.074-.454-.123.074-.7.146-1.365.224-2.1A30.958,30.958,0,0,1,4416.527,1355.166Z" transform="translate(-230.057 -18.673)" fill="#f9ae65"/>
    <path id="Path_176" data-name="Path 176" d="M4252.051,1726.486c-.075.7-.147,1.367-.224,2.087a31.032,31.032,0,0,1-12.581-5.491c.021-.115.018-.146.031-.161,1.309-1.441,1.3-1.428,2.927-.4a28.778,28.778,0,0,0,9.323,3.825C4251.691,1726.377,4251.851,1726.43,4252.051,1726.486Z" transform="translate(-89.779 -336.039)" fill="#f9ae65"/>
    <path id="Path_177" data-name="Path 177" d="M4357.263,1598.872h1.932v1a7.664,7.664,0,0,1-1.656-.038c-.217-.049-.338-.524-.5-.805Z" transform="translate(-190.237 -231.208)" fill="#f9ae65"/>
  </g>
</svg>
