<svg xmlns="http://www.w3.org/2000/svg" width="75.224" height="69.606" viewBox="0 0 75.224 69.606">
  <g id="Group_657" data-name="Group 657" transform="translate(-7597.259 -1710.362)">
    <path id="Path_287" data-name="Path 287" d="M7634.918,1710.382q15.9,0,31.792.009a9.012,9.012,0,0,1,1.906.2,4.42,4.42,0,0,1,3.65,4.151,63.307,63.307,0,0,1,.116,6.5q.071,19.7.1,39.4c.013,4.392-1.534,6-5.905,6.036q-11.222.084-22.445.12c-.816,0-1.059.173-.94,1.022.185,1.328.21,2.677.329,4.015a5.342,5.342,0,0,0,2.841,4.422c1.115.631,2.2,1.315,3.3,1.978.416.252.749.576.6,1.113-.15.554-.641.48-1.059.483-4.581.037-9.161.078-13.742.1-4.666.021-9.331.021-14,.031-.123,0-.245.009-.367,0-.432-.022-.909-.029-1.052-.536s.228-.809.583-1.045c.686-.455,1.4-.867,2.1-1.293.208-.126.422-.245.641-.353a5.8,5.8,0,0,0,3.437-5.6,25.8,25.8,0,0,1,.256-3.285c.1-.7-.146-.818-.778-.8-7.664.182-15.33.165-23,.14-4.25-.014-5.864-1.54-5.9-5.782-.089-11.208-.1-22.416-.13-33.624-.012-3.7-.006-7.391-.007-11.086,0-.367,0-.733.014-1.1a4.617,4.617,0,0,1,4.574-4.86,64.257,64.257,0,0,1,6.5-.134c8.857-.021,17.714-.22,26.571-.22Zm-.217,4.432h0c-6.322,0-12.645-.01-18.967,0q-6.368.014-12.736.087c-1.5.015-1.695.208-1.72,1.692-.024,1.466,0,2.932,0,4.4q.039,15.989.076,31.978c0,2.192.12,2.327,2.337,2.319,6.322-.024,12.645-.074,18.967-.095q20.754-.07,41.507-.123c.824,0,1.65.012,2.473-.032,1.316-.071,1.674-.484,1.622-1.776-.016-.4-.038-.793-.039-1.19q-.066-17.775-.127-35.55c-.006-1.717-.181-1.9-1.877-1.9C7655.716,1714.622,7645.209,1714.814,7634.7,1714.814Zm.281,43.245a3.262,3.262,0,0,0-3.232,3.285,3.194,3.194,0,0,0,3.144,3.241,3.648,3.648,0,0,0,3.373-3.375A3.279,3.279,0,0,0,7634.982,1758.059Z" transform="translate(0)" fill="#3cb08e"/>
    <g id="Group_658" data-name="Group 658" transform="translate(0 -2)">
      <path id="Path_288" data-name="Path 288" d="M7730.673,1784.936c-2.679,1.5-5.212,2.91-7.735,4.338-.393.222-.539.064-.666-.281-.661-1.791-2.261-2.473-3.841-3.049-5.157-1.878-10.476-1.825-15.817-1.071a18.2,18.2,0,0,0-5.728,1.831,3.254,3.254,0,0,0-1.842,2.043c-.124.457-.336.5-.715.268-.518-.322-1.061-.6-1.58-.924-.34-.21-.606-.262-.555.253.083.823-.353,1.766.627,2.4a.775.775,0,0,1,.131,1.089,1.489,1.489,0,0,0-.1,1.461,42.651,42.651,0,0,1,1.113,6.3c.107.977-.311,1.384-1.175,1.611a3.02,3.02,0,0,1-1.958-.2.923.923,0,0,1-.622-1.061,41.312,41.312,0,0,1,1.068-7.05c.049-.236.217-.489.042-.7-.588-.712-.3-1.27.233-1.845s.148-1.346.288-2.011c.184-.871-.406-1.154-1.029-1.474-1.346-.693-2.67-1.427-4.136-2.216,1.96-1.1,3.771-2.127,5.59-3.141,4.9-2.73,9.811-5.44,14.7-8.2a2.729,2.729,0,0,1,3.082-.015,47.413,47.413,0,0,0,4.261,2.461c2.654,1.3,5.2,2.789,7.824,4.144,2.372,1.226,4.7,2.539,7.06,3.786C7729.756,1783.987,7730.026,1784.566,7730.673,1784.936Z" transform="translate(-73.023 -51.013)" fill="#f9ae65"/>
      <path id="Path_289" data-name="Path 289" d="M7751.684,1856.814a43.336,43.336,0,0,1-11.077-1.081c-.119-.029-.24-.046-.357-.079-1.959-.552-2.025-.657-2.009-2.707a37.336,37.336,0,0,1,.276-4.745,2.139,2.139,0,0,1,1.15-1.645,13.652,13.652,0,0,1,5.44-1.776c4.195-.494,8.4-.739,12.552.3a17.3,17.3,0,0,1,3.9,1.412,2.916,2.916,0,0,1,1.583,2.662c.057,1.432.042,2.867.042,4.3a1.821,1.821,0,0,1-1.331,1.83,21.64,21.64,0,0,1-5.966,1.289C7754.492,1856.718,7753.085,1856.738,7751.684,1856.814Zm.04-3.98a41.077,41.077,0,0,0-10.712.874c-.461.114-1.171.125-1.167.67.005.584.745.51,1.187.595a62.461,62.461,0,0,0,16.3.658,13.665,13.665,0,0,0,3.673-.678c.315-.113.792-.174.708-.684a.929.929,0,0,0-.792-.785c-.208-.041-.417-.089-.627-.118A43.591,43.591,0,0,0,7751.724,1852.834Z" transform="translate(-115.13 -109.425)" fill="#f9ae65"/>
    </g>
  </g>
</svg>
