<?xml version="1.0" encoding="utf-8"?>
<!-- Generator: Adobe Illustrator 24.3.0, SVG Export Plug-In . SVG Version: 6.00 Build 0)  -->
<svg version="1.1" id="Layer_1" xmlns="http://www.w3.org/2000/svg" xmlns:xlink="http://www.w3.org/1999/xlink" x="0px" y="0px"
	 viewBox="0 0 1366 768" style="enable-background:new 0 0 1366 768;" xml:space="preserve">
<g>
	<path d="M1334.4,348.47c-9.23-70.5-58.91-143.84-136.3-201.2c-81.64-60.51-155.5-77.95-248.22-86.48
		c-48.63-4.48-103.24,4.2-153.77,24.43c-49.34,19.75-91.02,48.79-117.37,81.76c-51.43,64.36-53.21,120.01-49.01,161.29
		c1.63,16.02,8.44,45.5,15.65,76.72c8.83,38.23,18.84,81.56,20.77,106.51c3.38,43.6-2.71,100.56-80.35,154.45
		c-75.12,52.14-145.73,12.19-211.62-33.2c-63.1-43.47-122.06-71.67-185.56-88.77c-54.59-14.7-86.93-53.56-87.25-53.94l-0.25-0.29
		c-38.02-42-50.54-102.17-54.36-145.25c-4.18-47.25,0.91-84.9,0.96-85.28l-7.43-1.03l0.5,0.07v0l6.93,0.97l-6.93-0.97
		c0,0.02-0.3,2.14-0.68,5.94l-1-0.1c0.39-3.82,0.69-5.95,0.69-5.98l0.5,0.07l-7.43-1.03c-0.22,1.59-5.36,39.44-1.08,88.32
		c3.98,45.44,17.29,109.05,58.09,154.21c2.73,3.3,36.66,43.12,94.84,58.79c61.81,16.64,119.31,44.17,180.95,86.64
		c33.56,23.12,69.83,45.85,107.69,55.57c13.12,3.37,25.88,5.06,38.34,5.06c28.91,0,56.21-9.11,82.65-27.46
		c84.86-58.89,90.15-124.04,86.76-167.93c-2.02-26.07-12.16-69.98-21.12-108.73c-7.1-30.74-13.81-59.78-15.35-74.86
		c-3.91-38.45-2.24-90.29,45.81-150.41c52.77-66.04,163.7-109.29,258.05-100.62c106.43,9.79,171.66,32.45,240.67,83.59
		c74.14,54.95,121.66,124.6,130.36,191.1c9.18,70.14-23.52,149.05-85.35,205.95l10.16,11.04c32.93-30.31,58.6-67.03,74.24-106.18
		C1333.64,423.49,1339.12,384.5,1334.4,348.47z M38.1,276.12l1,0.07c-0.27,3.92-0.48,7.97-0.64,12.03l-1-0.04
		C37.62,284.11,37.84,280.05,38.1,276.12z M37.1,306.26c0-2.06,0.01-4.06,0.04-6.02l1,0.01c-0.03,1.95-0.04,3.95-0.04,6
		c0,1.97,0.01,3.99,0.04,6.04l-1,0.01C37.11,310.26,37.1,308.24,37.1,306.26z M37.46,324.39l1-0.04c0.16,4.01,0.38,8.06,0.65,12.03
		l-1,0.07C37.84,332.47,37.62,328.41,37.46,324.39z M40.44,360.49c-0.5-3.93-0.95-7.97-1.34-12l1-0.1
		c0.39,4.02,0.84,8.05,1.34,11.97L40.44,360.49z M44.26,384.34c-0.76-3.89-1.47-7.89-2.11-11.89l0.99-0.16
		c0.64,3.99,1.35,7.98,2.11,11.86L44.26,384.34z M49.78,407.86c-1.05-3.81-2.06-7.75-2.98-11.71l0.97-0.23
		c0.92,3.94,1.92,7.87,2.97,11.67L49.78,407.86z M57.21,430.84c-1.39-3.7-2.72-7.54-3.97-11.41l0.95-0.31
		c1.24,3.85,2.57,7.68,3.95,11.36L57.21,430.84z M66.81,453c-1.77-3.54-3.48-7.23-5.09-10.96l0.92-0.4
		c1.6,3.71,3.31,7.38,5.07,10.91L66.81,453z M78.83,473.95c-2.18-3.31-4.31-6.77-6.33-10.29l0.87-0.5c2.01,3.5,4.13,6.95,6.3,10.24
		L78.83,473.95z M93.45,493.17c-2.62-2.99-5.2-6.14-7.64-9.36l0.8-0.61c2.43,3.2,4.98,6.33,7.59,9.3L93.45,493.17z M110.47,510.38
		c-3.11-2.73-6.08-5.52-8.82-8.28l0.71-0.71c2.73,2.75,5.69,5.52,8.78,8.23L110.47,510.38z M129.57,525.2
		c-3.31-2.27-6.6-4.66-9.77-7.12l0.61-0.79c3.16,2.45,6.43,4.83,9.73,7.09L129.57,525.2z M150.32,537.59
		c-3.55-1.83-7.1-3.81-10.56-5.88l0.51-0.86c3.44,2.06,6.98,4.03,10.51,5.85L150.32,537.59z M172.46,547.28
		c-3.76-1.36-7.54-2.87-11.23-4.48l0.4-0.92c3.67,1.61,7.43,3.1,11.17,4.46L172.46,547.28z M195.57,554.22
		c-3-0.86-6.04-1.71-9.03-2.52c-0.86-0.23-1.72-0.47-2.57-0.71l0.28-0.96c0.85,0.24,1.7,0.48,2.56,0.71c3,0.81,6.04,1.66,9.05,2.52
		L195.57,554.22z M218.55,561.42c-3.79-1.29-7.65-2.54-11.45-3.73l0.3-0.96c3.81,1.19,7.67,2.45,11.47,3.74L218.55,561.42z
		 M241.18,569.68c-3.74-1.46-7.53-2.89-11.27-4.26l0.34-0.94c3.75,1.37,7.54,2.8,11.29,4.27L241.18,569.68z M263.41,578.96
		c-3.66-1.62-7.38-3.22-11.06-4.76l0.38-0.92c3.69,1.54,7.42,3.15,11.08,4.77L263.41,578.96z M285.22,589.19
		c-3.6-1.78-7.25-3.55-10.85-5.24l0.42-0.9c3.61,1.69,7.26,3.46,10.87,5.24L285.22,589.19z M306.58,600.32
		c-3.54-1.93-7.11-3.84-10.63-5.67l0.46-0.89c3.52,1.83,7.1,3.75,10.64,5.68L306.58,600.32z M327.51,612.27
		c-3.46-2.06-6.96-4.1-10.41-6.07l0.5-0.87c3.45,1.97,6.96,4.02,10.42,6.08L327.51,612.27z M348,624.94
		c-3.39-2.18-6.82-4.34-10.19-6.42l0.53-0.85c3.38,2.09,6.81,4.25,10.21,6.43L348,624.94z M368.08,638.26
		c-3.33-2.28-6.69-4.55-9.99-6.74l0.55-0.83c3.3,2.19,6.67,4.46,10,6.75L368.08,638.26z M388.08,651.75
		c-3.2-2.1-6.49-4.28-10.05-6.69l0.56-0.83c3.55,2.4,6.83,4.58,10.03,6.68L388.08,651.75z M408.55,664.56
		c-3.33-1.98-6.8-4.09-10.31-6.29l0.53-0.85c3.5,2.19,6.96,4.31,10.29,6.28L408.55,664.56z M429.7,676.23
		c-3.47-1.76-7.06-3.67-10.67-5.67l0.48-0.88c3.6,1.99,7.18,3.89,10.64,5.65L429.7,676.23z M451.71,686.22
		c-3.64-1.44-7.38-3.04-11.12-4.74l0.41-0.91c3.72,1.69,7.45,3.28,11.08,4.72L451.71,686.22z M474.67,693.78
		c-3.8-0.99-7.7-2.14-11.6-3.43l0.31-0.95c3.87,1.28,7.75,2.43,11.53,3.41L474.67,693.78z M498.46,698.07
		c-3.93-0.38-7.96-0.95-11.97-1.67l0.18-0.98c3.99,0.72,7.99,1.28,11.89,1.66L498.46,698.07z M511.56,698.71l-1.03,0l0.01-1l1.02,0
		c3.66,0,7.36-0.16,10.97-0.47l0.09,1C518.97,698.55,515.25,698.71,511.56,698.71z M534.61,696.62l-0.18-0.98
		c3.9-0.72,7.83-1.64,11.69-2.74l0.27,0.96C542.5,694.96,538.54,695.89,534.61,696.62z M557.86,690.01l-0.36-0.93
		c3.67-1.42,7.38-3.04,11-4.81l0.44,0.9C565.29,686.95,561.56,688.58,557.86,690.01z M579.59,679.43l-0.51-0.86
		c3.38-1.99,6.79-4.17,10.13-6.47l0.57,0.82C586.42,675.24,582.99,677.43,579.59,679.43z M599.57,665.87l-0.6-0.8
		c3.24-2.43,6.42-4.94,9.45-7.44l0.64,0.77C606.01,660.91,602.82,663.43,599.57,665.87z M618.18,650.5l-0.67-0.74
		c3-2.74,5.92-5.54,8.67-8.33l0.71,0.7C624.13,644.93,621.2,647.75,618.18,650.5z M635.1,633.27l-0.75-0.66
		c2.66-3.04,5.22-6.17,7.6-9.3l0.79,0.61C640.35,627.06,637.78,630.21,635.1,633.27z M649.74,614.06l-0.84-0.55
		c2.21-3.37,4.3-6.83,6.21-10.28l0.88,0.48C654.07,607.19,651.97,610.67,649.74,614.06z M661.42,592.91l-0.91-0.41
		c1.65-3.65,3.17-7.39,4.5-11.13l0.94,0.34C664.6,585.47,663.08,589.24,661.42,592.91z M669.54,570.16l-0.97-0.26
		c1.02-3.83,1.9-7.77,2.62-11.72l0.98,0.18C671.46,562.33,670.57,566.3,669.54,570.16z M674.07,510.17l0.06,0.72
		c0.3,3.89,0.51,7.71,0.61,11.35l-1,0.03c-0.1-3.63-0.31-7.43-0.61-11.3l-0.06-0.71L674.07,510.17z M673.71,534.29l1,0.03
		c-0.14,4.08-0.42,8.14-0.82,12.06l-1-0.1C673.3,542.39,673.58,538.35,673.71,534.29z M670.86,486.2c0.73,4.28,1.35,8.3,1.85,11.95
		l-0.99,0.14c-0.5-3.63-1.12-7.64-1.85-11.92L670.86,486.2z M666.37,462.46c0.85,4.15,1.64,8.14,2.35,11.85l-0.98,0.19
		c-0.71-3.71-1.49-7.69-2.34-11.84L666.37,462.46z M661.3,438.85c0.88,3.96,1.74,7.9,2.58,11.8l-0.98,0.21
		c-0.84-3.89-1.7-7.83-2.58-11.79L661.3,438.85z M655.96,415.3c0.9,3.92,1.8,7.85,2.69,11.77l-0.98,0.22
		c-0.89-3.92-1.79-7.86-2.69-11.77L655.96,415.3z M650.54,391.77c0.89,3.86,1.79,7.78,2.71,11.73l-0.65,0.17l0.17-0.03l-0.49,0.11
		l0.32-0.08l-0.33,0.05c-0.91-3.96-1.82-7.88-2.71-11.73L650.54,391.77z M645.21,368.22c0.84,3.81,1.72,7.75,2.63,11.78l-0.98,0.22
		c-0.91-4.04-1.8-7.97-2.64-11.79L645.21,368.22z M635.26,301.72c0-1.66,0.02-3.34,0.06-5.04l1,0.02c-0.04,1.7-0.06,3.37-0.06,5.02
		c0,2.3,0.04,4.66,0.11,7.01l-1,0.03C635.3,306.4,635.26,304.03,635.26,301.72z M637.34,332.84c-0.27-1.92-0.49-3.69-0.65-5.27
		c-0.24-2.37-0.44-4.58-0.62-6.75l1-0.08c0.18,2.17,0.38,4.37,0.62,6.73c0.16,1.57,0.38,3.33,0.65,5.23L637.34,332.84z
		 M636.98,284.69l-1-0.09c0.35-4.01,0.83-8.05,1.43-12l0.99,0.15C637.81,276.68,637.33,280.7,636.98,284.69z M641.7,356.62
		c-0.9-4.33-1.69-8.32-2.36-11.85l0.98-0.18c0.66,3.53,1.45,7.51,2.35,11.83L641.7,356.62z M640.6,260.93l-0.98-0.21
		c0.86-3.91,1.86-7.85,2.97-11.71l0.96,0.28C642.45,253.12,641.45,257.04,640.6,260.93z M647.25,237.84l-0.94-0.34
		c1.34-3.75,2.83-7.53,4.42-11.25l0.92,0.39C650.07,230.35,648.59,234.11,647.25,237.84z M656.7,215.74l-0.89-0.45
		c1.77-3.55,3.68-7.14,5.69-10.66l0.87,0.49C660.37,208.64,658.47,212.21,656.7,215.74z M668.58,194.83l-0.84-0.54
		c2.13-3.34,4.4-6.71,6.74-10.02l0.82,0.58C672.96,188.15,670.7,191.51,668.58,194.83z M684.98,171.98
		c-0.86,1.07-1.7,2.14-2.53,3.21l-0.79-0.61c0.83-1.07,1.68-2.14,2.53-3.22c1.63-2.04,3.36-4.1,5.12-6.13l0.75,0.66
		C688.32,167.9,686.61,169.95,684.98,171.98z M698.26,157.07l-0.71-0.7c2.77-2.81,5.7-5.63,8.71-8.37l0.67,0.74
		C703.94,151.46,701.02,154.27,698.26,157.07z M716.03,140.85l-0.64-0.77c3.06-2.52,6.26-5.03,9.5-7.46l0.6,0.8
		C722.26,135.84,719.08,138.34,716.03,140.85z M735.28,126.41l-0.56-0.83c3.28-2.24,6.68-4.47,10.1-6.62l0.53,0.85
		C741.94,121.95,738.55,124.17,735.28,126.41z M755.68,113.61l-0.5-0.87c3.46-1.99,7.02-3.95,10.58-5.82l0.47,0.88
		C762.67,109.68,759.12,111.63,755.68,113.61z M776.98,102.38l-0.43-0.9c3.59-1.73,7.29-3.44,10.97-5.06l0.4,0.92
		C784.24,98.96,780.56,100.65,776.98,102.38z M799.02,92.67l-0.37-0.93c3.71-1.48,7.5-2.93,11.27-4.3l0.34,0.94
		C806.49,89.75,802.71,91.19,799.02,92.67z M821.64,84.48l-0.31-0.95c3.8-1.23,7.68-2.42,11.54-3.54l0.28,0.96
		C829.3,82.06,825.43,83.25,821.64,84.48z M844.77,77.81l-0.24-0.97c3.9-0.98,7.86-1.91,11.76-2.75l0.21,0.98
		C852.6,75.91,848.66,76.83,844.77,77.81z M868.31,72.73l-0.18-0.98c3.96-0.71,7.98-1.36,11.93-1.92l0.14,0.99
		C876.26,71.38,872.26,72.02,868.31,72.73z M892.16,69.33l-0.11-0.99c4.01-0.42,8.07-0.77,12.04-1.04l0.07,1
		C900.2,68.56,896.16,68.91,892.16,69.33z M928.24,67.66c-3.98-0.06-8.01-0.03-12.04,0.08l-0.03-1c4.04-0.11,8.08-0.13,12.08-0.08
		L928.24,67.66z M952.27,69.05l-3.13-0.29c-2.91-0.27-5.9-0.49-8.87-0.67l0.06-1c2.99,0.17,5.98,0.4,8.91,0.67l3.13,0.29
		L952.27,69.05z M976.22,71.62c-3.91-0.47-7.93-0.93-11.97-1.36l0.11-0.99c4.04,0.43,8.07,0.89,11.98,1.36L976.22,71.62z
		 M1000.09,74.87c-3.86-0.59-7.87-1.17-11.92-1.73l0.13-0.99c4.05,0.55,8.07,1.13,11.94,1.73L1000.09,74.87z M1023.82,79
		c-3.86-0.75-7.84-1.49-11.84-2.18l0.17-0.99c4.01,0.7,8,1.43,11.86,2.18L1023.82,79z M1047.33,84.17
		c-3.84-0.94-7.79-1.86-11.73-2.73l0.21-0.98c3.95,0.87,7.9,1.79,11.75,2.73L1047.33,84.17z M1070.54,90.55
		c-3.78-1.16-7.67-2.29-11.56-3.36l0.27-0.96c3.9,1.07,7.8,2.2,11.59,3.36L1070.54,90.55z M1093.34,98.3
		c-3.73-1.4-7.54-2.76-11.34-4.05l0.32-0.95c3.8,1.29,7.63,2.66,11.37,4.06L1093.34,98.3z M1115.59,107.46
		c-3.64-1.64-7.36-3.24-11.04-4.76l0.38-0.92c3.7,1.52,7.42,3.13,11.07,4.77L1115.59,107.46z M1137.21,118.03
		c-3.55-1.88-7.16-3.71-10.73-5.46l0.44-0.9c3.58,1.75,7.19,3.59,10.75,5.47L1137.21,118.03z M1158.13,129.93
		c-3.44-2.09-6.92-4.14-10.37-6.1l0.49-0.87c3.46,1.97,6.96,4.02,10.4,6.12L1158.13,129.93z M1178.34,143
		c-3.33-2.28-6.7-4.53-10.02-6.68l0.54-0.84c3.32,2.15,6.7,4.4,10.04,6.69L1178.34,143z M1197.87,157.1
		c-1.5-1.14-3.01-2.27-4.53-3.4c-1.72-1.27-3.43-2.53-5.15-3.77l0.59-0.81c1.71,1.24,3.43,2.5,5.16,3.77
		c1.53,1.13,3.04,2.27,4.54,3.41L1197.87,157.1z M1216.65,172.18c-3.03-2.57-6.15-5.14-9.29-7.66l0.62-0.78
		c3.15,2.52,6.28,5.11,9.31,7.68L1216.65,172.18z M1234.58,188.25c-2.88-2.73-5.85-5.48-8.85-8.17l0.67-0.75
		c3,2.69,5.99,5.45,8.87,8.19L1234.58,188.25z M1251.54,205.35c-2.7-2.89-5.5-5.81-8.35-8.68l0.71-0.7c2.85,2.87,5.67,5.8,8.37,8.7
		L1251.54,205.35z M1267.4,223.47c-2.51-3.07-5.12-6.16-7.78-9.19l0.75-0.66c2.66,3.04,5.28,6.14,7.8,9.22L1267.4,223.47z
		 M1281.97,242.64c-2.28-3.23-4.67-6.5-7.11-9.71l0.79-0.61c2.45,3.22,4.85,6.5,7.14,9.74L1281.97,242.64z M1295.06,262.83
		c-2.02-3.4-4.15-6.84-6.34-10.23l0.84-0.54c2.2,3.4,4.34,6.85,6.37,10.26L1295.06,262.83z M1306.42,284.05
		c-1.71-3.56-3.54-7.17-5.44-10.73l0.88-0.47c1.92,3.57,3.75,7.2,5.47,10.77L1306.42,284.05z M1315.74,306.22
		c-1.35-3.72-2.83-7.49-4.39-11.2l0.92-0.39c1.57,3.73,3.05,7.51,4.41,11.25L1315.74,306.22z M1239.6,562.26l-0.68-0.74
		c1.47-1.36,2.93-2.72,4.37-4.1l0.69,0.72C1242.54,559.52,1241.08,560.89,1239.6,562.26z M1252.57,549.6l-0.72-0.7
		c2.78-2.88,5.53-5.84,8.19-8.82l0.75,0.67C1258.12,543.73,1255.36,546.71,1252.57,549.6z M1268.63,531.57l-0.77-0.63
		c2.54-3.09,5.04-6.27,7.44-9.46l0.8,0.6C1273.69,525.28,1271.18,528.47,1268.63,531.57z M1283.17,512.28l-0.82-0.57
		c2.28-3.3,4.51-6.68,6.63-10.05l0.85,0.53C1287.7,505.58,1285.46,508.97,1283.17,512.28z M1296.04,491.84l-0.87-0.5
		c1.99-3.49,3.92-7.05,5.73-10.58l0.89,0.46C1299.97,484.77,1298.03,488.34,1296.04,491.84z M1307.06,470.36l-0.91-0.42
		c1.67-3.66,3.27-7.38,4.75-11.06l0.93,0.37C1310.34,462.95,1308.74,466.68,1307.06,470.36z M1316.07,447.95l-0.94-0.33
		c1.32-3.79,2.56-7.64,3.68-11.46l0.96,0.28C1318.63,440.27,1317.39,444.14,1316.07,447.95z M1326.14,340.83
		c0.5,2.84,0.95,5.72,1.32,8.55c0.15,1.13,0.29,2.27,0.41,3.41l-0.99,0.11c-0.13-1.13-0.26-2.26-0.41-3.39
		c-0.37-2.82-0.81-5.68-1.31-8.51L1326.14,340.83z M1319.54,317.63l0.96-0.29c1.17,3.88,2.24,7.8,3.17,11.66l-0.97,0.23
		C1321.77,325.4,1320.71,321.49,1319.54,317.63z M1322.88,424.77l-0.97-0.23c0.94-3.9,1.78-7.85,2.5-11.77l0.98,0.18
		C1324.66,416.88,1323.82,420.86,1322.88,424.77z M1327.27,401.02l-0.99-0.13c0.52-3.98,0.93-8.01,1.22-11.96l1,0.07
		C1328.21,392.97,1327.79,397.02,1327.27,401.02z M1329.02,376.92l-1-0.01c0.01-0.94,0.02-1.89,0.02-2.83c0-3.07-0.07-6.16-0.22-9.2
		l1-0.05c0.14,3.05,0.22,6.16,0.22,9.24C1329.04,375.03,1329.04,375.98,1329.02,376.92z"/>
</g>
</svg>
