<?xml version="1.0" encoding="utf-8"?>
<!-- Generator: Adobe Illustrator 24.3.0, SVG Export Plug-In . SVG Version: 6.00 Build 0)  -->
<svg version="1.1" id="Layer_1" xmlns="http://www.w3.org/2000/svg" xmlns:xlink="http://www.w3.org/1999/xlink" x="0px" y="0px"
	 viewBox="0 0 1366 768" style="enable-background:new 0 0 1366 768;" xml:space="preserve">
<style type="text/css">
	.st0{fill:none;stroke:#000000;stroke-width:15;stroke-miterlimit:10;}
	.st1{fill:none;stroke:#FFFFFF;stroke-miterlimit:10;}
	.st2{fill:none;stroke:#FFFFFF;stroke-miterlimit:10;stroke-dasharray:12.0576,12.0576;}
</style>
<path class="st0" d="M40.3,258.19c0,0-21.19,152.15,55.26,236.59c0,0,33.33,40.89,91.11,56.44s116.59,41.78,183.26,87.7
	c66.67,45.93,140.74,88.3,220.15,33.19c79.41-55.11,87.11-115.26,83.56-161.19s-32.89-148.44-36.44-183.41s-4.44-90.96,47.41-155.85
	S849.33,59.07,949.19,68.26s168.89,29.04,244.44,85.04s124.3,127.11,133.33,196.15c9.04,69.04-20.74,150.81-87.7,212.44"/>
<g>
	<g>
		<path class="st1" d="M40.3,258.19c0,0-0.29,2.1-0.69,5.96"/>
		<path class="st2" d="M38.6,276.15c-2.9,42.74-3.5,151.85,56.95,218.62c0,0,33.33,40.89,91.11,56.44s116.59,41.78,183.26,87.7
			c66.67,45.93,140.74,88.3,220.15,33.19c79.41-55.11,87.11-115.26,83.56-161.19s-32.89-148.44-36.44-183.41
			s-4.44-90.96,47.41-155.85S849.33,59.07,949.19,68.26s168.89,29.04,244.44,85.04s124.3,127.11,133.33,196.15
			c8.64,65.97-18.17,143.58-79,204.12"/>
		<path class="st1" d="M1243.64,557.78c-1.44,1.38-2.9,2.75-4.38,4.11"/>
	</g>
</g>
</svg>
