<svg xmlns="http://www.w3.org/2000/svg" width="81.858" height="78" viewBox="0 0 81.858 78">
  <g id="Group_659" data-name="Group 659" transform="translate(-6798.822 -2299.51)">
    <path id="Path_290" data-name="Path 290" d="M6824.992,2404.9l-1.313.2c.447,1.834.906,3.556,1.282,5.295,1.012,4.675,2.048,9.345,2.937,14.043a10.827,10.827,0,0,1-.093,3.867,3.166,3.166,0,0,1-2.753,2.695,3.211,3.211,0,0,1-3.2-2.163,25.708,25.708,0,0,1-.861-3.784c-1.341-6.259-2.592-12.539-4.047-18.771-1.265-5.408-2.742-10.768-4.184-16.133a2.9,2.9,0,0,0-1.083-1.459c-3.3-2.349-6.654-4.631-9.977-6.954a14.652,14.652,0,0,1-1.891-1.522,3.121,3.121,0,0,1-.312-4.223,3.238,3.238,0,0,1,4.243-.927c1.715,1.042,3.334,2.241,5.034,3.309a43.913,43.913,0,0,0,5.093,2.984c3.634,1.647,6.163.717,7.96-2.833,1.526-3.013,2.881-6.112,4.395-9.131a3.537,3.537,0,0,1,4.787-1.609,3.22,3.22,0,0,1,1.773,4.294c-.437,1.105-1.105,2.117-1.643,3.184q-2.139,4.238-4.249,8.49a3.945,3.945,0,0,0-.141,2.871,356.283,356.283,0,0,0,11.634,35.921,4.87,4.87,0,0,1,.2,3.7,2.764,2.764,0,0,1-4.765.991,7.926,7.926,0,0,1-1.683-2.533c-1.9-4.881-3.717-9.791-5.519-14.708C6826.017,2408.352,6825.549,2406.658,6824.992,2404.9Z" transform="translate(0.001 -53.504)" fill="#3cb08e"/>
    <path id="Path_291" data-name="Path 291" d="M7008.639,2347.639c-.848-.549-1.261-.411-1.578.527q-2.805,8.294-5.725,16.548a21.943,21.943,0,0,1-1.77,3.6c-1.171,2.019-2.741,2.739-4.208,2.047a3.835,3.835,0,0,1-1.578-4.865c1.126-3.146,2.3-6.275,3.426-9.42,3.248-9.041,6.124-18.2,8.5-27.505a3.776,3.776,0,0,0-.234-2.343c-1.348-2.9-2.818-5.745-4.257-8.6-.537-1.067-1.21-2.077-1.645-3.182a3.177,3.177,0,0,1,1.712-4.228,3.481,3.481,0,0,1,4.64,1.223c.879,1.562,1.6,3.212,2.382,4.827.8,1.648,1.525,3.332,2.388,4.944,1.658,3.1,4.1,4.054,7.344,2.725a31.968,31.968,0,0,0,4.7-2.605c1.972-1.231,3.856-2.6,5.821-3.845a3.032,3.032,0,0,1,3.488.12,3.225,3.225,0,0,1,1.457,3.194,3.619,3.619,0,0,1-1.76,2.526c-2,1.45-4.035,2.84-6.059,4.25-1.677,1.169-3.384,2.3-5.02,3.521a2.919,2.919,0,0,0-1.063,1.472q-3.729,15.053-7.349,30.133c-.536,2.254-.728,4.588-1.2,6.86a6.679,6.679,0,0,1-1.12,2.572,2.871,2.871,0,0,1-4.979-.4,6.757,6.757,0,0,1-.508-4.845c1.144-5.58,2.392-11.138,3.6-16.7C7008.232,2349.323,7008.442,2348.477,7008.639,2347.639Z" transform="translate(-153.38 -8.109)" fill="#f9ae65"/>
    <path id="Path_292" data-name="Path 292" d="M7085.039,2311.949a4.943,4.943,0,0,1,4.96,4.957,5.012,5.012,0,0,1-10.022,0A4.93,4.93,0,0,1,7085.039,2311.949Z" transform="translate(-221.516 -9.8)" fill="#f9ae65"/>
    <path id="Path_293" data-name="Path 293" d="M6863.906,2374.406a5,5,0,1,1-5.024-4.927A4.941,4.941,0,0,1,6863.906,2374.406Z" transform="translate(-43.395 -55.127)" fill="#3cb08e"/>
    <path id="Path_294" data-name="Path 294" d="M7002.887,2440.045c-.093-.4-.359-.877-.222-1.077a22.962,22.962,0,0,1,1.981-2.436.752.752,0,0,1,.728-.038c.167.113.323.561.236.682-.653.9-1.363,1.762-2.071,2.623C7003.463,2439.89,7003.286,2439.9,7002.887,2440.045Z" transform="translate(-160.573 -107.867)" fill="#f9ae65"/>
    <path id="Path_295" data-name="Path 295" d="M6945.511,2331.479c-.077-.432-.318-.906-.174-1.122a20.234,20.234,0,0,1,1.908-2.365.871.871,0,0,1,.809-.072.74.74,0,0,1,.2.7c-.662.9-1.384,1.752-2.1,2.608C6946.078,2331.318,6945.905,2331.33,6945.511,2331.479Z" transform="translate(-115.4 -22.332)" fill="#3cb08e"/>
    <path id="Path_296" data-name="Path 296" d="M6996.545,2353.572c-.133.145-.27.423-.443.45a.936.936,0,0,1-.738-.209,23.857,23.857,0,0,1-1.839-2.288.981.981,0,0,1,.145-.877c.085-.113.644-.063.789.1.684.746,1.3,1.552,1.934,2.346A1.718,1.718,0,0,1,6996.545,2353.572Z" transform="translate(-153.357 -40.242)" fill="#f9ae65"/>
    <path id="Path_297" data-name="Path 297" d="M6991.635,2300.058a5.44,5.44,0,0,1-.392.688,24.7,24.7,0,0,1-1.679,2.008c-.175.178-.609.1-.925.141-.01-.312-.151-.717-.008-.921a24.53,24.53,0,0,1,1.844-2.279.877.877,0,0,1,.733-.165C6991.379,2299.57,6991.489,2299.865,6991.635,2300.058Z" transform="translate(-149.496)" fill="#f9ae65"/>
    <path id="Path_298" data-name="Path 298" d="M7144.1,2317.15c-.142-.076-.424-.135-.471-.273a.979.979,0,0,1,.014-.769c.6-.815,1.243-1.6,1.921-2.354a.761.761,0,0,1,.726-.092c.181.1.383.559.307.663-.679.927-1.414,1.811-2.144,2.7C7144.4,2317.093,7144.266,2317.1,7144.1,2317.15Z" transform="translate(-271.614 -11.108)" fill="#f9ae65"/>
    <path id="Path_299" data-name="Path 299" d="M6886.444,2325.769a2.614,2.614,0,0,1,.533.371c.61.721,1.234,1.435,1.772,2.208.144.207,0,.611,0,.925-.313-.035-.753.049-.918-.126a23.433,23.433,0,0,1-1.857-2.273,1.007,1.007,0,0,1-.031-.772C6885.982,2325.96,6886.253,2325.887,6886.444,2325.769Z" transform="translate(-68.59 -20.689)" fill="#3cb08e"/>
    <path id="Path_300" data-name="Path 300" d="M6825.19,2338.774c.425.186.631.212.73.329.676.8,1.357,1.606,1.967,2.459a.605.605,0,0,1-.953.736,19.833,19.833,0,0,1-1.917-2.363C6824.869,2339.715,6825.11,2339.236,6825.19,2338.774Z" transform="translate(-20.601 -30.935)" fill="#3cb08e"/>
    <path id="Path_301" data-name="Path 301" d="M7173.393,2408.662a3.259,3.259,0,0,1-.289.617,24.443,24.443,0,0,1-1.742,2.09c-.186.188-.649.1-.986.142.007-.313-.107-.712.042-.925a23.416,23.416,0,0,1,1.785-2.19.934.934,0,0,1,.729-.234C7173.1,2408.187,7173.237,2408.481,7173.393,2408.662Z" transform="translate(-292.712 -85.599)" fill="#f9ae65"/>
    <path id="Path_302" data-name="Path 302" d="M6981.05,2404.838a2.1,2.1,0,0,1,.493.351,22.27,22.27,0,0,1,1.651,2.058c.159.238.026.67.027,1.014-.334-.069-.784-.025-.979-.227a18.8,18.8,0,0,1-1.736-2.125A.631.631,0,0,1,6981.05,2404.838Z" transform="translate(-143.007 -82.986)" fill="#f9ae65"/>
  </g>
</svg>
