<svg xmlns="http://www.w3.org/2000/svg" width="20.865" height="23.334" viewBox="0 0 20.865 23.334">
  <g id="Group_1180" data-name="Group 1180" transform="translate(-2406.14 -563.193)">
    <path id="Path_1591" data-name="Path 1591" d="M2427.652,583.621v-.541c0-5.916.023-11.832-.019-17.748a2.042,2.042,0,0,1,2.138-2.138c2.853.063,5.709.018,8.564.02a1.84,1.84,0,0,1,2.018,2.008q0,8.977,0,17.954v.445Zm6.342-13.574c1.065,0,2.13.007,3.195,0a1.124,1.124,0,0,0,1.2-1.182q.018-1.236,0-2.473a1.15,1.15,0,0,0-1.234-1.215q-3.144-.01-6.287,0a1.164,1.164,0,0,0-1.259,1.247c-.01.79-.009,1.58,0,2.37a1.145,1.145,0,0,0,1.24,1.254C2431.9,570.053,2432.946,570.047,2433.994,570.047Zm.06,2.7c-.705,0-1.41,0-2.115,0-.361,0-.671.12-.669.542s.313.545.671.547q2.064.01,4.127,0c.358,0,.668-.129.668-.549s-.307-.538-.67-.54C2435.395,572.741,2434.724,572.744,2434.053,572.744Z" transform="translate(-19.273 0)"/>
    <path id="Path_1592" data-name="Path 1592" d="M2423.306,769.744h-17.162a2.072,2.072,0,0,1,2.086-2.22q6.5-.033,13.008,0A2.049,2.049,0,0,1,2423.306,769.744Z" transform="translate(0 -183.217)"/>
    <path id="Path_1593" data-name="Path 1593" d="M2558.492,666.616h.856c.012.147.033.28.033.413q0,3.433,0,6.867a1.927,1.927,0,0,1-3.164,1.58,2.011,2.011,0,0,1-.684-1.655c0-.792,0-1.583,0-2.375,0-.881-.164-1.1-1-1.388,0-.252,0-.5,0-.753a1.8,1.8,0,0,1,1.879,1.834c.013.912,0,1.824,0,2.736a1.061,1.061,0,0,0,1.06,1.191,1.039,1.039,0,0,0,1.015-1.175q0-3.33,0-6.66Z" transform="translate(-133.07 -92.743)"/>
    <path id="Path_1594" data-name="Path 1594" d="M2568.384,621.078a1.511,1.511,0,0,1,.812-1.7.414.414,0,0,0,.151-.138c.552-1.038,1.506-.48,2.264-.5.56-.015,1.081,1.287.729,1.861a3.474,3.474,0,0,0-.325,2.035c.007.438-.108.65-.575.589-.332-.043-.745.144-.9-.362-.014-.046-.181-.062-.278-.065-.308-.008-.618,0-.926,0-.709-.018-.949-.265-.954-.97C2568.383,621.619,2568.384,621.413,2568.384,621.078Zm2.1,1.277c0-.644-.013-1.258,0-1.871a.572.572,0,0,0-.6-.627c-.3,0-.827.2-.854.379a6.239,6.239,0,0,0,.051,1.77c.019.138.327.291.526.335A4.321,4.321,0,0,0,2570.484,622.355Z" transform="translate(-145.45 -49.693)"/>
    <path id="Path_1595" data-name="Path 1595" d="M2573.012,581.7h-.948c0-.358-.021-.711.006-1.062a1,1,0,0,0-.362-.9c-.4-.351-.753-.751-1.136-1.121-.256-.247-.223-.459.017-.7a.394.394,0,0,1,.654.017c.528.54,1.071,1.065,1.593,1.61a.66.66,0,0,1,.168.4C2573.023,580.511,2573.012,581.077,2573.012,581.7Z" transform="translate(-147.293 -13.057)"/>
  </g>
</svg>
