<svg xmlns="http://www.w3.org/2000/svg" width="71.542" height="68.72" viewBox="0 0 71.542 68.72">
  <g id="Group_656" data-name="Group 656" transform="translate(-7898.989 -1228.899)">
    <path id="Path_284" data-name="Path 284" d="M7924.605,1280.06a25.581,25.581,0,1,1,25.6-25.562A25.591,25.591,0,0,1,7924.605,1280.06Zm.025-46.292a20.715,20.715,0,1,0,20.684,19.843A20.775,20.775,0,0,0,7924.631,1233.769Z" transform="translate(0)" fill="#3cb08e"/>
    <path id="Path_285" data-name="Path 285" d="M8132.19,1439.794a11.828,11.828,0,0,1-1.4,2.376c-2.4,2.518-4.885,4.962-7.368,7.4-1.763,1.733-3.71,1.593-5.226-.315q-6.759-8.505-13.52-17.009a3.22,3.22,0,0,1,.139-4.249,55.856,55.856,0,0,1,4.034-4.02,3.15,3.15,0,0,1,4.319-.064q8.732,6.642,17.479,13.263A3.755,3.755,0,0,1,8132.19,1439.794Z" transform="translate(-161.659 -153.167)" fill="#f9ae65"/>
    <path id="Path_286" data-name="Path 286" d="M8012.589,1265.924a17.366,17.366,0,0,1,16.071,13.375,26.292,26.292,0,0,1,.508,3.433c.1,1.3-.486,1.965-1.6,2.006-1.236.045-1.824-.536-1.886-1.862a13.848,13.848,0,0,0-11.345-13.257,15.785,15.785,0,0,0-1.888-.172c-1.515-.124-2.23-.736-2.181-1.868C8010.32,1266.416,8011.059,1265.888,8012.589,1265.924Z" transform="translate(-87.769 -29.202)" fill="#3cb08e"/>
  </g>
</svg>
