<svg xmlns="http://www.w3.org/2000/svg" width="123.563" height="123.564" viewBox="0 0 123.563 123.564">
  <g id="Group_1017" data-name="Group 1017" transform="translate(-542.758 -262.327)">
    <path id="Path_1268" data-name="Path 1268" d="M604.54,385.891a61.782,61.782,0,1,1,61.781-61.782A61.852,61.852,0,0,1,604.54,385.891Zm0-122.254a60.473,60.473,0,1,0,60.471,60.472A60.541,60.541,0,0,0,604.54,263.637Z" transform="translate(0 0)" fill="#090a09"/>
    <path id="Path_1269" data-name="Path 1269" d="M606.277,394.832a55.59,55.59,0,0,0,52.653-37.789H553.624A55.59,55.59,0,0,0,606.277,394.832Z" transform="translate(-1.737 -15.144)" fill="#090a09"/>
    <g id="Group_1006" data-name="Group 1006" transform="translate(559.75 341.285)">
      <g id="Group_1005" data-name="Group 1005" transform="translate(0 0)">
        <path id="Path_1270" data-name="Path 1270" d="M565.666,375.427a2.237,2.237,0,0,1-.383-.62,7.077,7.077,0,0,1-.313-.857c-.093-.312-.15-.489-.169-.538-.135-.328-.421-3.1-1.021-7.576s-.9-6.411-.76-6.581a3.346,3.346,0,0,1,1.229-.665c.658-.252,1.046-.339,1.151-.2a32.328,32.328,0,0,1,.4,4.139c.186,2.724.317,5.466.4,8.173.875-1.718,1.345-2.706,2.323-4.907.844,2.778,1.244,4.288,2.032,7.507.4-2.977.85-6.071,1.353-9.319s.8-5,.866-5.107c.12-.163.5,0,1.128.534a3.76,3.76,0,0,1,1.159,1.421c.123.34-.415,3.783-1.549,9.734s-1.752,8.683-1.924,8.793a3.053,3.053,0,0,0-.252.328,1.284,1.284,0,0,1-.376.381c-.108.058-.26.014-.454-.13a2.341,2.341,0,0,1-.592-.9,3.806,3.806,0,0,1,.014-.5c-.564-4-.855-5.894-1.481-9.419-.928,2.761-1.369,4.012-2.181,6.222a1.858,1.858,0,0,1-.03.349A.689.689,0,0,1,565.666,375.427Z" transform="translate(-562.984 -356.633)" fill="#fff"/>
        <path id="Path_1271" data-name="Path 1271" d="M582.882,356.312c.126-.01.32.561.552,1.784a14.606,14.606,0,0,1,.33,2.662c1.72,8.727,3.687,17.535,4.49,26.4a1.144,1.144,0,0,1-.829.408,1.872,1.872,0,0,1-1.17-.287,1.706,1.706,0,0,1-.78-1.122c-.154-.627-.613-3.613-1.343-8.652a22.6,22.6,0,0,1-5.5.91c-.481,1.4-.938,2.584-1.369,3.578a5.664,5.664,0,0,1-.755,1.48c-.163.059-.406-.346-.728-1.192a6.82,6.82,0,0,1-.508-2.191,58.581,58.581,0,0,1,1.883-6.385c1.285-4.057,2.35-7.6,3.152-10.27s1.479-5.008,2.028-6.918c0,.023.066-.006.2-.085A.844.844,0,0,1,582.882,356.312Zm-.31,9.761c-.294,1.048-.775,2.65-1.44,4.721s-1.1,3.386-1.323,4.049a31.02,31.02,0,0,0,3.912-.083C583.5,373.177,583.112,370.207,582.572,366.073Zm-.22-9.555h0Z" transform="translate(-564.948 -356.312)" fill="#fff"/>
        <path id="Path_1272" data-name="Path 1272" d="M591.606,360.686c.046,0,.124.038.183.047.161.025.511-.013.9,0s1.006.064,1.851.139a9.614,9.614,0,0,1,2.368.5,3.452,3.452,0,0,1,1.616,1.069,8.449,8.449,0,0,1,1.115,2.252,22.709,22.709,0,0,1,.9,3.313,19.719,19.719,0,0,1,.378,3.347,3.907,3.907,0,0,1-.47,2.309.269.269,0,0,1-.1.115,4.548,4.548,0,0,0,.371.5c.421.157.971,1.444,1.675,3.9a33.422,33.422,0,0,1,1,4.705,17.465,17.465,0,0,1,.1,4.452,7.569,7.569,0,0,1-.894,3.076,4.178,4.178,0,0,1-3.314,1.612,11.255,11.255,0,0,1-4.683-.517,5.271,5.271,0,0,1-2.772-1.669,7.184,7.184,0,0,1-.493-1.134,2.689,2.689,0,0,1-.271-1.189,14.42,14.42,0,0,1,.284-2.134c.174-.915.274-1.491.3-1.721.088-.658.168-4.236.253-10.642a2.464,2.464,0,0,1-.318-1.466c.042-.538.155-.843.335-.917.049-3.4.079-5.5.088-6.331a.537.537,0,0,1-.43,0c-.127-.066-.249-.4-.345-.992a6.956,6.956,0,0,1-.067-1.746C591.226,360.992,591.383,360.688,591.606,360.686Zm3.529,2.275a1.224,1.224,0,0,0-.748.192c-.224.144-.461.312-.708.5q.006.591.051,3.188t.058,4.242a9.6,9.6,0,0,0,1.593.189,7.766,7.766,0,0,0,1.515-.109,2.154,2.154,0,0,0,1.2-.564,1.512,1.512,0,0,0,.4-1.18,11.632,11.632,0,0,0-1.017-4.1c-.591-1.312-1.252-2.071-1.989-2.3A1.626,1.626,0,0,0,595.135,362.961Zm1.379,11.656c-.975-.295-2.1-.3-2.594-.473.014,1.231-.006,5.288-.043,12.262a10.155,10.155,0,0,0,1.96.309,7.33,7.33,0,0,0,1.868-.16,2.418,2.418,0,0,0,1.49-.909,2.7,2.7,0,0,0,.443-1.849,26.471,26.471,0,0,0-.943-6.045C598.209,376.155,597.366,374.874,596.515,374.617Z" transform="translate(-567.475 -357.011)" fill="#fff"/>
        <path id="Path_1273" data-name="Path 1273" d="M609.027,360.343c.155.4.406,5.292.818,14.72s.6,14.468.48,15.059a5.966,5.966,0,0,1-1.39,2.436c-.786.933-1.274,1.172-1.457.749q-.256-.587-.132-16t.232-16.207q.136-1.195.594-1.32T609.027,360.343Z" transform="translate(-570.07 -356.863)" fill="#fff"/>
        <path id="Path_1274" data-name="Path 1274" d="M631.454,360.31l.121,0,.186-.006a.482.482,0,0,1,.255.093,1.387,1.387,0,0,1,.291.254,4.313,4.313,0,0,1,.315,2.392,4.755,4.755,0,0,1-.488,2.485c-.119.145-.418.13-.9-.054a15.291,15.291,0,0,1-1.448-.646,2.729,2.729,0,0,0-1.368-.339c-.426.022-.665.286-.727.791a3.744,3.744,0,0,0,.455,1.777,27.229,27.229,0,0,0,1.4,2.646c.577.971,1.163,1.985,1.757,3.032a28.455,28.455,0,0,1,1.623,3.378,12.534,12.534,0,0,1,.886,3.426,7.5,7.5,0,0,1-.525,3.455,12.888,12.888,0,0,1-1.857,3.329,25.367,25.367,0,0,1-2.453,2.73,15.719,15.719,0,0,1-2.328,1.9,3.124,3.124,0,0,1-1.378.613c-.326-.022-.616-.671-.827-1.99a28.391,28.391,0,0,1-.339-4.159,10.741,10.741,0,0,1,.2-2.846c.074-.236.371-.469.886-.708s1.1-.491,1.751-.757a14.681,14.681,0,0,0,1.921-.96,4.291,4.291,0,0,0,1.5-1.462,2.937,2.937,0,0,0,.409-1.991,7.99,7.99,0,0,0-.89-2.492q-.73-1.408-1.631-2.79t-1.762-2.858a16.736,16.736,0,0,1-1.39-3.006,7,7,0,0,1-.443-2.731,3.3,3.3,0,0,1,.263-1.135,2.341,2.341,0,0,1,.558-.8,3.429,3.429,0,0,1,.777-.525,3.636,3.636,0,0,1,.92-.312,5.794,5.794,0,0,1,.991-.1q.512-.01.976.022t.895.082a6.251,6.251,0,0,1,.739.125c.206.049.373.083.5.108S631.441,360.31,631.454,360.31Z" transform="translate(-572.755 -356.891)" fill="#fff"/>
        <path id="Path_1275" data-name="Path 1275" d="M640.392,356.312c.123-.011.4.615.788,1.89a16.919,16.919,0,0,1,.68,2.741c5.21,15.794,7.667,21.161,7.453,21.653a3.507,3.507,0,0,1-.694,1.053,3.035,3.035,0,0,1-1.085.8.588.588,0,0,1-.843-.271c-.215-.412-.987-2.556-2.317-6.833-3.4,3.441-5.214,5.235-5.25,5.273q-.441,3.018-.9,5.483a19.733,19.733,0,0,1-.571,2.629c-.16.271-.465.107-.916-.518a4.535,4.535,0,0,1-.828-2.082c-.062-.47.32-3.8,1.081-9.749s1.343-10.487,1.784-13.774.8-5.956,1.094-8.069c0,.025.065-.007.187-.094A.7.7,0,0,1,640.392,356.312Zm.989,10.459c-.151,1.2-.413,3.066-.794,5.654s-.639,4.359-.768,5.249c1.542-1.072,2.305-1.615,3.814-2.7C643.214,373.578,642.461,370.914,641.381,366.771Zm-1.491-10.233h0Z" transform="translate(-574.643 -356.312)" fill="#fff"/>
        <path id="Path_1276" data-name="Path 1276" d="M649.074,360.1c.047-.006.125.018.187.019.168,0,.5-.067.887-.095s1-.055,1.836-.088a13.691,13.691,0,0,1,2.367.106,4,4,0,0,1,1.665.528,5.406,5.406,0,0,1,1.248,1.281,10.107,10.107,0,0,1,1.086,1.847,6.981,6.981,0,0,1,.565,1.893,2.232,2.232,0,0,1-.272,1.567.357.357,0,0,1-.082.112,1.805,1.805,0,0,0,.361.141c.383-.091.955.445,1.679,1.423a7.294,7.294,0,0,1,1.053,1.936,5.152,5.152,0,0,1,.267,2.232,7.5,7.5,0,0,1-.559,2.294,15.093,15.093,0,0,1-2.487,3.639,24.641,24.641,0,0,1-3.845,3.683c-1.279.949-2.136,1.323-2.526,1.2-.225-.051-.412-.348-.549-.454a1,1,0,0,1-.366-.712,13,13,0,0,1,.023-1.932c.057-.866.085-1.4.083-1.6.008-.587-.3-3.45-.925-8.73a1.418,1.418,0,0,1-.464-1.07q-.03-.7.215-.895c-.333-2.827-.543-4.607-.628-5.305a.622.622,0,0,1-.419.091c-.132-.03-.287-.286-.451-.786a5.375,5.375,0,0,1-.271-1.511C648.736,360.4,648.854,360.121,649.074,360.1Zm3.706,1.362a1.461,1.461,0,0,0-.707.274,8.22,8.22,0,0,0-.634.525c.046.313.176,1.159.388,2.514s.376,2.451.5,3.292a11.93,11.93,0,0,0,1.505-.47,12.223,12.223,0,0,0,1.393-.649,3.512,3.512,0,0,0,1.058-.817,1.092,1.092,0,0,0,.274-.916,5.448,5.448,0,0,0-1.3-2.49,3.242,3.242,0,0,0-2.128-1.276A2.135,2.135,0,0,0,652.78,361.457Zm2.4,8.043c-1.021.26-1.949.754-2.42.854.139.932.535,4.053,1.174,9.2a17.824,17.824,0,0,0,1.709-1.271,18.638,18.638,0,0,0,1.558-1.5,6.671,6.671,0,0,0,1.171-1.643,2.175,2.175,0,0,0,.243-1.428,8.344,8.344,0,0,0-1.234-3.194A2.207,2.207,0,0,0,655.179,369.5Z" transform="translate(-576.697 -356.889)" fill="#fff"/>
        <path id="Path_1277" data-name="Path 1277" d="M666.117,358.219a42.089,42.089,0,0,1,1.042,6.444,41.394,41.394,0,0,1,.549,6.134,13.273,13.273,0,0,1-.955,2.215c-.541,1.092-.881,1.648-1.026,1.605s-.328-2.562-.609-7.7-.417-7.909-.378-8.189c.058-.413.235-.65.53-.715A1.042,1.042,0,0,1,666.117,358.219Z" transform="translate(-579.252 -356.581)" fill="#fff"/>
      </g>
    </g>
    <g id="Group_1016" data-name="Group 1016" transform="translate(552.486 281.149)">
      <g id="Group_1014" data-name="Group 1014" transform="translate(0 0)">
        <circle id="Ellipse_152" data-name="Ellipse 152" cx="7.055" cy="7.055" r="7.055" transform="translate(17.088 41.442)" fill="#090a09"/>
        <g id="Group_1007" data-name="Group 1007" transform="translate(0 43.29)">
          <rect id="Rectangle_201" data-name="Rectangle 201" width="12.249" height="4.966" rx="2.483" transform="translate(12.249 4.966) rotate(-180)" fill="#090a0a"/>
          <rect id="Rectangle_202" data-name="Rectangle 202" width="8.426" height="2.793" rx="1.397" transform="translate(9.761 3.879) rotate(-180)" fill="#fe9f30"/>
          <rect id="Rectangle_203" data-name="Rectangle 203" width="7.821" height="2.793" rx="1.261" transform="translate(10.304 3.879) rotate(-180)" fill="#fff"/>
        </g>
        <path id="Rectangle_204" data-name="Rectangle 204" d="M0,0H2.562a2.46,2.46,0,0,1,2.46,2.46v8.647a2.7,2.7,0,0,1-2.7,2.7H0a0,0,0,0,1,0,0V0A0,0,0,0,1,0,0Z" transform="translate(97.973 29.387)" fill="#090a0a"/>
        <path id="Rectangle_205" data-name="Rectangle 205" d="M0,0H2.05A1.677,1.677,0,0,1,3.726,1.677V9.882a1.672,1.672,0,0,1-1.672,1.672H0a0,0,0,0,1,0,0V0A0,0,0,0,1,0,0Z" transform="translate(98.15 30.461)" fill="#ffb852"/>
        <rect id="Rectangle_206" data-name="Rectangle 206" width="4.211" height="5.727" transform="translate(97.666 33.738)" fill="#fba87e"/>
        <path id="Path_1278" data-name="Path 1278" d="M560.179,321.073c-.364,0-.728,0-1.093,0a.184.184,0,0,1-.088-.014.172.172,0,0,1-.05-.046,4.249,4.249,0,0,1-.959-1.77,2.409,2.409,0,0,1,.057-1.316,2.506,2.506,0,0,1,.575-.895,3.933,3.933,0,0,1,.4-.359c.071-.057.145-.112.22-.166a.582.582,0,0,1,.206-.128.294.294,0,0,1,.081,0l1.332.088Z" transform="translate(-554.911 -289.79)" fill="#090a0a"/>
        <path id="Path_1279" data-name="Path 1279" d="M560.535,320.3c-.326,0-.652,0-.978,0a.186.186,0,0,1-.065-.006c-.081-.026-.169-.166-.22-.231a1.77,1.77,0,0,1-.187-.292,1.558,1.558,0,0,1-.169-.652,2.072,2.072,0,0,1,.654-1.416.1.1,0,0,1,.033-.028.1.1,0,0,1,.043-.007c.452,0,.917-.037,1.37,0C561.017,317.671,560.528,320.031,560.535,320.3Z" transform="translate(-555.07 -289.994)" fill="#fe9f30"/>
        <path id="Path_1280" data-name="Path 1280" d="M570.65,299.735a.432.432,0,0,1,.132-.013l3.656.005,2.714,0,3.292,0,3.782,0,4.184.005,4.5.005,4.724.005,4.862.005,4.911.006,4.873.005,4.747.005,4.532.005,4.23,0,3.838,0,3.36,0,2.793,0,2.139,0a8.221,8.221,0,0,1,2.923.271c1.479.553,2.247,1.856,3.145,3.053q1.375,1.834,2.758,3.66,1.4,1.859,2.811,3.716l1.337,1.764,0,0,3.318,4.882a14.957,14.957,0,0,1,.334,4.883,33.769,33.769,0,0,1-.413,6.672c-.229.853-1.331,6.69-7.388,7.571l-4.974.129H627.564l-40.8.112H566.773s-5.286-.231-6.277-6.482a101.259,101.259,0,0,1,.073-11.618,30.846,30.846,0,0,1,.68-4.607,4.189,4.189,0,0,0,.056-.584c.061-.519.144-1.036.245-1.549a22.124,22.124,0,0,1,.548-2.192,18.782,18.782,0,0,1,.965-2.512,14.453,14.453,0,0,1,1.5-2.51,11.775,11.775,0,0,1,.982-1.153,6.172,6.172,0,0,1,1.452-1.19c.621-.341,1.253-.685,1.843-1.076s1.147-.822,1.713-1.243a.4.4,0,0,1,.091-.055Z" transform="translate(-555.301 -287.128)" fill="#090a09"/>
        <path id="Path_1281" data-name="Path 1281" d="M562.8,314.821c.237.228.243,1.238.39,1.579a7.439,7.439,0,0,0,.754,1.346,6.634,6.634,0,0,0,3.52,2.516,10.108,10.108,0,0,0,2.563.113c4.476.05,8.953,0,13.429-.036,2-.01,4.011,0,6.015,0l5.494,0h2V332.3h-6.153l-13.521,0-8.092,0c-.533,0-1.065,0-1.6-.018a10.962,10.962,0,0,1-1.663-.084,9.193,9.193,0,0,1-1.4-.36,5.577,5.577,0,0,1-1.671-.917,4.171,4.171,0,0,1-.719-.736,2.446,2.446,0,0,1-.265-.446,1.178,1.178,0,0,1-.013-.5q.011-.427.016-.854c.007-.57.007-1.141.007-1.711,0-.633,0-1.265.011-1.9.042-2.457.088-4.929.343-7.375A8.019,8.019,0,0,1,562.8,314.821Z" transform="translate(-555.539 -289.542)" fill="#349a73"/>
        <path id="Path_1282" data-name="Path 1282" d="M566.39,305.531a7.235,7.235,0,0,1,1.921-.039l2.293,0,4.585,0,9.171.006q6.282,0,12.566,0l.2,13.517c-4.542-.006-9.084,0-13.626-.007h-.619q-4.491-.005-8.983,0l-1.5,0c-1.8.005-3.765.207-5.494-.4-1.975-.69-4.458-3.219-3.989-5.5.109-.53.266-1.055.414-1.575a19.841,19.841,0,0,1,2.046-5.105,2.628,2.628,0,0,1,.525-.654A1.33,1.33,0,0,1,566.39,305.531Z" transform="translate(-555.701 -288.042)" fill="#fff"/>
        <path id="Path_1283" data-name="Path 1283" d="M570.964,302.361l72.667.018a4.028,4.028,0,0,0-2.2-1.322c-.392.007-68.831.06-68.831.06A6.275,6.275,0,0,0,570.964,302.361Z" transform="translate(-556.996 -287.341)" fill="#fff"/>
        <path id="Path_1284" data-name="Path 1284" d="M567.993,304.078a8.728,8.728,0,0,1,1.413-.954c.294-.129,1.083-.514,1.083-.514l72.667.018,1.156,1.45Z" transform="translate(-556.521 -287.589)" fill="#87888a"/>
        <path id="Path_1285" data-name="Path 1285" d="M573.692,317.706a1.957,1.957,0,0,1-1-.261c-.839-.527-.657-1.523-.431-2.331.348-1.243.606-2.518.908-3.772a6.252,6.252,0,0,1,.253-.865,3.117,3.117,0,0,1,.619-.969,2.9,2.9,0,0,1,1.325-.812,10.115,10.115,0,0,1,2.622-.12l2.141,0q2.622,0,5.244,0l5.052.008c.689,0,1.379.008,2.068,0a5.565,5.565,0,0,1,1.789.121,1.88,1.88,0,0,1,1.19,1.029,2.94,2.94,0,0,1,.14,1.091l.009,4.385a3.267,3.267,0,0,1-.163,1.258,2.052,2.052,0,0,1-1.442,1.141,5.3,5.3,0,0,1-1.259.094q-2.674-.013-5.348-.016-2.654,0-5.309,0l-4.881,0-1.821,0c-.233,0-.465,0-.7,0C574.374,317.687,574.029,317.717,573.692,317.706Z" transform="translate(-557.173 -288.539)" fill="#090a0a"/>
        <path id="Path_1286" data-name="Path 1286" d="M561.821,332.358c.312.325.491.791.83,1.1a5.669,5.669,0,0,0,2.532,1.371,14.641,14.641,0,0,0,3.266.179c1.2-.014,2.4,0,3.6,0l2.578,0h.008l11.679,0H596.95v5.567H568.8a12.61,12.61,0,0,1-1.984-.039,5.1,5.1,0,0,1-1.773-.655,6.579,6.579,0,0,1-2.531-2.667,8.838,8.838,0,0,1-.718-4.712A.771.771,0,0,1,561.821,332.358Z" transform="translate(-555.523 -292.346)" fill="#297b59"/>
        <path id="Path_1287" data-name="Path 1287" d="M573.887,316.855s-.807.092-.514-.844c.092-.459,1.138-4.9,1.138-4.9a1.531,1.531,0,0,1,.106-.242,1.84,1.84,0,0,1,1.6-1.006c.954.019,17.2,0,17.2,0a1.137,1.137,0,0,1,1.285,1.358c-.018,1.322.006,4.882.006,4.882a.9.9,0,0,1-.869.755C593.013,316.984,573.887,316.855,573.887,316.855Z" transform="translate(-557.371 -288.748)" fill="#349a73"/>
        <path id="Path_1288" data-name="Path 1288" d="M580.377,310.856l.4-1h-4.359a1.945,1.945,0,0,0-1.559,1.016C578.7,310.856,580.377,310.856,580.377,310.856Z" transform="translate(-557.619 -288.748)" fill="#257654"/>
        <path id="Path_1289" data-name="Path 1289" d="M574.771,311.032h17.354a1.662,1.662,0,0,1,1.505,1.779c.018,1.231.005,4.269.005,4.269h-19.59s-.815.168-.665-.8C573.66,315.347,574.771,311.032,574.771,311.032Z" transform="translate(-557.38 -288.936)" fill="#3fae7f"/>
        <path id="Path_1290" data-name="Path 1290" d="M642.629,312.1c2.786,0,5.568,0,8.353-.024a5.776,5.776,0,0,1,1.228.075c1,.2,1.505,1.138,2.094,1.888q.849,1.072,1.689,2.151c.266.34.521.7.794,1.027a3.58,3.58,0,0,1,.635.932,7.865,7.865,0,0,0-1.1,0h-3.439q-4.368,0-8.736.007a1.789,1.789,0,0,1-1.248-.314,1.458,1.458,0,0,1-.37-1.087c0-1.541.018-3.085.018-4.628A.108.108,0,0,1,642.629,312.1Z" transform="translate(-568.438 -289.102)" fill="#014666"/>
        <path id="Path_1291" data-name="Path 1291" d="M580.118,311.031c-.765,1.994-1.553,4.054-2.32,6.048-1.149-.016-2.249,0-3.4,0a4.486,4.486,0,0,1-.877-.02.4.4,0,0,1-.266-.567c.03-.125.06-.25.09-.376.052-.221.105-.443.157-.664l.2-.85q.11-.465.22-.932t.215-.912l.187-.788.132-.56a2.447,2.447,0,0,1,.106-.337.093.093,0,0,1,.021-.035c.029-.026.076-.007.109-.007h.136l.255,0,.683.006c1.349,0,2.725-.022,4.075-.01Z" transform="translate(-557.357 -288.935)" fill="#349a73"/>
        <rect id="Rectangle_207" data-name="Rectangle 207" width="89.452" height="1.432" rx="0.716" transform="translate(9.737 54.382)" fill="#090a09"/>
        <rect id="Rectangle_208" data-name="Rectangle 208" width="26.403" height="13.491" transform="translate(42.115 17.461)" fill="#fff"/>
        <rect id="Rectangle_209" data-name="Rectangle 209" width="26.403" height="11.802" transform="translate(42.115 30.952)" fill="#349a73"/>
        <path id="Path_1292" data-name="Path 1292" d="M633.942,341.085l-29.473.08v-5.543h26.4Z" transform="translate(-562.353 -292.867)" fill="#297b59"/>
        <path id="Path_1293" data-name="Path 1293" d="M585.019,310.846l.461-.974h.84l-.44.975Z" transform="translate(-559.243 -288.75)" fill="#257654"/>
        <path id="Path_1294" data-name="Path 1294" d="M586.575,310.846l.366-.975h.7l-.4.975Z" transform="translate(-559.492 -288.75)" fill="#257654"/>
        <path id="Path_1295" data-name="Path 1295" d="M583.691,317.091l2.423-6.059h.67l-2.45,6.06Z" transform="translate(-559.031 -288.936)" fill="#349a73"/>
        <path id="Path_1296" data-name="Path 1296" d="M582.3,317.08l2.281-6.048h.861l-2.381,6.048Z" transform="translate(-558.809 -288.936)" fill="#349a73"/>
        <g id="Group_1008" data-name="Group 1008" transform="translate(47.742 20.011)">
          <path id="Path_1297" data-name="Path 1297" d="M612.787,317.706a1.957,1.957,0,0,1-1-.261c-.839-.527-.658-1.523-.431-2.331.347-1.243.606-2.518.908-3.772a6.144,6.144,0,0,1,.253-.865,3.114,3.114,0,0,1,.618-.969,2.9,2.9,0,0,1,1.326-.812,10.114,10.114,0,0,1,2.622-.12l2.141,0q2.621,0,5.244,0c1.684,0-5.033,0-3.349.008.69,0,1.379.008,2.069,0a5.567,5.567,0,0,1,1.789.121,1.876,1.876,0,0,1,1.189,1.029,2.937,2.937,0,0,1,.14,1.091l.009,4.385a3.281,3.281,0,0,1-.162,1.258,2.052,2.052,0,0,1-1.442,1.141,5.312,5.312,0,0,1-1.26.094q-2.674-.013-5.348-.016c-1.769,0,4.863,0,3.093,0l-4.882,0-1.82,0c-.233,0-.466,0-.7,0C613.469,317.687,613.124,317.717,612.787,317.706Z" transform="translate(-611.166 -308.55)" fill="#090a0a"/>
          <path id="Path_1298" data-name="Path 1298" d="M612.982,316.855s-.807.092-.513-.844c.092-.459,1.138-4.9,1.138-4.9a1.639,1.639,0,0,1,.106-.242,1.841,1.841,0,0,1,1.6-1.006c.954.019,8.8,0,8.8,0a1.136,1.136,0,0,1,1.285,1.358c-.018,1.322.007,4.882.007,4.882a.9.9,0,0,1-.87.755C623.707,316.984,612.982,316.855,612.982,316.855Z" transform="translate(-611.364 -308.759)" fill="#349a73"/>
          <path id="Path_1299" data-name="Path 1299" d="M619.473,310.856l.4-1h-4.36a1.944,1.944,0,0,0-1.558,1.016C617.8,310.856,619.473,310.856,619.473,310.856Z" transform="translate(-611.612 -308.759)" fill="#257654"/>
          <path id="Path_1300" data-name="Path 1300" d="M613.867,311.032h8.953a1.662,1.662,0,0,1,1.5,1.779c.018,1.231.006,4.269.006,4.269H613.142s-.815.168-.664-.8C612.756,315.347,613.867,311.032,613.867,311.032Z" transform="translate(-611.373 -308.947)" fill="#3fae7f"/>
          <path id="Path_1301" data-name="Path 1301" d="M619.213,311.031c-.764,1.994-1.553,4.054-2.32,6.048-1.148-.016-2.248,0-3.4,0a4.494,4.494,0,0,1-.878-.02.4.4,0,0,1-.266-.567c.031-.125.061-.25.09-.376.053-.221.105-.443.158-.664q.1-.425.2-.85.111-.465.221-.932t.215-.912l.186-.788.133-.56a2.335,2.335,0,0,1,.106-.337.092.092,0,0,1,.02-.035c.029-.026.076-.007.11-.007h.136l.255,0,.682.006c1.35,0,2.726-.022,4.075-.01Z" transform="translate(-611.349 -308.946)" fill="#349a73"/>
          <path id="Path_1302" data-name="Path 1302" d="M624.115,310.846l.461-.974h.84l-.44.975Z" transform="translate(-613.236 -308.762)" fill="#257654"/>
          <path id="Path_1303" data-name="Path 1303" d="M625.67,310.846l.366-.975h.7l-.4.975Z" transform="translate(-613.485 -308.761)" fill="#257654"/>
          <path id="Path_1304" data-name="Path 1304" d="M622.786,317.091l2.423-6.059h.67l-2.45,6.06Z" transform="translate(-613.024 -308.947)" fill="#349a73"/>
          <path id="Path_1305" data-name="Path 1305" d="M621.4,317.08l2.281-6.048h.861l-2.381,6.048Z" transform="translate(-612.802 -308.947)" fill="#349a73"/>
        </g>
        <path id="Path_1306" data-name="Path 1306" d="M637.634,333.272h9.241l6.79,0a21.245,21.245,0,0,0,5.294-.365c3.5-.9,5.809-4.253,6.376-7.684l.02-.125a18.683,18.683,0,0,0,.182-2,13.363,13.363,0,0,0,.039-2.177,41.994,41.994,0,0,1,.253,6.029,25.948,25.948,0,0,1-.5,5.7,8.054,8.054,0,0,1-1.265,2.42,8.673,8.673,0,0,1-2.2,2.175,11.224,11.224,0,0,1-2.67,1.236,10.8,10.8,0,0,1-3.13.224c-2.282.057-4.564.025-6.845,0q-.89-.009-1.78-.015c-3.27-.02-6.54.017-9.807.017Z" transform="translate(-567.656 -290.517)" fill="#297b59"/>
        <path id="Path_1307" data-name="Path 1307" d="M637.186,305.515h18.942l8.1,11.374c.331.455-1.831,1.4-2.108,1.515-1.985.783-4.084.622-6.168.65-2.281.029-4.562.014-6.843,0q-1.677-.01-3.354-.013h-8.275Z" transform="translate(-567.584 -288.054)" fill="#fff"/>
        <path id="Path_1308" data-name="Path 1308" d="M637.535,321.207c0,.011,11.038,0,12.028,0l8.864,0c1.988,0,4.559-.49,5.856-2.156a16,16,0,0,1,1.255,1.648c.155.206.052.955.052,1.192.008,3.206-.9,6.733-3.386,8.92a9.653,9.653,0,0,1-6.714,2.209q-3.435-.034-6.87-.046c-3.295-.012-6.589,0-9.884,0-.062,0-1.117,0-1.117,0Z" transform="translate(-567.64 -290.218)" fill="#349a73"/>
        <path id="Path_1309" data-name="Path 1309" d="M639.414,341.155l.954-4.642s1.02-3.03,3.337-3.434c.371-.22,2.569-.844,6.866-.257a5.988,5.988,0,0,1,3.747,3.157c.147.477.917,4.658.881,5.026S639.414,341.155,639.414,341.155Z" transform="translate(-567.94 -292.381)" fill="#0d0e0d"/>
        <circle id="Ellipse_153" data-name="Ellipse 153" cx="7.055" cy="7.055" r="7.055" transform="translate(72.08 41.57)" fill="#090a09"/>
        <circle id="Ellipse_154" data-name="Ellipse 154" cx="5.644" cy="5.644" r="5.644" transform="translate(73.491 42.902)" fill="#e58d3b"/>
        <circle id="Ellipse_155" data-name="Ellipse 155" cx="4.391" cy="4.391" r="4.391" transform="translate(74.798 44.234)" fill="#090a09"/>
        <path id="Path_1310" data-name="Path 1310" d="M650.822,340.45a3.049,3.049,0,0,1,.081.7,3.2,3.2,0,0,1-3.254,3.14A3.238,3.238,0,0,1,644.519,342c-.011.11-.017.221-.017.334a3.441,3.441,0,1,0,6.32-1.886Z" transform="translate(-568.754 -293.639)" fill="#ff9f30"/>
        <path id="Path_1311" data-name="Path 1311" d="M647.653,343.993a3.2,3.2,0,0,0,3.254-3.14,3.049,3.049,0,0,0-.081-.7,3.441,3.441,0,0,0-6.3,1.552A3.238,3.238,0,0,0,647.653,343.993Z" transform="translate(-568.757 -293.343)" fill="#ffb852"/>
        <path id="Path_1312" data-name="Path 1312" d="M572.614,341.462s-.193-4.96,4.432-5.925c.8-.088,9.554,0,9.554,0s4.212.249,4.46,5.8C588.885,341.447,572.614,341.462,572.614,341.462Z" transform="translate(-557.26 -292.848)" fill="#0d0e0d"/>
        <circle id="Ellipse_156" data-name="Ellipse 156" cx="5.575" cy="5.575" r="5.575" transform="translate(18.568 43.039)" fill="#e58d3b"/>
        <circle id="Ellipse_157" data-name="Ellipse 157" cx="4.391" cy="4.391" r="4.391" transform="translate(19.787 44.315)" fill="#090a09"/>
        <path id="Path_1313" data-name="Path 1313" d="M585.191,340.166a3.039,3.039,0,0,1,.26,1.232,3.2,3.2,0,0,1-3.254,3.14,3.243,3.243,0,0,1-3.11-2.215v.023a3.442,3.442,0,1,0,6.105-2.18Z" transform="translate(-558.295 -293.594)" fill="#ff9f30"/>
        <path id="Path_1314" data-name="Path 1314" d="M582.2,344.3a3.2,3.2,0,0,0,3.254-3.14,3.038,3.038,0,0,0-.26-1.232,3.441,3.441,0,0,0-6.1,2.157A3.243,3.243,0,0,0,582.2,344.3Z" transform="translate(-558.295 -293.354)" fill="#ffb852"/>
        <rect id="Rectangle_210" data-name="Rectangle 210" width="9.278" height="1.65" transform="translate(19.787 42.664)" fill="#090a09"/>
        <path id="Path_1315" data-name="Path 1315" d="M635.289,305.515h2.179l.184,13.525L635,319.006" transform="translate(-567.235 -288.054)" fill="#fff"/>
        <path id="Path_1316" data-name="Path 1316" d="M635.664,321.574l2.18.036.182,11.77-2.65,0" transform="translate(-567.295 -290.621)" fill="#349a73"/>
        <path id="Path_1317" data-name="Path 1317" d="M635.563,335.621l2.2.007.114,5.421-2.594.045" transform="translate(-567.28 -292.867)" fill="#297b59"/>
        <path id="Path_1318" data-name="Path 1318" d="M603.514,321.574l2.179.036.182,11.77-2.65,0" transform="translate(-562.154 -290.621)" fill="#349a73"/>
        <path id="Path_1319" data-name="Path 1319" d="M603.413,335.621l2.2.007.114,5.421-2.594.045" transform="translate(-562.139 -292.867)" fill="#297b59"/>
        <path id="Path_1320" data-name="Path 1320" d="M603.141,305.515h2.179l.209,13.491-2.669.025" transform="translate(-562.096 -288.054)" fill="#fff"/>
        <rect id="Rectangle_211" data-name="Rectangle 211" width="1.028" height="32.701" transform="translate(43.764 16.776) rotate(13.265)" fill="#090a09"/>
        <rect id="Rectangle_212" data-name="Rectangle 212" width="1.028" height="32.701" transform="translate(71.017 16.776) rotate(13.265)" fill="#090a09"/>
        <rect id="Rectangle_213" data-name="Rectangle 213" width="3.387" height="1.26" transform="translate(98.791 35.894)" fill="#090a09"/>
        <rect id="Rectangle_214" data-name="Rectangle 214" width="8.858" height="1.26" transform="translate(25.598 28.766) rotate(-74.516)" fill="#090a09"/>
        <g id="Group_1009" data-name="Group 1009" transform="translate(73.963 20.011)">
          <path id="Path_1321" data-name="Path 1321" d="M655.905,317.706a1.955,1.955,0,0,0,1-.261c.839-.527.658-1.523.431-2.331-.347-1.243-.606-2.518-.908-3.772a6.144,6.144,0,0,0-.253-.865,3.111,3.111,0,0,0-.618-.969,2.9,2.9,0,0,0-1.326-.812,10.113,10.113,0,0,0-2.622-.12l-2.141,0q-2.621,0-5.244,0c-1.684,0,5.033,0,3.349.008-.69,0-1.379.008-2.068,0a5.571,5.571,0,0,0-1.79.121,1.877,1.877,0,0,0-1.189,1.029,2.94,2.94,0,0,0-.14,1.091l-.009,4.385a3.284,3.284,0,0,0,.162,1.258,2.052,2.052,0,0,0,1.442,1.141,5.311,5.311,0,0,0,1.26.094q2.674-.013,5.348-.016c1.769,0-4.863,0-3.093,0l4.882,0,1.821,0c.233,0,.466,0,.7,0C655.224,317.687,655.568,317.717,655.905,317.706Z" transform="translate(-642.377 -308.55)" fill="#090a0a"/>
          <path id="Path_1322" data-name="Path 1322" d="M643.7,316.1a.9.9,0,0,0,.87.755c.826.126,11.551,0,11.551,0s.807.092.513-.844c-.092-.459-1.138-4.9-1.138-4.9a1.633,1.633,0,0,0-.106-.242,1.841,1.841,0,0,0-1.6-1.006c-.954.019-8.8,0-8.8,0a1.136,1.136,0,0,0-1.285,1.358c.018,1.322-.007,4.882-.007,4.882" transform="translate(-642.588 -308.759)" fill="#349a73"/>
          <path id="Path_1323" data-name="Path 1323" d="M650.977,310.856l-.4-1h4.36a1.943,1.943,0,0,1,1.558,1.016C652.654,310.856,650.977,310.856,650.977,310.856Z" transform="translate(-643.688 -308.759)" fill="#257654"/>
          <path id="Path_1324" data-name="Path 1324" d="M655.45,311.032H646.5a1.662,1.662,0,0,0-1.5,1.779c-.018,1.231-.006,4.269-.006,4.269h11.189s.814.168.664-.8C656.56,315.347,655.45,311.032,655.45,311.032Z" transform="translate(-642.793 -308.947)" fill="#3fae7f"/>
          <path id="Path_1325" data-name="Path 1325" d="M651.05,311.031c.765,1.994,1.553,4.054,2.32,6.048,1.148-.016,2.248,0,3.4,0a4.494,4.494,0,0,0,.878-.02.4.4,0,0,0,.266-.567c-.03-.125-.06-.25-.09-.376-.053-.221-.105-.443-.158-.664q-.1-.425-.2-.85-.111-.465-.221-.932t-.215-.912l-.186-.788-.133-.56a2.343,2.343,0,0,0-.106-.337.093.093,0,0,0-.02-.035c-.029-.026-.076-.007-.11-.007h-.136l-.255,0-.682.006c-1.35,0-2.726-.022-4.075-.01Z" transform="translate(-643.764 -308.946)" fill="#349a73"/>
          <path id="Path_1326" data-name="Path 1326" d="M647.214,310.846l-.461-.974h-.84l.44.975Z" transform="translate(-642.942 -308.762)" fill="#257654"/>
          <path id="Path_1327" data-name="Path 1327" d="M645.7,310.846l-.366-.975h-.7l.4.975Z" transform="translate(-642.738 -308.761)" fill="#257654"/>
          <path id="Path_1328" data-name="Path 1328" d="M648.2,317.091l-2.423-6.059h-.67l2.45,6.06Z" transform="translate(-642.814 -308.947)" fill="#349a73"/>
          <path id="Path_1329" data-name="Path 1329" d="M649.579,317.08l-2.281-6.048h-.861l2.381,6.048Z" transform="translate(-643.026 -308.947)" fill="#349a73"/>
        </g>
        <g id="Group_1010" data-name="Group 1010" transform="translate(36.968 9.447)">
          <path id="Path_1330" data-name="Path 1330" d="M605.828,300.245h-7.486v-2.135a2.138,2.138,0,0,1,2.135-2.136h3.215a2.138,2.138,0,0,1,2.135,2.136Zm-6.281-1.206h5.074v-.929a.93.93,0,0,0-.929-.93h-3.215a.931.931,0,0,0-.93.93Z" transform="translate(-598.342 -295.975)" fill="#1a1718"/>
        </g>
        <g id="Group_1011" data-name="Group 1011" transform="translate(61.084 9.447)">
          <path id="Path_1331" data-name="Path 1331" d="M634.533,300.245h-7.486v-2.135a2.138,2.138,0,0,1,2.136-2.136H632.4a2.138,2.138,0,0,1,2.136,2.136Zm-6.281-1.206h5.074v-.929a.93.93,0,0,0-.929-.93h-3.215a.931.931,0,0,0-.93.93Z" transform="translate(-627.047 -295.975)" fill="#1a1718"/>
        </g>
        <g id="Group_1012" data-name="Group 1012" transform="translate(20.576)">
          <path id="Path_1332" data-name="Path 1332" d="M579.43,291.9l58.537,1.192s-10.275-3.218-29.985-3.62c-15.247-.311-25.355.728-28.532,1.478Z" transform="translate(-578.926 -285.479)" fill="#349a73"/>
          <path id="Path_1333" data-name="Path 1333" d="M581.354,289.982l4.7-.652s-3.5-4.555-4.787-3.982l.415.778a3.553,3.553,0,0,1-.333,3.856Z" transform="translate(-579.22 -284.821)" fill="#349a73"/>
          <path id="Path_1334" data-name="Path 1334" d="M637.871,293.521h-.01l-58.537-1.192a.5.5,0,0,1-.493-.514l.02-.95a.5.5,0,0,1,.387-.48c3.25-.768,13.565-1.8,28.659-1.492,19.555.4,30.022,3.611,30.126,3.644a.5.5,0,0,1-.151.985Zm-58.023-2.189,53.337,1.086a144.251,144.251,0,0,0-25.31-2.517c-14.447-.293-24.452.636-28.026,1.38Z" transform="translate(-578.83 -285.387)" fill="#090a09"/>
          <path id="Path_1335" data-name="Path 1335" d="M581.258,290.415a.5.5,0,0,1-.4-.814,3.052,3.052,0,0,0,.286-3.309l-.415-.776a.506.506,0,0,1,.239-.7c1.489-.666,4.266,2.672,5.393,4.135a.5.5,0,0,1-.33.807l-4.7.651A.474.474,0,0,1,581.258,290.415Zm.891-4.369a4.069,4.069,0,0,1,.059,3.225l2.809-.39A16.486,16.486,0,0,0,582.149,286.047Z" transform="translate(-579.124 -284.731)" fill="#090a09"/>
        </g>
        <g id="Group_1013" data-name="Group 1013" transform="translate(19.859 2.662)">
          <path id="Path_1336" data-name="Path 1336" d="M578.576,295.007h58.549S626.787,292,607.073,292c-15.251,0-25.334,1.243-28.5,2.059Z" transform="translate(-578.073 -288.555)" fill="#ffb852"/>
          <path id="Path_1337" data-name="Path 1337" d="M580.451,293.152l4.69-.748s-3.6-4.484-4.868-3.884l.431.769a3.554,3.554,0,0,1-.254,3.863Z" transform="translate(-578.344 -287.99)" fill="#ffb852"/>
          <path id="Path_1338" data-name="Path 1338" d="M637.03,295.44H578.48a.5.5,0,0,1-.5-.5v-.949a.5.5,0,0,1,.378-.488c3.234-.835,13.525-2.075,28.622-2.075,19.56,0,30.09,3,30.195,3.029a.5.5,0,0,1-.141.988Zm-58.046-1.007h53.35a144.166,144.166,0,0,0-25.357-2c-14.453,0-24.434,1.135-27.993,1.952Z" transform="translate(-577.977 -288.463)" fill="#090a09"/>
          <path id="Path_1339" data-name="Path 1339" d="M580.355,293.586a.5.5,0,0,1-.4-.806,3.051,3.051,0,0,0,.218-3.314l-.431-.77a.5.5,0,0,1,.225-.7c1.467-.691,4.318,2.583,5.474,4.026a.5.5,0,0,1-.313.812l-4.69.748A.51.51,0,0,1,580.355,293.586Zm.811-4.388a4.065,4.065,0,0,1,.126,3.224l2.8-.446A16.473,16.473,0,0,0,581.166,289.2Z" transform="translate(-578.248 -287.9)" fill="#090a09"/>
        </g>
      </g>
      <g id="Group_1015" data-name="Group 1015" transform="translate(30.945 16.962)">
        <path id="Path_1340" data-name="Path 1340" d="M594.307,344.146l-.708-1.358-1.531-.07c.086-.323.174-.643.261-.959,9.42-34.223,24.967-36.127,24.967-36.127a5.039,5.039,0,0,1,.128.534C617.98,309.041,619.171,323.355,594.307,344.146Z" transform="translate(-591.315 -305.035)" fill="#ffb852"/>
        <path id="Path_1341" data-name="Path 1341" d="M594.307,344.248l-.708-1.358-1.531-.07c.086-.323.174-.643.261-.959,3.649-1.978,9.112-6.276,15.46-15.614,5.94-8.741,8.526-15.479,9.635-19.979C617.98,309.143,619.171,323.457,594.307,344.248Z" transform="translate(-591.315 -305.136)" fill="#ff9f30"/>
        <path id="Path_1342" data-name="Path 1342" d="M593.943,344.965l-.875-1.683-1.9-.085.176-.656c9.418-35.159,25.077-37.483,25.739-37.566l.448-.055.139.429c.2.635,4.7,15.814-23.209,39.178Zm-1.362-2.8,1.164.051.538,1.035c24.012-20.315,22.946-34.363,22.456-37.088C614.063,306.87,600.875,311.829,592.581,342.167Z" transform="translate(-591.172 -304.921)" fill="#1a1718"/>
      </g>
    </g>
  </g>
</svg>
