<svg xmlns="http://www.w3.org/2000/svg" xmlns:xlink="http://www.w3.org/1999/xlink" width="544.859" height="474" viewBox="0 0 544.859 474">
  <defs>
    <linearGradient id="linear-gradient" x1="0.584" y1="0.027" x2="0.5" y2="0.837" gradientUnits="objectBoundingBox">
      <stop offset="0" stop-color="#c98747"/>
      <stop offset="1" stop-color="#f9ae65"/>
    </linearGradient>
  </defs>
  <g id="Group_1101" data-name="Group 1101" transform="translate(-1090 -7562.112)">
    <circle id="Ellipse_151" data-name="Ellipse 151" cx="237" cy="237" r="237" transform="translate(1129 7562.112)" fill="url(#linear-gradient)"/>
    <g id="Group_1019" data-name="Group 1019" transform="translate(1090 7653.012)">
      <g id="Group_1014" data-name="Group 1014" transform="translate(0 0)">
        <circle id="Ellipse_152" data-name="Ellipse 152" cx="37.323" cy="37.323" r="37.323" transform="translate(90.4 219.233)" fill="#090a09"/>
        <g id="Group_1007" data-name="Group 1007" transform="translate(0 229.009)">
          <rect id="Rectangle_201" data-name="Rectangle 201" width="64.798" height="26.269" rx="2.955" transform="translate(64.798 26.269) rotate(-180)" fill="#090a0a"/>
          <rect id="Rectangle_202" data-name="Rectangle 202" width="44.576" height="14.776" rx="1.662" transform="translate(51.636 20.523) rotate(-180)" fill="#fe9f30"/>
          <rect id="Rectangle_203" data-name="Rectangle 203" width="41.374" height="14.776" rx="1.261" transform="translate(54.509 20.523) rotate(-180)" fill="#fff"/>
        </g>
        <path id="Rectangle_204" data-name="Rectangle 204" d="M0,0H24.109a2.46,2.46,0,0,1,2.46,2.46v67.9a2.7,2.7,0,0,1-2.7,2.7H0a0,0,0,0,1,0,0V0A0,0,0,0,1,0,0Z" transform="translate(518.291 155.463)" fill="#090a0a"/>
        <path id="Rectangle_205" data-name="Rectangle 205" d="M0,0H18.036a1.677,1.677,0,0,1,1.677,1.677V59.452a1.672,1.672,0,0,1-1.672,1.672H0a0,0,0,0,1,0,0V0A0,0,0,0,1,0,0Z" transform="translate(519.228 161.143)" fill="#ffb852"/>
        <rect id="Rectangle_206" data-name="Rectangle 206" width="22.276" height="30.295" transform="translate(516.665 178.476)" fill="#fba87e"/>
        <path id="Path_1278" data-name="Path 1278" d="M569.848,341.225c-1.925,0-3.853,0-5.782,0a.974.974,0,0,1-.467-.076.9.9,0,0,1-.262-.245,22.478,22.478,0,0,1-5.071-9.364,12.753,12.753,0,0,1,.3-6.964,13.255,13.255,0,0,1,3.04-4.733,20.824,20.824,0,0,1,2.107-1.9c.378-.3.769-.591,1.164-.876a3.081,3.081,0,0,1,1.088-.68,1.561,1.561,0,0,1,.431-.009c2.346.16,4.7.311,7.044.467Z" transform="translate(-541.982 -175.735)" fill="#090a0a"/>
        <path id="Path_1279" data-name="Path 1279" d="M567.48,331.654c-1.724,0-3.448,0-5.173,0a.983.983,0,0,1-.342-.031c-.427-.138-.894-.88-1.164-1.222a9.379,9.379,0,0,1-.987-1.547,8.243,8.243,0,0,1-.893-3.449c-.085-2.965,1.573-5.378,3.462-7.489a.5.5,0,0,1,.174-.147.54.54,0,0,1,.226-.035c2.391-.009,4.853-.2,7.249.009C570.03,317.748,567.444,330.237,567.48,331.654Z" transform="translate(-538.569 -171.337)" fill="#fe9f30"/>
        <path id="Path_1280" data-name="Path 1280" d="M614.787,299.793a2.282,2.282,0,0,1,.7-.071q9.673.02,19.341.027l14.36.013,17.417.018,20.008.022,22.133.027,23.8.027,24.99.026,25.719.027,25.981.031,25.781.027,25.11.026,23.973.027,22.378.022,20.305.022,17.772.022,14.778.013,11.315.013c5.2,0,10.506-.422,15.461,1.431,7.822,2.924,11.889,9.818,16.635,16.151q7.274,9.7,14.591,19.359,7.427,9.833,14.871,19.657,3.539,4.666,7.075,9.333l.009.013,17.551,25.826s2.644,7.964,1.768,25.83c0,5.049.587,22.235-2.182,35.3-1.213,4.511-7.039,35.39-39.082,40.052l-26.315.68H915.87l-215.851.591H594.276s-27.964-1.222-33.208-34.288c-.581-7.133-1.409-42.381.387-61.46,1.654-17.333,3.6-24.373,3.6-24.373a22.178,22.178,0,0,0,.3-3.089c.32-2.747.761-5.48,1.293-8.2a117.05,117.05,0,0,1,2.9-11.6,99.4,99.4,0,0,1,5.107-13.289,76.454,76.454,0,0,1,7.912-13.279,62.3,62.3,0,0,1,5.195-6.1,32.666,32.666,0,0,1,7.679-6.293c3.285-1.8,6.627-3.622,9.751-5.693,3.107-2.067,6.067-4.346,9.062-6.573a2.138,2.138,0,0,1,.481-.293Z" transform="translate(-533.589 -233.096)" fill="#090a09"/>
        <path id="Path_1281" data-name="Path 1281" d="M566.875,314.821c1.253,1.209,1.285,6.551,2.062,8.351a39.388,39.388,0,0,0,3.991,7.12A35.1,35.1,0,0,0,591.55,343.6c4.115,1.191,9.271.555,13.56.6,23.679.267,47.363-.018,71.043-.191,10.6-.053,21.217.022,31.821.022q14.533.006,29.061.018,5.293,0,10.591,0v63.233l-4.2,0H715.075l-71.527-.013q-21.406,0-42.807-.013c-2.822,0-5.636-.022-8.458-.093a58.016,58.016,0,0,1-8.8-.445,48.629,48.629,0,0,1-7.413-1.9,29.505,29.505,0,0,1-8.84-4.853,22.071,22.071,0,0,1-3.8-3.893,12.928,12.928,0,0,1-1.4-2.36,6.23,6.23,0,0,1-.066-2.644q.06-2.26.084-4.52c.035-3.017.035-6.035.035-9.053,0-3.346,0-6.693.058-10.04.222-13,.467-26.075,1.813-39.012C564.364,324.5,564.978,318.389,566.875,314.821Z" transform="translate(-528.472 -181.09)" fill="#349a73"/>
        <path id="Path_1282" data-name="Path 1282" d="M581.534,305.907c3.16-.9,6.911-.209,10.164-.209l12.128.009,24.257.018,48.514.031q33.233.02,66.474,0l1.066,71.5c-24.026-.031-48.056,0-72.082-.035-1.093,0-2.187,0-3.275,0q-23.76-.027-47.519-.009l-7.928.013c-9.511.027-19.915,1.1-29.066-2.1-10.449-3.649-23.582-17.031-21.1-29.1.577-2.8,1.408-5.582,2.191-8.333,2.662-9.337,5.67-18.711,10.826-27.008a13.9,13.9,0,0,1,2.778-3.458A7.029,7.029,0,0,1,581.534,305.907Z" transform="translate(-524.984 -213.388)" fill="#fff"/>
        <path id="Path_1283" data-name="Path 1283" d="M570.964,307.951l384.419.1s-5.355-6.333-11.653-6.991c-2.075.035-364.122.316-364.122.316S572.715,305.187,570.964,307.951Z" transform="translate(-497.072 -228.494)" fill="#fff"/>
        <path id="Path_1284" data-name="Path 1284" d="M567.993,310.378s4.76-3.884,7.476-5.049c1.556-.68,5.729-2.72,5.729-2.72l384.419.1,6.116,7.671Z" transform="translate(-507.305 -223.152)" fill="#87888a"/>
        <path id="Path_1285" data-name="Path 1285" d="M580.65,356.988a10.356,10.356,0,0,1-5.3-1.382c-4.436-2.787-3.476-8.057-2.28-12.333,1.84-6.573,3.2-13.32,4.8-19.955a33,33,0,0,1,1.338-4.573,16.487,16.487,0,0,1,3.275-5.129,15.331,15.331,0,0,1,7.009-4.3c4.373-1.209,9.342-.627,13.87-.635q5.667-.014,11.329-.013,13.873-.007,27.742.009,13.366.013,26.728.04c3.644,0,7.293.044,10.941.018,3.182-.022,6.373-.36,9.466.64a9.948,9.948,0,0,1,6.294,5.444,15.55,15.55,0,0,1,.742,5.769l.049,23.2a17.28,17.28,0,0,1-.862,6.658,10.857,10.857,0,0,1-7.631,6.035,28.046,28.046,0,0,1-6.662.5q-14.147-.067-28.292-.084-14.04-.014-28.084,0-12.906,0-25.822.009-4.82.007-9.635.009c-1.231,0-2.462.018-3.693,0C584.255,356.885,582.433,357.045,580.65,356.988Z" transform="translate(-493.262 -202.688)" fill="#090a0a"/>
        <path id="Path_1286" data-name="Path 1286" d="M562.125,332.358c1.649,1.72,2.6,4.182,4.391,5.822a29.994,29.994,0,0,0,13.395,7.253c5.667,1.222,11.52,1.014,17.275.947,6.35-.076,12.692.018,19.052.013q6.819-.007,13.639-.018h.04l61.785.022h56.26v29.448H599.048c-3.489,0-7.031.342-10.493-.209a26.986,26.986,0,0,1-9.377-3.466,34.8,34.8,0,0,1-13.387-14.106c-3.862-7.644-4.484-16.462-3.8-24.928A4.1,4.1,0,0,1,562.125,332.358Z" transform="translate(-528.81 -120.687)" fill="#297b59"/>
        <path id="Path_1287" data-name="Path 1287" d="M576.368,346.879s-4.272.484-2.72-4.467c.485-2.427,6.022-25.924,6.022-25.924a8.075,8.075,0,0,1,.56-1.28,9.73,9.73,0,0,1,8.47-5.325c5.049.1,90.979,0,90.979,0s7.382-.875,6.8,7.187c-.1,6.991.031,25.826.031,25.826s-.227,3.329-4.6,4S576.368,346.879,576.368,346.879Z" transform="translate(-488.997 -198.188)" fill="#349a73"/>
        <path id="Path_1288" data-name="Path 1288" d="M604.053,315.141l2.115-5.284H583.107a10.291,10.291,0,0,0-8.249,5.373C595.186,315.141,604.053,315.141,604.053,315.141Z" transform="translate(-483.661 -198.187)" fill="#257654"/>
        <path id="Path_1289" data-name="Path 1289" d="M580.812,311.032h91.806s8.546.933,7.964,9.413c.1,6.511.026,22.582.026,22.582H576.977s-4.311.889-3.516-4.24C574.937,333.858,580.812,311.032,580.812,311.032Z" transform="translate(-488.81 -194.14)" fill="#3fae7f"/>
        <path id="Path_1290" data-name="Path 1290" d="M643.058,312.207c14.738,0,29.453.018,44.19-.125a30.562,30.562,0,0,1,6.5.4c5.285,1.08,7.964,6.022,11.08,9.987q4.494,5.673,8.937,11.377c1.41,1.8,2.756,3.68,4.2,5.435a18.952,18.952,0,0,1,3.359,4.933c-.093-.271-5.271,0-5.822,0l-6.067,0H697.3q-23.106,0-46.217.035c-2.324,0-4.883-.08-6.6-1.662-1.524-1.409-1.96-3.662-1.96-5.751.018-8.15.094-16.319.094-24.483A.574.574,0,0,1,643.058,312.207Z" transform="translate(-250.581 -190.556)" fill="#014666"/>
        <path id="Path_1291" data-name="Path 1291" d="M609.715,311.057c-4.048,10.546-8.218,21.448-12.275,31.995-6.075-.085-11.9,0-17.973,0a23.731,23.731,0,0,1-4.64-.107,2.107,2.107,0,0,1-1.408-3c.16-.662.316-1.324.475-1.987.276-1.169.556-2.342.831-3.511q.534-2.247,1.067-4.5.58-2.46,1.164-4.928.573-2.413,1.138-4.822l.987-4.169.7-2.964a12.908,12.908,0,0,1,.56-1.782.513.513,0,0,1,.111-.187c.151-.138.4-.036.578-.036l.72,0,1.351.013,3.613.031c7.138,0,14.418-.116,21.559-.053C608.756,311.061,609.226,311.052,609.715,311.057Z" transform="translate(-489.306 -194.165)" fill="#349a73"/>
        <rect id="Rectangle_207" data-name="Rectangle 207" width="473.214" height="7.574" rx="0.852" transform="translate(51.511 287.688)" fill="#090a09"/>
        <rect id="Rectangle_208" data-name="Rectangle 208" width="139.678" height="71.368" transform="translate(222.795 92.373)" fill="#fff"/>
        <rect id="Rectangle_209" data-name="Rectangle 209" width="139.678" height="62.435" transform="translate(222.795 163.741)" fill="#349a73"/>
        <path id="Path_1292" data-name="Path 1292" d="M760.385,364.521l-155.917.425V335.622H744.146Z" transform="translate(-381.673 -109.446)" fill="#297b59"/>
        <path id="Path_1293" data-name="Path 1293" d="M585.019,315.027l2.439-5.154,4.445,0-2.328,5.156Z" transform="translate(-448.663 -198.138)" fill="#257654"/>
        <path id="Path_1294" data-name="Path 1294" d="M586.575,315.03l1.938-5.157,3.7,0-2.093,5.159Z" transform="translate(-443.304 -198.14)" fill="#257654"/>
        <path id="Path_1295" data-name="Path 1295" d="M583.691,343.089l12.817-32.054,3.545,0-12.963,32.057Z" transform="translate(-453.237 -194.141)" fill="#349a73"/>
        <path id="Path_1296" data-name="Path 1296" d="M582.3,343.028l12.069-32,4.557,0-12.6,31.992Z" transform="translate(-458.016 -194.142)" fill="#349a73"/>
        <g id="Group_1008" data-name="Group 1008" transform="translate(252.561 105.862)">
          <path id="Path_1297" data-name="Path 1297" d="M619.744,356.988a10.353,10.353,0,0,1-5.293-1.382c-4.44-2.787-3.48-8.057-2.28-12.333,1.835-6.573,3.2-13.32,4.8-19.955a32.5,32.5,0,0,1,1.337-4.573,16.477,16.477,0,0,1,3.271-5.129,15.363,15.363,0,0,1,7.014-4.3c4.368-1.209,9.342-.627,13.87-.635q5.66-.014,11.329-.013,13.866-.007,27.741.009c8.907.009-26.626.022-17.719.04,3.649,0,7.3.044,10.946.018,3.178-.022,6.373-.36,9.466.64a9.928,9.928,0,0,1,6.289,5.444,15.539,15.539,0,0,1,.742,5.769l.049,23.2a17.371,17.371,0,0,1-.858,6.658,10.858,10.858,0,0,1-7.631,6.035,28.09,28.09,0,0,1-6.667.5q-14.146-.067-28.292-.084c-9.36-.009,25.724-.009,16.364,0q-12.912,0-25.826.009-4.813.007-9.63.009c-1.232,0-2.467.018-3.694,0C623.348,356.885,621.526,357.045,619.744,356.988Z" transform="translate(-611.166 -308.55)" fill="#090a0a"/>
          <path id="Path_1298" data-name="Path 1298" d="M615.46,346.879s-4.271.484-2.716-4.467c.485-2.427,6.018-25.924,6.018-25.924a8.676,8.676,0,0,1,.56-1.28,9.738,9.738,0,0,1,8.471-5.325c5.049.1,46.541,0,46.541,0s7.378-.875,6.8,7.187c-.1,6.991.035,25.826.035,25.826s-.232,3.329-4.6,4S615.46,346.879,615.46,346.879Z" transform="translate(-606.9 -304.05)" fill="#349a73"/>
          <path id="Path_1299" data-name="Path 1299" d="M643.149,315.141l2.115-5.284H622.2a10.286,10.286,0,0,0-8.245,5.373C634.278,315.141,643.149,315.141,643.149,315.141Z" transform="translate(-601.563 -304.049)" fill="#257654"/>
          <path id="Path_1300" data-name="Path 1300" d="M619.907,311.032H667.27s8.542.933,7.96,9.413c.1,6.511.031,22.582.031,22.582h-59.19s-4.311.889-3.515-4.24C614.032,333.858,619.907,311.032,619.907,311.032Z" transform="translate(-606.712 -300.002)" fill="#3fae7f"/>
          <path id="Path_1301" data-name="Path 1301" d="M648.809,311.057c-4.044,10.546-8.217,21.448-12.276,31.995-6.07-.085-11.892,0-17.968,0a23.774,23.774,0,0,1-4.644-.107,2.11,2.11,0,0,1-1.409-3c.165-.662.32-1.324.475-1.987.28-1.169.556-2.342.836-3.511q.533-2.247,1.062-4.5.587-2.46,1.169-4.928c.378-1.609.76-3.213,1.137-4.822l.983-4.169.7-2.964a12.291,12.291,0,0,1,.56-1.782.479.479,0,0,1,.106-.187c.156-.138.4-.036.583-.036l.72,0,1.351.013,3.609.031c7.142,0,14.422-.116,21.559-.053C647.853,311.061,648.325,311.052,648.809,311.057Z" transform="translate(-607.21 -300.027)" fill="#349a73"/>
          <path id="Path_1302" data-name="Path 1302" d="M624.114,315.027l2.44-5.154,4.445,0-2.327,5.156Z" transform="translate(-566.566 -303.999)" fill="#257654"/>
          <path id="Path_1303" data-name="Path 1303" d="M625.67,315.03l1.938-5.157,3.7,0-2.092,5.159Z" transform="translate(-561.208 -304.001)" fill="#257654"/>
          <path id="Path_1304" data-name="Path 1304" d="M622.786,343.089,635.6,311.035l3.545,0-12.963,32.057Z" transform="translate(-571.142 -300.003)" fill="#349a73"/>
          <path id="Path_1305" data-name="Path 1305" d="M621.4,343.028l12.069-32,4.557,0-12.6,31.992Z" transform="translate(-575.92 -300.003)" fill="#349a73"/>
        </g>
        <path id="Path_1306" data-name="Path 1306" d="M637.634,386.257s45.586,0,48.888,0q17.959,0,35.919-.013c9.249,0,18.893.418,28-1.929,18.5-4.769,30.732-22.5,33.728-40.648.035-.222.071-.44.106-.662a98.806,98.806,0,0,0,.96-10.569c.165-3.7.671-7.844.209-11.515a222.191,222.191,0,0,1,1.338,31.892c-.182,9.844-.226,20.533-2.627,30.142-1.1,4.382-4.111,9.129-6.693,12.8A45.861,45.861,0,0,1,765.83,407.26c-4.4,3-9.151,4.773-14.124,6.538-4.88,1.729-11.382,1.058-16.56,1.187-12.071.3-24.141.133-36.213,0q-4.706-.047-9.417-.08c-17.3-.106-34.6.089-51.883.089Z" transform="translate(-267.441 -160.08)" fill="#297b59"/>
        <path id="Path_1307" data-name="Path 1307" d="M637.186,305.515H737.392s42.794,60.1,42.843,60.171c1.752,2.4-9.684,7.431-11.15,8.013-10.5,4.142-21.6,3.293-32.63,3.44-12.067.155-24.133.075-36.2,0q-8.873-.053-17.742-.067H638.737Z" transform="translate(-268.984 -213.143)" fill="#fff"/>
        <path id="Path_1308" data-name="Path 1308" d="M637.535,330.445c0,.058,58.394,0,63.629,0l46.892.009c10.515,0,24.12-2.591,30.977-11.4,2.5,2.533,4.479,5.853,6.64,8.72.818,1.089.276,5.053.276,6.306.044,16.96-4.773,35.617-17.911,47.19-10.017,8.822-22.457,11.813-35.519,11.684q-18.172-.18-36.345-.245c-17.431-.062-34.857-.013-52.288-.013-.329,0-5.911.013-5.911-.009Z" transform="translate(-267.782 -166.51)" fill="#349a73"/>
        <path id="Path_1309" data-name="Path 1309" d="M639.414,377.957l5.049-24.559s5.4-16.031,17.653-18.164c1.964-1.164,13.591-4.466,36.324-1.36,3.315.969,14.382,4.853,19.822,16.7.778,2.524,4.853,24.639,4.662,26.59S639.414,377.957,639.414,377.957Z" transform="translate(-261.31 -119.932)" fill="#0d0e0d"/>
        <circle id="Ellipse_153" data-name="Ellipse 153" cx="37.323" cy="37.323" r="37.323" transform="translate(381.31 219.913)" fill="#090a09"/>
        <circle id="Ellipse_154" data-name="Ellipse 154" cx="29.855" cy="29.855" r="29.855" transform="translate(388.777 226.959)" fill="#e58d3b"/>
        <circle id="Ellipse_155" data-name="Ellipse 155" cx="23.231" cy="23.231" r="23.231" transform="translate(395.693 234.004)" fill="#090a09"/>
        <path id="Path_1310" data-name="Path 1310" d="M677.937,340.45a16.145,16.145,0,0,1,.431,3.7c0,9.177-7.707,16.613-17.212,16.613a17.129,17.129,0,0,1-16.564-12.1c-.058.582-.089,1.169-.089,1.765a18.206,18.206,0,1,0,33.435-9.978Z" transform="translate(-243.785 -92.816)" fill="#ff9f30"/>
        <path id="Path_1311" data-name="Path 1311" d="M661.086,367.136c9.506,0,17.212-7.435,17.212-16.613a16.127,16.127,0,0,0-.431-3.7,18.205,18.205,0,0,0-33.346,8.213A17.13,17.13,0,0,0,661.086,367.136Z" transform="translate(-243.716 -99.191)" fill="#ffb852"/>
        <path id="Path_1312" data-name="Path 1312" d="M572.618,367.05S571.6,340.811,596.067,335.7c4.226-.467,50.541,0,50.541,0s22.284,1.315,23.6,30.688C658.7,366.97,572.618,367.05,572.618,367.05Z" transform="translate(-491.394 -109.874)" fill="#0d0e0d"/>
        <circle id="Ellipse_156" data-name="Ellipse 156" cx="29.494" cy="29.494" r="29.494" transform="translate(98.228 227.681)" fill="#e58d3b"/>
        <circle id="Ellipse_157" data-name="Ellipse 157" cx="23.231" cy="23.231" r="23.231" transform="translate(104.673 234.429)" fill="#090a09"/>
        <path id="Path_1313" data-name="Path 1313" d="M611.383,340.166a16.073,16.073,0,0,1,1.373,6.515c0,9.173-7.707,16.613-17.213,16.613a17.153,17.153,0,0,1-16.453-11.715l0,.12a18.206,18.206,0,1,0,32.3-11.533Z" transform="translate(-469.098 -93.794)" fill="#ff9f30"/>
        <path id="Path_1314" data-name="Path 1314" d="M595.54,368.467c9.506,0,17.213-7.44,17.213-16.613a16.072,16.072,0,0,0-1.373-6.515,18.2,18.2,0,0,0-32.292,11.413A17.154,17.154,0,0,0,595.54,368.467Z" transform="translate(-469.095 -98.967)" fill="#ffb852"/>
        <rect id="Rectangle_210" data-name="Rectangle 210" width="49.084" height="8.73" transform="translate(104.673 225.699)" fill="#090a09"/>
        <path id="Path_1315" data-name="Path 1315" d="M636.527,305.515h11.528l.975,71.549L635,376.883" transform="translate(-276.513 -213.141)" fill="#fff"/>
        <path id="Path_1316" data-name="Path 1316" d="M636.9,321.574l11.531.193.962,62.265-14.021-.023" transform="translate(-275.221 -157.832)" fill="#349a73"/>
        <path id="Path_1317" data-name="Path 1317" d="M636.771,335.621l11.634.039.6,28.679-13.725.238" transform="translate(-275.544 -109.447)" fill="#297b59"/>
        <path id="Path_1318" data-name="Path 1318" d="M604.754,321.574l11.53.193.963,62.265-14.021-.023" transform="translate(-385.954 -157.832)" fill="#349a73"/>
        <path id="Path_1319" data-name="Path 1319" d="M604.622,335.621l11.633.039.6,28.679-13.725.238" transform="translate(-386.277 -109.447)" fill="#297b59"/>
        <path id="Path_1320" data-name="Path 1320" d="M604.343,305.515H615.87l1.107,71.368-14.117.132" transform="translate(-387.21 -213.141)" fill="#fff"/>
        <rect id="Rectangle_211" data-name="Rectangle 211" width="5.437" height="172.99" transform="translate(231.517 88.747) rotate(13.265)" fill="#090a09"/>
        <rect id="Rectangle_212" data-name="Rectangle 212" width="5.437" height="172.99" transform="translate(375.688 88.747) rotate(13.265)" fill="#090a09"/>
        <rect id="Rectangle_213" data-name="Rectangle 213" width="17.916" height="6.666" transform="translate(522.618 189.885)" fill="#090a09"/>
        <rect id="Rectangle_214" data-name="Rectangle 214" width="46.858" height="6.665" transform="translate(135.418 152.177) rotate(-74.516)" fill="#090a09"/>
        <g id="Group_1009" data-name="Group 1009" transform="translate(391.272 105.862)">
          <path id="Path_1321" data-name="Path 1321" d="M713.944,356.988a10.341,10.341,0,0,0,5.293-1.382c4.44-2.787,3.48-8.057,2.281-12.333-1.836-6.573-3.2-13.32-4.8-19.955a32.554,32.554,0,0,0-1.337-4.573,16.467,16.467,0,0,0-3.271-5.129,15.358,15.358,0,0,0-7.013-4.3c-4.369-1.209-9.342-.627-13.87-.635q-5.66-.014-11.328-.013-13.866-.007-27.742.009c-8.907.009,26.626.022,17.719.04-3.649,0-7.3.044-10.942.018-3.182-.022-6.377-.36-9.471.64a9.93,9.93,0,0,0-6.289,5.444,15.56,15.56,0,0,0-.742,5.769l-.049,23.2a17.376,17.376,0,0,0,.858,6.658,10.858,10.858,0,0,0,7.63,6.035,28.089,28.089,0,0,0,6.666.5q14.147-.067,28.293-.084c9.36-.009-25.723-.009-16.364,0q12.913,0,25.826.009,4.813.007,9.631.009c1.231,0,2.467.018,3.693,0C710.34,356.885,712.162,357.045,713.944,356.988Z" transform="translate(-642.377 -308.55)" fill="#090a0a"/>
          <path id="Path_1322" data-name="Path 1322" d="M643.7,342.9s.231,3.329,4.6,4,61.105-.013,61.105-.013,4.271.484,2.715-4.467c-.484-2.427-6.017-25.924-6.017-25.924a8.643,8.643,0,0,0-.56-1.28,9.738,9.738,0,0,0-8.471-5.325c-5.049.1-46.541,0-46.541,0s-7.377-.875-6.8,7.187c.1,6.991-.035,25.826-.035,25.826" transform="translate(-637.82 -304.05)" fill="#349a73"/>
          <path id="Path_1323" data-name="Path 1323" d="M652.692,315.141l-2.115-5.284h23.066a10.28,10.28,0,0,1,8.244,5.373C661.563,315.141,652.692,315.141,652.692,315.141Z" transform="translate(-614.133 -304.049)" fill="#257654"/>
          <path id="Path_1324" data-name="Path 1324" d="M700.361,311.032H652.994s-8.543.933-7.96,9.413c-.1,6.511-.031,22.582-.031,22.582H704.2s4.306.889,3.511-4.24C706.232,333.858,700.361,311.032,700.361,311.032Z" transform="translate(-633.407 -300.002)" fill="#3fae7f"/>
          <path id="Path_1325" data-name="Path 1325" d="M651.05,311.057c4.045,10.546,8.217,21.448,12.275,31.995,6.071-.085,11.893,0,17.969,0a23.776,23.776,0,0,0,4.644-.107,2.109,2.109,0,0,0,1.409-3c-.16-.662-.32-1.324-.475-1.987-.28-1.169-.556-2.342-.836-3.511-.356-1.5-.707-3-1.062-4.5q-.586-2.46-1.169-4.928-.566-2.413-1.137-4.822l-.982-4.169-.7-2.964a12.353,12.353,0,0,0-.56-1.782.485.485,0,0,0-.106-.187c-.156-.138-.4-.036-.582-.036l-.72,0-1.351.013-3.609.031c-7.142,0-14.422-.116-21.559-.053C652.01,311.061,651.534,311.052,651.05,311.057Z" transform="translate(-612.504 -300.027)" fill="#349a73"/>
          <path id="Path_1326" data-name="Path 1326" d="M652.8,315.027l-2.44-5.154-4.445,0,2.328,5.156Z" transform="translate(-630.199 -303.999)" fill="#257654"/>
          <path id="Path_1327" data-name="Path 1327" d="M650.275,315.03l-1.938-5.157-3.7,0,2.093,5.159Z" transform="translate(-634.591 -304.001)" fill="#257654"/>
          <path id="Path_1328" data-name="Path 1328" d="M661.469,343.089l-12.817-32.054-3.544,0,12.963,32.057Z" transform="translate(-632.969 -300.003)" fill="#349a73"/>
          <path id="Path_1329" data-name="Path 1329" d="M663.061,343.028l-12.069-32-4.557,0,12.6,31.992Z" transform="translate(-628.395 -300.003)" fill="#349a73"/>
        </g>
        <g id="Group_1010" data-name="Group 1010" transform="translate(195.567 49.974)">
          <path id="Path_1330" data-name="Path 1330" d="M637.945,318.565h-39.6V307.272a11.308,11.308,0,0,1,11.3-11.3h17.009a11.311,11.311,0,0,1,11.3,11.3Zm-33.225-6.378h26.844v-4.915a4.921,4.921,0,0,0-4.915-4.92H609.639a4.925,4.925,0,0,0-4.92,4.92Z" transform="translate(-598.342 -295.975)" fill="#1a1718"/>
        </g>
        <g id="Group_1011" data-name="Group 1011" transform="translate(323.141 49.974)">
          <path id="Path_1331" data-name="Path 1331" d="M666.65,318.565h-39.6V307.272a11.309,11.309,0,0,1,11.3-11.3h17.009a11.311,11.311,0,0,1,11.3,11.3Zm-33.226-6.378h26.843v-4.915a4.921,4.921,0,0,0-4.915-4.92H638.344a4.925,4.925,0,0,0-4.92,4.92Z" transform="translate(-627.047 -295.975)" fill="#1a1718"/>
        </g>
        <g id="Group_1012" data-name="Group 1012" transform="translate(108.849)">
          <path id="Path_1332" data-name="Path 1332" d="M579.43,302.555l309.67,6.307s-54.358-17.026-158.626-19.15c-80.66-1.645-134.129,3.849-150.938,7.817Z" transform="translate(-576.763 -268.604)" fill="#349a73"/>
          <path id="Path_1333" data-name="Path 1333" d="M581.707,310.076l24.888-3.449s-18.541-24.1-25.324-21.066l2.2,4.115a18.8,18.8,0,0,1-1.76,20.4Z" transform="translate(-570.418 -282.777)" fill="#349a73"/>
          <path id="Path_1334" data-name="Path 1334" d="M891.163,313.622h-.053l-309.67-6.307a2.663,2.663,0,0,1-2.608-2.72l.107-5.027a2.657,2.657,0,0,1,2.049-2.538c17.2-4.062,71.762-9.547,151.609-7.893,103.45,2.111,158.822,19.1,159.369,19.275a2.666,2.666,0,0,1-.8,5.209ZM584.217,302.04l282.16,5.746c-25.351-5.124-70.482-12.022-133.894-13.315-76.429-1.551-129.352,3.364-148.262,7.3Z" transform="translate(-578.83 -270.59)" fill="#090a09"/>
          <path id="Path_1335" data-name="Path 1335" d="M583.775,314.8a2.671,2.671,0,0,1-2.107-4.306,16.145,16.145,0,0,0,1.511-17.506l-2.2-4.106a2.675,2.675,0,0,1,1.263-3.693c7.875-3.524,22.568,14.133,28.528,21.875a2.668,2.668,0,0,1-1.747,4.271L584.14,314.78A2.51,2.51,0,0,1,583.775,314.8Zm4.711-23.11a21.529,21.529,0,0,1,.311,17.062l14.862-2.062C597.877,299.687,592.233,294.292,588.486,291.692Z" transform="translate(-572.486 -284.73)" fill="#090a09"/>
        </g>
        <g id="Group_1013" data-name="Group 1013" transform="translate(105.059 14.084)">
          <path id="Path_1336" data-name="Path 1336" d="M578.576,307.917H888.308S833.617,292,729.327,292c-80.678,0-134.023,6.578-150.751,10.893Z" transform="translate(-575.914 -273.783)" fill="#ffb852"/>
          <path id="Path_1337" data-name="Path 1337" d="M581.211,313.259l24.813-3.955S587,285.584,580.274,288.757l2.28,4.067a18.8,18.8,0,0,1-1.342,20.434Z" transform="translate(-570.065 -285.951)" fill="#ffb852"/>
          <path id="Path_1338" data-name="Path 1338" d="M890.376,312.671H580.639A2.662,2.662,0,0,1,577.977,310v-5.022a2.658,2.658,0,0,1,2-2.582c17.106-4.418,71.549-10.977,151.413-10.977,103.473,0,159.177,15.862,159.733,16.022a2.667,2.667,0,0,1-.747,5.227Zm-307.07-5.329H865.532c-25.453-4.609-70.713-10.591-134.143-10.591-76.46,0-129.258,6-148.084,10.324Z" transform="translate(-577.977 -275.764)" fill="#090a09"/>
          <path id="Path_1339" data-name="Path 1339" d="M583.277,317.981a2.665,2.665,0,0,1-2.133-4.262,16.139,16.139,0,0,0,1.151-17.533l-2.28-4.071a2.666,2.666,0,0,1,1.191-3.716c7.76-3.653,22.844,13.662,28.959,21.3a2.663,2.663,0,0,1-1.658,4.3L583.7,317.95A2.741,2.741,0,0,1,583.277,317.981Zm4.289-23.213a21.507,21.507,0,0,1,.666,17.057l14.813-2.36C597.125,302.577,591.37,297.3,587.566,294.768Z" transform="translate(-572.131 -287.9)" fill="#090a09"/>
        </g>
      </g>
      <g id="Group_1015" data-name="Group 1015" transform="translate(163.702 89.732)">
        <path id="Path_1340" data-name="Path 1340" d="M603.912,509.377l-3.746-7.187-8.1-.369c.453-1.707.92-3.4,1.382-5.076,49.834-181.043,132.08-191.114,132.08-191.114a26.714,26.714,0,0,1,.675,2.822C729.144,323.667,735.445,399.389,603.912,509.377Z" transform="translate(-588.086 -302.472)" fill="#ffb852"/>
        <path id="Path_1341" data-name="Path 1341" d="M603.912,507.19,600.165,500l-8.1-.369c.453-1.707.92-3.4,1.382-5.076,19.306-10.466,48.2-33.2,81.784-82.6,31.426-46.239,45.105-81.886,50.972-105.69C729.144,321.48,735.445,397.2,603.912,507.19Z" transform="translate(-588.086 -300.285)" fill="#ff9f30"/>
        <path id="Path_1342" data-name="Path 1342" d="M605.829,516.759l-4.631-8.9-10.026-.449.929-3.471c49.821-185.994,132.658-198.291,136.16-198.727l2.369-.289.733,2.271c1.085,3.36,24.87,83.66-122.779,207.256Zm-7.2-14.8,6.155.271,2.849,5.476c127.027-107.468,121.387-181.786,118.8-196.2C712.27,315.232,642.5,341.466,598.625,501.959Z" transform="translate(-591.172 -304.921)" fill="#1a1718"/>
      </g>
    </g>
  </g>
</svg>
