<svg xmlns="http://www.w3.org/2000/svg" width="49.273" height="22" viewBox="0 0 49.273 22">
  <g id="Group_977" data-name="Group 977" transform="translate(981 572.225)">
    <path id="Path_1157" data-name="Path 1157" d="M-931.727-555.267a7.659,7.659,0,0,1-.541,1.244,2.831,2.831,0,0,1-2.594,1.338,1.416,1.416,0,0,0-1.4.7,4.236,4.236,0,0,1-7.117-.386.524.524,0,0,0-.531-.306c-4.935.008-19.969.008-24.9,0a.525.525,0,0,0-.531.305,4.265,4.265,0,0,1-7.4-.016.483.483,0,0,0-.5-.29,5.649,5.649,0,0,1-1.143-.041,2.983,2.983,0,0,1-2.535-2.377,1.3,1.3,0,0,0-.069-.172v-14.356c.034-.107.071-.213.1-.321a3.069,3.069,0,0,1,3.035-2.273c3.507,0,17.112,0,20.619,0,3.927,0,7.855.01,11.782-.006a3.342,3.342,0,0,1,2.879,1.43c1.692,2.279,3.415,4.535,5.109,6.813a4.472,4.472,0,0,0,3.083,1.851,3.052,3.052,0,0,1,2.59,2.376,2.135,2.135,0,0,0,.075.213Zm-12.226,1.357a4.347,4.347,0,0,1,4.234-4.906,4.347,4.347,0,0,1,4.311,4.883,1.936,1.936,0,0,0,2.394-2.407c-.223,0-.452.008-.681,0a3.071,3.071,0,0,1-2.922-2.85c-.03-.559.2-.805.75-.809.484,0,.969,0,1.454,0h1.211a1.786,1.786,0,0,0-1.336-.914,5.707,5.707,0,0,1-3.968-2.4c-1.681-2.272-3.4-4.518-5.084-6.784a2.116,2.116,0,0,0-1.827-.909c-7.408.01-24.915.006-32.323.006a1.849,1.849,0,0,0-2.036,2.037q0,4.276,0,8.551v.37a1.926,1.926,0,0,1,1.836,2.217c0,.229,0,.458,0,.687a1.842,1.842,0,0,1-1.528,1.987,1.318,1.318,0,0,0-.16.065,1.91,1.91,0,0,0,2.32,1.142,4.334,4.334,0,0,1,4.122-4.874,4.361,4.361,0,0,1,4.423,4.9Zm-26.031-.574a3.061,3.061,0,0,0-3.01-3.073,3.062,3.062,0,0,0-3.109,3.013,3.061,3.061,0,0,0,3.028,3.095A3.069,3.069,0,0,0-969.983-554.484Zm30.3-3.073a3.061,3.061,0,0,0-3.061,3.061,3.063,3.063,0,0,0,3.037,3.047,3.068,3.068,0,0,0,3.082-3.082A3.061,3.061,0,0,0-939.683-557.557Zm4.428-1.207a1.894,1.894,0,0,0,2.281,1.165v-1.165Zm-44.5,2.43a.612.612,0,0,0,.589-.6c.017-.417.021-.837,0-1.254a.574.574,0,0,0-.587-.577Z" fill="#707070"/>
    <path id="Path_1158" data-name="Path 1158" d="M-879.133-549.206h6.846a1.845,1.845,0,0,1,2.019,2.015q0,2.29,0,4.58a1.834,1.834,0,0,1-1.963,1.956q-6.922,0-13.844,0a1.832,1.832,0,0,1-1.942-1.938q-.006-2.347,0-4.695a1.828,1.828,0,0,1,1.924-1.917Q-882.613-549.211-879.133-549.206Zm2.105,7.314v-6.061h-4.238v6.061Zm-5.5-6.088c-1.252,0-2.472-.009-3.692.006-.364,0-.574.27-.575.673q-.008,2.364,0,4.728c0,.47.233.691.712.7s.942,0,1.413,0h2.141Zm6.775,0v6.105c1.234,0,2.442.007,3.65,0a.577.577,0,0,0,.6-.609q.014-2.44,0-4.88a.576.576,0,0,0-.6-.608C-873.308-547.99-874.516-547.983-875.75-547.983Z" transform="translate(-83.494 -20.67)" fill="#707070"/>
    <path id="Path_1159" data-name="Path 1159" d="M-933.133-549.206h6.846a1.845,1.845,0,0,1,2.019,2.015q0,2.29,0,4.58a1.834,1.834,0,0,1-1.963,1.956q-6.922,0-13.844,0a1.832,1.832,0,0,1-1.942-1.938q-.006-2.347,0-4.695a1.829,1.829,0,0,1,1.924-1.917Q-936.613-549.211-933.133-549.206Zm2.105,7.314v-6.061h-4.238v6.061Zm-5.5-6.088c-1.252,0-2.472-.009-3.692.006-.364,0-.574.27-.575.673q-.008,2.364,0,4.728c0,.47.233.691.712.7s.942,0,1.413,0h2.141Zm6.775,0v6.105c1.234,0,2.443.007,3.651,0a.577.577,0,0,0,.6-.609q.014-2.44,0-4.88a.576.576,0,0,0-.6-.608C-927.308-547.99-928.516-547.983-929.75-547.983Z" transform="translate(-35.003 -20.67)" fill="#707070"/>
    <path id="Path_1160" data-name="Path 1160" d="M-673.156-545.66c-.982,0-1.963,0-2.945,0a1.83,1.83,0,0,1-1.92-1.922q-.007-2.366,0-4.733a1.827,1.827,0,0,1,1.906-1.9c.777,0,1.555,0,2.333,0a1.829,1.829,0,0,1,1.495.716c.183.229.361.461.529.7a.606.606,0,0,1-.1.908.6.6,0,0,1-.871-.169c-.83-1.1-.513-.916-1.99-.933-.459-.005-.918-.006-1.377,0a.621.621,0,0,0-.7.707q-.007,2.347,0,4.695a.62.62,0,0,0,.707.7c1.976,0,3.952.012,5.927-.013a.959.959,0,0,0,.623-.332c.2-.233.064-.5-.109-.729q-.794-1.051-1.581-2.107c-.291-.391-.274-.741.038-.97s.649-.143.943.247c.522.69,1.036,1.386,1.561,2.074a1.805,1.805,0,0,1,.256,2.033,1.822,1.822,0,0,1-1.782,1.022C-671.193-545.665-672.175-545.66-673.156-545.66Z" transform="translate(-272.067 -16.174)" fill="#707070"/>
    <path id="Path_1161" data-name="Path 1161" d="M-664.776-463.212c-.2,0-.409.013-.612,0a.6.6,0,0,1-.583-.594.6.6,0,0,1,.6-.616c.42-.017.842-.017,1.261,0a.6.6,0,0,1,.583.591.606.606,0,0,1-.6.618C-664.342-463.2-664.559-463.211-664.776-463.212Z" transform="translate(-282.892 -96.792)" fill="#707070"/>
    <path id="Path_1162" data-name="Path 1162" d="M-736.8-458.419c0,.076,0,.153,0,.229a.622.622,0,0,1-.626.67.618.618,0,0,1-.6-.661c-.006-.165-.006-.331,0-.5a.618.618,0,0,1,.625-.67.619.619,0,0,1,.6.66C-736.8-458.6-736.8-458.508-736.8-458.419Z" transform="translate(-218.183 -101.363)" fill="#707070"/>
    <path id="Path_1163" data-name="Path 1163" d="M-919.125-416.456a1.837,1.837,0,0,1,1.818,1.827,1.84,1.84,0,0,1-1.85,1.834,1.84,1.84,0,0,1-1.818-1.827A1.841,1.841,0,0,1-919.125-416.456Zm-.033,1.222a.616.616,0,0,0-.594.615.614.614,0,0,0,.605.6.617.617,0,0,0,.614-.634A.616.616,0,0,0-919.158-415.234Z" transform="translate(-53.901 -139.879)" fill="#707070"/>
    <path id="Path_1164" data-name="Path 1164" d="M-592.131-416.455a1.837,1.837,0,0,1,1.823,1.821,1.84,1.84,0,0,1-1.845,1.84,1.841,1.841,0,0,1-1.824-1.822A1.84,1.84,0,0,1-592.131-416.455Zm.6,1.835a.616.616,0,0,0-.6-.613.617.617,0,0,0-.624.585.615.615,0,0,0,.614.632A.617.617,0,0,0-591.533-414.62Z" transform="translate(-347.542 -139.879)" fill="#707070"/>
  </g>
</svg>
