<svg xmlns="http://www.w3.org/2000/svg" width="185" height="185" viewBox="0 0 185 185">
  <g id="Group_1094" data-name="Group 1094" transform="translate(-549.528 -96.718)">
    <circle id="Ellipse_158" data-name="Ellipse 158" cx="92.5" cy="92.5" r="92.5" transform="translate(549.528 96.718)" fill="#fff"/>
    <path id="Path_1344" data-name="Path 1344" d="M639.248,247.714A84.411,84.411,0,0,0,719.2,190.333H559.294A84.411,84.411,0,0,0,639.248,247.714Z" transform="translate(2.781 25.899)" fill="#349a73"/>
    <g id="Group_1028" data-name="Group 1028" transform="translate(574.015 215.299)">
      <g id="Group_1027" data-name="Group 1027" transform="translate(0)">
        <path id="Path_1345" data-name="Path 1345" d="M572.726,217.586a3.4,3.4,0,0,1-.581-.942,10.667,10.667,0,0,1-.476-1.3c-.142-.473-.228-.742-.257-.816-.205-.5-.639-4.71-1.55-11.5s-1.374-9.735-1.155-9.994a5.08,5.08,0,0,1,1.866-1.01c1-.383,1.588-.515,1.748-.309a49.106,49.106,0,0,1,.609,6.285c.282,4.137.481,8.3.614,12.411,1.329-2.609,2.042-4.109,3.527-7.451,1.281,4.219,1.889,6.511,3.086,11.4.609-4.52,1.291-9.218,2.054-14.15s1.211-7.589,1.316-7.755c.182-.247.756,0,1.713.811A5.715,5.715,0,0,1,587,195.416c.187.518-.63,5.746-2.352,14.783s-2.661,13.185-2.921,13.352a4.792,4.792,0,0,0-.383.5,1.94,1.94,0,0,1-.571.579c-.165.088-.4.022-.689-.2a3.556,3.556,0,0,1-.9-1.374,5.714,5.714,0,0,1,.022-.756c-.856-6.079-1.3-8.952-2.249-14.3-1.41,4.192-2.078,6.093-3.312,9.448a2.762,2.762,0,0,1-.046.531A1.047,1.047,0,0,1,572.726,217.586Z" transform="translate(-568.654 -189.048)" fill="#fff"/>
        <path id="Path_1346" data-name="Path 1346" d="M592.5,189.6c.191-.015.486.852.838,2.708a22.185,22.185,0,0,1,.5,4.041c2.611,13.253,5.6,26.628,6.817,40.092a1.743,1.743,0,0,1-1.259.62,2.843,2.843,0,0,1-1.777-.436,2.593,2.593,0,0,1-1.185-1.706c-.233-.95-.931-5.487-2.039-13.136a34.326,34.326,0,0,1-8.353,1.382c-.731,2.12-1.424,3.923-2.079,5.432a8.584,8.584,0,0,1-1.147,2.249c-.247.088-.616-.526-1.1-1.81a10.368,10.368,0,0,1-.772-3.327c-.015-.583.907-3.534,2.86-9.7s3.568-11.54,4.786-15.6,2.247-7.6,3.08-10.505c0,.034.1-.009.3-.129A1.282,1.282,0,0,1,592.5,189.6Zm-.471,14.823c-.446,1.592-1.177,4.024-2.186,7.168s-1.676,5.142-2.009,6.149a46.873,46.873,0,0,0,5.941-.128C593.432,215.212,592.849,210.7,592.028,204.425Zm-.334-14.51h0Z" transform="translate(-565.266 -189.602)" fill="#fff"/>
        <path id="Path_1347" data-name="Path 1347" d="M597.551,193.976c.07,0,.187.057.278.071.245.038.776-.02,1.366.006s1.528.1,2.811.21a14.6,14.6,0,0,1,3.595.759,5.239,5.239,0,0,1,2.454,1.623,12.833,12.833,0,0,1,1.693,3.419,34.522,34.522,0,0,1,1.374,5.031,30.012,30.012,0,0,1,.574,5.082,5.934,5.934,0,0,1-.715,3.507.415.415,0,0,1-.153.175,6.865,6.865,0,0,0,.563.76c.639.237,1.475,2.193,2.544,5.915a50.7,50.7,0,0,1,1.523,7.145,26.545,26.545,0,0,1,.157,6.76,11.477,11.477,0,0,1-1.357,4.672c-.843,1.336-2.54,2.206-5.033,2.448a17.073,17.073,0,0,1-7.111-.787c-2.241-.745-3.633-1.638-4.208-2.534a10.934,10.934,0,0,1-.749-1.722,4.089,4.089,0,0,1-.411-1.805,21.933,21.933,0,0,1,.431-3.24c.264-1.389.416-2.264.454-2.614.134-1,.256-6.433.384-16.159a3.742,3.742,0,0,1-.483-2.226c.063-.816.235-1.28.51-1.392.073-5.167.119-8.359.133-9.614a.815.815,0,0,1-.653,0c-.193-.1-.378-.6-.525-1.507a10.514,10.514,0,0,1-.1-2.651C596.974,194.439,597.212,193.979,597.551,193.976Zm5.359,3.455a1.859,1.859,0,0,0-1.135.292c-.341.217-.7.473-1.075.767q.01.9.078,4.841t.087,6.441a14.553,14.553,0,0,0,2.418.286,11.682,11.682,0,0,0,2.3-.165,3.268,3.268,0,0,0,1.82-.856,2.3,2.3,0,0,0,.607-1.791,17.65,17.65,0,0,0-1.545-6.225c-.9-1.994-1.9-3.145-3.02-3.5A2.566,2.566,0,0,0,602.911,197.431Zm2.095,17.7c-1.481-.448-3.194-.463-3.94-.718.022,1.869-.009,8.031-.065,18.62a15.415,15.415,0,0,0,2.976.469,11.074,11.074,0,0,0,2.837-.244,3.666,3.666,0,0,0,2.262-1.379,4.1,4.1,0,0,0,.672-2.809,40.2,40.2,0,0,0-1.433-9.177C607.578,217.466,606.3,215.519,605.005,215.13Z" transform="translate(-560.908 -188.396)" fill="#fff"/>
        <path id="Path_1348" data-name="Path 1348" d="M615.591,193.936c.235.614.616,8.037,1.243,22.353s.909,21.97.728,22.867a9.054,9.054,0,0,1-2.11,3.7c-1.193,1.417-1.934,1.78-2.212,1.137q-.389-.892-.2-24.3t.353-24.611q.207-1.814.9-2C614.756,192.95,615.187,193.237,615.591,193.936Z" transform="translate(-556.434 -188.652)" fill="#fff"/>
        <path id="Path_1349" data-name="Path 1349" d="M640.936,193.794l.184-.005.282-.009a.73.73,0,0,1,.386.142,2.057,2.057,0,0,1,.441.385c.376.438.537,1.643.479,3.632s-.307,3.247-.741,3.773c-.181.221-.635.2-1.362-.082a23.236,23.236,0,0,1-2.2-.981,4.143,4.143,0,0,0-2.077-.515c-.647.033-1.011.435-1.1,1.2a5.681,5.681,0,0,0,.691,2.7,41.19,41.19,0,0,0,2.12,4.019c.876,1.475,1.765,3.014,2.667,4.6a43.181,43.181,0,0,1,2.465,5.13,19.037,19.037,0,0,1,1.346,5.2,11.377,11.377,0,0,1-.8,5.247,19.543,19.543,0,0,1-2.819,5.054,38.648,38.648,0,0,1-3.725,4.146,23.976,23.976,0,0,1-3.535,2.886,4.747,4.747,0,0,1-2.092.931c-.5-.033-.935-1.019-1.256-3.022a42.977,42.977,0,0,1-.514-6.316,16.259,16.259,0,0,1,.3-4.322c.112-.358.563-.713,1.346-1.077s1.67-.745,2.658-1.148A22.268,22.268,0,0,0,637,223.908a6.53,6.53,0,0,0,2.271-2.22,4.464,4.464,0,0,0,.621-3.023,12.133,12.133,0,0,0-1.352-3.784q-1.109-2.139-2.476-4.237t-2.676-4.34a25.432,25.432,0,0,1-2.11-4.564,10.631,10.631,0,0,1-.672-4.147,5.008,5.008,0,0,1,.4-1.724,3.544,3.544,0,0,1,.847-1.211,5.207,5.207,0,0,1,1.18-.8,5.525,5.525,0,0,1,1.4-.474,8.792,8.792,0,0,1,1.5-.157q.777-.015,1.482.033t1.359.124a9.706,9.706,0,0,1,1.122.191c.313.074.567.126.754.163C640.821,193.776,640.917,193.794,640.936,193.794Z" transform="translate(-551.803 -188.603)" fill="#fff"/>
        <path id="Path_1350" data-name="Path 1350" d="M648.389,189.6c.186-.017.6.934,1.2,2.87a25.791,25.791,0,0,1,1.032,4.163c7.912,23.983,11.642,32.131,11.317,32.88a5.318,5.318,0,0,1-1.054,1.6,4.608,4.608,0,0,1-1.647,1.22.893.893,0,0,1-1.28-.412c-.326-.624-1.5-3.881-3.518-10.375-5.162,5.225-7.917,7.949-7.972,8.006q-.67,4.583-1.364,8.325a29.9,29.9,0,0,1-.868,3.992c-.244.412-.707.162-1.391-.787a6.887,6.887,0,0,1-1.258-3.161c-.094-.713.486-5.771,1.642-14.8s2.04-15.925,2.71-20.917,1.217-9.044,1.661-12.253c0,.038.1-.01.284-.143A1.063,1.063,0,0,1,648.389,189.6Zm1.5,15.883c-.23,1.826-.628,4.655-1.206,8.586s-.971,6.618-1.166,7.969c2.342-1.628,3.5-2.451,5.792-4.092C652.674,215.82,651.531,211.775,649.89,205.485Zm-2.265-15.538h0Z" transform="translate(-548.548 -189.602)" fill="#fff"/>
        <path id="Path_1351" data-name="Path 1351" d="M654.912,193.475c.072-.008.19.028.283.031.255.006.763-.1,1.347-.144s1.517-.084,2.788-.134a20.912,20.912,0,0,1,3.595.159,6.089,6.089,0,0,1,2.529.8,8.18,8.18,0,0,1,1.894,1.945,15.306,15.306,0,0,1,1.649,2.8,10.588,10.588,0,0,1,.859,2.873,3.4,3.4,0,0,1-.413,2.38.542.542,0,0,1-.124.17,2.741,2.741,0,0,0,.549.214c.582-.138,1.45.676,2.55,2.16a11.111,11.111,0,0,1,1.6,2.942,7.832,7.832,0,0,1,.406,3.39,11.389,11.389,0,0,1-.849,3.483,22.9,22.9,0,0,1-3.776,5.525,37.345,37.345,0,0,1-5.839,5.591c-1.942,1.442-3.243,2.011-3.836,1.826-.342-.079-.626-.528-.834-.69a1.526,1.526,0,0,1-.556-1.082,19.706,19.706,0,0,1,.034-2.934c.087-1.315.129-2.119.126-2.425.013-.892-.45-5.238-1.4-13.257a2.153,2.153,0,0,1-.7-1.625q-.045-1.058.327-1.36c-.505-4.292-.824-6.995-.954-8.055a.935.935,0,0,1-.637.137c-.2-.045-.436-.434-.685-1.192a8.173,8.173,0,0,1-.412-2.295C654.4,193.945,654.577,193.515,654.912,193.475Zm5.627,2.069a2.219,2.219,0,0,0-1.074.416,12.416,12.416,0,0,0-.963.8c.07.476.266,1.76.589,3.818s.572,3.721.756,5a18.1,18.1,0,0,0,2.286-.714,18.568,18.568,0,0,0,2.115-.985,5.339,5.339,0,0,0,1.607-1.241,1.659,1.659,0,0,0,.416-1.391,8.278,8.278,0,0,0-1.972-3.781,4.923,4.923,0,0,0-3.231-1.938A3.107,3.107,0,0,0,660.539,195.545Zm3.642,12.214c-1.55.4-2.96,1.146-3.674,1.3.211,1.415.813,6.154,1.782,13.963a26.907,26.907,0,0,0,2.6-1.93,28.37,28.37,0,0,0,2.366-2.271,10.126,10.126,0,0,0,1.778-2.5,3.3,3.3,0,0,0,.369-2.169,12.658,12.658,0,0,0-1.874-4.85A3.349,3.349,0,0,0,664.182,207.758Z" transform="translate(-545.007 -188.607)" fill="#fff"/>
        <path id="Path_1352" data-name="Path 1352" d="M672.5,191.625c.243.267.837,3.8,1.581,9.785s.953,8.8.833,9.315a20.153,20.153,0,0,1-1.451,3.363c-.822,1.658-1.338,2.5-1.557,2.438-.2-.06-.5-3.891-.925-11.686s-.633-12.01-.574-12.434c.088-.628.357-.987.8-1.086A1.583,1.583,0,0,1,672.5,191.625Z" transform="translate(-540.601 -189.137)" fill="#fff"/>
      </g>
    </g>
    <g id="Group_1038" data-name="Group 1038" transform="translate(563.829 124.706)">
      <g id="Group_1036" data-name="Group 1036">
        <circle id="Ellipse_159" data-name="Ellipse 159" cx="10.713" cy="10.713" r="10.713" transform="translate(25.949 62.206)" fill="#090a09"/>
        <g id="Group_1029" data-name="Group 1029" transform="translate(0 65.012)">
          <rect id="Rectangle_217" data-name="Rectangle 217" width="18.6" height="7.54" rx="2.955" transform="translate(18.6 7.54) rotate(-180)" fill="#090a0a"/>
          <rect id="Rectangle_218" data-name="Rectangle 218" width="12.795" height="4.241" rx="1.662" transform="translate(14.822 5.891) rotate(-180)" fill="#fe9f30"/>
          <rect id="Rectangle_219" data-name="Rectangle 219" width="11.876" height="4.241" rx="1.261" transform="translate(15.646 5.891) rotate(-180)" fill="#fff"/>
        </g>
        <path id="Rectangle_220" data-name="Rectangle 220" d="M0,0H5.166a2.46,2.46,0,0,1,2.46,2.46V18.269a2.7,2.7,0,0,1-2.7,2.7H0a0,0,0,0,1,0,0V0A0,0,0,0,1,0,0Z" transform="translate(148.772 43.901)" fill="#090a0a"/>
        <path id="Rectangle_221" data-name="Rectangle 221" d="M0,0H3.982A1.677,1.677,0,0,1,5.658,1.677v14.2a1.672,1.672,0,0,1-1.672,1.672H0a0,0,0,0,1,0,0V0A0,0,0,0,1,0,0Z" transform="translate(149.041 45.532)" fill="#ffb852"/>
        <rect id="Rectangle_222" data-name="Rectangle 222" width="6.394" height="8.696" transform="translate(148.305 50.507)" fill="#fba87e"/>
        <path id="Path_1353" data-name="Path 1353" d="M567.679,156.8c-.552,0-1.106,0-1.66,0a.28.28,0,0,1-.134-.022.266.266,0,0,1-.075-.07,6.459,6.459,0,0,1-1.456-2.688,3.662,3.662,0,0,1,.087-2,3.809,3.809,0,0,1,.873-1.359,5.949,5.949,0,0,1,.6-.545c.109-.087.221-.17.334-.251a.9.9,0,0,1,.313-.2.441.441,0,0,1,.124,0q1.01.069,2.022.134Z" transform="translate(-559.68 -110.019)" fill="#090a0a"/>
        <path id="Path_1354" data-name="Path 1354" d="M567.705,154.962c-.495,0-.99,0-1.485,0a.281.281,0,0,1-.1-.009c-.123-.04-.257-.253-.334-.352a2.616,2.616,0,0,1-.283-.443,2.369,2.369,0,0,1-.257-.99,3.146,3.146,0,0,1,.994-2.15.144.144,0,0,1,.05-.042.155.155,0,0,1,.065-.01c.686,0,1.393-.056,2.081,0C568.438,150.969,567.7,154.555,567.705,154.962Z" transform="translate(-559.407 -109.667)" fill="#fe9f30"/>
        <path id="Path_1355" data-name="Path 1355" d="M582.316,133.032a.657.657,0,0,1,.2-.02l5.552.008,4.122,0,5,.005,5.743.006,6.353.008,6.83.008,7.173.008,7.383.008,7.458.008,7.4.009,7.208.008,6.881.008,6.424.006,5.829.006,5.1.006,4.242,0,3.248,0a12.485,12.485,0,0,1,4.438.411c2.245.839,3.413,2.818,4.775,4.636q2.088,2.784,4.188,5.557,2.131,2.822,4.268,5.642l2.031,2.679,0,0,5.038,7.414s.759,2.286.508,7.414a51.256,51.256,0,0,1-.626,10.13c-.348,1.3-2.021,10.16-11.219,11.5l-7.553.2H668.74l-61.959.17H576.428s-8.027-.351-9.532-9.842a153.795,153.795,0,0,1,.111-17.642,46.817,46.817,0,0,1,1.032-7,6.352,6.352,0,0,0,.085-.887c.092-.788.218-1.573.372-2.352a33.338,33.338,0,0,1,.832-3.328,28.482,28.482,0,0,1,1.466-3.814,21.956,21.956,0,0,1,2.271-3.812,17.974,17.974,0,0,1,1.491-1.752,9.392,9.392,0,0,1,2.2-1.805c.943-.519,1.9-1.04,2.8-1.635s1.741-1.246,2.6-1.885a.607.607,0,0,1,.138-.084Z" transform="translate(-559.009 -114.611)" fill="#090a09"/>
        <path id="Path_1356" data-name="Path 1356" d="M569.622,148.111c.36.347.369,1.88.592,2.4a11.284,11.284,0,0,0,1.146,2.044,10.074,10.074,0,0,0,5.345,3.821,15.347,15.347,0,0,0,3.892.172c6.8.077,13.6-.005,20.392-.055,3.044-.015,6.09.006,9.134.006l8.342,0,3.04,0v18.149h-9.343l-20.531,0q-6.144,0-12.288-.005c-.81,0-1.618-.005-2.428-.025a16.649,16.649,0,0,1-2.524-.128,13.953,13.953,0,0,1-2.128-.546,8.464,8.464,0,0,1-2.538-1.393,6.333,6.333,0,0,1-1.092-1.117,3.7,3.7,0,0,1-.4-.678,1.783,1.783,0,0,1-.019-.759q.017-.649.024-1.3c.01-.866.01-1.732.01-2.6,0-.961,0-1.921.017-2.882.063-3.731.134-7.485.52-11.2A12.19,12.19,0,0,1,569.622,148.111Z" transform="translate(-558.599 -110.448)" fill="#349a73"/>
        <path id="Path_1357" data-name="Path 1357" d="M574.552,138.867a10.985,10.985,0,0,1,2.917-.06l3.481,0,6.963.005,13.926.009q9.539.006,19.081,0l.306,20.525c-6.9-.009-13.794,0-20.691-.01h-.94q-6.82-.008-13.64,0l-2.276.005c-2.73.008-5.716.314-8.343-.6-3-1.047-6.769-4.89-6.057-8.352.166-.806.4-1.6.629-2.392a30.131,30.131,0,0,1,3.108-7.752,3.985,3.985,0,0,1,.8-.992A2.018,2.018,0,0,1,574.552,138.867Z" transform="translate(-558.319 -113.033)" fill="#fff"/>
        <path id="Path_1358" data-name="Path 1358" d="M577.295,136.327l110.345.028a6.108,6.108,0,0,0-3.345-2.007c-.6.01-104.519.091-104.519.091A9.534,9.534,0,0,0,577.295,136.327Z" transform="translate(-556.085 -114.242)" fill="#fff"/>
        <path id="Path_1359" data-name="Path 1359" d="M574.324,138.129a13.245,13.245,0,0,1,2.146-1.449c.447-.2,1.644-.781,1.644-.781l110.345.028,1.755,2.2Z" transform="translate(-556.904 -113.815)" fill="#87888a"/>
        <path id="Path_1360" data-name="Path 1360" d="M580.864,155.744a2.962,2.962,0,0,1-1.52-.4c-1.273-.8-1-2.312-.654-3.539.528-1.887.919-3.823,1.379-5.728a9.605,9.605,0,0,1,.384-1.314,4.744,4.744,0,0,1,.94-1.471,4.4,4.4,0,0,1,2.012-1.234,15.363,15.363,0,0,1,3.981-.182l3.252-.005q3.982,0,7.963,0,3.837,0,7.672.011c1.046,0,2.093.013,3.141.005a8.454,8.454,0,0,1,2.717.184,2.853,2.853,0,0,1,1.807,1.563,4.461,4.461,0,0,1,.213,1.656l.014,6.659a4.969,4.969,0,0,1-.248,1.911,3.117,3.117,0,0,1-2.19,1.732,8.12,8.12,0,0,1-1.912.143q-4.061-.021-8.122-.024-4.03,0-8.061,0l-7.412,0-2.766,0c-.353,0-.707.005-1.06,0C581.9,155.715,581.376,155.76,580.864,155.744Z" transform="translate(-555.78 -112.177)" fill="#090a0a"/>
        <path id="Path_1361" data-name="Path 1361" d="M568.188,165.648c.473.494.746,1.2,1.26,1.671a8.611,8.611,0,0,0,3.845,2.082,22.169,22.169,0,0,0,4.958.27c1.823-.02,3.644.006,5.469.005l3.916-.005h.011l17.735.006h16.149v8.453H578.787a19.145,19.145,0,0,1-3.012-.06,7.747,7.747,0,0,1-2.692-.995,9.983,9.983,0,0,1-3.843-4.05,13.413,13.413,0,0,1-1.091-7.154A1.2,1.2,0,0,1,568.188,165.648Z" transform="translate(-558.626 -105.613)" fill="#297b59"/>
        <path id="Path_1362" data-name="Path 1362" d="M580.518,153.774s-1.226.139-.781-1.282c.139-.7,1.729-7.443,1.729-7.443a2.263,2.263,0,0,1,.161-.366,2.793,2.793,0,0,1,2.432-1.528c1.449.028,26.115,0,26.115,0a1.725,1.725,0,0,1,1.952,2.062c-.028,2.008.009,7.414.009,7.414a1.371,1.371,0,0,1-1.319,1.147C609.561,153.969,580.518,153.774,580.518,153.774Z" transform="translate(-555.439 -111.817)" fill="#349a73"/>
        <path id="Path_1363" data-name="Path 1363" d="M589.569,144.664l.608-1.518h-6.62a2.957,2.957,0,0,0-2.367,1.544C587.024,144.664,589.569,144.664,589.569,144.664Z" transform="translate(-555.011 -111.817)" fill="#257654"/>
        <path id="Path_1364" data-name="Path 1364" d="M581.832,144.322h26.352a2.524,2.524,0,0,1,2.286,2.7c.028,1.869.008,6.482.008,6.482H580.731s-1.237.255-1.009-1.217C580.145,150.874,581.832,144.322,581.832,144.322Z" transform="translate(-555.424 -111.492)" fill="#3fae7f"/>
        <path id="Path_1365" data-name="Path 1365" d="M649.012,145.4c4.23,0,8.454.006,12.684-.036a8.843,8.843,0,0,1,1.865.115c1.517.31,2.286,1.729,3.18,2.867q1.289,1.628,2.565,3.266c.4.515.791,1.056,1.206,1.56a5.432,5.432,0,0,1,.964,1.416,11.935,11.935,0,0,0-1.671,0h-5.223q-6.632,0-13.266.009a2.71,2.71,0,0,1-1.895-.476,2.216,2.216,0,0,1-.562-1.651c.005-2.34.027-4.684.027-7.028A.17.17,0,0,1,649.012,145.4Z" transform="translate(-536.354 -111.206)" fill="#014666"/>
        <path id="Path_1366" data-name="Path 1366" d="M590.026,144.324c-1.162,3.027-2.359,6.157-3.524,9.184-1.744-.024-3.415,0-5.159,0a6.809,6.809,0,0,1-1.332-.031.606.606,0,0,1-.4-.861c.046-.19.091-.38.137-.57.079-.336.159-.672.239-1.008l.306-1.291c.111-.472.223-.943.334-1.415s.219-.924.327-1.384l.283-1.2.2-.851a3.759,3.759,0,0,1,.161-.512.147.147,0,0,1,.032-.054c.043-.039.114-.011.166-.01H582l.388,0,1.037.008c2.049,0,4.138-.032,6.188-.014C589.751,144.325,589.886,144.323,590.026,144.324Z" transform="translate(-555.464 -111.495)" fill="#349a73"/>
        <rect id="Rectangle_223" data-name="Rectangle 223" width="135.833" height="2.174" rx="0.852" transform="translate(14.786 81.856)" fill="#090a09"/>
        <rect id="Rectangle_224" data-name="Rectangle 224" width="40.094" height="20.486" transform="translate(63.952 25.791)" fill="#fff"/>
        <rect id="Rectangle_225" data-name="Rectangle 225" width="40.094" height="17.922" transform="translate(63.952 46.277)" fill="#349a73"/>
        <path id="Path_1367" data-name="Path 1367" d="M655.555,177.207l-44.755.122v-8.417h40.094Z" transform="translate(-546.848 -104.713)" fill="#297b59"/>
        <path id="Path_1368" data-name="Path 1368" d="M591.35,144.641l.7-1.479h1.276l-.668,1.48Z" transform="translate(-552.21 -111.812)" fill="#257654"/>
        <path id="Path_1369" data-name="Path 1369" d="M592.906,144.642l.556-1.481h1.062l-.6,1.481Z" transform="translate(-551.781 -111.813)" fill="#257654"/>
        <path id="Path_1370" data-name="Path 1370" d="M590.022,153.523l3.679-9.2h1.018l-3.721,9.2Z" transform="translate(-552.576 -111.493)" fill="#349a73"/>
        <path id="Path_1371" data-name="Path 1371" d="M588.635,153.506l3.464-9.184h1.308l-3.616,9.183Z" transform="translate(-552.959 -111.493)" fill="#349a73"/>
        <g id="Group_1030" data-name="Group 1030" transform="translate(72.496 29.663)">
          <path id="Path_1372" data-name="Path 1372" d="M619.959,155.744a2.962,2.962,0,0,1-1.519-.4c-1.274-.8-1-2.312-.655-3.539.527-1.887.92-3.823,1.379-5.728a9.37,9.37,0,0,1,.384-1.314,4.732,4.732,0,0,1,.939-1.471,4.406,4.406,0,0,1,2.013-1.234,15.361,15.361,0,0,1,3.981-.182l3.252-.005q3.98,0,7.963,0c2.556,0-7.643.006-5.086.011,1.047,0,2.095.013,3.142.005a8.454,8.454,0,0,1,2.717.184,2.847,2.847,0,0,1,1.806,1.563,4.465,4.465,0,0,1,.213,1.656l.014,6.659a4.987,4.987,0,0,1-.246,1.911,3.116,3.116,0,0,1-2.19,1.732,8.133,8.133,0,0,1-1.913.143q-4.061-.021-8.121-.024c-2.687,0,7.384,0,4.7,0l-7.413,0-2.765,0c-.353,0-.708.005-1.06,0C620.994,155.715,620.471,155.76,619.959,155.744Z" transform="translate(-617.497 -141.84)" fill="#090a0a"/>
          <path id="Path_1373" data-name="Path 1373" d="M619.613,153.774s-1.226.139-.78-1.282c.139-.7,1.727-7.443,1.727-7.443a2.441,2.441,0,0,1,.161-.366,2.8,2.8,0,0,1,2.431-1.528c1.449.028,13.36,0,13.36,0a1.724,1.724,0,0,1,1.95,2.062c-.028,2.008.01,7.414.01,7.414a1.373,1.373,0,0,1-1.32,1.147C635.9,153.969,619.613,153.774,619.613,153.774Z" transform="translate(-617.156 -141.48)" fill="#349a73"/>
          <path id="Path_1374" data-name="Path 1374" d="M628.665,144.664l.607-1.518h-6.621a2.957,2.957,0,0,0-2.367,1.544C626.119,144.664,628.665,144.664,628.665,144.664Z" transform="translate(-616.728 -141.48)" fill="#257654"/>
          <path id="Path_1375" data-name="Path 1375" d="M620.928,144.322h13.6a2.523,2.523,0,0,1,2.285,2.7c.028,1.869.009,6.482.009,6.482h-16.99s-1.237.255-1.009-1.217C619.242,150.874,620.928,144.322,620.928,144.322Z" transform="translate(-617.141 -141.156)" fill="#3fae7f"/>
          <path id="Path_1376" data-name="Path 1376" d="M629.121,144.324c-1.161,3.027-2.359,6.157-3.524,9.184-1.742-.024-3.414,0-5.158,0a6.82,6.82,0,0,1-1.333-.031.606.606,0,0,1-.4-.861c.047-.19.092-.38.136-.57.081-.336.16-.672.24-1.008q.153-.645.3-1.291.168-.708.335-1.415t.327-1.384l.282-1.2.2-.851a3.534,3.534,0,0,1,.161-.512.145.145,0,0,1,.031-.054c.045-.039.115-.011.167-.01h.207l.388,0,1.036.008c2.05,0,4.14-.032,6.189-.014C628.847,144.325,628.982,144.323,629.121,144.324Z" transform="translate(-617.18 -141.158)" fill="#349a73"/>
          <path id="Path_1377" data-name="Path 1377" d="M630.446,144.641l.7-1.479h1.276l-.668,1.48Z" transform="translate(-613.927 -141.476)" fill="#257654"/>
          <path id="Path_1378" data-name="Path 1378" d="M632,144.642l.556-1.481h1.062l-.6,1.481Z" transform="translate(-613.498 -141.476)" fill="#257654"/>
          <path id="Path_1379" data-name="Path 1379" d="M629.117,153.523l3.679-9.2h1.017l-3.721,9.2Z" transform="translate(-614.293 -141.156)" fill="#349a73"/>
          <path id="Path_1380" data-name="Path 1380" d="M627.73,153.506l3.464-9.184H632.5l-3.616,9.183Z" transform="translate(-614.676 -141.156)" fill="#349a73"/>
        </g>
        <path id="Path_1381" data-name="Path 1381" d="M643.965,172.965s13.085,0,14.033,0q5.155,0,10.31,0a32.263,32.263,0,0,0,8.038-.554c5.311-1.369,8.822-6.458,9.682-11.668.01-.064.021-.126.031-.19a28.426,28.426,0,0,0,.275-3.034,20.34,20.34,0,0,0,.06-3.307,63.79,63.79,0,0,1,.384,9.156,39.387,39.387,0,0,1-.754,8.651,12.222,12.222,0,0,1-1.921,3.675,13.172,13.172,0,0,1-3.34,3.3,17.034,17.034,0,0,1-4.054,1.877c-1.4.5-3.267.3-4.753.341-3.465.087-6.93.038-10.395,0q-1.351-.013-2.7-.023c-4.965-.031-9.931.026-14.893.026Z" transform="translate(-537.703 -108.766)" fill="#297b59"/>
        <path id="Path_1382" data-name="Path 1382" d="M643.517,138.805h28.763s12.284,17.251,12.3,17.272c.5.689-2.779,2.133-3.2,2.3-3.015,1.189-6.2.945-9.366.987-3.463.045-6.927.022-10.391,0q-2.547-.015-5.093-.019H643.962Z" transform="translate(-537.827 -113.014)" fill="#fff"/>
        <path id="Path_1383" data-name="Path 1383" d="M643.866,155.614c0,.017,16.761,0,18.264,0l13.46,0c3.018,0,6.923-.745,8.892-3.273a24.244,24.244,0,0,1,1.906,2.5c.235.313.079,1.449.079,1.81.013,4.868-1.37,10.222-5.141,13.545a14.658,14.658,0,0,1-10.2,3.354q-5.217-.052-10.433-.07c-5-.018-10.006,0-15.009,0-.094,0-1.7,0-1.7,0Z" transform="translate(-537.731 -109.281)" fill="#349a73"/>
        <path id="Path_1384" data-name="Path 1384" d="M645.745,178.893l1.449-7.05s1.548-4.6,5.067-5.214c.564-.336,3.9-1.282,10.426-.39a9.092,9.092,0,0,1,5.69,4.794c.223.725,1.393,7.073,1.338,7.633S645.745,178.893,645.745,178.893Z" transform="translate(-537.213 -105.552)" fill="#0d0e0d"/>
        <circle id="Ellipse_160" data-name="Ellipse 160" cx="10.713" cy="10.713" r="10.713" transform="translate(109.453 62.401)" fill="#090a09"/>
        <circle id="Ellipse_161" data-name="Ellipse 161" cx="8.57" cy="8.57" r="8.57" transform="translate(111.596 64.423)" fill="#e58d3b"/>
        <circle id="Ellipse_162" data-name="Ellipse 162" cx="6.668" cy="6.668" r="6.668" transform="translate(113.581 66.446)" fill="#090a09"/>
        <path id="Path_1385" data-name="Path 1385" d="M660.43,173.74a4.632,4.632,0,0,1,.124,1.061,4.857,4.857,0,0,1-4.941,4.769,4.918,4.918,0,0,1-4.755-3.472c-.017.166-.025.336-.025.506a5.226,5.226,0,1,0,9.6-2.864Z" transform="translate(-535.81 -103.382)" fill="#ff9f30"/>
        <path id="Path_1386" data-name="Path 1386" d="M655.608,180.081a4.857,4.857,0,0,0,4.941-4.769,4.618,4.618,0,0,0-.124-1.061,5.225,5.225,0,0,0-9.572,2.358A4.918,4.918,0,0,0,655.608,180.081Z" transform="translate(-535.804 -103.892)" fill="#ffb852"/>
        <path id="Path_1387" data-name="Path 1387" d="M578.946,177.844s-.293-7.532,6.731-9c1.213-.134,14.507,0,14.507,0s6.4.378,6.773,8.809C603.653,177.821,578.946,177.844,578.946,177.844Z" transform="translate(-555.631 -104.747)" fill="#0d0e0d"/>
        <circle id="Ellipse_163" data-name="Ellipse 163" cx="8.466" cy="8.466" r="8.466" transform="translate(28.196 64.631)" fill="#e58d3b"/>
        <circle id="Ellipse_164" data-name="Ellipse 164" cx="6.668" cy="6.668" r="6.668" transform="translate(30.046 66.568)" fill="#090a09"/>
        <path id="Path_1388" data-name="Path 1388" d="M594.688,173.456a4.615,4.615,0,0,1,.394,1.87,4.858,4.858,0,0,1-4.941,4.769,4.925,4.925,0,0,1-4.722-3.363v.033a5.226,5.226,0,1,0,9.271-3.309Z" transform="translate(-553.846 -103.46)" fill="#ff9f30"/>
        <path id="Path_1389" data-name="Path 1389" d="M590.141,180.509a4.858,4.858,0,0,0,4.941-4.769,4.612,4.612,0,0,0-.394-1.87,5.226,5.226,0,0,0-9.27,3.276A4.925,4.925,0,0,0,590.141,180.509Z" transform="translate(-553.846 -103.874)" fill="#ffb852"/>
        <rect id="Rectangle_226" data-name="Rectangle 226" width="14.089" height="2.506" transform="translate(30.046 64.062)" fill="#090a09"/>
        <path id="Path_1390" data-name="Path 1390" d="M641.77,138.805h3.309l.28,20.538-4.027-.052" transform="translate(-538.43 -113.013)" fill="#fff"/>
        <path id="Path_1391" data-name="Path 1391" d="M642.145,154.864l3.31.055.276,17.873-4.025-.007" transform="translate(-538.326 -108.586)" fill="#349a73"/>
        <path id="Path_1392" data-name="Path 1392" d="M642.04,168.911l3.339.011.173,8.232-3.94.068" transform="translate(-538.353 -104.713)" fill="#297b59"/>
        <path id="Path_1393" data-name="Path 1393" d="M610,154.864l3.31.055.276,17.873-4.025-.007" transform="translate(-547.19 -108.586)" fill="#349a73"/>
        <path id="Path_1394" data-name="Path 1394" d="M609.891,168.911l3.339.011.173,8.232-3.939.068" transform="translate(-547.216 -104.713)" fill="#297b59"/>
        <path id="Path_1395" data-name="Path 1395" d="M609.617,138.805h3.309l.318,20.486-4.052.038" transform="translate(-547.291 -113.013)" fill="#fff"/>
        <rect id="Rectangle_227" data-name="Rectangle 227" width="1.561" height="49.656" transform="translate(66.455 24.751) rotate(13.265)" fill="#090a09"/>
        <rect id="Rectangle_228" data-name="Rectangle 228" width="1.561" height="49.656" transform="translate(107.839 24.751) rotate(13.265)" fill="#090a09"/>
        <line id="Line_4" data-name="Line 4" x1="5.143" transform="translate(150.014 54.739)" fill="none" stroke="#090a09" stroke-miterlimit="10" stroke-width="1.5"/>
        <line id="Line_5" data-name="Line 5" x1="3.588" y2="12.962" transform="translate(39.794 30.251)" fill="none" stroke="#090a09" stroke-miterlimit="10" stroke-width="1.5"/>
        <g id="Group_1031" data-name="Group 1031" transform="translate(112.312 29.663)">
          <path id="Path_1396" data-name="Path 1396" d="M669.251,155.744a2.959,2.959,0,0,0,1.519-.4c1.275-.8,1-2.312.655-3.539-.527-1.887-.92-3.823-1.379-5.728a9.371,9.371,0,0,0-.384-1.314,4.731,4.731,0,0,0-.939-1.471,4.408,4.408,0,0,0-2.013-1.234,15.36,15.36,0,0,0-3.981-.182l-3.252-.005q-3.981,0-7.963,0c-2.557,0,7.643.006,5.086.011-1.047,0-2.095.013-3.141.005a8.461,8.461,0,0,0-2.719.184,2.847,2.847,0,0,0-1.805,1.563,4.461,4.461,0,0,0-.213,1.656l-.014,6.659a4.982,4.982,0,0,0,.246,1.911,3.117,3.117,0,0,0,2.19,1.732,8.134,8.134,0,0,0,1.914.143q4.061-.021,8.121-.024c2.687,0-7.384,0-4.7,0l7.413,0,2.764,0c.354,0,.708.005,1.06,0C668.216,155.715,668.739,155.76,669.251,155.744Z" transform="translate(-648.708 -141.84)" fill="#090a0a"/>
          <path id="Path_1397" data-name="Path 1397" d="M650.031,152.631a1.374,1.374,0,0,0,1.321,1.147c1.254.191,17.54,0,17.54,0s1.226.139.78-1.282c-.139-.7-1.727-7.443-1.727-7.443a2.462,2.462,0,0,0-.161-.366,2.8,2.8,0,0,0-2.431-1.528c-1.449.028-13.36,0-13.36,0a1.724,1.724,0,0,0-1.95,2.062c.028,2.008-.01,7.414-.01,7.414" transform="translate(-648.343 -141.48)" fill="#349a73"/>
          <path id="Path_1398" data-name="Path 1398" d="M657.515,144.664l-.607-1.518h6.621a2.954,2.954,0,0,1,2.366,1.544C660.062,144.664,657.515,144.664,657.515,144.664Z" transform="translate(-646.447 -141.48)" fill="#257654"/>
          <path id="Path_1399" data-name="Path 1399" d="M667.209,144.322h-13.6a2.523,2.523,0,0,0-2.284,2.7c-.028,1.869-.009,6.482-.009,6.482h16.991s1.237.255,1.008-1.217C668.894,150.874,667.209,144.322,667.209,144.322Z" transform="translate(-647.99 -141.156)" fill="#3fae7f"/>
          <path id="Path_1400" data-name="Path 1400" d="M657.381,144.324c1.161,3.027,2.359,6.157,3.524,9.184,1.742-.024,3.414,0,5.158,0a6.82,6.82,0,0,0,1.333-.031.606.606,0,0,0,.4-.861c-.046-.19-.092-.38-.136-.57-.081-.336-.16-.672-.24-1.008-.1-.43-.2-.861-.305-1.291l-.335-1.415q-.163-.693-.327-1.384l-.282-1.2-.2-.851a3.564,3.564,0,0,0-.161-.512.145.145,0,0,0-.031-.054c-.045-.039-.115-.011-.167-.01h-.207l-.388,0-1.036.008c-2.051,0-4.14-.032-6.189-.014C657.657,144.325,657.52,144.323,657.381,144.324Z" transform="translate(-646.317 -141.158)" fill="#349a73"/>
          <path id="Path_1401" data-name="Path 1401" d="M654.219,144.641l-.7-1.479h-1.276l.668,1.48Z" transform="translate(-647.733 -141.476)" fill="#257654"/>
          <path id="Path_1402" data-name="Path 1402" d="M652.587,144.642l-.556-1.481h-1.062l.6,1.481Z" transform="translate(-648.085 -141.476)" fill="#257654"/>
          <path id="Path_1403" data-name="Path 1403" d="M656.136,153.523l-3.679-9.2h-1.017l3.721,9.2Z" transform="translate(-647.955 -141.156)" fill="#349a73"/>
          <path id="Path_1404" data-name="Path 1404" d="M657.54,153.506l-3.464-9.184h-1.308l3.616,9.183Z" transform="translate(-647.589 -141.156)" fill="#349a73"/>
        </g>
        <g id="Group_1032" data-name="Group 1032" transform="translate(56.136 13.621)">
          <path id="Path_1405" data-name="Path 1405" d="M616.041,135.749H604.673v-3.243a3.246,3.246,0,0,1,3.243-3.242H612.8a3.247,3.247,0,0,1,3.243,3.242Zm-9.537-1.831h7.705v-1.412A1.412,1.412,0,0,0,612.8,131.1h-4.882a1.413,1.413,0,0,0-1.412,1.411Z" transform="translate(-604.673 -129.265)" fill="#1a1718"/>
        </g>
        <g id="Group_1033" data-name="Group 1033" transform="translate(92.756 13.621)">
          <path id="Path_1406" data-name="Path 1406" d="M644.746,135.749H633.378v-3.243a3.246,3.246,0,0,1,3.243-3.242H641.5a3.246,3.246,0,0,1,3.243,3.242Zm-9.537-1.831h7.705v-1.412A1.412,1.412,0,0,0,641.5,131.1h-4.882a1.413,1.413,0,0,0-1.412,1.411Z" transform="translate(-633.378 -129.265)" fill="#1a1718"/>
        </g>
        <g id="Group_1034" data-name="Group 1034" transform="translate(32.01)">
          <path id="Path_1407" data-name="Path 1407" d="M585.761,126.475l88.889,1.81s-15.6-4.887-45.532-5.5c-23.153-.472-38.5,1.1-43.326,2.244Z" transform="translate(-585.761 -117.453)" fill="#349a73"/>
          <path id="Path_1408" data-name="Path 1408" d="M587.728,125.7l7.144-.99s-5.323-6.917-7.269-6.047l.63,1.181a5.4,5.4,0,0,1-.505,5.855Z" transform="translate(-585.253 -118.588)" fill="#349a73"/>
          <path id="Path_1409" data-name="Path 1409" d="M585.761,126.5l88.888,1.81s-15.6-4.887-45.531-5.5c-23.153-.471-38.5,1.1-43.327,2.245Z" transform="translate(-585.761 -117.446)" fill="none" stroke="#090a09" stroke-linecap="round" stroke-linejoin="round" stroke-width="1.2"/>
          <path id="Path_1410" data-name="Path 1410" d="M587.728,125.725l7.143-.99s-5.321-6.918-7.269-6.048l.63,1.181a5.4,5.4,0,0,1-.5,5.857Z" transform="translate(-585.253 -118.581)" fill="none" stroke="#090a09" stroke-linecap="round" stroke-linejoin="round" stroke-width="1.2"/>
        </g>
        <g id="Group_1035" data-name="Group 1035" transform="translate(30.921 4.041)">
          <path id="Path_1411" data-name="Path 1411" d="M584.907,129.858h88.906s-15.7-4.57-45.635-4.57c-23.158,0-38.47,1.888-43.272,3.127Z" transform="translate(-584.907 -120.781)" fill="#ffb852"/>
          <path id="Path_1412" data-name="Path 1412" d="M586.874,128.872,594,127.737s-5.461-6.808-7.391-5.9l.654,1.167a5.4,5.4,0,0,1-.385,5.866Z" transform="translate(-584.439 -121.755)" fill="#ffb852"/>
          <path id="Path_1413" data-name="Path 1413" d="M584.907,129.882h88.906s-15.7-4.57-45.635-4.57c-23.158,0-38.47,1.888-43.272,3.127Z" transform="translate(-584.907 -120.775)" fill="none" stroke="#090a09" stroke-linecap="round" stroke-linejoin="round" stroke-width="1.2"/>
          <path id="Path_1414" data-name="Path 1414" d="M586.874,128.9,594,127.761s-5.461-6.807-7.391-5.9l.654,1.167a5.4,5.4,0,0,1-.385,5.866Z" transform="translate(-584.439 -121.749)" fill="none" stroke="#090a09" stroke-linecap="round" stroke-linejoin="round" stroke-width="1.2"/>
        </g>
      </g>
      <g id="Group_1037" data-name="Group 1037" transform="translate(48.057 25.941)">
        <path id="Path_1415" data-name="Path 1415" d="M601.8,197.406l-1.076-2.063-2.324-.106c.13-.49.264-.976.4-1.457,14.3-51.967,37.913-54.858,37.913-54.858a7.64,7.64,0,0,1,.194.81C637.746,144.1,639.555,165.834,601.8,197.406Z" transform="translate(-598.324 -138.922)" fill="#ffb852"/>
        <path id="Path_1416" data-name="Path 1416" d="M601.8,197.231l-1.076-2.063-2.324-.106c.13-.49.264-.976.4-1.457,5.542-3,13.837-9.531,23.476-23.71,9.021-13.272,12.947-23.5,14.631-30.338C637.746,143.924,639.555,165.659,601.8,197.231Z" transform="translate(-598.324 -138.747)" fill="#ff9f30"/>
        <path id="Path_1417" data-name="Path 1417" d="M636.725,138.922s-24.065,2.97-38.385,56.434l2.324.1,1.074,2.065C644.179,161.995,636.725,138.922,636.725,138.922Z" transform="translate(-598.34 -138.922)" fill="none" stroke="#1a1718" stroke-miterlimit="10" stroke-width="1.3"/>
      </g>
    </g>
  </g>
</svg>
